M48
; DRILL file {KiCad 7.0.8-7.0.8~ubuntu22.04.1} date Fri 17 Nov 2023 20:39:11 GMT
; FORMAT={-:-/ absolute / inch / decimal}
; #@! TF.CreationDate,2023-11-17T20:39:11+00:00
; #@! TF.GenerationSoftware,Kicad,Pcbnew,7.0.8-7.0.8~ubuntu22.04.1
; #@! TF.FileFunction,Plated,1,4,PTH
FMAT,2
INCH
; #@! TA.AperFunction,Plated,PTH,ViaDrill
T1C0.0157
; #@! TA.AperFunction,Plated,PTH,ComponentDrill
T2C0.0374
; #@! TA.AperFunction,Plated,PTH,ComponentDrill
T3C0.0394
; #@! TA.AperFunction,Plated,PTH,ComponentDrill
T4C0.2402
%
G90
G05
T1
X5.75Y-3.2
X5.975Y-3.35
X6.025Y-3.2
X6.25Y-3.35
X6.275Y-3.2
X6.5Y-3.35
X6.525Y-3.2
X6.75Y-3.35
X6.775Y-3.2
X6.9954Y-3.3488
T2
X7.25Y-3.1016
X7.25Y-3.2
X7.25Y-3.2984
X7.7Y-2.1016
X7.7Y-2.2
X7.7Y-2.2984
X7.7Y-2.5516
X7.7Y-2.65
X7.7Y-2.7484
X7.7Y-2.8469
X7.7Y-3.1016
X7.7Y-3.2
X7.7Y-3.2984
T3
X4.7562Y-2.3956
X4.7562Y-2.8956
X4.7639Y-2.2206
X4.8Y-3.25
X4.8562Y-2.3956
X4.8562Y-2.8956
X4.8639Y-2.2206
X4.8984Y-3.25
X4.9562Y-2.3956
X4.9562Y-2.8956
X4.9639Y-2.2206
X5.0562Y-2.3956
X5.0562Y-2.8956
X5.0639Y-2.2206
X5.1562Y-2.3956
X5.1562Y-2.8956
X5.1639Y-2.2206
X5.2016Y-3.25
X5.2562Y-2.3956
X5.2562Y-2.8956
X5.3Y-3.25
X5.4Y-2.0
X5.4Y-2.1
X5.4856Y-2.35
X5.4856Y-2.45
X5.4856Y-2.55
X5.4856Y-2.65
X5.4856Y-2.75
X5.4856Y-2.85
X5.5Y-2.0
X5.5Y-2.1
X5.55Y-3.15
X5.55Y-3.25
X5.55Y-3.35
X5.6Y-2.0
X5.6Y-2.1
X5.7Y-2.0
X5.7Y-2.1
X5.8Y-2.0
X5.8Y-2.1
X5.9Y-2.0
X5.9Y-2.1
X5.9606Y-2.35
X5.9606Y-2.45
X5.9606Y-2.55
X5.9606Y-2.65
X5.9606Y-2.75
X5.9606Y-2.85
X6.0Y-2.0
X6.0Y-2.1
X6.1Y-2.0
X6.1Y-2.1
X6.15Y-2.3
X6.15Y-2.4
X6.15Y-2.5
X6.15Y-2.6
X6.15Y-2.7
X6.15Y-2.8
X6.15Y-2.9
X6.2Y-2.0
X6.2Y-2.1
X6.3Y-2.0
X6.3Y-2.1
X6.4Y-2.0
X6.4Y-2.1
X6.5Y-2.0
X6.5Y-2.1
X6.55Y-3.05
X6.6Y-2.0
X6.6Y-2.1
X6.65Y-3.05
X6.7Y-2.0
X6.7Y-2.1
X6.75Y-3.05
X6.8Y-2.0
X6.8Y-2.1
X6.85Y-3.05
X6.9Y-2.0
X6.9Y-2.1
X6.95Y-3.05
X7.0Y-2.0
X7.0Y-2.1
X7.1Y-2.0
X7.1Y-2.1
X7.15Y-2.4004
X7.15Y-2.6996
X7.2Y-2.0
X7.2Y-2.1
X7.3Y-2.0
X7.3Y-2.1
T4
X6.625Y-2.6
T0
M30
