%TF.GenerationSoftware,KiCad,Pcbnew,7.0.8-7.0.8~ubuntu22.04.1*%
%TF.CreationDate,2023-11-17T20:39:09+00:00*%
%TF.ProjectId,v4head,76346865-6164-42e6-9b69-6361645f7063,rev?*%
%TF.SameCoordinates,Original*%
%TF.FileFunction,Copper,L4,Bot*%
%TF.FilePolarity,Positive*%
%FSLAX46Y46*%
G04 Gerber Fmt 4.6, Leading zero omitted, Abs format (unit mm)*
G04 Created by KiCad (PCBNEW 7.0.8-7.0.8~ubuntu22.04.1) date 2023-11-17 20:39:09*
%MOMM*%
%LPD*%
G01*
G04 APERTURE LIST*
G04 Aperture macros list*
%AMRoundRect*
0 Rectangle with rounded corners*
0 $1 Rounding radius*
0 $2 $3 $4 $5 $6 $7 $8 $9 X,Y pos of 4 corners*
0 Add a 4 corners polygon primitive as box body*
4,1,4,$2,$3,$4,$5,$6,$7,$8,$9,$2,$3,0*
0 Add four circle primitives for the rounded corners*
1,1,$1+$1,$2,$3*
1,1,$1+$1,$4,$5*
1,1,$1+$1,$6,$7*
1,1,$1+$1,$8,$9*
0 Add four rect primitives between the rounded corners*
20,1,$1+$1,$2,$3,$4,$5,0*
20,1,$1+$1,$4,$5,$6,$7,0*
20,1,$1+$1,$6,$7,$8,$9,0*
20,1,$1+$1,$8,$9,$2,$3,0*%
G04 Aperture macros list end*
%TA.AperFunction,ComponentPad*%
%ADD10C,1.700000*%
%TD*%
%TA.AperFunction,ComponentPad*%
%ADD11RoundRect,0.250000X-0.725000X0.600000X-0.725000X-0.600000X0.725000X-0.600000X0.725000X0.600000X0*%
%TD*%
%TA.AperFunction,ComponentPad*%
%ADD12O,1.950000X1.700000*%
%TD*%
%TA.AperFunction,ComponentPad*%
%ADD13R,1.700000X1.700000*%
%TD*%
%TA.AperFunction,ComponentPad*%
%ADD14O,1.700000X1.700000*%
%TD*%
%TA.AperFunction,ComponentPad*%
%ADD15R,2.000000X2.000000*%
%TD*%
%TA.AperFunction,ComponentPad*%
%ADD16C,2.000000*%
%TD*%
%TA.AperFunction,ComponentPad*%
%ADD17RoundRect,0.250000X0.600000X0.750000X-0.600000X0.750000X-0.600000X-0.750000X0.600000X-0.750000X0*%
%TD*%
%TA.AperFunction,ComponentPad*%
%ADD18O,1.700000X2.000000*%
%TD*%
%TA.AperFunction,ComponentPad*%
%ADD19C,10.160000*%
%TD*%
%TA.AperFunction,ViaPad*%
%ADD20C,0.800000*%
%TD*%
%TA.AperFunction,Conductor*%
%ADD21C,0.250000*%
%TD*%
%TA.AperFunction,Conductor*%
%ADD22C,0.500000*%
%TD*%
G04 APERTURE END LIST*
D10*
%TO.P,LLC1,1,HV*%
%TO.N,+5V*%
X128427500Y-73547500D03*
%TO.P,LLC1,2,GND*%
%TO.N,GND*%
X125887500Y-73547500D03*
%TO.P,LLC1,3,HV1*%
%TO.N,Net-(5V_EXT1-Pin_1)*%
X133507500Y-73547500D03*
%TO.P,LLC1,4,HV2*%
%TO.N,Net-(LLC1-HV2)*%
X130967500Y-73547500D03*
%TO.P,LLC1,5,HV3*%
%TO.N,Net-(LLC1-HV3)*%
X123347500Y-73547500D03*
%TO.P,LLC1,6,HV4*%
%TO.N,Net-(LLC1-HV4)*%
X120807500Y-73547500D03*
%TO.P,LLC1,7,LV*%
%TO.N,+3V3*%
X128427500Y-60847500D03*
%TO.P,LLC1,8,GND*%
%TO.N,GND*%
X125887500Y-60847500D03*
%TO.P,LLC1,9,LV1*%
%TO.N,Net-(LLC1-LV1)*%
X133507500Y-60847500D03*
%TO.P,LLC1,10,LV2*%
%TO.N,Net-(LLC1-LV2)*%
X130967500Y-60847500D03*
%TO.P,LLC1,11,LV3*%
%TO.N,Net-(LLC1-LV3)*%
X123347500Y-60847500D03*
%TO.P,LLC1,12,LV4*%
%TO.N,Net-(LLC1-LV4)*%
X120807500Y-60847500D03*
%TD*%
%TO.P,RCWL-516,1,CDS*%
%TO.N,unconnected-(RCWL-516-CDS-Pad1)*%
X131162500Y-56402500D03*
%TO.P,RCWL-516,2,VCC*%
%TO.N,+5V*%
X128622500Y-56402500D03*
%TO.P,RCWL-516,3,OUT*%
%TO.N,Net-(PI1-GPIO26)*%
X126082500Y-56402500D03*
%TO.P,RCWL-516,4,GND*%
%TO.N,GND*%
X123542500Y-56402500D03*
%TO.P,RCWL-516,5,3V3_OUT*%
%TO.N,unconnected-(RCWL-516-3V3_OUT-Pad5)*%
X121002500Y-56402500D03*
%TD*%
%TO.P,AMP1,1,5v*%
%TO.N,+5V*%
X156210000Y-73660000D03*
%TO.P,AMP1,2,Gnd*%
%TO.N,GND*%
X156210000Y-71120000D03*
%TO.P,AMP1,3,SD*%
%TO.N,unconnected-(AMP1-SD-Pad3)*%
X156210000Y-68580000D03*
%TO.P,AMP1,4,Gain*%
%TO.N,unconnected-(AMP1-Gain-Pad4)*%
X156210000Y-66040000D03*
%TO.P,AMP1,5,DIN*%
%TO.N,Net-(AMP1-DIN)*%
X156210000Y-63500000D03*
%TO.P,AMP1,6,BCLK*%
%TO.N,Net-(AMP1-BCLK)*%
X156210000Y-60960000D03*
%TO.P,AMP1,7,LRCLK*%
%TO.N,Net-(AMP1-LRCLK)*%
X156210000Y-58420000D03*
%TD*%
D11*
%TO.P,5V_EXT1,1,Pin_1*%
%TO.N,Net-(5V_EXT1-Pin_1)*%
X195580000Y-78780000D03*
D12*
%TO.P,5V_EXT1,2,Pin_2*%
%TO.N,+5V*%
X195580000Y-81280000D03*
%TO.P,5V_EXT1,3,Pin_3*%
%TO.N,GND*%
X195580000Y-83780000D03*
%TD*%
D13*
%TO.P,PI1,1,3V3*%
%TO.N,+3V3*%
X185420000Y-50800000D03*
D14*
%TO.P,PI1,2,5V*%
%TO.N,+5V*%
X185420000Y-53340000D03*
%TO.P,PI1,3,SDA/GPIO2*%
%TO.N,Net-(I2C_EXT1-Pin_3)*%
X182880000Y-50800000D03*
%TO.P,PI1,4,5V*%
%TO.N,+5V*%
X182880000Y-53340000D03*
%TO.P,PI1,5,SCL/GPIO3*%
%TO.N,Net-(I2C_EXT1-Pin_4)*%
X180340000Y-50800000D03*
%TO.P,PI1,6,GND*%
%TO.N,GND*%
X180340000Y-53340000D03*
%TO.P,PI1,7,GCLK0/GPIO4*%
%TO.N,unconnected-(PI1-GCLK0{slash}GPIO4-Pad7)*%
X177800000Y-50800000D03*
%TO.P,PI1,8,GPIO14/TXD*%
%TO.N,Net-(LLC1-LV4)*%
X177800000Y-53340000D03*
%TO.P,PI1,9,GND*%
%TO.N,GND*%
X175260000Y-50800000D03*
%TO.P,PI1,10,GPIO15/RXD*%
%TO.N,Net-(LLC1-LV3)*%
X175260000Y-53340000D03*
%TO.P,PI1,11,GPIO17*%
%TO.N,unconnected-(PI1-GPIO17-Pad11)*%
X172720000Y-50800000D03*
%TO.P,PI1,12,GPIO18/PWM0*%
%TO.N,Net-(AMP1-BCLK)*%
X172720000Y-53340000D03*
%TO.P,PI1,13,GPIO27*%
%TO.N,Net-(BZ1--)*%
X170180000Y-50800000D03*
%TO.P,PI1,14,GND*%
%TO.N,GND*%
X170180000Y-53340000D03*
%TO.P,PI1,15,GPIO22*%
%TO.N,unconnected-(PI1-GPIO22-Pad15)*%
X167640000Y-50800000D03*
%TO.P,PI1,16,GPIO23*%
%TO.N,unconnected-(PI1-GPIO23-Pad16)*%
X167640000Y-53340000D03*
%TO.P,PI1,17,3V3*%
%TO.N,unconnected-(PI1-3V3-Pad17)*%
X165100000Y-50800000D03*
%TO.P,PI1,18,GPIO24*%
%TO.N,unconnected-(PI1-GPIO24-Pad18)*%
X165100000Y-53340000D03*
%TO.P,PI1,19,MOSI0/GPIO10*%
%TO.N,unconnected-(PI1-MOSI0{slash}GPIO10-Pad19)*%
X162560000Y-50800000D03*
%TO.P,PI1,20,GND*%
%TO.N,GND*%
X162560000Y-53340000D03*
%TO.P,PI1,21,MISO0/GPIO9*%
%TO.N,unconnected-(PI1-MISO0{slash}GPIO9-Pad21)*%
X160020000Y-50800000D03*
%TO.P,PI1,22,GPIO25*%
%TO.N,Net-(3V_EXT1-Pin_1)*%
X160020000Y-53340000D03*
%TO.P,PI1,23,SCLK0/GPIO11*%
%TO.N,unconnected-(PI1-SCLK0{slash}GPIO11-Pad23)*%
X157480000Y-50800000D03*
%TO.P,PI1,24,~{CE0}/GPIO8*%
%TO.N,unconnected-(PI1-~{CE0}{slash}GPIO8-Pad24)*%
X157480000Y-53340000D03*
%TO.P,PI1,25,GND*%
%TO.N,GND*%
X154940000Y-50800000D03*
%TO.P,PI1,26,~{CE1}/GPIO7*%
%TO.N,unconnected-(PI1-~{CE1}{slash}GPIO7-Pad26)*%
X154940000Y-53340000D03*
%TO.P,PI1,27,ID_SD/GPIO0*%
%TO.N,unconnected-(PI1-ID_SD{slash}GPIO0-Pad27)*%
X152400000Y-50800000D03*
%TO.P,PI1,28,ID_SC/GPIO1*%
%TO.N,unconnected-(PI1-ID_SC{slash}GPIO1-Pad28)*%
X152400000Y-53340000D03*
%TO.P,PI1,29,GCLK1/GPIO5*%
%TO.N,unconnected-(PI1-GCLK1{slash}GPIO5-Pad29)*%
X149860000Y-50800000D03*
%TO.P,PI1,30,GND*%
%TO.N,GND*%
X149860000Y-53340000D03*
%TO.P,PI1,31,GCLK2/GPIO6*%
%TO.N,unconnected-(PI1-GCLK2{slash}GPIO6-Pad31)*%
X147320000Y-50800000D03*
%TO.P,PI1,32,PWM0/GPIO12*%
%TO.N,Net-(LLC1-LV2)*%
X147320000Y-53340000D03*
%TO.P,PI1,33,PWM1/GPIO13*%
%TO.N,Net-(LLC1-LV1)*%
X144780000Y-50800000D03*
%TO.P,PI1,34,GND*%
%TO.N,GND*%
X144780000Y-53340000D03*
%TO.P,PI1,35,GPIO19/MISO1*%
%TO.N,Net-(AMP1-LRCLK)*%
X142240000Y-50800000D03*
%TO.P,PI1,36,GPIO16*%
%TO.N,unconnected-(PI1-GPIO16-Pad36)*%
X142240000Y-53340000D03*
%TO.P,PI1,37,GPIO26*%
%TO.N,Net-(PI1-GPIO26)*%
X139700000Y-50800000D03*
%TO.P,PI1,38,GPIO20/MOSI1*%
%TO.N,Net-(MIC1-DOUT)*%
X139700000Y-53340000D03*
%TO.P,PI1,39,GND*%
%TO.N,GND*%
X137160000Y-50800000D03*
%TO.P,PI1,40,GPIO21/SCLK1*%
%TO.N,Net-(AMP1-DIN)*%
X137160000Y-53340000D03*
%TD*%
D11*
%TO.P,3V_EXT1,1,Pin_1*%
%TO.N,Net-(3V_EXT1-Pin_1)*%
X195580000Y-53380000D03*
D12*
%TO.P,3V_EXT1,2,Pin_2*%
%TO.N,+3V3*%
X195580000Y-55880000D03*
%TO.P,3V_EXT1,3,Pin_3*%
%TO.N,GND*%
X195580000Y-58380000D03*
%TD*%
D15*
%TO.P,BZ1,1,-*%
%TO.N,Net-(BZ1--)*%
X181610000Y-60970000D03*
D16*
%TO.P,BZ1,2,+*%
%TO.N,GND*%
X181610000Y-68570000D03*
%TD*%
D10*
%TO.P,MIC2,1,SEL*%
%TO.N,GND*%
X139335000Y-59690000D03*
%TO.P,MIC2,2,LRCLK*%
%TO.N,Net-(AMP1-LRCLK)*%
X139335000Y-62230000D03*
%TO.P,MIC2,3,DOUT*%
%TO.N,Net-(MIC1-DOUT)*%
X139335000Y-64770000D03*
%TO.P,MIC2,4,BCLK*%
%TO.N,Net-(AMP1-BCLK)*%
X139335000Y-67310000D03*
%TO.P,MIC2,5,Gnd*%
%TO.N,GND*%
X139335000Y-69850000D03*
%TO.P,MIC2,6,3v*%
%TO.N,+3V3*%
X139335000Y-72390000D03*
%TD*%
%TO.P,I2C_NEO1,1,VIN*%
%TO.N,+3V3*%
X166370000Y-77470000D03*
%TO.P,I2C_NEO1,2,Gnd*%
%TO.N,GND*%
X168910000Y-77470000D03*
%TO.P,I2C_NEO1,3,SCL*%
%TO.N,Net-(I2C_EXT1-Pin_4)*%
X171450000Y-77470000D03*
%TO.P,I2C_NEO1,4,SDA*%
%TO.N,Net-(I2C_EXT1-Pin_3)*%
X173990000Y-77470000D03*
%TO.P,I2C_NEO1,5,OUT*%
%TO.N,Net-(D1-DIN)*%
X176530000Y-77470000D03*
%TD*%
D11*
%TO.P,I2C_EXT1,1,Pin_1*%
%TO.N,GND*%
X195580000Y-64810000D03*
D12*
%TO.P,I2C_EXT1,2,Pin_2*%
%TO.N,+3V3*%
X195580000Y-67310000D03*
%TO.P,I2C_EXT1,3,Pin_3*%
%TO.N,Net-(I2C_EXT1-Pin_3)*%
X195580000Y-69810000D03*
%TO.P,I2C_EXT1,4,Pin_4*%
%TO.N,Net-(I2C_EXT1-Pin_4)*%
X195580000Y-72310000D03*
%TD*%
D17*
%TO.P,SERIAL1,1,Pin_1*%
%TO.N,Net-(LLC1-HV3)*%
X124420000Y-82550000D03*
D18*
%TO.P,SERIAL1,2,Pin_2*%
%TO.N,Net-(LLC1-HV4)*%
X121920000Y-82550000D03*
%TD*%
D11*
%TO.P,NEO1,1,Pin_1*%
%TO.N,Net-(D5-DOUT)*%
X184150000Y-78780000D03*
D12*
%TO.P,NEO1,2,Pin_2*%
%TO.N,+5V*%
X184150000Y-81280000D03*
%TO.P,NEO1,3,Pin_3*%
%TO.N,GND*%
X184150000Y-83780000D03*
%TD*%
D10*
%TO.P,MIC1,1,SEL*%
%TO.N,+3V3*%
X151400000Y-59690000D03*
%TO.P,MIC1,2,LRCLK*%
%TO.N,Net-(AMP1-LRCLK)*%
X151400000Y-62230000D03*
%TO.P,MIC1,3,DOUT*%
%TO.N,Net-(MIC1-DOUT)*%
X151400000Y-64770000D03*
%TO.P,MIC1,4,BCLK*%
%TO.N,Net-(AMP1-BCLK)*%
X151400000Y-67310000D03*
%TO.P,MIC1,5,Gnd*%
%TO.N,GND*%
X151400000Y-69850000D03*
%TO.P,MIC1,6,3v*%
%TO.N,+3V3*%
X151400000Y-72390000D03*
%TD*%
D13*
%TO.P,SRV1,1,Pin_1*%
%TO.N,Net-(LLC1-HV2)*%
X140970000Y-80010000D03*
D14*
%TO.P,SRV1,2,Pin_2*%
%TO.N,+5V*%
X140970000Y-82550000D03*
%TO.P,SRV1,3,Pin_3*%
%TO.N,GND*%
X140970000Y-85090000D03*
%TD*%
D17*
%TO.P,PWR1,1,Pin_1*%
%TO.N,+5V*%
X134620000Y-82550000D03*
D18*
%TO.P,PWR1,2,Pin_2*%
%TO.N,GND*%
X132120000Y-82550000D03*
%TD*%
D19*
%TO.P,HOLE,1*%
%TO.N,N/C*%
X168275000Y-66040000D03*
%TD*%
D20*
%TO.N,+5V*%
X177683445Y-85060340D03*
X171450000Y-85090000D03*
X165100000Y-85090000D03*
X151765000Y-85090000D03*
X158750000Y-85090000D03*
%TO.N,GND*%
X172085000Y-81280000D03*
X159385000Y-81280000D03*
X165735000Y-81280000D03*
X146050000Y-81280000D03*
X153035000Y-81280000D03*
%TD*%
D21*
%TO.N,Net-(5V_EXT1-Pin_1)*%
X138608100Y-78648100D02*
X133507500Y-73547500D01*
X178800400Y-78648100D02*
X138608100Y-78648100D01*
X179881400Y-77567100D02*
X178800400Y-78648100D01*
X195580000Y-78780000D02*
X194367100Y-77567100D01*
X194367100Y-77567100D02*
X179881400Y-77567100D01*
%TO.N,Net-(AMP1-BCLK)*%
X171543100Y-53705800D02*
X171543100Y-53340000D01*
X151400000Y-67310000D02*
X154845400Y-63864600D01*
X156210000Y-60960000D02*
X164288900Y-60960000D01*
X154845400Y-63864600D02*
X154845400Y-62324600D01*
X164288900Y-60960000D02*
X171543100Y-53705800D01*
X154845400Y-62324600D02*
X156210000Y-60960000D01*
X172720000Y-53340000D02*
X171543100Y-53340000D01*
%TO.N,Net-(AMP1-LRCLK)*%
X152400000Y-62230000D02*
X156210000Y-58420000D01*
X140970000Y-60595000D02*
X140970000Y-52881100D01*
X142240000Y-50800000D02*
X142240000Y-51976900D01*
X151400000Y-62230000D02*
X152400000Y-62230000D01*
X141874200Y-51976900D02*
X142240000Y-51976900D01*
X139335000Y-62230000D02*
X140970000Y-60595000D01*
X140970000Y-52881100D02*
X141874200Y-51976900D01*
%TO.N,Net-(BZ1--)*%
X173990000Y-52909100D02*
X173150900Y-52070000D01*
X170180000Y-50800000D02*
X171356900Y-50800000D01*
X180283100Y-60970000D02*
X173990000Y-54676900D01*
X181610000Y-60970000D02*
X180283100Y-60970000D01*
X173990000Y-54676900D02*
X173990000Y-52909100D01*
X173150900Y-52070000D02*
X172261100Y-52070000D01*
X171356900Y-51165800D02*
X171356900Y-50800000D01*
X172261100Y-52070000D02*
X171356900Y-51165800D01*
%TO.N,Net-(I2C_EXT1-Pin_3)*%
X184055000Y-51975000D02*
X182880000Y-50800000D01*
X184055000Y-54515000D02*
X184055000Y-51975000D01*
X195580000Y-69810000D02*
X188595000Y-62825000D01*
X186055000Y-56515000D02*
X184055000Y-54515000D01*
X188595000Y-56515000D02*
X186055000Y-56515000D01*
X188595000Y-62825000D02*
X188595000Y-56515000D01*
%TO.N,Net-(I2C_EXT1-Pin_4)*%
X180705800Y-51976900D02*
X180340000Y-51976900D01*
X181610000Y-52881100D02*
X180705800Y-51976900D01*
X195580000Y-72310000D02*
X187322300Y-64052300D01*
X171450000Y-77470000D02*
X171450000Y-76829600D01*
X171450000Y-76829600D02*
X187322300Y-60957300D01*
X187355800Y-60923800D02*
X181610000Y-55178000D01*
X180340000Y-50800000D02*
X180340000Y-51976900D01*
X187322300Y-64052300D02*
X187322300Y-60957300D01*
X181610000Y-55178000D02*
X181610000Y-52881100D01*
X187322300Y-60957300D02*
X187355800Y-60923800D01*
%TO.N,Net-(LLC1-HV3)*%
X124420000Y-74620000D02*
X123348000Y-73547500D01*
X124420000Y-82550000D02*
X124420000Y-74620000D01*
X123347500Y-73547500D02*
X123348000Y-73547500D01*
%TO.N,Net-(LLC1-HV4)*%
X121920000Y-74660000D02*
X120808000Y-73547500D01*
X120807500Y-73547500D02*
X120808000Y-73547500D01*
X121920000Y-82550000D02*
X121920000Y-74660000D01*
%TO.N,Net-(LLC1-HV2)*%
X137430000Y-80010000D02*
X130967500Y-73547500D01*
X140970000Y-80010000D02*
X137430000Y-80010000D01*
%TO.N,Net-(LLC1-LV1)*%
X141775800Y-49598600D02*
X142767500Y-49598600D01*
X133507500Y-59588900D02*
X138462900Y-54633500D01*
X139335500Y-51977100D02*
X140201900Y-51977100D01*
X142767500Y-49598600D02*
X143603100Y-50434200D01*
X144780000Y-50800000D02*
X143603100Y-50800000D01*
X143603100Y-50434200D02*
X143603100Y-50800000D01*
X138462900Y-52849700D02*
X139335500Y-51977100D01*
X140970000Y-50404400D02*
X141775800Y-49598600D01*
X140970000Y-51209000D02*
X140970000Y-50404400D01*
X133507500Y-60847500D02*
X133507500Y-59588900D01*
X138462900Y-54633500D02*
X138462900Y-52849700D01*
X140201900Y-51977100D02*
X140970000Y-51209000D01*
%TO.N,Net-(LLC1-LV2)*%
X136093700Y-65973700D02*
X130967500Y-60847500D01*
X147320000Y-53340000D02*
X147320000Y-58460600D01*
X147320000Y-58460600D02*
X139806900Y-65973700D01*
X139806900Y-65973700D02*
X136093700Y-65973700D01*
%TO.N,Net-(LLC1-LV4)*%
X173990000Y-51222000D02*
X173990000Y-50323500D01*
X177800000Y-53340000D02*
X176623100Y-53340000D01*
X124812500Y-56842500D02*
X120807500Y-60847500D01*
X176623100Y-52972100D02*
X175814100Y-52163100D01*
X174931100Y-52163100D02*
X173990000Y-51222000D01*
X173990000Y-50323500D02*
X172788800Y-49122300D01*
X131665200Y-49122300D02*
X124812500Y-55975000D01*
X124812500Y-55975000D02*
X124812500Y-56842500D01*
X176623100Y-53340000D02*
X176623100Y-52972100D01*
X175814100Y-52163100D02*
X174931100Y-52163100D01*
X172788800Y-49122300D02*
X131665200Y-49122300D01*
%TO.N,Net-(MIC1-DOUT)*%
X139335000Y-64770000D02*
X138153400Y-63588400D01*
X138153400Y-63588400D02*
X138153400Y-56063500D01*
X139700000Y-53340000D02*
X139700000Y-54516900D01*
X138153400Y-56063500D02*
X139700000Y-54516900D01*
%TO.N,Net-(PI1-GPIO26)*%
X130508100Y-51976900D02*
X137714100Y-51976900D01*
X126082500Y-56402500D02*
X130508100Y-51976900D01*
X138523100Y-51167900D02*
X138523100Y-50800000D01*
X137714100Y-51976900D02*
X138523100Y-51167900D01*
X139700000Y-50800000D02*
X138523100Y-50800000D01*
D22*
%TO.N,+3V3*%
X186596900Y-50800000D02*
X190500000Y-54703100D01*
D21*
X128427500Y-61482500D02*
X128427500Y-60847500D01*
D22*
X150100000Y-71090000D02*
X151400000Y-72390000D01*
X190500000Y-54703100D02*
X195580000Y-54703100D01*
X150100000Y-60990000D02*
X150100000Y-71090000D01*
X151400000Y-59690000D02*
X150100000Y-60990000D01*
X195580000Y-55880000D02*
X195580000Y-54703100D01*
X139335000Y-72390000D02*
X128427500Y-61482500D01*
X194945000Y-55880000D02*
X195580000Y-55880000D01*
X185420000Y-50800000D02*
X186596900Y-50800000D01*
D21*
X139652500Y-72072500D02*
X139335000Y-72390000D01*
D22*
X139335000Y-72390000D02*
X151400000Y-72390000D01*
%TD*%
M02*
