%TF.GenerationSoftware,KiCad,Pcbnew,7.0.8-7.0.8~ubuntu22.04.1*%
%TF.CreationDate,2023-11-17T20:39:09+00:00*%
%TF.ProjectId,v4head,76346865-6164-42e6-9b69-6361645f7063,rev?*%
%TF.SameCoordinates,Original*%
%TF.FileFunction,Soldermask,Bot*%
%TF.FilePolarity,Negative*%
%FSLAX46Y46*%
G04 Gerber Fmt 4.6, Leading zero omitted, Abs format (unit mm)*
G04 Created by KiCad (PCBNEW 7.0.8-7.0.8~ubuntu22.04.1) date 2023-11-17 20:39:09*
%MOMM*%
%LPD*%
G01*
G04 APERTURE LIST*
G04 Aperture macros list*
%AMRoundRect*
0 Rectangle with rounded corners*
0 $1 Rounding radius*
0 $2 $3 $4 $5 $6 $7 $8 $9 X,Y pos of 4 corners*
0 Add a 4 corners polygon primitive as box body*
4,1,4,$2,$3,$4,$5,$6,$7,$8,$9,$2,$3,0*
0 Add four circle primitives for the rounded corners*
1,1,$1+$1,$2,$3*
1,1,$1+$1,$4,$5*
1,1,$1+$1,$6,$7*
1,1,$1+$1,$8,$9*
0 Add four rect primitives between the rounded corners*
20,1,$1+$1,$2,$3,$4,$5,0*
20,1,$1+$1,$4,$5,$6,$7,0*
20,1,$1+$1,$6,$7,$8,$9,0*
20,1,$1+$1,$8,$9,$2,$3,0*%
G04 Aperture macros list end*
%ADD10C,1.700000*%
%ADD11RoundRect,0.250000X-0.725000X0.600000X-0.725000X-0.600000X0.725000X-0.600000X0.725000X0.600000X0*%
%ADD12O,1.950000X1.700000*%
%ADD13R,1.700000X1.700000*%
%ADD14O,1.700000X1.700000*%
%ADD15R,2.000000X2.000000*%
%ADD16C,2.000000*%
%ADD17RoundRect,0.250000X0.600000X0.750000X-0.600000X0.750000X-0.600000X-0.750000X0.600000X-0.750000X0*%
%ADD18O,1.700000X2.000000*%
%ADD19C,10.160000*%
G04 APERTURE END LIST*
D10*
%TO.C,LLC1*%
X128427500Y-73547500D03*
X125887500Y-73547500D03*
X133507500Y-73547500D03*
X130967500Y-73547500D03*
X123347500Y-73547500D03*
X120807500Y-73547500D03*
X128427500Y-60847500D03*
X125887500Y-60847500D03*
X133507500Y-60847500D03*
X130967500Y-60847500D03*
X123347500Y-60847500D03*
X120807500Y-60847500D03*
%TD*%
%TO.C,RCWL-516*%
X131162500Y-56402500D03*
X128622500Y-56402500D03*
X126082500Y-56402500D03*
X123542500Y-56402500D03*
X121002500Y-56402500D03*
%TD*%
%TO.C,AMP1*%
X156210000Y-73660000D03*
X156210000Y-71120000D03*
X156210000Y-68580000D03*
X156210000Y-66040000D03*
X156210000Y-63500000D03*
X156210000Y-60960000D03*
X156210000Y-58420000D03*
%TD*%
D11*
%TO.C,5V_EXT1*%
X195580000Y-78780000D03*
D12*
X195580000Y-81280000D03*
X195580000Y-83780000D03*
%TD*%
D13*
%TO.C,PI1*%
X185420000Y-50800000D03*
D14*
X185420000Y-53340000D03*
X182880000Y-50800000D03*
X182880000Y-53340000D03*
X180340000Y-50800000D03*
X180340000Y-53340000D03*
X177800000Y-50800000D03*
X177800000Y-53340000D03*
X175260000Y-50800000D03*
X175260000Y-53340000D03*
X172720000Y-50800000D03*
X172720000Y-53340000D03*
X170180000Y-50800000D03*
X170180000Y-53340000D03*
X167640000Y-50800000D03*
X167640000Y-53340000D03*
X165100000Y-50800000D03*
X165100000Y-53340000D03*
X162560000Y-50800000D03*
X162560000Y-53340000D03*
X160020000Y-50800000D03*
X160020000Y-53340000D03*
X157480000Y-50800000D03*
X157480000Y-53340000D03*
X154940000Y-50800000D03*
X154940000Y-53340000D03*
X152400000Y-50800000D03*
X152400000Y-53340000D03*
X149860000Y-50800000D03*
X149860000Y-53340000D03*
X147320000Y-50800000D03*
X147320000Y-53340000D03*
X144780000Y-50800000D03*
X144780000Y-53340000D03*
X142240000Y-50800000D03*
X142240000Y-53340000D03*
X139700000Y-50800000D03*
X139700000Y-53340000D03*
X137160000Y-50800000D03*
X137160000Y-53340000D03*
%TD*%
D11*
%TO.C,3V_EXT1*%
X195580000Y-53380000D03*
D12*
X195580000Y-55880000D03*
X195580000Y-58380000D03*
%TD*%
D15*
%TO.C,BZ1*%
X181610000Y-60970000D03*
D16*
X181610000Y-68570000D03*
%TD*%
D10*
%TO.C,MIC2*%
X139335000Y-59690000D03*
X139335000Y-62230000D03*
X139335000Y-64770000D03*
X139335000Y-67310000D03*
X139335000Y-69850000D03*
X139335000Y-72390000D03*
%TD*%
%TO.C,I2C_NEO1*%
X166370000Y-77470000D03*
X168910000Y-77470000D03*
X171450000Y-77470000D03*
X173990000Y-77470000D03*
X176530000Y-77470000D03*
%TD*%
D11*
%TO.C,I2C_EXT1*%
X195580000Y-64810000D03*
D12*
X195580000Y-67310000D03*
X195580000Y-69810000D03*
X195580000Y-72310000D03*
%TD*%
D17*
%TO.C,SERIAL1*%
X124420000Y-82550000D03*
D18*
X121920000Y-82550000D03*
%TD*%
D11*
%TO.C,NEO1*%
X184150000Y-78780000D03*
D12*
X184150000Y-81280000D03*
X184150000Y-83780000D03*
%TD*%
D10*
%TO.C,MIC1*%
X151400000Y-59690000D03*
X151400000Y-62230000D03*
X151400000Y-64770000D03*
X151400000Y-67310000D03*
X151400000Y-69850000D03*
X151400000Y-72390000D03*
%TD*%
D13*
%TO.C,SRV1*%
X140970000Y-80010000D03*
D14*
X140970000Y-82550000D03*
X140970000Y-85090000D03*
%TD*%
D17*
%TO.C,PWR1*%
X134620000Y-82550000D03*
D18*
X132120000Y-82550000D03*
%TD*%
D19*
%TO.C,HOLE*%
X168275000Y-66040000D03*
%TD*%
M02*
