%TF.GenerationSoftware,KiCad,Pcbnew,7.0.8-7.0.8~ubuntu22.04.1*%
%TF.CreationDate,2023-11-16T21:22:35+00:00*%
%TF.ProjectId,v4head,76346865-6164-42e6-9b69-6361645f7063,rev?*%
%TF.SameCoordinates,Original*%
%TF.FileFunction,Legend,Top*%
%TF.FilePolarity,Positive*%
%FSLAX46Y46*%
G04 Gerber Fmt 4.6, Leading zero omitted, Abs format (unit mm)*
G04 Created by KiCad (PCBNEW 7.0.8-7.0.8~ubuntu22.04.1) date 2023-11-16 21:22:35*
%MOMM*%
%LPD*%
G01*
G04 APERTURE LIST*
%ADD10C,0.150000*%
%ADD11C,0.300000*%
%ADD12C,0.100000*%
%ADD13C,0.120000*%
G04 APERTURE END LIST*
D10*
X191515951Y-55806133D02*
X190754047Y-55806133D01*
X191134999Y-55425180D02*
X191134999Y-56187085D01*
X178815951Y-84381133D02*
X178054047Y-84381133D01*
X178434999Y-84000180D02*
X178434999Y-84762085D01*
X141350951Y-69776133D02*
X140589047Y-69776133D01*
X168655951Y-75491133D02*
X167894047Y-75491133D01*
X141350951Y-72951133D02*
X140589047Y-72951133D01*
X140969999Y-72570180D02*
X140969999Y-73332085D01*
X158495951Y-71046133D02*
X157734047Y-71046133D01*
X126110951Y-71681133D02*
X125349047Y-71681133D01*
X172465951Y-79936133D02*
X171704047Y-79936133D01*
X187404524Y-50254819D02*
X188023571Y-50254819D01*
X188023571Y-50254819D02*
X187690238Y-50635771D01*
X187690238Y-50635771D02*
X187833095Y-50635771D01*
X187833095Y-50635771D02*
X187928333Y-50683390D01*
X187928333Y-50683390D02*
X187975952Y-50731009D01*
X187975952Y-50731009D02*
X188023571Y-50826247D01*
X188023571Y-50826247D02*
X188023571Y-51064342D01*
X188023571Y-51064342D02*
X187975952Y-51159580D01*
X187975952Y-51159580D02*
X187928333Y-51207200D01*
X187928333Y-51207200D02*
X187833095Y-51254819D01*
X187833095Y-51254819D02*
X187547381Y-51254819D01*
X187547381Y-51254819D02*
X187452143Y-51207200D01*
X187452143Y-51207200D02*
X187404524Y-51159580D01*
X188356905Y-50588152D02*
X188595000Y-51254819D01*
X188595000Y-51254819D02*
X188833095Y-50588152D01*
X189118810Y-50254819D02*
X189737857Y-50254819D01*
X189737857Y-50254819D02*
X189404524Y-50635771D01*
X189404524Y-50635771D02*
X189547381Y-50635771D01*
X189547381Y-50635771D02*
X189642619Y-50683390D01*
X189642619Y-50683390D02*
X189690238Y-50731009D01*
X189690238Y-50731009D02*
X189737857Y-50826247D01*
X189737857Y-50826247D02*
X189737857Y-51064342D01*
X189737857Y-51064342D02*
X189690238Y-51159580D01*
X189690238Y-51159580D02*
X189642619Y-51207200D01*
X189642619Y-51207200D02*
X189547381Y-51254819D01*
X189547381Y-51254819D02*
X189261667Y-51254819D01*
X189261667Y-51254819D02*
X189166429Y-51207200D01*
X189166429Y-51207200D02*
X189118810Y-51159580D01*
X191515951Y-81206133D02*
X190754047Y-81206133D01*
X191134999Y-80825180D02*
X191134999Y-81587085D01*
X191515951Y-67236133D02*
X190754047Y-67236133D01*
X191134999Y-66855180D02*
X191134999Y-67617085D01*
X129285951Y-54536133D02*
X128524047Y-54536133D01*
X128904999Y-54155180D02*
X128904999Y-54917085D01*
X128650951Y-71681133D02*
X127889047Y-71681133D01*
X128269999Y-71300180D02*
X128269999Y-72062085D01*
X191515951Y-64696133D02*
X190754047Y-64696133D01*
X123570951Y-54536133D02*
X122809047Y-54536133D01*
X187817142Y-52794819D02*
X187340952Y-52794819D01*
X187340952Y-52794819D02*
X187293333Y-53271009D01*
X187293333Y-53271009D02*
X187340952Y-53223390D01*
X187340952Y-53223390D02*
X187436190Y-53175771D01*
X187436190Y-53175771D02*
X187674285Y-53175771D01*
X187674285Y-53175771D02*
X187769523Y-53223390D01*
X187769523Y-53223390D02*
X187817142Y-53271009D01*
X187817142Y-53271009D02*
X187864761Y-53366247D01*
X187864761Y-53366247D02*
X187864761Y-53604342D01*
X187864761Y-53604342D02*
X187817142Y-53699580D01*
X187817142Y-53699580D02*
X187769523Y-53747200D01*
X187769523Y-53747200D02*
X187674285Y-53794819D01*
X187674285Y-53794819D02*
X187436190Y-53794819D01*
X187436190Y-53794819D02*
X187340952Y-53747200D01*
X187340952Y-53747200D02*
X187293333Y-53699580D01*
X188198095Y-53128152D02*
X188436190Y-53794819D01*
X188436190Y-53794819D02*
X188674285Y-53128152D01*
X139445951Y-82476133D02*
X138684047Y-82476133D01*
X139064999Y-82095180D02*
X139064999Y-82857085D01*
X139445951Y-85016133D02*
X138684047Y-85016133D01*
X158495951Y-73586133D02*
X157734047Y-73586133D01*
X158114999Y-73205180D02*
X158114999Y-73967085D01*
X166750951Y-75491133D02*
X165989047Y-75491133D01*
X166369999Y-75110180D02*
X166369999Y-75872085D01*
X191515951Y-58346133D02*
X190754047Y-58346133D01*
D11*
X139476653Y-76270828D02*
X139762368Y-77270828D01*
X139762368Y-77270828D02*
X140048082Y-76556542D01*
X140048082Y-76556542D02*
X140333796Y-77270828D01*
X140333796Y-77270828D02*
X140619510Y-76270828D01*
X141048082Y-76270828D02*
X141333797Y-77270828D01*
X141333797Y-77270828D02*
X141619511Y-76556542D01*
X141619511Y-76556542D02*
X141905225Y-77270828D01*
X141905225Y-77270828D02*
X142190939Y-76270828D01*
X142619511Y-76270828D02*
X142905226Y-77270828D01*
X142905226Y-77270828D02*
X143190940Y-76556542D01*
X143190940Y-76556542D02*
X143476654Y-77270828D01*
X143476654Y-77270828D02*
X143762368Y-76270828D01*
X144333797Y-77127971D02*
X144405226Y-77199400D01*
X144405226Y-77199400D02*
X144333797Y-77270828D01*
X144333797Y-77270828D02*
X144262369Y-77199400D01*
X144262369Y-77199400D02*
X144333797Y-77127971D01*
X144333797Y-77127971D02*
X144333797Y-77270828D01*
X145048083Y-77270828D02*
X145048083Y-76270828D01*
X145048083Y-76413685D02*
X145119512Y-76342257D01*
X145119512Y-76342257D02*
X145262369Y-76270828D01*
X145262369Y-76270828D02*
X145476655Y-76270828D01*
X145476655Y-76270828D02*
X145619512Y-76342257D01*
X145619512Y-76342257D02*
X145690941Y-76485114D01*
X145690941Y-76485114D02*
X145690941Y-77270828D01*
X145690941Y-76485114D02*
X145762369Y-76342257D01*
X145762369Y-76342257D02*
X145905226Y-76270828D01*
X145905226Y-76270828D02*
X146119512Y-76270828D01*
X146119512Y-76270828D02*
X146262369Y-76342257D01*
X146262369Y-76342257D02*
X146333798Y-76485114D01*
X146333798Y-76485114D02*
X146333798Y-77270828D01*
X147690941Y-77270828D02*
X147690941Y-76485114D01*
X147690941Y-76485114D02*
X147619512Y-76342257D01*
X147619512Y-76342257D02*
X147476655Y-76270828D01*
X147476655Y-76270828D02*
X147190941Y-76270828D01*
X147190941Y-76270828D02*
X147048083Y-76342257D01*
X147690941Y-77199400D02*
X147548083Y-77270828D01*
X147548083Y-77270828D02*
X147190941Y-77270828D01*
X147190941Y-77270828D02*
X147048083Y-77199400D01*
X147048083Y-77199400D02*
X146976655Y-77056542D01*
X146976655Y-77056542D02*
X146976655Y-76913685D01*
X146976655Y-76913685D02*
X147048083Y-76770828D01*
X147048083Y-76770828D02*
X147190941Y-76699400D01*
X147190941Y-76699400D02*
X147548083Y-76699400D01*
X147548083Y-76699400D02*
X147690941Y-76627971D01*
X148405226Y-77270828D02*
X148405226Y-75770828D01*
X148548084Y-76699400D02*
X148976655Y-77270828D01*
X148976655Y-76270828D02*
X148405226Y-76842257D01*
X150190941Y-77199400D02*
X150048084Y-77270828D01*
X150048084Y-77270828D02*
X149762370Y-77270828D01*
X149762370Y-77270828D02*
X149619512Y-77199400D01*
X149619512Y-77199400D02*
X149548084Y-77056542D01*
X149548084Y-77056542D02*
X149548084Y-76485114D01*
X149548084Y-76485114D02*
X149619512Y-76342257D01*
X149619512Y-76342257D02*
X149762370Y-76270828D01*
X149762370Y-76270828D02*
X150048084Y-76270828D01*
X150048084Y-76270828D02*
X150190941Y-76342257D01*
X150190941Y-76342257D02*
X150262370Y-76485114D01*
X150262370Y-76485114D02*
X150262370Y-76627971D01*
X150262370Y-76627971D02*
X149548084Y-76770828D01*
X150905226Y-77270828D02*
X150905226Y-76270828D01*
X150905226Y-76556542D02*
X150976655Y-76413685D01*
X150976655Y-76413685D02*
X151048084Y-76342257D01*
X151048084Y-76342257D02*
X151190941Y-76270828D01*
X151190941Y-76270828D02*
X151333798Y-76270828D01*
X151619512Y-76270828D02*
X152190940Y-76270828D01*
X151833797Y-77270828D02*
X151833797Y-75985114D01*
X151833797Y-75985114D02*
X151905226Y-75842257D01*
X151905226Y-75842257D02*
X152048083Y-75770828D01*
X152048083Y-75770828D02*
X152190940Y-75770828D01*
X152905226Y-77270828D02*
X152762369Y-77199400D01*
X152762369Y-77199400D02*
X152690940Y-77127971D01*
X152690940Y-77127971D02*
X152619512Y-76985114D01*
X152619512Y-76985114D02*
X152619512Y-76556542D01*
X152619512Y-76556542D02*
X152690940Y-76413685D01*
X152690940Y-76413685D02*
X152762369Y-76342257D01*
X152762369Y-76342257D02*
X152905226Y-76270828D01*
X152905226Y-76270828D02*
X153119512Y-76270828D01*
X153119512Y-76270828D02*
X153262369Y-76342257D01*
X153262369Y-76342257D02*
X153333798Y-76413685D01*
X153333798Y-76413685D02*
X153405226Y-76556542D01*
X153405226Y-76556542D02*
X153405226Y-76985114D01*
X153405226Y-76985114D02*
X153333798Y-77127971D01*
X153333798Y-77127971D02*
X153262369Y-77199400D01*
X153262369Y-77199400D02*
X153119512Y-77270828D01*
X153119512Y-77270828D02*
X152905226Y-77270828D01*
X154048083Y-77270828D02*
X154048083Y-76270828D01*
X154048083Y-76556542D02*
X154119512Y-76413685D01*
X154119512Y-76413685D02*
X154190941Y-76342257D01*
X154190941Y-76342257D02*
X154333798Y-76270828D01*
X154333798Y-76270828D02*
X154476655Y-76270828D01*
X155619512Y-76270828D02*
X155619512Y-77485114D01*
X155619512Y-77485114D02*
X155548083Y-77627971D01*
X155548083Y-77627971D02*
X155476654Y-77699400D01*
X155476654Y-77699400D02*
X155333797Y-77770828D01*
X155333797Y-77770828D02*
X155119512Y-77770828D01*
X155119512Y-77770828D02*
X154976654Y-77699400D01*
X155619512Y-77199400D02*
X155476654Y-77270828D01*
X155476654Y-77270828D02*
X155190940Y-77270828D01*
X155190940Y-77270828D02*
X155048083Y-77199400D01*
X155048083Y-77199400D02*
X154976654Y-77127971D01*
X154976654Y-77127971D02*
X154905226Y-76985114D01*
X154905226Y-76985114D02*
X154905226Y-76556542D01*
X154905226Y-76556542D02*
X154976654Y-76413685D01*
X154976654Y-76413685D02*
X155048083Y-76342257D01*
X155048083Y-76342257D02*
X155190940Y-76270828D01*
X155190940Y-76270828D02*
X155476654Y-76270828D01*
X155476654Y-76270828D02*
X155619512Y-76342257D01*
X156905226Y-77199400D02*
X156762369Y-77270828D01*
X156762369Y-77270828D02*
X156476655Y-77270828D01*
X156476655Y-77270828D02*
X156333797Y-77199400D01*
X156333797Y-77199400D02*
X156262369Y-77056542D01*
X156262369Y-77056542D02*
X156262369Y-76485114D01*
X156262369Y-76485114D02*
X156333797Y-76342257D01*
X156333797Y-76342257D02*
X156476655Y-76270828D01*
X156476655Y-76270828D02*
X156762369Y-76270828D01*
X156762369Y-76270828D02*
X156905226Y-76342257D01*
X156905226Y-76342257D02*
X156976655Y-76485114D01*
X156976655Y-76485114D02*
X156976655Y-76627971D01*
X156976655Y-76627971D02*
X156262369Y-76770828D01*
X157619511Y-77127971D02*
X157690940Y-77199400D01*
X157690940Y-77199400D02*
X157619511Y-77270828D01*
X157619511Y-77270828D02*
X157548083Y-77199400D01*
X157548083Y-77199400D02*
X157619511Y-77127971D01*
X157619511Y-77127971D02*
X157619511Y-77270828D01*
X158119512Y-76270828D02*
X158690940Y-76270828D01*
X158333797Y-75770828D02*
X158333797Y-77056542D01*
X158333797Y-77056542D02*
X158405226Y-77199400D01*
X158405226Y-77199400D02*
X158548083Y-77270828D01*
X158548083Y-77270828D02*
X158690940Y-77270828D01*
X159762369Y-77199400D02*
X159619512Y-77270828D01*
X159619512Y-77270828D02*
X159333798Y-77270828D01*
X159333798Y-77270828D02*
X159190940Y-77199400D01*
X159190940Y-77199400D02*
X159119512Y-77056542D01*
X159119512Y-77056542D02*
X159119512Y-76485114D01*
X159119512Y-76485114D02*
X159190940Y-76342257D01*
X159190940Y-76342257D02*
X159333798Y-76270828D01*
X159333798Y-76270828D02*
X159619512Y-76270828D01*
X159619512Y-76270828D02*
X159762369Y-76342257D01*
X159762369Y-76342257D02*
X159833798Y-76485114D01*
X159833798Y-76485114D02*
X159833798Y-76627971D01*
X159833798Y-76627971D02*
X159119512Y-76770828D01*
X161119512Y-77199400D02*
X160976654Y-77270828D01*
X160976654Y-77270828D02*
X160690940Y-77270828D01*
X160690940Y-77270828D02*
X160548083Y-77199400D01*
X160548083Y-77199400D02*
X160476654Y-77127971D01*
X160476654Y-77127971D02*
X160405226Y-76985114D01*
X160405226Y-76985114D02*
X160405226Y-76556542D01*
X160405226Y-76556542D02*
X160476654Y-76413685D01*
X160476654Y-76413685D02*
X160548083Y-76342257D01*
X160548083Y-76342257D02*
X160690940Y-76270828D01*
X160690940Y-76270828D02*
X160976654Y-76270828D01*
X160976654Y-76270828D02*
X161119512Y-76342257D01*
X161762368Y-77270828D02*
X161762368Y-75770828D01*
X162405226Y-77270828D02*
X162405226Y-76485114D01*
X162405226Y-76485114D02*
X162333797Y-76342257D01*
X162333797Y-76342257D02*
X162190940Y-76270828D01*
X162190940Y-76270828D02*
X161976654Y-76270828D01*
X161976654Y-76270828D02*
X161833797Y-76342257D01*
X161833797Y-76342257D02*
X161762368Y-76413685D01*
D10*
X191515951Y-83746133D02*
X190754047Y-83746133D01*
X165284819Y-83712094D02*
X164284819Y-83712094D01*
X164284819Y-83712094D02*
X164284819Y-83473999D01*
X164284819Y-83473999D02*
X164332438Y-83331142D01*
X164332438Y-83331142D02*
X164427676Y-83235904D01*
X164427676Y-83235904D02*
X164522914Y-83188285D01*
X164522914Y-83188285D02*
X164713390Y-83140666D01*
X164713390Y-83140666D02*
X164856247Y-83140666D01*
X164856247Y-83140666D02*
X165046723Y-83188285D01*
X165046723Y-83188285D02*
X165141961Y-83235904D01*
X165141961Y-83235904D02*
X165237200Y-83331142D01*
X165237200Y-83331142D02*
X165284819Y-83473999D01*
X165284819Y-83473999D02*
X165284819Y-83712094D01*
X164284819Y-82807332D02*
X164284819Y-82188285D01*
X164284819Y-82188285D02*
X164665771Y-82521618D01*
X164665771Y-82521618D02*
X164665771Y-82378761D01*
X164665771Y-82378761D02*
X164713390Y-82283523D01*
X164713390Y-82283523D02*
X164761009Y-82235904D01*
X164761009Y-82235904D02*
X164856247Y-82188285D01*
X164856247Y-82188285D02*
X165094342Y-82188285D01*
X165094342Y-82188285D02*
X165189580Y-82235904D01*
X165189580Y-82235904D02*
X165237200Y-82283523D01*
X165237200Y-82283523D02*
X165284819Y-82378761D01*
X165284819Y-82378761D02*
X165284819Y-82664475D01*
X165284819Y-82664475D02*
X165237200Y-82759713D01*
X165237200Y-82759713D02*
X165189580Y-82807332D01*
X163409819Y-79188285D02*
X163409819Y-79759713D01*
X163409819Y-79473999D02*
X162409819Y-79473999D01*
X162409819Y-79473999D02*
X162552676Y-79569237D01*
X162552676Y-79569237D02*
X162647914Y-79664475D01*
X162647914Y-79664475D02*
X162695533Y-79759713D01*
X152189819Y-83712094D02*
X151189819Y-83712094D01*
X151189819Y-83712094D02*
X151189819Y-83473999D01*
X151189819Y-83473999D02*
X151237438Y-83331142D01*
X151237438Y-83331142D02*
X151332676Y-83235904D01*
X151332676Y-83235904D02*
X151427914Y-83188285D01*
X151427914Y-83188285D02*
X151618390Y-83140666D01*
X151618390Y-83140666D02*
X151761247Y-83140666D01*
X151761247Y-83140666D02*
X151951723Y-83188285D01*
X151951723Y-83188285D02*
X152046961Y-83235904D01*
X152046961Y-83235904D02*
X152142200Y-83331142D01*
X152142200Y-83331142D02*
X152189819Y-83473999D01*
X152189819Y-83473999D02*
X152189819Y-83712094D01*
X152189819Y-82188285D02*
X152189819Y-82759713D01*
X152189819Y-82473999D02*
X151189819Y-82473999D01*
X151189819Y-82473999D02*
X151332676Y-82569237D01*
X151332676Y-82569237D02*
X151427914Y-82664475D01*
X151427914Y-82664475D02*
X151475533Y-82759713D01*
X150314819Y-79188285D02*
X150314819Y-79759713D01*
X150314819Y-79473999D02*
X149314819Y-79473999D01*
X149314819Y-79473999D02*
X149457676Y-79569237D01*
X149457676Y-79569237D02*
X149552914Y-79664475D01*
X149552914Y-79664475D02*
X149600533Y-79759713D01*
D12*
X125928571Y-67767419D02*
X125452381Y-67767419D01*
X125452381Y-67767419D02*
X125452381Y-66767419D01*
X126738095Y-67767419D02*
X126261905Y-67767419D01*
X126261905Y-67767419D02*
X126261905Y-66767419D01*
X127642857Y-67672180D02*
X127595238Y-67719800D01*
X127595238Y-67719800D02*
X127452381Y-67767419D01*
X127452381Y-67767419D02*
X127357143Y-67767419D01*
X127357143Y-67767419D02*
X127214286Y-67719800D01*
X127214286Y-67719800D02*
X127119048Y-67624561D01*
X127119048Y-67624561D02*
X127071429Y-67529323D01*
X127071429Y-67529323D02*
X127023810Y-67338847D01*
X127023810Y-67338847D02*
X127023810Y-67195990D01*
X127023810Y-67195990D02*
X127071429Y-67005514D01*
X127071429Y-67005514D02*
X127119048Y-66910276D01*
X127119048Y-66910276D02*
X127214286Y-66815038D01*
X127214286Y-66815038D02*
X127357143Y-66767419D01*
X127357143Y-66767419D02*
X127452381Y-66767419D01*
X127452381Y-66767419D02*
X127595238Y-66815038D01*
X127595238Y-66815038D02*
X127642857Y-66862657D01*
X128595238Y-67767419D02*
X128023810Y-67767419D01*
X128309524Y-67767419D02*
X128309524Y-66767419D01*
X128309524Y-66767419D02*
X128214286Y-66910276D01*
X128214286Y-66910276D02*
X128119048Y-67005514D01*
X128119048Y-67005514D02*
X128023810Y-67053133D01*
X122868214Y-53162419D02*
X122534881Y-52686228D01*
X122296786Y-53162419D02*
X122296786Y-52162419D01*
X122296786Y-52162419D02*
X122677738Y-52162419D01*
X122677738Y-52162419D02*
X122772976Y-52210038D01*
X122772976Y-52210038D02*
X122820595Y-52257657D01*
X122820595Y-52257657D02*
X122868214Y-52352895D01*
X122868214Y-52352895D02*
X122868214Y-52495752D01*
X122868214Y-52495752D02*
X122820595Y-52590990D01*
X122820595Y-52590990D02*
X122772976Y-52638609D01*
X122772976Y-52638609D02*
X122677738Y-52686228D01*
X122677738Y-52686228D02*
X122296786Y-52686228D01*
X123868214Y-53067180D02*
X123820595Y-53114800D01*
X123820595Y-53114800D02*
X123677738Y-53162419D01*
X123677738Y-53162419D02*
X123582500Y-53162419D01*
X123582500Y-53162419D02*
X123439643Y-53114800D01*
X123439643Y-53114800D02*
X123344405Y-53019561D01*
X123344405Y-53019561D02*
X123296786Y-52924323D01*
X123296786Y-52924323D02*
X123249167Y-52733847D01*
X123249167Y-52733847D02*
X123249167Y-52590990D01*
X123249167Y-52590990D02*
X123296786Y-52400514D01*
X123296786Y-52400514D02*
X123344405Y-52305276D01*
X123344405Y-52305276D02*
X123439643Y-52210038D01*
X123439643Y-52210038D02*
X123582500Y-52162419D01*
X123582500Y-52162419D02*
X123677738Y-52162419D01*
X123677738Y-52162419D02*
X123820595Y-52210038D01*
X123820595Y-52210038D02*
X123868214Y-52257657D01*
X124201548Y-52162419D02*
X124439643Y-53162419D01*
X124439643Y-53162419D02*
X124630119Y-52448133D01*
X124630119Y-52448133D02*
X124820595Y-53162419D01*
X124820595Y-53162419D02*
X125058691Y-52162419D01*
X125915833Y-53162419D02*
X125439643Y-53162419D01*
X125439643Y-53162419D02*
X125439643Y-52162419D01*
X126249167Y-52781466D02*
X127011072Y-52781466D01*
X127963452Y-52162419D02*
X127487262Y-52162419D01*
X127487262Y-52162419D02*
X127439643Y-52638609D01*
X127439643Y-52638609D02*
X127487262Y-52590990D01*
X127487262Y-52590990D02*
X127582500Y-52543371D01*
X127582500Y-52543371D02*
X127820595Y-52543371D01*
X127820595Y-52543371D02*
X127915833Y-52590990D01*
X127915833Y-52590990D02*
X127963452Y-52638609D01*
X127963452Y-52638609D02*
X128011071Y-52733847D01*
X128011071Y-52733847D02*
X128011071Y-52971942D01*
X128011071Y-52971942D02*
X127963452Y-53067180D01*
X127963452Y-53067180D02*
X127915833Y-53114800D01*
X127915833Y-53114800D02*
X127820595Y-53162419D01*
X127820595Y-53162419D02*
X127582500Y-53162419D01*
X127582500Y-53162419D02*
X127487262Y-53114800D01*
X127487262Y-53114800D02*
X127439643Y-53067180D01*
X128963452Y-53162419D02*
X128392024Y-53162419D01*
X128677738Y-53162419D02*
X128677738Y-52162419D01*
X128677738Y-52162419D02*
X128582500Y-52305276D01*
X128582500Y-52305276D02*
X128487262Y-52400514D01*
X128487262Y-52400514D02*
X128392024Y-52448133D01*
X129820595Y-52162419D02*
X129630119Y-52162419D01*
X129630119Y-52162419D02*
X129534881Y-52210038D01*
X129534881Y-52210038D02*
X129487262Y-52257657D01*
X129487262Y-52257657D02*
X129392024Y-52400514D01*
X129392024Y-52400514D02*
X129344405Y-52590990D01*
X129344405Y-52590990D02*
X129344405Y-52971942D01*
X129344405Y-52971942D02*
X129392024Y-53067180D01*
X129392024Y-53067180D02*
X129439643Y-53114800D01*
X129439643Y-53114800D02*
X129534881Y-53162419D01*
X129534881Y-53162419D02*
X129725357Y-53162419D01*
X129725357Y-53162419D02*
X129820595Y-53114800D01*
X129820595Y-53114800D02*
X129868214Y-53067180D01*
X129868214Y-53067180D02*
X129915833Y-52971942D01*
X129915833Y-52971942D02*
X129915833Y-52733847D01*
X129915833Y-52733847D02*
X129868214Y-52638609D01*
X129868214Y-52638609D02*
X129820595Y-52590990D01*
X129820595Y-52590990D02*
X129725357Y-52543371D01*
X129725357Y-52543371D02*
X129534881Y-52543371D01*
X129534881Y-52543371D02*
X129439643Y-52590990D01*
X129439643Y-52590990D02*
X129392024Y-52638609D01*
X129392024Y-52638609D02*
X129344405Y-52733847D01*
X158735795Y-64141786D02*
X158735795Y-64617976D01*
X158450080Y-64046548D02*
X159450080Y-64379881D01*
X159450080Y-64379881D02*
X158450080Y-64713214D01*
X158450080Y-65046548D02*
X159450080Y-65046548D01*
X159450080Y-65046548D02*
X158735795Y-65379881D01*
X158735795Y-65379881D02*
X159450080Y-65713214D01*
X159450080Y-65713214D02*
X158450080Y-65713214D01*
X158450080Y-66189405D02*
X159450080Y-66189405D01*
X159450080Y-66189405D02*
X159450080Y-66570357D01*
X159450080Y-66570357D02*
X159402461Y-66665595D01*
X159402461Y-66665595D02*
X159354842Y-66713214D01*
X159354842Y-66713214D02*
X159259604Y-66760833D01*
X159259604Y-66760833D02*
X159116747Y-66760833D01*
X159116747Y-66760833D02*
X159021509Y-66713214D01*
X159021509Y-66713214D02*
X158973890Y-66665595D01*
X158973890Y-66665595D02*
X158926271Y-66570357D01*
X158926271Y-66570357D02*
X158926271Y-66189405D01*
X158450080Y-67713214D02*
X158450080Y-67141786D01*
X158450080Y-67427500D02*
X159450080Y-67427500D01*
X159450080Y-67427500D02*
X159307223Y-67332262D01*
X159307223Y-67332262D02*
X159211985Y-67237024D01*
X159211985Y-67237024D02*
X159164366Y-67141786D01*
D10*
X171634819Y-83768094D02*
X170634819Y-83768094D01*
X170634819Y-83768094D02*
X170634819Y-83529999D01*
X170634819Y-83529999D02*
X170682438Y-83387142D01*
X170682438Y-83387142D02*
X170777676Y-83291904D01*
X170777676Y-83291904D02*
X170872914Y-83244285D01*
X170872914Y-83244285D02*
X171063390Y-83196666D01*
X171063390Y-83196666D02*
X171206247Y-83196666D01*
X171206247Y-83196666D02*
X171396723Y-83244285D01*
X171396723Y-83244285D02*
X171491961Y-83291904D01*
X171491961Y-83291904D02*
X171587200Y-83387142D01*
X171587200Y-83387142D02*
X171634819Y-83529999D01*
X171634819Y-83529999D02*
X171634819Y-83768094D01*
X170968152Y-82339523D02*
X171634819Y-82339523D01*
X170587200Y-82577618D02*
X171301485Y-82815713D01*
X171301485Y-82815713D02*
X171301485Y-82196666D01*
X169759819Y-79244285D02*
X169759819Y-79815713D01*
X169759819Y-79529999D02*
X168759819Y-79529999D01*
X168759819Y-79529999D02*
X168902676Y-79625237D01*
X168902676Y-79625237D02*
X168997914Y-79720475D01*
X168997914Y-79720475D02*
X169045533Y-79815713D01*
X189319819Y-83637143D02*
X189319819Y-84113333D01*
X189319819Y-84113333D02*
X189796009Y-84160952D01*
X189796009Y-84160952D02*
X189748390Y-84113333D01*
X189748390Y-84113333D02*
X189700771Y-84018095D01*
X189700771Y-84018095D02*
X189700771Y-83780000D01*
X189700771Y-83780000D02*
X189748390Y-83684762D01*
X189748390Y-83684762D02*
X189796009Y-83637143D01*
X189796009Y-83637143D02*
X189891247Y-83589524D01*
X189891247Y-83589524D02*
X190129342Y-83589524D01*
X190129342Y-83589524D02*
X190224580Y-83637143D01*
X190224580Y-83637143D02*
X190272200Y-83684762D01*
X190272200Y-83684762D02*
X190319819Y-83780000D01*
X190319819Y-83780000D02*
X190319819Y-84018095D01*
X190319819Y-84018095D02*
X190272200Y-84113333D01*
X190272200Y-84113333D02*
X190224580Y-84160952D01*
X189319819Y-83303809D02*
X190319819Y-82970476D01*
X190319819Y-82970476D02*
X189319819Y-82637143D01*
X190415057Y-82541905D02*
X190415057Y-81780000D01*
X189796009Y-81541904D02*
X189796009Y-81208571D01*
X190319819Y-81065714D02*
X190319819Y-81541904D01*
X190319819Y-81541904D02*
X189319819Y-81541904D01*
X189319819Y-81541904D02*
X189319819Y-81065714D01*
X189319819Y-80732380D02*
X190319819Y-80065714D01*
X189319819Y-80065714D02*
X190319819Y-80732380D01*
X189319819Y-79827618D02*
X189319819Y-79256190D01*
X190319819Y-79541904D02*
X189319819Y-79541904D01*
X190319819Y-78399047D02*
X190319819Y-78970475D01*
X190319819Y-78684761D02*
X189319819Y-78684761D01*
X189319819Y-78684761D02*
X189462676Y-78779999D01*
X189462676Y-78779999D02*
X189557914Y-78875237D01*
X189557914Y-78875237D02*
X189605533Y-78970475D01*
X178093810Y-56334819D02*
X178093810Y-55334819D01*
X178093810Y-55334819D02*
X178474762Y-55334819D01*
X178474762Y-55334819D02*
X178570000Y-55382438D01*
X178570000Y-55382438D02*
X178617619Y-55430057D01*
X178617619Y-55430057D02*
X178665238Y-55525295D01*
X178665238Y-55525295D02*
X178665238Y-55668152D01*
X178665238Y-55668152D02*
X178617619Y-55763390D01*
X178617619Y-55763390D02*
X178570000Y-55811009D01*
X178570000Y-55811009D02*
X178474762Y-55858628D01*
X178474762Y-55858628D02*
X178093810Y-55858628D01*
X179093810Y-56334819D02*
X179093810Y-55334819D01*
X180093809Y-56334819D02*
X179522381Y-56334819D01*
X179808095Y-56334819D02*
X179808095Y-55334819D01*
X179808095Y-55334819D02*
X179712857Y-55477676D01*
X179712857Y-55477676D02*
X179617619Y-55572914D01*
X179617619Y-55572914D02*
X179522381Y-55620533D01*
X177984819Y-83768094D02*
X176984819Y-83768094D01*
X176984819Y-83768094D02*
X176984819Y-83529999D01*
X176984819Y-83529999D02*
X177032438Y-83387142D01*
X177032438Y-83387142D02*
X177127676Y-83291904D01*
X177127676Y-83291904D02*
X177222914Y-83244285D01*
X177222914Y-83244285D02*
X177413390Y-83196666D01*
X177413390Y-83196666D02*
X177556247Y-83196666D01*
X177556247Y-83196666D02*
X177746723Y-83244285D01*
X177746723Y-83244285D02*
X177841961Y-83291904D01*
X177841961Y-83291904D02*
X177937200Y-83387142D01*
X177937200Y-83387142D02*
X177984819Y-83529999D01*
X177984819Y-83529999D02*
X177984819Y-83768094D01*
X176984819Y-82291904D02*
X176984819Y-82768094D01*
X176984819Y-82768094D02*
X177461009Y-82815713D01*
X177461009Y-82815713D02*
X177413390Y-82768094D01*
X177413390Y-82768094D02*
X177365771Y-82672856D01*
X177365771Y-82672856D02*
X177365771Y-82434761D01*
X177365771Y-82434761D02*
X177413390Y-82339523D01*
X177413390Y-82339523D02*
X177461009Y-82291904D01*
X177461009Y-82291904D02*
X177556247Y-82244285D01*
X177556247Y-82244285D02*
X177794342Y-82244285D01*
X177794342Y-82244285D02*
X177889580Y-82291904D01*
X177889580Y-82291904D02*
X177937200Y-82339523D01*
X177937200Y-82339523D02*
X177984819Y-82434761D01*
X177984819Y-82434761D02*
X177984819Y-82672856D01*
X177984819Y-82672856D02*
X177937200Y-82768094D01*
X177937200Y-82768094D02*
X177889580Y-82815713D01*
X176109819Y-79244285D02*
X176109819Y-79815713D01*
X176109819Y-79529999D02*
X175109819Y-79529999D01*
X175109819Y-79529999D02*
X175252676Y-79625237D01*
X175252676Y-79625237D02*
X175347914Y-79720475D01*
X175347914Y-79720475D02*
X175395533Y-79815713D01*
X189319819Y-58808571D02*
X189319819Y-58189524D01*
X189319819Y-58189524D02*
X189700771Y-58522857D01*
X189700771Y-58522857D02*
X189700771Y-58380000D01*
X189700771Y-58380000D02*
X189748390Y-58284762D01*
X189748390Y-58284762D02*
X189796009Y-58237143D01*
X189796009Y-58237143D02*
X189891247Y-58189524D01*
X189891247Y-58189524D02*
X190129342Y-58189524D01*
X190129342Y-58189524D02*
X190224580Y-58237143D01*
X190224580Y-58237143D02*
X190272200Y-58284762D01*
X190272200Y-58284762D02*
X190319819Y-58380000D01*
X190319819Y-58380000D02*
X190319819Y-58665714D01*
X190319819Y-58665714D02*
X190272200Y-58760952D01*
X190272200Y-58760952D02*
X190224580Y-58808571D01*
X189319819Y-57903809D02*
X190319819Y-57570476D01*
X190319819Y-57570476D02*
X189319819Y-57237143D01*
X190415057Y-57141905D02*
X190415057Y-56380000D01*
X189796009Y-56141904D02*
X189796009Y-55808571D01*
X190319819Y-55665714D02*
X190319819Y-56141904D01*
X190319819Y-56141904D02*
X189319819Y-56141904D01*
X189319819Y-56141904D02*
X189319819Y-55665714D01*
X189319819Y-55332380D02*
X190319819Y-54665714D01*
X189319819Y-54665714D02*
X190319819Y-55332380D01*
X189319819Y-54427618D02*
X189319819Y-53856190D01*
X190319819Y-54141904D02*
X189319819Y-54141904D01*
X190319819Y-52999047D02*
X190319819Y-53570475D01*
X190319819Y-53284761D02*
X189319819Y-53284761D01*
X189319819Y-53284761D02*
X189462676Y-53379999D01*
X189462676Y-53379999D02*
X189557914Y-53475237D01*
X189557914Y-53475237D02*
X189605533Y-53570475D01*
X180729047Y-72321009D02*
X180871904Y-72368628D01*
X180871904Y-72368628D02*
X180919523Y-72416247D01*
X180919523Y-72416247D02*
X180967142Y-72511485D01*
X180967142Y-72511485D02*
X180967142Y-72654342D01*
X180967142Y-72654342D02*
X180919523Y-72749580D01*
X180919523Y-72749580D02*
X180871904Y-72797200D01*
X180871904Y-72797200D02*
X180776666Y-72844819D01*
X180776666Y-72844819D02*
X180395714Y-72844819D01*
X180395714Y-72844819D02*
X180395714Y-71844819D01*
X180395714Y-71844819D02*
X180729047Y-71844819D01*
X180729047Y-71844819D02*
X180824285Y-71892438D01*
X180824285Y-71892438D02*
X180871904Y-71940057D01*
X180871904Y-71940057D02*
X180919523Y-72035295D01*
X180919523Y-72035295D02*
X180919523Y-72130533D01*
X180919523Y-72130533D02*
X180871904Y-72225771D01*
X180871904Y-72225771D02*
X180824285Y-72273390D01*
X180824285Y-72273390D02*
X180729047Y-72321009D01*
X180729047Y-72321009D02*
X180395714Y-72321009D01*
X181300476Y-71844819D02*
X181967142Y-71844819D01*
X181967142Y-71844819D02*
X181300476Y-72844819D01*
X181300476Y-72844819D02*
X181967142Y-72844819D01*
X182871904Y-72844819D02*
X182300476Y-72844819D01*
X182586190Y-72844819D02*
X182586190Y-71844819D01*
X182586190Y-71844819D02*
X182490952Y-71987676D01*
X182490952Y-71987676D02*
X182395714Y-72082914D01*
X182395714Y-72082914D02*
X182300476Y-72130533D01*
X184223866Y-61340951D02*
X184223866Y-60579047D01*
X184604819Y-60959999D02*
X183842914Y-60959999D01*
D12*
X141305080Y-64492381D02*
X142305080Y-64492381D01*
X142305080Y-64492381D02*
X141590795Y-64825714D01*
X141590795Y-64825714D02*
X142305080Y-65159047D01*
X142305080Y-65159047D02*
X141305080Y-65159047D01*
X141305080Y-65635238D02*
X142305080Y-65635238D01*
X141400319Y-66682856D02*
X141352700Y-66635237D01*
X141352700Y-66635237D02*
X141305080Y-66492380D01*
X141305080Y-66492380D02*
X141305080Y-66397142D01*
X141305080Y-66397142D02*
X141352700Y-66254285D01*
X141352700Y-66254285D02*
X141447938Y-66159047D01*
X141447938Y-66159047D02*
X141543176Y-66111428D01*
X141543176Y-66111428D02*
X141733652Y-66063809D01*
X141733652Y-66063809D02*
X141876509Y-66063809D01*
X141876509Y-66063809D02*
X142066985Y-66111428D01*
X142066985Y-66111428D02*
X142162223Y-66159047D01*
X142162223Y-66159047D02*
X142257461Y-66254285D01*
X142257461Y-66254285D02*
X142305080Y-66397142D01*
X142305080Y-66397142D02*
X142305080Y-66492380D01*
X142305080Y-66492380D02*
X142257461Y-66635237D01*
X142257461Y-66635237D02*
X142209842Y-66682856D01*
X142209842Y-67063809D02*
X142257461Y-67111428D01*
X142257461Y-67111428D02*
X142305080Y-67206666D01*
X142305080Y-67206666D02*
X142305080Y-67444761D01*
X142305080Y-67444761D02*
X142257461Y-67539999D01*
X142257461Y-67539999D02*
X142209842Y-67587618D01*
X142209842Y-67587618D02*
X142114604Y-67635237D01*
X142114604Y-67635237D02*
X142019366Y-67635237D01*
X142019366Y-67635237D02*
X141876509Y-67587618D01*
X141876509Y-67587618D02*
X141305080Y-67016190D01*
X141305080Y-67016190D02*
X141305080Y-67635237D01*
X170656667Y-76022419D02*
X170656667Y-75022419D01*
X171085238Y-75117657D02*
X171132857Y-75070038D01*
X171132857Y-75070038D02*
X171228095Y-75022419D01*
X171228095Y-75022419D02*
X171466190Y-75022419D01*
X171466190Y-75022419D02*
X171561428Y-75070038D01*
X171561428Y-75070038D02*
X171609047Y-75117657D01*
X171609047Y-75117657D02*
X171656666Y-75212895D01*
X171656666Y-75212895D02*
X171656666Y-75308133D01*
X171656666Y-75308133D02*
X171609047Y-75450990D01*
X171609047Y-75450990D02*
X171037619Y-76022419D01*
X171037619Y-76022419D02*
X171656666Y-76022419D01*
X172656666Y-75927180D02*
X172609047Y-75974800D01*
X172609047Y-75974800D02*
X172466190Y-76022419D01*
X172466190Y-76022419D02*
X172370952Y-76022419D01*
X172370952Y-76022419D02*
X172228095Y-75974800D01*
X172228095Y-75974800D02*
X172132857Y-75879561D01*
X172132857Y-75879561D02*
X172085238Y-75784323D01*
X172085238Y-75784323D02*
X172037619Y-75593847D01*
X172037619Y-75593847D02*
X172037619Y-75450990D01*
X172037619Y-75450990D02*
X172085238Y-75260514D01*
X172085238Y-75260514D02*
X172132857Y-75165276D01*
X172132857Y-75165276D02*
X172228095Y-75070038D01*
X172228095Y-75070038D02*
X172370952Y-75022419D01*
X172370952Y-75022419D02*
X172466190Y-75022419D01*
X172466190Y-75022419D02*
X172609047Y-75070038D01*
X172609047Y-75070038D02*
X172656666Y-75117657D01*
X172847143Y-76117657D02*
X173609047Y-76117657D01*
X173847143Y-76022419D02*
X173847143Y-75022419D01*
X173847143Y-75022419D02*
X174418571Y-76022419D01*
X174418571Y-76022419D02*
X174418571Y-75022419D01*
X174894762Y-75498609D02*
X175228095Y-75498609D01*
X175370952Y-76022419D02*
X174894762Y-76022419D01*
X174894762Y-76022419D02*
X174894762Y-75022419D01*
X174894762Y-75022419D02*
X175370952Y-75022419D01*
X175990000Y-75022419D02*
X176180476Y-75022419D01*
X176180476Y-75022419D02*
X176275714Y-75070038D01*
X176275714Y-75070038D02*
X176370952Y-75165276D01*
X176370952Y-75165276D02*
X176418571Y-75355752D01*
X176418571Y-75355752D02*
X176418571Y-75689085D01*
X176418571Y-75689085D02*
X176370952Y-75879561D01*
X176370952Y-75879561D02*
X176275714Y-75974800D01*
X176275714Y-75974800D02*
X176180476Y-76022419D01*
X176180476Y-76022419D02*
X175990000Y-76022419D01*
X175990000Y-76022419D02*
X175894762Y-75974800D01*
X175894762Y-75974800D02*
X175799524Y-75879561D01*
X175799524Y-75879561D02*
X175751905Y-75689085D01*
X175751905Y-75689085D02*
X175751905Y-75355752D01*
X175751905Y-75355752D02*
X175799524Y-75165276D01*
X175799524Y-75165276D02*
X175894762Y-75070038D01*
X175894762Y-75070038D02*
X175990000Y-75022419D01*
X177370952Y-76022419D02*
X176799524Y-76022419D01*
X177085238Y-76022419D02*
X177085238Y-75022419D01*
X177085238Y-75022419D02*
X176990000Y-75165276D01*
X176990000Y-75165276D02*
X176894762Y-75260514D01*
X176894762Y-75260514D02*
X176799524Y-75308133D01*
D10*
X190319819Y-71682856D02*
X189319819Y-71682856D01*
X189415057Y-71254285D02*
X189367438Y-71206666D01*
X189367438Y-71206666D02*
X189319819Y-71111428D01*
X189319819Y-71111428D02*
X189319819Y-70873333D01*
X189319819Y-70873333D02*
X189367438Y-70778095D01*
X189367438Y-70778095D02*
X189415057Y-70730476D01*
X189415057Y-70730476D02*
X189510295Y-70682857D01*
X189510295Y-70682857D02*
X189605533Y-70682857D01*
X189605533Y-70682857D02*
X189748390Y-70730476D01*
X189748390Y-70730476D02*
X190319819Y-71301904D01*
X190319819Y-71301904D02*
X190319819Y-70682857D01*
X190224580Y-69682857D02*
X190272200Y-69730476D01*
X190272200Y-69730476D02*
X190319819Y-69873333D01*
X190319819Y-69873333D02*
X190319819Y-69968571D01*
X190319819Y-69968571D02*
X190272200Y-70111428D01*
X190272200Y-70111428D02*
X190176961Y-70206666D01*
X190176961Y-70206666D02*
X190081723Y-70254285D01*
X190081723Y-70254285D02*
X189891247Y-70301904D01*
X189891247Y-70301904D02*
X189748390Y-70301904D01*
X189748390Y-70301904D02*
X189557914Y-70254285D01*
X189557914Y-70254285D02*
X189462676Y-70206666D01*
X189462676Y-70206666D02*
X189367438Y-70111428D01*
X189367438Y-70111428D02*
X189319819Y-69968571D01*
X189319819Y-69968571D02*
X189319819Y-69873333D01*
X189319819Y-69873333D02*
X189367438Y-69730476D01*
X189367438Y-69730476D02*
X189415057Y-69682857D01*
X190415057Y-69492381D02*
X190415057Y-68730476D01*
X189796009Y-68492380D02*
X189796009Y-68159047D01*
X190319819Y-68016190D02*
X190319819Y-68492380D01*
X190319819Y-68492380D02*
X189319819Y-68492380D01*
X189319819Y-68492380D02*
X189319819Y-68016190D01*
X189319819Y-67682856D02*
X190319819Y-67016190D01*
X189319819Y-67016190D02*
X190319819Y-67682856D01*
X189319819Y-66778094D02*
X189319819Y-66206666D01*
X190319819Y-66492380D02*
X189319819Y-66492380D01*
X190319819Y-65349523D02*
X190319819Y-65920951D01*
X190319819Y-65635237D02*
X189319819Y-65635237D01*
X189319819Y-65635237D02*
X189462676Y-65730475D01*
X189462676Y-65730475D02*
X189557914Y-65825713D01*
X189557914Y-65825713D02*
X189605533Y-65920951D01*
X158934819Y-83712094D02*
X157934819Y-83712094D01*
X157934819Y-83712094D02*
X157934819Y-83473999D01*
X157934819Y-83473999D02*
X157982438Y-83331142D01*
X157982438Y-83331142D02*
X158077676Y-83235904D01*
X158077676Y-83235904D02*
X158172914Y-83188285D01*
X158172914Y-83188285D02*
X158363390Y-83140666D01*
X158363390Y-83140666D02*
X158506247Y-83140666D01*
X158506247Y-83140666D02*
X158696723Y-83188285D01*
X158696723Y-83188285D02*
X158791961Y-83235904D01*
X158791961Y-83235904D02*
X158887200Y-83331142D01*
X158887200Y-83331142D02*
X158934819Y-83473999D01*
X158934819Y-83473999D02*
X158934819Y-83712094D01*
X158030057Y-82759713D02*
X157982438Y-82712094D01*
X157982438Y-82712094D02*
X157934819Y-82616856D01*
X157934819Y-82616856D02*
X157934819Y-82378761D01*
X157934819Y-82378761D02*
X157982438Y-82283523D01*
X157982438Y-82283523D02*
X158030057Y-82235904D01*
X158030057Y-82235904D02*
X158125295Y-82188285D01*
X158125295Y-82188285D02*
X158220533Y-82188285D01*
X158220533Y-82188285D02*
X158363390Y-82235904D01*
X158363390Y-82235904D02*
X158934819Y-82807332D01*
X158934819Y-82807332D02*
X158934819Y-82188285D01*
X157059819Y-79188285D02*
X157059819Y-79759713D01*
X157059819Y-79473999D02*
X156059819Y-79473999D01*
X156059819Y-79473999D02*
X156202676Y-79569237D01*
X156202676Y-79569237D02*
X156297914Y-79664475D01*
X156297914Y-79664475D02*
X156345533Y-79759713D01*
X143917200Y-84240475D02*
X143964819Y-84097618D01*
X143964819Y-84097618D02*
X143964819Y-83859523D01*
X143964819Y-83859523D02*
X143917200Y-83764285D01*
X143917200Y-83764285D02*
X143869580Y-83716666D01*
X143869580Y-83716666D02*
X143774342Y-83669047D01*
X143774342Y-83669047D02*
X143679104Y-83669047D01*
X143679104Y-83669047D02*
X143583866Y-83716666D01*
X143583866Y-83716666D02*
X143536247Y-83764285D01*
X143536247Y-83764285D02*
X143488628Y-83859523D01*
X143488628Y-83859523D02*
X143441009Y-84049999D01*
X143441009Y-84049999D02*
X143393390Y-84145237D01*
X143393390Y-84145237D02*
X143345771Y-84192856D01*
X143345771Y-84192856D02*
X143250533Y-84240475D01*
X143250533Y-84240475D02*
X143155295Y-84240475D01*
X143155295Y-84240475D02*
X143060057Y-84192856D01*
X143060057Y-84192856D02*
X143012438Y-84145237D01*
X143012438Y-84145237D02*
X142964819Y-84049999D01*
X142964819Y-84049999D02*
X142964819Y-83811904D01*
X142964819Y-83811904D02*
X143012438Y-83669047D01*
X143964819Y-82669047D02*
X143488628Y-83002380D01*
X143964819Y-83240475D02*
X142964819Y-83240475D01*
X142964819Y-83240475D02*
X142964819Y-82859523D01*
X142964819Y-82859523D02*
X143012438Y-82764285D01*
X143012438Y-82764285D02*
X143060057Y-82716666D01*
X143060057Y-82716666D02*
X143155295Y-82669047D01*
X143155295Y-82669047D02*
X143298152Y-82669047D01*
X143298152Y-82669047D02*
X143393390Y-82716666D01*
X143393390Y-82716666D02*
X143441009Y-82764285D01*
X143441009Y-82764285D02*
X143488628Y-82859523D01*
X143488628Y-82859523D02*
X143488628Y-83240475D01*
X142964819Y-82383332D02*
X143964819Y-82049999D01*
X143964819Y-82049999D02*
X142964819Y-81716666D01*
X143964819Y-80859523D02*
X143964819Y-81430951D01*
X143964819Y-81145237D02*
X142964819Y-81145237D01*
X142964819Y-81145237D02*
X143107676Y-81240475D01*
X143107676Y-81240475D02*
X143202914Y-81335713D01*
X143202914Y-81335713D02*
X143250533Y-81430951D01*
D13*
%TO.C,D3*%
X164030000Y-80024000D02*
X164030000Y-85924000D01*
X160130000Y-80024000D02*
X160130000Y-85924000D01*
X160130000Y-85924000D02*
X161205000Y-85924000D01*
%TO.C,D1*%
X150935000Y-80024000D02*
X150935000Y-85924000D01*
X147035000Y-80024000D02*
X147035000Y-85924000D01*
X147035000Y-85924000D02*
X148110000Y-85924000D01*
%TO.C,D4*%
X170380000Y-80080000D02*
X170380000Y-85980000D01*
X166480000Y-80080000D02*
X166480000Y-85980000D01*
X166480000Y-85980000D02*
X167555000Y-85980000D01*
%TO.C,5V_EXT1*%
X198330000Y-75930000D02*
X197080000Y-75930000D01*
X198040000Y-76220000D02*
X192070000Y-76220000D01*
X192070000Y-76220000D02*
X192070000Y-86340000D01*
X198030000Y-76230000D02*
X197280000Y-76230000D01*
X197280000Y-76230000D02*
X197280000Y-78030000D01*
X195780000Y-76230000D02*
X195780000Y-76980000D01*
X195780000Y-76980000D02*
X192830000Y-76980000D01*
X192830000Y-76980000D02*
X192830000Y-81280000D01*
X198330000Y-77180000D02*
X198330000Y-75930000D01*
X198030000Y-78030000D02*
X198030000Y-76230000D01*
X197280000Y-78030000D02*
X198030000Y-78030000D01*
X198030000Y-79530000D02*
X197280000Y-79530000D01*
X197280000Y-79530000D02*
X197280000Y-83030000D01*
X198030000Y-83030000D02*
X198030000Y-79530000D01*
X197280000Y-83030000D02*
X198030000Y-83030000D01*
X198030000Y-84530000D02*
X197280000Y-84530000D01*
X197280000Y-84530000D02*
X197280000Y-86330000D01*
X195780000Y-85580000D02*
X192830000Y-85580000D01*
X192830000Y-85580000D02*
X192830000Y-81280000D01*
X198030000Y-86330000D02*
X198030000Y-84530000D01*
X197280000Y-86330000D02*
X198030000Y-86330000D01*
X195780000Y-86330000D02*
X195780000Y-85580000D01*
X198040000Y-86340000D02*
X198040000Y-76220000D01*
X192070000Y-86340000D02*
X198040000Y-86340000D01*
%TO.C,PI1*%
X186750000Y-49470000D02*
X186750000Y-50800000D01*
X185420000Y-49470000D02*
X186750000Y-49470000D01*
X184150000Y-49470000D02*
X135830000Y-49470000D01*
X184150000Y-49470000D02*
X184150000Y-52070000D01*
X135830000Y-49470000D02*
X135830000Y-54670000D01*
X186750000Y-52070000D02*
X186750000Y-54670000D01*
X184150000Y-52070000D02*
X186750000Y-52070000D01*
X186750000Y-54670000D02*
X135830000Y-54670000D01*
%TO.C,D5*%
X176730000Y-80080000D02*
X176730000Y-85980000D01*
X172830000Y-80080000D02*
X172830000Y-85980000D01*
X172830000Y-85980000D02*
X173905000Y-85980000D01*
%TO.C,3V_EXT1*%
X198330000Y-50530000D02*
X197080000Y-50530000D01*
X198040000Y-50820000D02*
X192070000Y-50820000D01*
X192070000Y-50820000D02*
X192070000Y-60940000D01*
X198030000Y-50830000D02*
X197280000Y-50830000D01*
X197280000Y-50830000D02*
X197280000Y-52630000D01*
X195780000Y-50830000D02*
X195780000Y-51580000D01*
X195780000Y-51580000D02*
X192830000Y-51580000D01*
X192830000Y-51580000D02*
X192830000Y-55880000D01*
X198330000Y-51780000D02*
X198330000Y-50530000D01*
X198030000Y-52630000D02*
X198030000Y-50830000D01*
X197280000Y-52630000D02*
X198030000Y-52630000D01*
X198030000Y-54130000D02*
X197280000Y-54130000D01*
X197280000Y-54130000D02*
X197280000Y-57630000D01*
X198030000Y-57630000D02*
X198030000Y-54130000D01*
X197280000Y-57630000D02*
X198030000Y-57630000D01*
X198030000Y-59130000D02*
X197280000Y-59130000D01*
X197280000Y-59130000D02*
X197280000Y-60930000D01*
X195780000Y-60180000D02*
X192830000Y-60180000D01*
X192830000Y-60180000D02*
X192830000Y-55880000D01*
X198030000Y-60930000D02*
X198030000Y-59130000D01*
X197280000Y-60930000D02*
X198030000Y-60930000D01*
X195780000Y-60930000D02*
X195780000Y-60180000D01*
X198040000Y-60940000D02*
X198040000Y-50820000D01*
X192070000Y-60940000D02*
X198040000Y-60940000D01*
%TO.C,BZ1*%
X187710000Y-64770000D02*
G75*
G03*
X187710000Y-64770000I-6100000J0D01*
G01*
%TO.C,I2C_EXT1*%
X198330000Y-61960000D02*
X197080000Y-61960000D01*
X198040000Y-62250000D02*
X192070000Y-62250000D01*
X192070000Y-62250000D02*
X192070000Y-74870000D01*
X198030000Y-62260000D02*
X197280000Y-62260000D01*
X197280000Y-62260000D02*
X197280000Y-64060000D01*
X195780000Y-62260000D02*
X195780000Y-63010000D01*
X195780000Y-63010000D02*
X192830000Y-63010000D01*
X192830000Y-63010000D02*
X192830000Y-68560000D01*
X198330000Y-63210000D02*
X198330000Y-61960000D01*
X198030000Y-64060000D02*
X198030000Y-62260000D01*
X197280000Y-64060000D02*
X198030000Y-64060000D01*
X198030000Y-65560000D02*
X197280000Y-65560000D01*
X197280000Y-65560000D02*
X197280000Y-71560000D01*
X198030000Y-71560000D02*
X198030000Y-65560000D01*
X197280000Y-71560000D02*
X198030000Y-71560000D01*
X198030000Y-73060000D02*
X197280000Y-73060000D01*
X197280000Y-73060000D02*
X197280000Y-74860000D01*
X195780000Y-74110000D02*
X192830000Y-74110000D01*
X192830000Y-74110000D02*
X192830000Y-68560000D01*
X198030000Y-74860000D02*
X198030000Y-73060000D01*
X197280000Y-74860000D02*
X198030000Y-74860000D01*
X195780000Y-74860000D02*
X195780000Y-74110000D01*
X198040000Y-74870000D02*
X198040000Y-62250000D01*
X192070000Y-74870000D02*
X198040000Y-74870000D01*
%TO.C,D2*%
X157680000Y-80024000D02*
X157680000Y-85924000D01*
X153780000Y-80024000D02*
X153780000Y-85924000D01*
X153780000Y-85924000D02*
X154855000Y-85924000D01*
%TO.C,SRV1*%
X139640000Y-78680000D02*
X140970000Y-78680000D01*
X139640000Y-80010000D02*
X139640000Y-78680000D01*
X139640000Y-81280000D02*
X139640000Y-86420000D01*
X139640000Y-81280000D02*
X142300000Y-81280000D01*
X139640000Y-86420000D02*
X142300000Y-86420000D01*
X142300000Y-81280000D02*
X142300000Y-86420000D01*
%TD*%
M02*
