%TF.GenerationSoftware,KiCad,Pcbnew,7.0.8-7.0.8~ubuntu22.04.1*%
%TF.CreationDate,2023-11-17T20:39:09+00:00*%
%TF.ProjectId,v4head,76346865-6164-42e6-9b69-6361645f7063,rev?*%
%TF.SameCoordinates,Original*%
%TF.FileFunction,Copper,L1,Top*%
%TF.FilePolarity,Positive*%
%FSLAX46Y46*%
G04 Gerber Fmt 4.6, Leading zero omitted, Abs format (unit mm)*
G04 Created by KiCad (PCBNEW 7.0.8-7.0.8~ubuntu22.04.1) date 2023-11-17 20:39:09*
%MOMM*%
%LPD*%
G01*
G04 APERTURE LIST*
G04 Aperture macros list*
%AMRoundRect*
0 Rectangle with rounded corners*
0 $1 Rounding radius*
0 $2 $3 $4 $5 $6 $7 $8 $9 X,Y pos of 4 corners*
0 Add a 4 corners polygon primitive as box body*
4,1,4,$2,$3,$4,$5,$6,$7,$8,$9,$2,$3,0*
0 Add four circle primitives for the rounded corners*
1,1,$1+$1,$2,$3*
1,1,$1+$1,$4,$5*
1,1,$1+$1,$6,$7*
1,1,$1+$1,$8,$9*
0 Add four rect primitives between the rounded corners*
20,1,$1+$1,$2,$3,$4,$5,0*
20,1,$1+$1,$4,$5,$6,$7,0*
20,1,$1+$1,$6,$7,$8,$9,0*
20,1,$1+$1,$8,$9,$2,$3,0*%
G04 Aperture macros list end*
%TA.AperFunction,SMDPad,CuDef*%
%ADD10RoundRect,0.100000X0.100000X-0.130000X0.100000X0.130000X-0.100000X0.130000X-0.100000X-0.130000X0*%
%TD*%
%TA.AperFunction,SMDPad,CuDef*%
%ADD11R,0.850000X1.600000*%
%TD*%
%TA.AperFunction,ComponentPad*%
%ADD12C,1.700000*%
%TD*%
%TA.AperFunction,ComponentPad*%
%ADD13RoundRect,0.250000X-0.725000X0.600000X-0.725000X-0.600000X0.725000X-0.600000X0.725000X0.600000X0*%
%TD*%
%TA.AperFunction,ComponentPad*%
%ADD14O,1.950000X1.700000*%
%TD*%
%TA.AperFunction,ComponentPad*%
%ADD15R,1.700000X1.700000*%
%TD*%
%TA.AperFunction,ComponentPad*%
%ADD16O,1.700000X1.700000*%
%TD*%
%TA.AperFunction,ComponentPad*%
%ADD17R,2.000000X2.000000*%
%TD*%
%TA.AperFunction,ComponentPad*%
%ADD18C,2.000000*%
%TD*%
%TA.AperFunction,ComponentPad*%
%ADD19RoundRect,0.250000X0.600000X0.750000X-0.600000X0.750000X-0.600000X-0.750000X0.600000X-0.750000X0*%
%TD*%
%TA.AperFunction,ComponentPad*%
%ADD20O,1.700000X2.000000*%
%TD*%
%TA.AperFunction,ComponentPad*%
%ADD21C,10.160000*%
%TD*%
%TA.AperFunction,ViaPad*%
%ADD22C,0.800000*%
%TD*%
%TA.AperFunction,Conductor*%
%ADD23C,0.250000*%
%TD*%
%TA.AperFunction,Conductor*%
%ADD24C,0.500000*%
%TD*%
G04 APERTURE END LIST*
D10*
%TO.P,C1,1*%
%TO.N,+5V*%
X146050000Y-83505000D03*
%TO.P,C1,2*%
%TO.N,GND*%
X146050000Y-82865000D03*
%TD*%
D11*
%TO.P,D3,1,DOUT*%
%TO.N,GND*%
X162955000Y-81224000D03*
%TO.P,D3,2,VSS*%
X161205000Y-81224000D03*
%TO.P,D3,3,DIN*%
X161205000Y-84724000D03*
%TO.P,D3,4,VDD*%
%TO.N,+5V*%
X162955000Y-84724000D03*
%TD*%
%TO.P,D1,1,DOUT*%
%TO.N,Net-(D1-DOUT)*%
X149860000Y-81224000D03*
%TO.P,D1,2,VSS*%
%TO.N,GND*%
X148110000Y-81224000D03*
%TO.P,D1,3,DIN*%
%TO.N,Net-(D1-DIN)*%
X148110000Y-84724000D03*
%TO.P,D1,4,VDD*%
%TO.N,+5V*%
X149860000Y-84724000D03*
%TD*%
D12*
%TO.P,LLC1,1,HV*%
%TO.N,+5V*%
X128427500Y-73547500D03*
%TO.P,LLC1,2,GND*%
%TO.N,GND*%
X125887500Y-73547500D03*
%TO.P,LLC1,3,HV1*%
%TO.N,Net-(5V_EXT1-Pin_1)*%
X133507500Y-73547500D03*
%TO.P,LLC1,4,HV2*%
%TO.N,Net-(LLC1-HV2)*%
X130967500Y-73547500D03*
%TO.P,LLC1,5,HV3*%
%TO.N,Net-(LLC1-HV3)*%
X123347500Y-73547500D03*
%TO.P,LLC1,6,HV4*%
%TO.N,Net-(LLC1-HV4)*%
X120807500Y-73547500D03*
%TO.P,LLC1,7,LV*%
%TO.N,+3V3*%
X128427500Y-60847500D03*
%TO.P,LLC1,8,GND*%
%TO.N,GND*%
X125887500Y-60847500D03*
%TO.P,LLC1,9,LV1*%
%TO.N,Net-(LLC1-LV1)*%
X133507500Y-60847500D03*
%TO.P,LLC1,10,LV2*%
%TO.N,Net-(LLC1-LV2)*%
X130967500Y-60847500D03*
%TO.P,LLC1,11,LV3*%
%TO.N,Net-(LLC1-LV3)*%
X123347500Y-60847500D03*
%TO.P,LLC1,12,LV4*%
%TO.N,Net-(LLC1-LV4)*%
X120807500Y-60847500D03*
%TD*%
D10*
%TO.P,C4,1*%
%TO.N,+5V*%
X165735000Y-83444000D03*
%TO.P,C4,2*%
%TO.N,GND*%
X165735000Y-82804000D03*
%TD*%
%TO.P,C3,1*%
%TO.N,+5V*%
X159385000Y-83505000D03*
%TO.P,C3,2*%
%TO.N,GND*%
X159385000Y-82865000D03*
%TD*%
D12*
%TO.P,RCWL-516,1,CDS*%
%TO.N,unconnected-(RCWL-516-CDS-Pad1)*%
X131162500Y-56402500D03*
%TO.P,RCWL-516,2,VCC*%
%TO.N,+5V*%
X128622500Y-56402500D03*
%TO.P,RCWL-516,3,OUT*%
%TO.N,Net-(PI1-GPIO26)*%
X126082500Y-56402500D03*
%TO.P,RCWL-516,4,GND*%
%TO.N,GND*%
X123542500Y-56402500D03*
%TO.P,RCWL-516,5,3V3_OUT*%
%TO.N,unconnected-(RCWL-516-3V3_OUT-Pad5)*%
X121002500Y-56402500D03*
%TD*%
%TO.P,AMP1,1,5v*%
%TO.N,+5V*%
X156210000Y-73660000D03*
%TO.P,AMP1,2,Gnd*%
%TO.N,GND*%
X156210000Y-71120000D03*
%TO.P,AMP1,3,SD*%
%TO.N,unconnected-(AMP1-SD-Pad3)*%
X156210000Y-68580000D03*
%TO.P,AMP1,4,Gain*%
%TO.N,unconnected-(AMP1-Gain-Pad4)*%
X156210000Y-66040000D03*
%TO.P,AMP1,5,DIN*%
%TO.N,Net-(AMP1-DIN)*%
X156210000Y-63500000D03*
%TO.P,AMP1,6,BCLK*%
%TO.N,Net-(AMP1-BCLK)*%
X156210000Y-60960000D03*
%TO.P,AMP1,7,LRCLK*%
%TO.N,Net-(AMP1-LRCLK)*%
X156210000Y-58420000D03*
%TD*%
D11*
%TO.P,D4,1,DOUT*%
%TO.N,GND*%
X169305000Y-81280000D03*
%TO.P,D4,2,VSS*%
X167555000Y-81280000D03*
%TO.P,D4,3,DIN*%
X167555000Y-84780000D03*
%TO.P,D4,4,VDD*%
%TO.N,+5V*%
X169305000Y-84780000D03*
%TD*%
D13*
%TO.P,5V_EXT1,1,Pin_1*%
%TO.N,Net-(5V_EXT1-Pin_1)*%
X195580000Y-78780000D03*
D14*
%TO.P,5V_EXT1,2,Pin_2*%
%TO.N,+5V*%
X195580000Y-81280000D03*
%TO.P,5V_EXT1,3,Pin_3*%
%TO.N,GND*%
X195580000Y-83780000D03*
%TD*%
D15*
%TO.P,PI1,1,3V3*%
%TO.N,+3V3*%
X185420000Y-50800000D03*
D16*
%TO.P,PI1,2,5V*%
%TO.N,+5V*%
X185420000Y-53340000D03*
%TO.P,PI1,3,SDA/GPIO2*%
%TO.N,Net-(I2C_EXT1-Pin_3)*%
X182880000Y-50800000D03*
%TO.P,PI1,4,5V*%
%TO.N,+5V*%
X182880000Y-53340000D03*
%TO.P,PI1,5,SCL/GPIO3*%
%TO.N,Net-(I2C_EXT1-Pin_4)*%
X180340000Y-50800000D03*
%TO.P,PI1,6,GND*%
%TO.N,GND*%
X180340000Y-53340000D03*
%TO.P,PI1,7,GCLK0/GPIO4*%
%TO.N,unconnected-(PI1-GCLK0{slash}GPIO4-Pad7)*%
X177800000Y-50800000D03*
%TO.P,PI1,8,GPIO14/TXD*%
%TO.N,Net-(LLC1-LV4)*%
X177800000Y-53340000D03*
%TO.P,PI1,9,GND*%
%TO.N,GND*%
X175260000Y-50800000D03*
%TO.P,PI1,10,GPIO15/RXD*%
%TO.N,Net-(LLC1-LV3)*%
X175260000Y-53340000D03*
%TO.P,PI1,11,GPIO17*%
%TO.N,unconnected-(PI1-GPIO17-Pad11)*%
X172720000Y-50800000D03*
%TO.P,PI1,12,GPIO18/PWM0*%
%TO.N,Net-(AMP1-BCLK)*%
X172720000Y-53340000D03*
%TO.P,PI1,13,GPIO27*%
%TO.N,Net-(BZ1--)*%
X170180000Y-50800000D03*
%TO.P,PI1,14,GND*%
%TO.N,GND*%
X170180000Y-53340000D03*
%TO.P,PI1,15,GPIO22*%
%TO.N,unconnected-(PI1-GPIO22-Pad15)*%
X167640000Y-50800000D03*
%TO.P,PI1,16,GPIO23*%
%TO.N,unconnected-(PI1-GPIO23-Pad16)*%
X167640000Y-53340000D03*
%TO.P,PI1,17,3V3*%
%TO.N,unconnected-(PI1-3V3-Pad17)*%
X165100000Y-50800000D03*
%TO.P,PI1,18,GPIO24*%
%TO.N,unconnected-(PI1-GPIO24-Pad18)*%
X165100000Y-53340000D03*
%TO.P,PI1,19,MOSI0/GPIO10*%
%TO.N,unconnected-(PI1-MOSI0{slash}GPIO10-Pad19)*%
X162560000Y-50800000D03*
%TO.P,PI1,20,GND*%
%TO.N,GND*%
X162560000Y-53340000D03*
%TO.P,PI1,21,MISO0/GPIO9*%
%TO.N,unconnected-(PI1-MISO0{slash}GPIO9-Pad21)*%
X160020000Y-50800000D03*
%TO.P,PI1,22,GPIO25*%
%TO.N,Net-(3V_EXT1-Pin_1)*%
X160020000Y-53340000D03*
%TO.P,PI1,23,SCLK0/GPIO11*%
%TO.N,unconnected-(PI1-SCLK0{slash}GPIO11-Pad23)*%
X157480000Y-50800000D03*
%TO.P,PI1,24,~{CE0}/GPIO8*%
%TO.N,unconnected-(PI1-~{CE0}{slash}GPIO8-Pad24)*%
X157480000Y-53340000D03*
%TO.P,PI1,25,GND*%
%TO.N,GND*%
X154940000Y-50800000D03*
%TO.P,PI1,26,~{CE1}/GPIO7*%
%TO.N,unconnected-(PI1-~{CE1}{slash}GPIO7-Pad26)*%
X154940000Y-53340000D03*
%TO.P,PI1,27,ID_SD/GPIO0*%
%TO.N,unconnected-(PI1-ID_SD{slash}GPIO0-Pad27)*%
X152400000Y-50800000D03*
%TO.P,PI1,28,ID_SC/GPIO1*%
%TO.N,unconnected-(PI1-ID_SC{slash}GPIO1-Pad28)*%
X152400000Y-53340000D03*
%TO.P,PI1,29,GCLK1/GPIO5*%
%TO.N,unconnected-(PI1-GCLK1{slash}GPIO5-Pad29)*%
X149860000Y-50800000D03*
%TO.P,PI1,30,GND*%
%TO.N,GND*%
X149860000Y-53340000D03*
%TO.P,PI1,31,GCLK2/GPIO6*%
%TO.N,unconnected-(PI1-GCLK2{slash}GPIO6-Pad31)*%
X147320000Y-50800000D03*
%TO.P,PI1,32,PWM0/GPIO12*%
%TO.N,Net-(LLC1-LV2)*%
X147320000Y-53340000D03*
%TO.P,PI1,33,PWM1/GPIO13*%
%TO.N,Net-(LLC1-LV1)*%
X144780000Y-50800000D03*
%TO.P,PI1,34,GND*%
%TO.N,GND*%
X144780000Y-53340000D03*
%TO.P,PI1,35,GPIO19/MISO1*%
%TO.N,Net-(AMP1-LRCLK)*%
X142240000Y-50800000D03*
%TO.P,PI1,36,GPIO16*%
%TO.N,unconnected-(PI1-GPIO16-Pad36)*%
X142240000Y-53340000D03*
%TO.P,PI1,37,GPIO26*%
%TO.N,Net-(PI1-GPIO26)*%
X139700000Y-50800000D03*
%TO.P,PI1,38,GPIO20/MOSI1*%
%TO.N,Net-(MIC1-DOUT)*%
X139700000Y-53340000D03*
%TO.P,PI1,39,GND*%
%TO.N,GND*%
X137160000Y-50800000D03*
%TO.P,PI1,40,GPIO21/SCLK1*%
%TO.N,Net-(AMP1-DIN)*%
X137160000Y-53340000D03*
%TD*%
D11*
%TO.P,D5,1,DOUT*%
%TO.N,Net-(D5-DOUT)*%
X175655000Y-81280000D03*
%TO.P,D5,2,VSS*%
%TO.N,GND*%
X173905000Y-81280000D03*
%TO.P,D5,3,DIN*%
X173905000Y-84780000D03*
%TO.P,D5,4,VDD*%
%TO.N,+5V*%
X175655000Y-84780000D03*
%TD*%
D13*
%TO.P,3V_EXT1,1,Pin_1*%
%TO.N,Net-(3V_EXT1-Pin_1)*%
X195580000Y-53380000D03*
D14*
%TO.P,3V_EXT1,2,Pin_2*%
%TO.N,+3V3*%
X195580000Y-55880000D03*
%TO.P,3V_EXT1,3,Pin_3*%
%TO.N,GND*%
X195580000Y-58380000D03*
%TD*%
D17*
%TO.P,BZ1,1,-*%
%TO.N,Net-(BZ1--)*%
X181610000Y-60970000D03*
D18*
%TO.P,BZ1,2,+*%
%TO.N,GND*%
X181610000Y-68570000D03*
%TD*%
D12*
%TO.P,MIC2,1,SEL*%
%TO.N,GND*%
X139335000Y-59690000D03*
%TO.P,MIC2,2,LRCLK*%
%TO.N,Net-(AMP1-LRCLK)*%
X139335000Y-62230000D03*
%TO.P,MIC2,3,DOUT*%
%TO.N,Net-(MIC1-DOUT)*%
X139335000Y-64770000D03*
%TO.P,MIC2,4,BCLK*%
%TO.N,Net-(AMP1-BCLK)*%
X139335000Y-67310000D03*
%TO.P,MIC2,5,Gnd*%
%TO.N,GND*%
X139335000Y-69850000D03*
%TO.P,MIC2,6,3v*%
%TO.N,+3V3*%
X139335000Y-72390000D03*
%TD*%
D10*
%TO.P,C2,1*%
%TO.N,+5V*%
X153035000Y-83505000D03*
%TO.P,C2,2*%
%TO.N,GND*%
X153035000Y-82865000D03*
%TD*%
D12*
%TO.P,I2C_NEO1,1,VIN*%
%TO.N,+3V3*%
X166370000Y-77470000D03*
%TO.P,I2C_NEO1,2,Gnd*%
%TO.N,GND*%
X168910000Y-77470000D03*
%TO.P,I2C_NEO1,3,SCL*%
%TO.N,Net-(I2C_EXT1-Pin_4)*%
X171450000Y-77470000D03*
%TO.P,I2C_NEO1,4,SDA*%
%TO.N,Net-(I2C_EXT1-Pin_3)*%
X173990000Y-77470000D03*
%TO.P,I2C_NEO1,5,OUT*%
%TO.N,Net-(D1-DIN)*%
X176530000Y-77470000D03*
%TD*%
D13*
%TO.P,I2C_EXT1,1,Pin_1*%
%TO.N,GND*%
X195580000Y-64810000D03*
D14*
%TO.P,I2C_EXT1,2,Pin_2*%
%TO.N,+3V3*%
X195580000Y-67310000D03*
%TO.P,I2C_EXT1,3,Pin_3*%
%TO.N,Net-(I2C_EXT1-Pin_3)*%
X195580000Y-69810000D03*
%TO.P,I2C_EXT1,4,Pin_4*%
%TO.N,Net-(I2C_EXT1-Pin_4)*%
X195580000Y-72310000D03*
%TD*%
D11*
%TO.P,D2,1,DOUT*%
%TO.N,GND*%
X156605000Y-81224000D03*
%TO.P,D2,2,VSS*%
X154855000Y-81224000D03*
%TO.P,D2,3,DIN*%
%TO.N,Net-(D1-DOUT)*%
X154855000Y-84724000D03*
%TO.P,D2,4,VDD*%
%TO.N,+5V*%
X156605000Y-84724000D03*
%TD*%
D10*
%TO.P,C5,1*%
%TO.N,+5V*%
X172212000Y-83469000D03*
%TO.P,C5,2*%
%TO.N,GND*%
X172212000Y-82829000D03*
%TD*%
D19*
%TO.P,SERIAL1,1,Pin_1*%
%TO.N,Net-(LLC1-HV3)*%
X124420000Y-82550000D03*
D20*
%TO.P,SERIAL1,2,Pin_2*%
%TO.N,Net-(LLC1-HV4)*%
X121920000Y-82550000D03*
%TD*%
D13*
%TO.P,NEO1,1,Pin_1*%
%TO.N,Net-(D5-DOUT)*%
X184150000Y-78780000D03*
D14*
%TO.P,NEO1,2,Pin_2*%
%TO.N,+5V*%
X184150000Y-81280000D03*
%TO.P,NEO1,3,Pin_3*%
%TO.N,GND*%
X184150000Y-83780000D03*
%TD*%
D12*
%TO.P,MIC1,1,SEL*%
%TO.N,+3V3*%
X151400000Y-59690000D03*
%TO.P,MIC1,2,LRCLK*%
%TO.N,Net-(AMP1-LRCLK)*%
X151400000Y-62230000D03*
%TO.P,MIC1,3,DOUT*%
%TO.N,Net-(MIC1-DOUT)*%
X151400000Y-64770000D03*
%TO.P,MIC1,4,BCLK*%
%TO.N,Net-(AMP1-BCLK)*%
X151400000Y-67310000D03*
%TO.P,MIC1,5,Gnd*%
%TO.N,GND*%
X151400000Y-69850000D03*
%TO.P,MIC1,6,3v*%
%TO.N,+3V3*%
X151400000Y-72390000D03*
%TD*%
D15*
%TO.P,SRV1,1,Pin_1*%
%TO.N,Net-(LLC1-HV2)*%
X140970000Y-80010000D03*
D16*
%TO.P,SRV1,2,Pin_2*%
%TO.N,+5V*%
X140970000Y-82550000D03*
%TO.P,SRV1,3,Pin_3*%
%TO.N,GND*%
X140970000Y-85090000D03*
%TD*%
D19*
%TO.P,PWR1,1,Pin_1*%
%TO.N,+5V*%
X134620000Y-82550000D03*
D20*
%TO.P,PWR1,2,Pin_2*%
%TO.N,GND*%
X132120000Y-82550000D03*
%TD*%
D21*
%TO.P,HOLE,1*%
%TO.N,N/C*%
X168275000Y-66040000D03*
%TD*%
D22*
%TO.N,+5V*%
X177683445Y-85060340D03*
X171450000Y-85090000D03*
X165100000Y-85090000D03*
X151765000Y-85090000D03*
X158750000Y-85090000D03*
%TO.N,GND*%
X172085000Y-81280000D03*
X159385000Y-81280000D03*
X165735000Y-81280000D03*
X146050000Y-81280000D03*
X153035000Y-81280000D03*
%TD*%
D23*
%TO.N,Net-(3V_EXT1-Pin_1)*%
X162028100Y-54539000D02*
X194421000Y-54539000D01*
X161196900Y-53340000D02*
X161196900Y-53707800D01*
X194421000Y-54539000D02*
X195580000Y-53380000D01*
X160020000Y-53340000D02*
X161196900Y-53340000D01*
X161196900Y-53707800D02*
X162028100Y-54539000D01*
D24*
%TO.N,+5V*%
X164734000Y-84724000D02*
X165100000Y-85090000D01*
D23*
X162955000Y-83961000D02*
X162955000Y-84724000D01*
D24*
X177403105Y-84780000D02*
X177683445Y-85060340D01*
X171140000Y-84780000D02*
X171450000Y-85090000D01*
D23*
X165735000Y-83444000D02*
X168905000Y-83444000D01*
D24*
X169305000Y-84780000D02*
X171140000Y-84780000D01*
D23*
X149860000Y-83820000D02*
X149860000Y-84724000D01*
D24*
X149860000Y-84724000D02*
X151399000Y-84724000D01*
X156605000Y-84724000D02*
X158384000Y-84724000D01*
D23*
X162499000Y-83505000D02*
X162955000Y-83961000D01*
D24*
X162955000Y-84724000D02*
X164734000Y-84724000D01*
X151399000Y-84724000D02*
X151765000Y-85090000D01*
D23*
X169305000Y-83834000D02*
X169305000Y-84780000D01*
X172212000Y-83469000D02*
X175290000Y-83469000D01*
X153035000Y-83505000D02*
X156149000Y-83505000D01*
X146050000Y-83505000D02*
X149545000Y-83505000D01*
X168905000Y-83444000D02*
X168910000Y-83439000D01*
X168910000Y-83439000D02*
X169305000Y-83834000D01*
X149545000Y-83505000D02*
X149860000Y-83820000D01*
X175290000Y-83469000D02*
X175655000Y-83834000D01*
X156149000Y-83505000D02*
X156605000Y-83961000D01*
D24*
X158384000Y-84724000D02*
X158750000Y-85090000D01*
X175655000Y-84780000D02*
X177403105Y-84780000D01*
D23*
X159385000Y-83505000D02*
X162499000Y-83505000D01*
X175655000Y-83834000D02*
X175655000Y-84780000D01*
X156605000Y-83961000D02*
X156605000Y-84724000D01*
D24*
%TO.N,GND*%
X148110000Y-81224000D02*
X148011000Y-81224000D01*
X167555000Y-81280000D02*
X165735000Y-81280000D01*
D23*
X158444000Y-84149000D02*
X160630000Y-84149000D01*
D24*
X159441000Y-81224000D02*
X159385000Y-81280000D01*
D23*
X146050000Y-82865000D02*
X146050000Y-81280000D01*
X172212000Y-81407000D02*
X172085000Y-81280000D01*
X165735000Y-82804000D02*
X165735000Y-81280000D01*
X162955000Y-82183000D02*
X164751000Y-83979000D01*
X171472889Y-84328000D02*
X172212000Y-84328000D01*
X160630000Y-84149000D02*
X161205000Y-84724000D01*
X169305000Y-81280000D02*
X169305000Y-82437000D01*
X159385000Y-82865000D02*
X159385000Y-81280000D01*
D24*
X147955000Y-81280000D02*
X146050000Y-81280000D01*
D23*
X172212000Y-84328000D02*
X172664000Y-84780000D01*
X172212000Y-82829000D02*
X172212000Y-81407000D01*
X171093000Y-84225000D02*
X171369889Y-84225000D01*
D24*
X154855000Y-81224000D02*
X153091000Y-81224000D01*
X161205000Y-81224000D02*
X159441000Y-81224000D01*
D23*
X156605000Y-82310000D02*
X158444000Y-84149000D01*
X165710000Y-83979000D02*
X166511000Y-84780000D01*
X164751000Y-83979000D02*
X165710000Y-83979000D01*
D24*
X173905000Y-81280000D02*
X172085000Y-81280000D01*
X153091000Y-81224000D02*
X153035000Y-81280000D01*
D23*
X171369889Y-84225000D02*
X171472889Y-84328000D01*
X172664000Y-84780000D02*
X173905000Y-84780000D01*
X162955000Y-81224000D02*
X162955000Y-82183000D01*
X156605000Y-81224000D02*
X156605000Y-82310000D01*
X153035000Y-82865000D02*
X153035000Y-81280000D01*
X169305000Y-82437000D02*
X171093000Y-84225000D01*
D24*
X148011000Y-81224000D02*
X147955000Y-81280000D01*
D23*
X166511000Y-84780000D02*
X167555000Y-84780000D01*
%TO.N,Net-(AMP1-DIN)*%
X153670000Y-60960000D02*
X156210000Y-63500000D01*
X145589100Y-60960000D02*
X153670000Y-60960000D01*
X138336900Y-53707800D02*
X145589100Y-60960000D01*
X138336900Y-53340000D02*
X138336900Y-53707800D01*
X137160000Y-53340000D02*
X138336900Y-53340000D01*
%TO.N,Net-(AMP1-BCLK)*%
X139335000Y-67310000D02*
X151400000Y-67310000D01*
%TO.N,Net-(AMP1-LRCLK)*%
X139335000Y-62230000D02*
X151400000Y-62230000D01*
%TO.N,Net-(I2C_EXT1-Pin_3)*%
X182500000Y-69810000D02*
X195580000Y-69810000D01*
X174840000Y-77470000D02*
X182500000Y-69810000D01*
X173990000Y-77470000D02*
X174840000Y-77470000D01*
%TO.N,Net-(LLC1-LV3)*%
X123347500Y-59532500D02*
X123347500Y-60847500D01*
X130760900Y-58472400D02*
X124407600Y-58472400D01*
X175260000Y-53340000D02*
X174083100Y-53340000D01*
X174083100Y-53340000D02*
X174083100Y-52972200D01*
X173235800Y-52124900D02*
X136615300Y-52124900D01*
X134156600Y-54583600D02*
X134156600Y-55076700D01*
X134156600Y-55076700D02*
X130760900Y-58472400D01*
X124407600Y-58472400D02*
X123347500Y-59532500D01*
X174083100Y-52972200D02*
X173235800Y-52124900D01*
X136615300Y-52124900D02*
X134156600Y-54583600D01*
%TO.N,Net-(D1-DOUT)*%
X149860000Y-81661000D02*
X152923000Y-84724000D01*
X152923000Y-84724000D02*
X154855000Y-84724000D01*
X149860000Y-81224000D02*
X149860000Y-81661000D01*
%TO.N,Net-(D1-DIN)*%
X144780000Y-83820000D02*
X146050000Y-85090000D01*
X176530000Y-77470000D02*
X175260000Y-78740000D01*
X175260000Y-78740000D02*
X146050000Y-78740000D01*
X144780000Y-80010000D02*
X144780000Y-83820000D01*
X146050000Y-85090000D02*
X147744000Y-85090000D01*
X147744000Y-85090000D02*
X148110000Y-84724000D01*
X146050000Y-78740000D02*
X144780000Y-80010000D01*
%TO.N,Net-(MIC1-DOUT)*%
X151400000Y-64770000D02*
X139335000Y-64770000D01*
D24*
%TO.N,+3V3*%
X194310000Y-55880000D02*
X195580000Y-55880000D01*
X191770000Y-64770000D02*
X191770000Y-58420000D01*
X193040000Y-66040000D02*
X193903414Y-66903414D01*
X166370000Y-77470000D02*
X156480000Y-77470000D01*
X166370000Y-77470000D02*
X177800000Y-66040000D01*
X194310000Y-67310000D02*
X191770000Y-64770000D01*
X191770000Y-58420000D02*
X194310000Y-55880000D01*
X195580000Y-67310000D02*
X194310000Y-67310000D01*
X177800000Y-66040000D02*
X193040000Y-66040000D01*
X156480000Y-77470000D02*
X151400000Y-72390000D01*
X193903414Y-66903414D02*
X195173414Y-66903414D01*
D23*
%TO.N,Net-(D5-DOUT)*%
X175655000Y-81280000D02*
X177560000Y-79375000D01*
X177560000Y-79375000D02*
X180340000Y-79375000D01*
X180935000Y-78780000D02*
X184150000Y-78780000D01*
X180340000Y-79375000D02*
X180935000Y-78780000D01*
%TD*%
M02*
