%TF.GenerationSoftware,KiCad,Pcbnew,7.0.8-7.0.8~ubuntu22.04.1*%
%TF.CreationDate,2023-11-17T20:39:09+00:00*%
%TF.ProjectId,v4head,76346865-6164-42e6-9b69-6361645f7063,rev?*%
%TF.SameCoordinates,Original*%
%TF.FileFunction,Legend,Top*%
%TF.FilePolarity,Positive*%
%FSLAX46Y46*%
G04 Gerber Fmt 4.6, Leading zero omitted, Abs format (unit mm)*
G04 Created by KiCad (PCBNEW 7.0.8-7.0.8~ubuntu22.04.1) date 2023-11-17 20:39:09*
%MOMM*%
%LPD*%
G01*
G04 APERTURE LIST*
%ADD10C,0.150000*%
%ADD11C,0.300000*%
%ADD12C,0.080000*%
%ADD13C,0.100000*%
%ADD14C,0.120000*%
G04 APERTURE END LIST*
D10*
X144227779Y-79117819D02*
X144227779Y-78117819D01*
X144227779Y-78117819D02*
X144608731Y-78117819D01*
X144608731Y-78117819D02*
X144703969Y-78165438D01*
X144703969Y-78165438D02*
X144751588Y-78213057D01*
X144751588Y-78213057D02*
X144799207Y-78308295D01*
X144799207Y-78308295D02*
X144799207Y-78451152D01*
X144799207Y-78451152D02*
X144751588Y-78546390D01*
X144751588Y-78546390D02*
X144703969Y-78594009D01*
X144703969Y-78594009D02*
X144608731Y-78641628D01*
X144608731Y-78641628D02*
X144227779Y-78641628D01*
X145227779Y-79117819D02*
X145227779Y-78451152D01*
X145227779Y-78117819D02*
X145180160Y-78165438D01*
X145180160Y-78165438D02*
X145227779Y-78213057D01*
X145227779Y-78213057D02*
X145275398Y-78165438D01*
X145275398Y-78165438D02*
X145227779Y-78117819D01*
X145227779Y-78117819D02*
X145227779Y-78213057D01*
X146465874Y-79117819D02*
X146465874Y-78117819D01*
X146465874Y-78117819D02*
X146799207Y-78832104D01*
X146799207Y-78832104D02*
X147132540Y-78117819D01*
X147132540Y-78117819D02*
X147132540Y-79117819D01*
X147751588Y-79117819D02*
X147656350Y-79070200D01*
X147656350Y-79070200D02*
X147608731Y-79022580D01*
X147608731Y-79022580D02*
X147561112Y-78927342D01*
X147561112Y-78927342D02*
X147561112Y-78641628D01*
X147561112Y-78641628D02*
X147608731Y-78546390D01*
X147608731Y-78546390D02*
X147656350Y-78498771D01*
X147656350Y-78498771D02*
X147751588Y-78451152D01*
X147751588Y-78451152D02*
X147894445Y-78451152D01*
X147894445Y-78451152D02*
X147989683Y-78498771D01*
X147989683Y-78498771D02*
X148037302Y-78546390D01*
X148037302Y-78546390D02*
X148084921Y-78641628D01*
X148084921Y-78641628D02*
X148084921Y-78927342D01*
X148084921Y-78927342D02*
X148037302Y-79022580D01*
X148037302Y-79022580D02*
X147989683Y-79070200D01*
X147989683Y-79070200D02*
X147894445Y-79117819D01*
X147894445Y-79117819D02*
X147751588Y-79117819D01*
X148942064Y-79117819D02*
X148942064Y-78117819D01*
X148942064Y-79070200D02*
X148846826Y-79117819D01*
X148846826Y-79117819D02*
X148656350Y-79117819D01*
X148656350Y-79117819D02*
X148561112Y-79070200D01*
X148561112Y-79070200D02*
X148513493Y-79022580D01*
X148513493Y-79022580D02*
X148465874Y-78927342D01*
X148465874Y-78927342D02*
X148465874Y-78641628D01*
X148465874Y-78641628D02*
X148513493Y-78546390D01*
X148513493Y-78546390D02*
X148561112Y-78498771D01*
X148561112Y-78498771D02*
X148656350Y-78451152D01*
X148656350Y-78451152D02*
X148846826Y-78451152D01*
X148846826Y-78451152D02*
X148942064Y-78498771D01*
X149846826Y-78451152D02*
X149846826Y-79117819D01*
X149418255Y-78451152D02*
X149418255Y-78974961D01*
X149418255Y-78974961D02*
X149465874Y-79070200D01*
X149465874Y-79070200D02*
X149561112Y-79117819D01*
X149561112Y-79117819D02*
X149703969Y-79117819D01*
X149703969Y-79117819D02*
X149799207Y-79070200D01*
X149799207Y-79070200D02*
X149846826Y-79022580D01*
X150465874Y-79117819D02*
X150370636Y-79070200D01*
X150370636Y-79070200D02*
X150323017Y-78974961D01*
X150323017Y-78974961D02*
X150323017Y-78117819D01*
X151227779Y-79070200D02*
X151132541Y-79117819D01*
X151132541Y-79117819D02*
X150942065Y-79117819D01*
X150942065Y-79117819D02*
X150846827Y-79070200D01*
X150846827Y-79070200D02*
X150799208Y-78974961D01*
X150799208Y-78974961D02*
X150799208Y-78594009D01*
X150799208Y-78594009D02*
X150846827Y-78498771D01*
X150846827Y-78498771D02*
X150942065Y-78451152D01*
X150942065Y-78451152D02*
X151132541Y-78451152D01*
X151132541Y-78451152D02*
X151227779Y-78498771D01*
X151227779Y-78498771D02*
X151275398Y-78594009D01*
X151275398Y-78594009D02*
X151275398Y-78689247D01*
X151275398Y-78689247D02*
X150799208Y-78784485D01*
X153037303Y-79022580D02*
X152989684Y-79070200D01*
X152989684Y-79070200D02*
X152846827Y-79117819D01*
X152846827Y-79117819D02*
X152751589Y-79117819D01*
X152751589Y-79117819D02*
X152608732Y-79070200D01*
X152608732Y-79070200D02*
X152513494Y-78974961D01*
X152513494Y-78974961D02*
X152465875Y-78879723D01*
X152465875Y-78879723D02*
X152418256Y-78689247D01*
X152418256Y-78689247D02*
X152418256Y-78546390D01*
X152418256Y-78546390D02*
X152465875Y-78355914D01*
X152465875Y-78355914D02*
X152513494Y-78260676D01*
X152513494Y-78260676D02*
X152608732Y-78165438D01*
X152608732Y-78165438D02*
X152751589Y-78117819D01*
X152751589Y-78117819D02*
X152846827Y-78117819D01*
X152846827Y-78117819D02*
X152989684Y-78165438D01*
X152989684Y-78165438D02*
X153037303Y-78213057D01*
X153608732Y-79117819D02*
X153513494Y-79070200D01*
X153513494Y-79070200D02*
X153465875Y-79022580D01*
X153465875Y-79022580D02*
X153418256Y-78927342D01*
X153418256Y-78927342D02*
X153418256Y-78641628D01*
X153418256Y-78641628D02*
X153465875Y-78546390D01*
X153465875Y-78546390D02*
X153513494Y-78498771D01*
X153513494Y-78498771D02*
X153608732Y-78451152D01*
X153608732Y-78451152D02*
X153751589Y-78451152D01*
X153751589Y-78451152D02*
X153846827Y-78498771D01*
X153846827Y-78498771D02*
X153894446Y-78546390D01*
X153894446Y-78546390D02*
X153942065Y-78641628D01*
X153942065Y-78641628D02*
X153942065Y-78927342D01*
X153942065Y-78927342D02*
X153894446Y-79022580D01*
X153894446Y-79022580D02*
X153846827Y-79070200D01*
X153846827Y-79070200D02*
X153751589Y-79117819D01*
X153751589Y-79117819D02*
X153608732Y-79117819D01*
X154370637Y-78451152D02*
X154370637Y-79117819D01*
X154370637Y-78546390D02*
X154418256Y-78498771D01*
X154418256Y-78498771D02*
X154513494Y-78451152D01*
X154513494Y-78451152D02*
X154656351Y-78451152D01*
X154656351Y-78451152D02*
X154751589Y-78498771D01*
X154751589Y-78498771D02*
X154799208Y-78594009D01*
X154799208Y-78594009D02*
X154799208Y-79117819D01*
X155275399Y-78451152D02*
X155275399Y-79117819D01*
X155275399Y-78546390D02*
X155323018Y-78498771D01*
X155323018Y-78498771D02*
X155418256Y-78451152D01*
X155418256Y-78451152D02*
X155561113Y-78451152D01*
X155561113Y-78451152D02*
X155656351Y-78498771D01*
X155656351Y-78498771D02*
X155703970Y-78594009D01*
X155703970Y-78594009D02*
X155703970Y-79117819D01*
X156561113Y-79070200D02*
X156465875Y-79117819D01*
X156465875Y-79117819D02*
X156275399Y-79117819D01*
X156275399Y-79117819D02*
X156180161Y-79070200D01*
X156180161Y-79070200D02*
X156132542Y-78974961D01*
X156132542Y-78974961D02*
X156132542Y-78594009D01*
X156132542Y-78594009D02*
X156180161Y-78498771D01*
X156180161Y-78498771D02*
X156275399Y-78451152D01*
X156275399Y-78451152D02*
X156465875Y-78451152D01*
X156465875Y-78451152D02*
X156561113Y-78498771D01*
X156561113Y-78498771D02*
X156608732Y-78594009D01*
X156608732Y-78594009D02*
X156608732Y-78689247D01*
X156608732Y-78689247D02*
X156132542Y-78784485D01*
X157465875Y-79070200D02*
X157370637Y-79117819D01*
X157370637Y-79117819D02*
X157180161Y-79117819D01*
X157180161Y-79117819D02*
X157084923Y-79070200D01*
X157084923Y-79070200D02*
X157037304Y-79022580D01*
X157037304Y-79022580D02*
X156989685Y-78927342D01*
X156989685Y-78927342D02*
X156989685Y-78641628D01*
X156989685Y-78641628D02*
X157037304Y-78546390D01*
X157037304Y-78546390D02*
X157084923Y-78498771D01*
X157084923Y-78498771D02*
X157180161Y-78451152D01*
X157180161Y-78451152D02*
X157370637Y-78451152D01*
X157370637Y-78451152D02*
X157465875Y-78498771D01*
X157751590Y-78451152D02*
X158132542Y-78451152D01*
X157894447Y-78117819D02*
X157894447Y-78974961D01*
X157894447Y-78974961D02*
X157942066Y-79070200D01*
X157942066Y-79070200D02*
X158037304Y-79117819D01*
X158037304Y-79117819D02*
X158132542Y-79117819D01*
X158608733Y-79117819D02*
X158513495Y-79070200D01*
X158513495Y-79070200D02*
X158465876Y-79022580D01*
X158465876Y-79022580D02*
X158418257Y-78927342D01*
X158418257Y-78927342D02*
X158418257Y-78641628D01*
X158418257Y-78641628D02*
X158465876Y-78546390D01*
X158465876Y-78546390D02*
X158513495Y-78498771D01*
X158513495Y-78498771D02*
X158608733Y-78451152D01*
X158608733Y-78451152D02*
X158751590Y-78451152D01*
X158751590Y-78451152D02*
X158846828Y-78498771D01*
X158846828Y-78498771D02*
X158894447Y-78546390D01*
X158894447Y-78546390D02*
X158942066Y-78641628D01*
X158942066Y-78641628D02*
X158942066Y-78927342D01*
X158942066Y-78927342D02*
X158894447Y-79022580D01*
X158894447Y-79022580D02*
X158846828Y-79070200D01*
X158846828Y-79070200D02*
X158751590Y-79117819D01*
X158751590Y-79117819D02*
X158608733Y-79117819D01*
X159370638Y-79117819D02*
X159370638Y-78451152D01*
X159370638Y-78641628D02*
X159418257Y-78546390D01*
X159418257Y-78546390D02*
X159465876Y-78498771D01*
X159465876Y-78498771D02*
X159561114Y-78451152D01*
X159561114Y-78451152D02*
X159656352Y-78451152D01*
X160656353Y-78451152D02*
X160894448Y-79117819D01*
X160894448Y-79117819D02*
X161132543Y-78451152D01*
X162037305Y-79117819D02*
X161465877Y-79117819D01*
X161751591Y-79117819D02*
X161751591Y-78117819D01*
X161751591Y-78117819D02*
X161656353Y-78260676D01*
X161656353Y-78260676D02*
X161561115Y-78355914D01*
X161561115Y-78355914D02*
X161465877Y-78403533D01*
X162465877Y-79022580D02*
X162513496Y-79070200D01*
X162513496Y-79070200D02*
X162465877Y-79117819D01*
X162465877Y-79117819D02*
X162418258Y-79070200D01*
X162418258Y-79070200D02*
X162465877Y-79022580D01*
X162465877Y-79022580D02*
X162465877Y-79117819D01*
X163132543Y-78117819D02*
X163227781Y-78117819D01*
X163227781Y-78117819D02*
X163323019Y-78165438D01*
X163323019Y-78165438D02*
X163370638Y-78213057D01*
X163370638Y-78213057D02*
X163418257Y-78308295D01*
X163418257Y-78308295D02*
X163465876Y-78498771D01*
X163465876Y-78498771D02*
X163465876Y-78736866D01*
X163465876Y-78736866D02*
X163418257Y-78927342D01*
X163418257Y-78927342D02*
X163370638Y-79022580D01*
X163370638Y-79022580D02*
X163323019Y-79070200D01*
X163323019Y-79070200D02*
X163227781Y-79117819D01*
X163227781Y-79117819D02*
X163132543Y-79117819D01*
X163132543Y-79117819D02*
X163037305Y-79070200D01*
X163037305Y-79070200D02*
X162989686Y-79022580D01*
X162989686Y-79022580D02*
X162942067Y-78927342D01*
X162942067Y-78927342D02*
X162894448Y-78736866D01*
X162894448Y-78736866D02*
X162894448Y-78498771D01*
X162894448Y-78498771D02*
X162942067Y-78308295D01*
X162942067Y-78308295D02*
X162989686Y-78213057D01*
X162989686Y-78213057D02*
X163037305Y-78165438D01*
X163037305Y-78165438D02*
X163132543Y-78117819D01*
X191515951Y-55806133D02*
X190754047Y-55806133D01*
X191134999Y-55425180D02*
X191134999Y-56187085D01*
X178815951Y-84381133D02*
X178054047Y-84381133D01*
X178434999Y-84000180D02*
X178434999Y-84762085D01*
X141350951Y-69776133D02*
X140589047Y-69776133D01*
X168655951Y-75491133D02*
X167894047Y-75491133D01*
X141350951Y-72951133D02*
X140589047Y-72951133D01*
X140969999Y-72570180D02*
X140969999Y-73332085D01*
X158495951Y-71046133D02*
X157734047Y-71046133D01*
X126110951Y-71681133D02*
X125349047Y-71681133D01*
X172465951Y-79936133D02*
X171704047Y-79936133D01*
X187404524Y-50254819D02*
X188023571Y-50254819D01*
X188023571Y-50254819D02*
X187690238Y-50635771D01*
X187690238Y-50635771D02*
X187833095Y-50635771D01*
X187833095Y-50635771D02*
X187928333Y-50683390D01*
X187928333Y-50683390D02*
X187975952Y-50731009D01*
X187975952Y-50731009D02*
X188023571Y-50826247D01*
X188023571Y-50826247D02*
X188023571Y-51064342D01*
X188023571Y-51064342D02*
X187975952Y-51159580D01*
X187975952Y-51159580D02*
X187928333Y-51207200D01*
X187928333Y-51207200D02*
X187833095Y-51254819D01*
X187833095Y-51254819D02*
X187547381Y-51254819D01*
X187547381Y-51254819D02*
X187452143Y-51207200D01*
X187452143Y-51207200D02*
X187404524Y-51159580D01*
X188356905Y-50588152D02*
X188595000Y-51254819D01*
X188595000Y-51254819D02*
X188833095Y-50588152D01*
X189118810Y-50254819D02*
X189737857Y-50254819D01*
X189737857Y-50254819D02*
X189404524Y-50635771D01*
X189404524Y-50635771D02*
X189547381Y-50635771D01*
X189547381Y-50635771D02*
X189642619Y-50683390D01*
X189642619Y-50683390D02*
X189690238Y-50731009D01*
X189690238Y-50731009D02*
X189737857Y-50826247D01*
X189737857Y-50826247D02*
X189737857Y-51064342D01*
X189737857Y-51064342D02*
X189690238Y-51159580D01*
X189690238Y-51159580D02*
X189642619Y-51207200D01*
X189642619Y-51207200D02*
X189547381Y-51254819D01*
X189547381Y-51254819D02*
X189261667Y-51254819D01*
X189261667Y-51254819D02*
X189166429Y-51207200D01*
X189166429Y-51207200D02*
X189118810Y-51159580D01*
X191515951Y-81206133D02*
X190754047Y-81206133D01*
X191134999Y-80825180D02*
X191134999Y-81587085D01*
X191515951Y-67236133D02*
X190754047Y-67236133D01*
X191134999Y-66855180D02*
X191134999Y-67617085D01*
X129285951Y-54536133D02*
X128524047Y-54536133D01*
X128904999Y-54155180D02*
X128904999Y-54917085D01*
X128650951Y-71681133D02*
X127889047Y-71681133D01*
X128269999Y-71300180D02*
X128269999Y-72062085D01*
X191515951Y-64696133D02*
X190754047Y-64696133D01*
X123570951Y-54536133D02*
X122809047Y-54536133D01*
X187817142Y-52794819D02*
X187340952Y-52794819D01*
X187340952Y-52794819D02*
X187293333Y-53271009D01*
X187293333Y-53271009D02*
X187340952Y-53223390D01*
X187340952Y-53223390D02*
X187436190Y-53175771D01*
X187436190Y-53175771D02*
X187674285Y-53175771D01*
X187674285Y-53175771D02*
X187769523Y-53223390D01*
X187769523Y-53223390D02*
X187817142Y-53271009D01*
X187817142Y-53271009D02*
X187864761Y-53366247D01*
X187864761Y-53366247D02*
X187864761Y-53604342D01*
X187864761Y-53604342D02*
X187817142Y-53699580D01*
X187817142Y-53699580D02*
X187769523Y-53747200D01*
X187769523Y-53747200D02*
X187674285Y-53794819D01*
X187674285Y-53794819D02*
X187436190Y-53794819D01*
X187436190Y-53794819D02*
X187340952Y-53747200D01*
X187340952Y-53747200D02*
X187293333Y-53699580D01*
X188198095Y-53128152D02*
X188436190Y-53794819D01*
X188436190Y-53794819D02*
X188674285Y-53128152D01*
X158495951Y-73586133D02*
X157734047Y-73586133D01*
X158114999Y-73205180D02*
X158114999Y-73967085D01*
X166750951Y-75491133D02*
X165989047Y-75491133D01*
X166369999Y-75110180D02*
X166369999Y-75872085D01*
X191515951Y-58346133D02*
X190754047Y-58346133D01*
D11*
X139476653Y-76270828D02*
X139762368Y-77270828D01*
X139762368Y-77270828D02*
X140048082Y-76556542D01*
X140048082Y-76556542D02*
X140333796Y-77270828D01*
X140333796Y-77270828D02*
X140619510Y-76270828D01*
X141048082Y-76270828D02*
X141333797Y-77270828D01*
X141333797Y-77270828D02*
X141619511Y-76556542D01*
X141619511Y-76556542D02*
X141905225Y-77270828D01*
X141905225Y-77270828D02*
X142190939Y-76270828D01*
X142619511Y-76270828D02*
X142905226Y-77270828D01*
X142905226Y-77270828D02*
X143190940Y-76556542D01*
X143190940Y-76556542D02*
X143476654Y-77270828D01*
X143476654Y-77270828D02*
X143762368Y-76270828D01*
X144333797Y-77127971D02*
X144405226Y-77199400D01*
X144405226Y-77199400D02*
X144333797Y-77270828D01*
X144333797Y-77270828D02*
X144262369Y-77199400D01*
X144262369Y-77199400D02*
X144333797Y-77127971D01*
X144333797Y-77127971D02*
X144333797Y-77270828D01*
X145048083Y-77270828D02*
X145048083Y-76270828D01*
X145048083Y-76413685D02*
X145119512Y-76342257D01*
X145119512Y-76342257D02*
X145262369Y-76270828D01*
X145262369Y-76270828D02*
X145476655Y-76270828D01*
X145476655Y-76270828D02*
X145619512Y-76342257D01*
X145619512Y-76342257D02*
X145690941Y-76485114D01*
X145690941Y-76485114D02*
X145690941Y-77270828D01*
X145690941Y-76485114D02*
X145762369Y-76342257D01*
X145762369Y-76342257D02*
X145905226Y-76270828D01*
X145905226Y-76270828D02*
X146119512Y-76270828D01*
X146119512Y-76270828D02*
X146262369Y-76342257D01*
X146262369Y-76342257D02*
X146333798Y-76485114D01*
X146333798Y-76485114D02*
X146333798Y-77270828D01*
X147690941Y-77270828D02*
X147690941Y-76485114D01*
X147690941Y-76485114D02*
X147619512Y-76342257D01*
X147619512Y-76342257D02*
X147476655Y-76270828D01*
X147476655Y-76270828D02*
X147190941Y-76270828D01*
X147190941Y-76270828D02*
X147048083Y-76342257D01*
X147690941Y-77199400D02*
X147548083Y-77270828D01*
X147548083Y-77270828D02*
X147190941Y-77270828D01*
X147190941Y-77270828D02*
X147048083Y-77199400D01*
X147048083Y-77199400D02*
X146976655Y-77056542D01*
X146976655Y-77056542D02*
X146976655Y-76913685D01*
X146976655Y-76913685D02*
X147048083Y-76770828D01*
X147048083Y-76770828D02*
X147190941Y-76699400D01*
X147190941Y-76699400D02*
X147548083Y-76699400D01*
X147548083Y-76699400D02*
X147690941Y-76627971D01*
X148405226Y-77270828D02*
X148405226Y-75770828D01*
X148548084Y-76699400D02*
X148976655Y-77270828D01*
X148976655Y-76270828D02*
X148405226Y-76842257D01*
X150190941Y-77199400D02*
X150048084Y-77270828D01*
X150048084Y-77270828D02*
X149762370Y-77270828D01*
X149762370Y-77270828D02*
X149619512Y-77199400D01*
X149619512Y-77199400D02*
X149548084Y-77056542D01*
X149548084Y-77056542D02*
X149548084Y-76485114D01*
X149548084Y-76485114D02*
X149619512Y-76342257D01*
X149619512Y-76342257D02*
X149762370Y-76270828D01*
X149762370Y-76270828D02*
X150048084Y-76270828D01*
X150048084Y-76270828D02*
X150190941Y-76342257D01*
X150190941Y-76342257D02*
X150262370Y-76485114D01*
X150262370Y-76485114D02*
X150262370Y-76627971D01*
X150262370Y-76627971D02*
X149548084Y-76770828D01*
X150905226Y-77270828D02*
X150905226Y-76270828D01*
X150905226Y-76556542D02*
X150976655Y-76413685D01*
X150976655Y-76413685D02*
X151048084Y-76342257D01*
X151048084Y-76342257D02*
X151190941Y-76270828D01*
X151190941Y-76270828D02*
X151333798Y-76270828D01*
X151619512Y-76270828D02*
X152190940Y-76270828D01*
X151833797Y-77270828D02*
X151833797Y-75985114D01*
X151833797Y-75985114D02*
X151905226Y-75842257D01*
X151905226Y-75842257D02*
X152048083Y-75770828D01*
X152048083Y-75770828D02*
X152190940Y-75770828D01*
X152905226Y-77270828D02*
X152762369Y-77199400D01*
X152762369Y-77199400D02*
X152690940Y-77127971D01*
X152690940Y-77127971D02*
X152619512Y-76985114D01*
X152619512Y-76985114D02*
X152619512Y-76556542D01*
X152619512Y-76556542D02*
X152690940Y-76413685D01*
X152690940Y-76413685D02*
X152762369Y-76342257D01*
X152762369Y-76342257D02*
X152905226Y-76270828D01*
X152905226Y-76270828D02*
X153119512Y-76270828D01*
X153119512Y-76270828D02*
X153262369Y-76342257D01*
X153262369Y-76342257D02*
X153333798Y-76413685D01*
X153333798Y-76413685D02*
X153405226Y-76556542D01*
X153405226Y-76556542D02*
X153405226Y-76985114D01*
X153405226Y-76985114D02*
X153333798Y-77127971D01*
X153333798Y-77127971D02*
X153262369Y-77199400D01*
X153262369Y-77199400D02*
X153119512Y-77270828D01*
X153119512Y-77270828D02*
X152905226Y-77270828D01*
X154048083Y-77270828D02*
X154048083Y-76270828D01*
X154048083Y-76556542D02*
X154119512Y-76413685D01*
X154119512Y-76413685D02*
X154190941Y-76342257D01*
X154190941Y-76342257D02*
X154333798Y-76270828D01*
X154333798Y-76270828D02*
X154476655Y-76270828D01*
X155619512Y-76270828D02*
X155619512Y-77485114D01*
X155619512Y-77485114D02*
X155548083Y-77627971D01*
X155548083Y-77627971D02*
X155476654Y-77699400D01*
X155476654Y-77699400D02*
X155333797Y-77770828D01*
X155333797Y-77770828D02*
X155119512Y-77770828D01*
X155119512Y-77770828D02*
X154976654Y-77699400D01*
X155619512Y-77199400D02*
X155476654Y-77270828D01*
X155476654Y-77270828D02*
X155190940Y-77270828D01*
X155190940Y-77270828D02*
X155048083Y-77199400D01*
X155048083Y-77199400D02*
X154976654Y-77127971D01*
X154976654Y-77127971D02*
X154905226Y-76985114D01*
X154905226Y-76985114D02*
X154905226Y-76556542D01*
X154905226Y-76556542D02*
X154976654Y-76413685D01*
X154976654Y-76413685D02*
X155048083Y-76342257D01*
X155048083Y-76342257D02*
X155190940Y-76270828D01*
X155190940Y-76270828D02*
X155476654Y-76270828D01*
X155476654Y-76270828D02*
X155619512Y-76342257D01*
X156905226Y-77199400D02*
X156762369Y-77270828D01*
X156762369Y-77270828D02*
X156476655Y-77270828D01*
X156476655Y-77270828D02*
X156333797Y-77199400D01*
X156333797Y-77199400D02*
X156262369Y-77056542D01*
X156262369Y-77056542D02*
X156262369Y-76485114D01*
X156262369Y-76485114D02*
X156333797Y-76342257D01*
X156333797Y-76342257D02*
X156476655Y-76270828D01*
X156476655Y-76270828D02*
X156762369Y-76270828D01*
X156762369Y-76270828D02*
X156905226Y-76342257D01*
X156905226Y-76342257D02*
X156976655Y-76485114D01*
X156976655Y-76485114D02*
X156976655Y-76627971D01*
X156976655Y-76627971D02*
X156262369Y-76770828D01*
X157619511Y-77127971D02*
X157690940Y-77199400D01*
X157690940Y-77199400D02*
X157619511Y-77270828D01*
X157619511Y-77270828D02*
X157548083Y-77199400D01*
X157548083Y-77199400D02*
X157619511Y-77127971D01*
X157619511Y-77127971D02*
X157619511Y-77270828D01*
X158119512Y-76270828D02*
X158690940Y-76270828D01*
X158333797Y-75770828D02*
X158333797Y-77056542D01*
X158333797Y-77056542D02*
X158405226Y-77199400D01*
X158405226Y-77199400D02*
X158548083Y-77270828D01*
X158548083Y-77270828D02*
X158690940Y-77270828D01*
X159762369Y-77199400D02*
X159619512Y-77270828D01*
X159619512Y-77270828D02*
X159333798Y-77270828D01*
X159333798Y-77270828D02*
X159190940Y-77199400D01*
X159190940Y-77199400D02*
X159119512Y-77056542D01*
X159119512Y-77056542D02*
X159119512Y-76485114D01*
X159119512Y-76485114D02*
X159190940Y-76342257D01*
X159190940Y-76342257D02*
X159333798Y-76270828D01*
X159333798Y-76270828D02*
X159619512Y-76270828D01*
X159619512Y-76270828D02*
X159762369Y-76342257D01*
X159762369Y-76342257D02*
X159833798Y-76485114D01*
X159833798Y-76485114D02*
X159833798Y-76627971D01*
X159833798Y-76627971D02*
X159119512Y-76770828D01*
X161119512Y-77199400D02*
X160976654Y-77270828D01*
X160976654Y-77270828D02*
X160690940Y-77270828D01*
X160690940Y-77270828D02*
X160548083Y-77199400D01*
X160548083Y-77199400D02*
X160476654Y-77127971D01*
X160476654Y-77127971D02*
X160405226Y-76985114D01*
X160405226Y-76985114D02*
X160405226Y-76556542D01*
X160405226Y-76556542D02*
X160476654Y-76413685D01*
X160476654Y-76413685D02*
X160548083Y-76342257D01*
X160548083Y-76342257D02*
X160690940Y-76270828D01*
X160690940Y-76270828D02*
X160976654Y-76270828D01*
X160976654Y-76270828D02*
X161119512Y-76342257D01*
X161762368Y-77270828D02*
X161762368Y-75770828D01*
X162405226Y-77270828D02*
X162405226Y-76485114D01*
X162405226Y-76485114D02*
X162333797Y-76342257D01*
X162333797Y-76342257D02*
X162190940Y-76270828D01*
X162190940Y-76270828D02*
X161976654Y-76270828D01*
X161976654Y-76270828D02*
X161833797Y-76342257D01*
X161833797Y-76342257D02*
X161762368Y-76413685D01*
D10*
X191515951Y-83746133D02*
X190754047Y-83746133D01*
D12*
X145467530Y-83268333D02*
X145491340Y-83292142D01*
X145491340Y-83292142D02*
X145515149Y-83363571D01*
X145515149Y-83363571D02*
X145515149Y-83411190D01*
X145515149Y-83411190D02*
X145491340Y-83482618D01*
X145491340Y-83482618D02*
X145443720Y-83530237D01*
X145443720Y-83530237D02*
X145396101Y-83554047D01*
X145396101Y-83554047D02*
X145300863Y-83577856D01*
X145300863Y-83577856D02*
X145229435Y-83577856D01*
X145229435Y-83577856D02*
X145134197Y-83554047D01*
X145134197Y-83554047D02*
X145086578Y-83530237D01*
X145086578Y-83530237D02*
X145038959Y-83482618D01*
X145038959Y-83482618D02*
X145015149Y-83411190D01*
X145015149Y-83411190D02*
X145015149Y-83363571D01*
X145015149Y-83363571D02*
X145038959Y-83292142D01*
X145038959Y-83292142D02*
X145062768Y-83268333D01*
X145515149Y-82792142D02*
X145515149Y-83077856D01*
X145515149Y-82934999D02*
X145015149Y-82934999D01*
X145015149Y-82934999D02*
X145086578Y-82982618D01*
X145086578Y-82982618D02*
X145134197Y-83030237D01*
X145134197Y-83030237D02*
X145158006Y-83077856D01*
D10*
X161313905Y-83512819D02*
X161313905Y-82512819D01*
X161313905Y-82512819D02*
X161552000Y-82512819D01*
X161552000Y-82512819D02*
X161694857Y-82560438D01*
X161694857Y-82560438D02*
X161790095Y-82655676D01*
X161790095Y-82655676D02*
X161837714Y-82750914D01*
X161837714Y-82750914D02*
X161885333Y-82941390D01*
X161885333Y-82941390D02*
X161885333Y-83084247D01*
X161885333Y-83084247D02*
X161837714Y-83274723D01*
X161837714Y-83274723D02*
X161790095Y-83369961D01*
X161790095Y-83369961D02*
X161694857Y-83465200D01*
X161694857Y-83465200D02*
X161552000Y-83512819D01*
X161552000Y-83512819D02*
X161313905Y-83512819D01*
X162218667Y-82512819D02*
X162837714Y-82512819D01*
X162837714Y-82512819D02*
X162504381Y-82893771D01*
X162504381Y-82893771D02*
X162647238Y-82893771D01*
X162647238Y-82893771D02*
X162742476Y-82941390D01*
X162742476Y-82941390D02*
X162790095Y-82989009D01*
X162790095Y-82989009D02*
X162837714Y-83084247D01*
X162837714Y-83084247D02*
X162837714Y-83322342D01*
X162837714Y-83322342D02*
X162790095Y-83417580D01*
X162790095Y-83417580D02*
X162742476Y-83465200D01*
X162742476Y-83465200D02*
X162647238Y-83512819D01*
X162647238Y-83512819D02*
X162361524Y-83512819D01*
X162361524Y-83512819D02*
X162266286Y-83465200D01*
X162266286Y-83465200D02*
X162218667Y-83417580D01*
X148232905Y-83428819D02*
X148232905Y-82428819D01*
X148232905Y-82428819D02*
X148471000Y-82428819D01*
X148471000Y-82428819D02*
X148613857Y-82476438D01*
X148613857Y-82476438D02*
X148709095Y-82571676D01*
X148709095Y-82571676D02*
X148756714Y-82666914D01*
X148756714Y-82666914D02*
X148804333Y-82857390D01*
X148804333Y-82857390D02*
X148804333Y-83000247D01*
X148804333Y-83000247D02*
X148756714Y-83190723D01*
X148756714Y-83190723D02*
X148709095Y-83285961D01*
X148709095Y-83285961D02*
X148613857Y-83381200D01*
X148613857Y-83381200D02*
X148471000Y-83428819D01*
X148471000Y-83428819D02*
X148232905Y-83428819D01*
X149756714Y-83428819D02*
X149185286Y-83428819D01*
X149471000Y-83428819D02*
X149471000Y-82428819D01*
X149471000Y-82428819D02*
X149375762Y-82571676D01*
X149375762Y-82571676D02*
X149280524Y-82666914D01*
X149280524Y-82666914D02*
X149185286Y-82714533D01*
D13*
X125928571Y-67767419D02*
X125452381Y-67767419D01*
X125452381Y-67767419D02*
X125452381Y-66767419D01*
X126738095Y-67767419D02*
X126261905Y-67767419D01*
X126261905Y-67767419D02*
X126261905Y-66767419D01*
X127642857Y-67672180D02*
X127595238Y-67719800D01*
X127595238Y-67719800D02*
X127452381Y-67767419D01*
X127452381Y-67767419D02*
X127357143Y-67767419D01*
X127357143Y-67767419D02*
X127214286Y-67719800D01*
X127214286Y-67719800D02*
X127119048Y-67624561D01*
X127119048Y-67624561D02*
X127071429Y-67529323D01*
X127071429Y-67529323D02*
X127023810Y-67338847D01*
X127023810Y-67338847D02*
X127023810Y-67195990D01*
X127023810Y-67195990D02*
X127071429Y-67005514D01*
X127071429Y-67005514D02*
X127119048Y-66910276D01*
X127119048Y-66910276D02*
X127214286Y-66815038D01*
X127214286Y-66815038D02*
X127357143Y-66767419D01*
X127357143Y-66767419D02*
X127452381Y-66767419D01*
X127452381Y-66767419D02*
X127595238Y-66815038D01*
X127595238Y-66815038D02*
X127642857Y-66862657D01*
X128595238Y-67767419D02*
X128023810Y-67767419D01*
X128309524Y-67767419D02*
X128309524Y-66767419D01*
X128309524Y-66767419D02*
X128214286Y-66910276D01*
X128214286Y-66910276D02*
X128119048Y-67005514D01*
X128119048Y-67005514D02*
X128023810Y-67053133D01*
D12*
X165152530Y-83141333D02*
X165176340Y-83165142D01*
X165176340Y-83165142D02*
X165200149Y-83236571D01*
X165200149Y-83236571D02*
X165200149Y-83284190D01*
X165200149Y-83284190D02*
X165176340Y-83355618D01*
X165176340Y-83355618D02*
X165128720Y-83403237D01*
X165128720Y-83403237D02*
X165081101Y-83427047D01*
X165081101Y-83427047D02*
X164985863Y-83450856D01*
X164985863Y-83450856D02*
X164914435Y-83450856D01*
X164914435Y-83450856D02*
X164819197Y-83427047D01*
X164819197Y-83427047D02*
X164771578Y-83403237D01*
X164771578Y-83403237D02*
X164723959Y-83355618D01*
X164723959Y-83355618D02*
X164700149Y-83284190D01*
X164700149Y-83284190D02*
X164700149Y-83236571D01*
X164700149Y-83236571D02*
X164723959Y-83165142D01*
X164723959Y-83165142D02*
X164747768Y-83141333D01*
X164866816Y-82712761D02*
X165200149Y-82712761D01*
X164676340Y-82831809D02*
X165033482Y-82950856D01*
X165033482Y-82950856D02*
X165033482Y-82641333D01*
X158802530Y-83268333D02*
X158826340Y-83292142D01*
X158826340Y-83292142D02*
X158850149Y-83363571D01*
X158850149Y-83363571D02*
X158850149Y-83411190D01*
X158850149Y-83411190D02*
X158826340Y-83482618D01*
X158826340Y-83482618D02*
X158778720Y-83530237D01*
X158778720Y-83530237D02*
X158731101Y-83554047D01*
X158731101Y-83554047D02*
X158635863Y-83577856D01*
X158635863Y-83577856D02*
X158564435Y-83577856D01*
X158564435Y-83577856D02*
X158469197Y-83554047D01*
X158469197Y-83554047D02*
X158421578Y-83530237D01*
X158421578Y-83530237D02*
X158373959Y-83482618D01*
X158373959Y-83482618D02*
X158350149Y-83411190D01*
X158350149Y-83411190D02*
X158350149Y-83363571D01*
X158350149Y-83363571D02*
X158373959Y-83292142D01*
X158373959Y-83292142D02*
X158397768Y-83268333D01*
X158350149Y-83101666D02*
X158350149Y-82792142D01*
X158350149Y-82792142D02*
X158540625Y-82958809D01*
X158540625Y-82958809D02*
X158540625Y-82887380D01*
X158540625Y-82887380D02*
X158564435Y-82839761D01*
X158564435Y-82839761D02*
X158588244Y-82815952D01*
X158588244Y-82815952D02*
X158635863Y-82792142D01*
X158635863Y-82792142D02*
X158754911Y-82792142D01*
X158754911Y-82792142D02*
X158802530Y-82815952D01*
X158802530Y-82815952D02*
X158826340Y-82839761D01*
X158826340Y-82839761D02*
X158850149Y-82887380D01*
X158850149Y-82887380D02*
X158850149Y-83030237D01*
X158850149Y-83030237D02*
X158826340Y-83077856D01*
X158826340Y-83077856D02*
X158802530Y-83101666D01*
D13*
X122868214Y-53162419D02*
X122534881Y-52686228D01*
X122296786Y-53162419D02*
X122296786Y-52162419D01*
X122296786Y-52162419D02*
X122677738Y-52162419D01*
X122677738Y-52162419D02*
X122772976Y-52210038D01*
X122772976Y-52210038D02*
X122820595Y-52257657D01*
X122820595Y-52257657D02*
X122868214Y-52352895D01*
X122868214Y-52352895D02*
X122868214Y-52495752D01*
X122868214Y-52495752D02*
X122820595Y-52590990D01*
X122820595Y-52590990D02*
X122772976Y-52638609D01*
X122772976Y-52638609D02*
X122677738Y-52686228D01*
X122677738Y-52686228D02*
X122296786Y-52686228D01*
X123868214Y-53067180D02*
X123820595Y-53114800D01*
X123820595Y-53114800D02*
X123677738Y-53162419D01*
X123677738Y-53162419D02*
X123582500Y-53162419D01*
X123582500Y-53162419D02*
X123439643Y-53114800D01*
X123439643Y-53114800D02*
X123344405Y-53019561D01*
X123344405Y-53019561D02*
X123296786Y-52924323D01*
X123296786Y-52924323D02*
X123249167Y-52733847D01*
X123249167Y-52733847D02*
X123249167Y-52590990D01*
X123249167Y-52590990D02*
X123296786Y-52400514D01*
X123296786Y-52400514D02*
X123344405Y-52305276D01*
X123344405Y-52305276D02*
X123439643Y-52210038D01*
X123439643Y-52210038D02*
X123582500Y-52162419D01*
X123582500Y-52162419D02*
X123677738Y-52162419D01*
X123677738Y-52162419D02*
X123820595Y-52210038D01*
X123820595Y-52210038D02*
X123868214Y-52257657D01*
X124201548Y-52162419D02*
X124439643Y-53162419D01*
X124439643Y-53162419D02*
X124630119Y-52448133D01*
X124630119Y-52448133D02*
X124820595Y-53162419D01*
X124820595Y-53162419D02*
X125058691Y-52162419D01*
X125915833Y-53162419D02*
X125439643Y-53162419D01*
X125439643Y-53162419D02*
X125439643Y-52162419D01*
X126249167Y-52781466D02*
X127011072Y-52781466D01*
X127963452Y-52162419D02*
X127487262Y-52162419D01*
X127487262Y-52162419D02*
X127439643Y-52638609D01*
X127439643Y-52638609D02*
X127487262Y-52590990D01*
X127487262Y-52590990D02*
X127582500Y-52543371D01*
X127582500Y-52543371D02*
X127820595Y-52543371D01*
X127820595Y-52543371D02*
X127915833Y-52590990D01*
X127915833Y-52590990D02*
X127963452Y-52638609D01*
X127963452Y-52638609D02*
X128011071Y-52733847D01*
X128011071Y-52733847D02*
X128011071Y-52971942D01*
X128011071Y-52971942D02*
X127963452Y-53067180D01*
X127963452Y-53067180D02*
X127915833Y-53114800D01*
X127915833Y-53114800D02*
X127820595Y-53162419D01*
X127820595Y-53162419D02*
X127582500Y-53162419D01*
X127582500Y-53162419D02*
X127487262Y-53114800D01*
X127487262Y-53114800D02*
X127439643Y-53067180D01*
X128963452Y-53162419D02*
X128392024Y-53162419D01*
X128677738Y-53162419D02*
X128677738Y-52162419D01*
X128677738Y-52162419D02*
X128582500Y-52305276D01*
X128582500Y-52305276D02*
X128487262Y-52400514D01*
X128487262Y-52400514D02*
X128392024Y-52448133D01*
X129820595Y-52162419D02*
X129630119Y-52162419D01*
X129630119Y-52162419D02*
X129534881Y-52210038D01*
X129534881Y-52210038D02*
X129487262Y-52257657D01*
X129487262Y-52257657D02*
X129392024Y-52400514D01*
X129392024Y-52400514D02*
X129344405Y-52590990D01*
X129344405Y-52590990D02*
X129344405Y-52971942D01*
X129344405Y-52971942D02*
X129392024Y-53067180D01*
X129392024Y-53067180D02*
X129439643Y-53114800D01*
X129439643Y-53114800D02*
X129534881Y-53162419D01*
X129534881Y-53162419D02*
X129725357Y-53162419D01*
X129725357Y-53162419D02*
X129820595Y-53114800D01*
X129820595Y-53114800D02*
X129868214Y-53067180D01*
X129868214Y-53067180D02*
X129915833Y-52971942D01*
X129915833Y-52971942D02*
X129915833Y-52733847D01*
X129915833Y-52733847D02*
X129868214Y-52638609D01*
X129868214Y-52638609D02*
X129820595Y-52590990D01*
X129820595Y-52590990D02*
X129725357Y-52543371D01*
X129725357Y-52543371D02*
X129534881Y-52543371D01*
X129534881Y-52543371D02*
X129439643Y-52590990D01*
X129439643Y-52590990D02*
X129392024Y-52638609D01*
X129392024Y-52638609D02*
X129344405Y-52733847D01*
X158735795Y-64141786D02*
X158735795Y-64617976D01*
X158450080Y-64046548D02*
X159450080Y-64379881D01*
X159450080Y-64379881D02*
X158450080Y-64713214D01*
X158450080Y-65046548D02*
X159450080Y-65046548D01*
X159450080Y-65046548D02*
X158735795Y-65379881D01*
X158735795Y-65379881D02*
X159450080Y-65713214D01*
X159450080Y-65713214D02*
X158450080Y-65713214D01*
X158450080Y-66189405D02*
X159450080Y-66189405D01*
X159450080Y-66189405D02*
X159450080Y-66570357D01*
X159450080Y-66570357D02*
X159402461Y-66665595D01*
X159402461Y-66665595D02*
X159354842Y-66713214D01*
X159354842Y-66713214D02*
X159259604Y-66760833D01*
X159259604Y-66760833D02*
X159116747Y-66760833D01*
X159116747Y-66760833D02*
X159021509Y-66713214D01*
X159021509Y-66713214D02*
X158973890Y-66665595D01*
X158973890Y-66665595D02*
X158926271Y-66570357D01*
X158926271Y-66570357D02*
X158926271Y-66189405D01*
X158450080Y-67713214D02*
X158450080Y-67141786D01*
X158450080Y-67427500D02*
X159450080Y-67427500D01*
X159450080Y-67427500D02*
X159307223Y-67332262D01*
X159307223Y-67332262D02*
X159211985Y-67237024D01*
X159211985Y-67237024D02*
X159164366Y-67141786D01*
D10*
X167663905Y-83484819D02*
X167663905Y-82484819D01*
X167663905Y-82484819D02*
X167902000Y-82484819D01*
X167902000Y-82484819D02*
X168044857Y-82532438D01*
X168044857Y-82532438D02*
X168140095Y-82627676D01*
X168140095Y-82627676D02*
X168187714Y-82722914D01*
X168187714Y-82722914D02*
X168235333Y-82913390D01*
X168235333Y-82913390D02*
X168235333Y-83056247D01*
X168235333Y-83056247D02*
X168187714Y-83246723D01*
X168187714Y-83246723D02*
X168140095Y-83341961D01*
X168140095Y-83341961D02*
X168044857Y-83437200D01*
X168044857Y-83437200D02*
X167902000Y-83484819D01*
X167902000Y-83484819D02*
X167663905Y-83484819D01*
X169092476Y-82818152D02*
X169092476Y-83484819D01*
X168854381Y-82437200D02*
X168616286Y-83151485D01*
X168616286Y-83151485D02*
X169235333Y-83151485D01*
X189319819Y-83637143D02*
X189319819Y-84113333D01*
X189319819Y-84113333D02*
X189796009Y-84160952D01*
X189796009Y-84160952D02*
X189748390Y-84113333D01*
X189748390Y-84113333D02*
X189700771Y-84018095D01*
X189700771Y-84018095D02*
X189700771Y-83780000D01*
X189700771Y-83780000D02*
X189748390Y-83684762D01*
X189748390Y-83684762D02*
X189796009Y-83637143D01*
X189796009Y-83637143D02*
X189891247Y-83589524D01*
X189891247Y-83589524D02*
X190129342Y-83589524D01*
X190129342Y-83589524D02*
X190224580Y-83637143D01*
X190224580Y-83637143D02*
X190272200Y-83684762D01*
X190272200Y-83684762D02*
X190319819Y-83780000D01*
X190319819Y-83780000D02*
X190319819Y-84018095D01*
X190319819Y-84018095D02*
X190272200Y-84113333D01*
X190272200Y-84113333D02*
X190224580Y-84160952D01*
X189319819Y-83303809D02*
X190319819Y-82970476D01*
X190319819Y-82970476D02*
X189319819Y-82637143D01*
X190415057Y-82541905D02*
X190415057Y-81780000D01*
X189796009Y-81541904D02*
X189796009Y-81208571D01*
X190319819Y-81065714D02*
X190319819Y-81541904D01*
X190319819Y-81541904D02*
X189319819Y-81541904D01*
X189319819Y-81541904D02*
X189319819Y-81065714D01*
X189319819Y-80732380D02*
X190319819Y-80065714D01*
X189319819Y-80065714D02*
X190319819Y-80732380D01*
X189319819Y-79827618D02*
X189319819Y-79256190D01*
X190319819Y-79541904D02*
X189319819Y-79541904D01*
X190319819Y-78399047D02*
X190319819Y-78970475D01*
X190319819Y-78684761D02*
X189319819Y-78684761D01*
X189319819Y-78684761D02*
X189462676Y-78779999D01*
X189462676Y-78779999D02*
X189557914Y-78875237D01*
X189557914Y-78875237D02*
X189605533Y-78970475D01*
X178093810Y-56334819D02*
X178093810Y-55334819D01*
X178093810Y-55334819D02*
X178474762Y-55334819D01*
X178474762Y-55334819D02*
X178570000Y-55382438D01*
X178570000Y-55382438D02*
X178617619Y-55430057D01*
X178617619Y-55430057D02*
X178665238Y-55525295D01*
X178665238Y-55525295D02*
X178665238Y-55668152D01*
X178665238Y-55668152D02*
X178617619Y-55763390D01*
X178617619Y-55763390D02*
X178570000Y-55811009D01*
X178570000Y-55811009D02*
X178474762Y-55858628D01*
X178474762Y-55858628D02*
X178093810Y-55858628D01*
X179093810Y-56334819D02*
X179093810Y-55334819D01*
X180093809Y-56334819D02*
X179522381Y-56334819D01*
X179808095Y-56334819D02*
X179808095Y-55334819D01*
X179808095Y-55334819D02*
X179712857Y-55477676D01*
X179712857Y-55477676D02*
X179617619Y-55572914D01*
X179617619Y-55572914D02*
X179522381Y-55620533D01*
X174140905Y-83484819D02*
X174140905Y-82484819D01*
X174140905Y-82484819D02*
X174379000Y-82484819D01*
X174379000Y-82484819D02*
X174521857Y-82532438D01*
X174521857Y-82532438D02*
X174617095Y-82627676D01*
X174617095Y-82627676D02*
X174664714Y-82722914D01*
X174664714Y-82722914D02*
X174712333Y-82913390D01*
X174712333Y-82913390D02*
X174712333Y-83056247D01*
X174712333Y-83056247D02*
X174664714Y-83246723D01*
X174664714Y-83246723D02*
X174617095Y-83341961D01*
X174617095Y-83341961D02*
X174521857Y-83437200D01*
X174521857Y-83437200D02*
X174379000Y-83484819D01*
X174379000Y-83484819D02*
X174140905Y-83484819D01*
X175617095Y-82484819D02*
X175140905Y-82484819D01*
X175140905Y-82484819D02*
X175093286Y-82961009D01*
X175093286Y-82961009D02*
X175140905Y-82913390D01*
X175140905Y-82913390D02*
X175236143Y-82865771D01*
X175236143Y-82865771D02*
X175474238Y-82865771D01*
X175474238Y-82865771D02*
X175569476Y-82913390D01*
X175569476Y-82913390D02*
X175617095Y-82961009D01*
X175617095Y-82961009D02*
X175664714Y-83056247D01*
X175664714Y-83056247D02*
X175664714Y-83294342D01*
X175664714Y-83294342D02*
X175617095Y-83389580D01*
X175617095Y-83389580D02*
X175569476Y-83437200D01*
X175569476Y-83437200D02*
X175474238Y-83484819D01*
X175474238Y-83484819D02*
X175236143Y-83484819D01*
X175236143Y-83484819D02*
X175140905Y-83437200D01*
X175140905Y-83437200D02*
X175093286Y-83389580D01*
X189319819Y-58808571D02*
X189319819Y-58189524D01*
X189319819Y-58189524D02*
X189700771Y-58522857D01*
X189700771Y-58522857D02*
X189700771Y-58380000D01*
X189700771Y-58380000D02*
X189748390Y-58284762D01*
X189748390Y-58284762D02*
X189796009Y-58237143D01*
X189796009Y-58237143D02*
X189891247Y-58189524D01*
X189891247Y-58189524D02*
X190129342Y-58189524D01*
X190129342Y-58189524D02*
X190224580Y-58237143D01*
X190224580Y-58237143D02*
X190272200Y-58284762D01*
X190272200Y-58284762D02*
X190319819Y-58380000D01*
X190319819Y-58380000D02*
X190319819Y-58665714D01*
X190319819Y-58665714D02*
X190272200Y-58760952D01*
X190272200Y-58760952D02*
X190224580Y-58808571D01*
X189319819Y-57903809D02*
X190319819Y-57570476D01*
X190319819Y-57570476D02*
X189319819Y-57237143D01*
X190415057Y-57141905D02*
X190415057Y-56380000D01*
X189796009Y-56141904D02*
X189796009Y-55808571D01*
X190319819Y-55665714D02*
X190319819Y-56141904D01*
X190319819Y-56141904D02*
X189319819Y-56141904D01*
X189319819Y-56141904D02*
X189319819Y-55665714D01*
X189319819Y-55332380D02*
X190319819Y-54665714D01*
X189319819Y-54665714D02*
X190319819Y-55332380D01*
X189319819Y-54427618D02*
X189319819Y-53856190D01*
X190319819Y-54141904D02*
X189319819Y-54141904D01*
X190319819Y-52999047D02*
X190319819Y-53570475D01*
X190319819Y-53284761D02*
X189319819Y-53284761D01*
X189319819Y-53284761D02*
X189462676Y-53379999D01*
X189462676Y-53379999D02*
X189557914Y-53475237D01*
X189557914Y-53475237D02*
X189605533Y-53570475D01*
X180729047Y-72321009D02*
X180871904Y-72368628D01*
X180871904Y-72368628D02*
X180919523Y-72416247D01*
X180919523Y-72416247D02*
X180967142Y-72511485D01*
X180967142Y-72511485D02*
X180967142Y-72654342D01*
X180967142Y-72654342D02*
X180919523Y-72749580D01*
X180919523Y-72749580D02*
X180871904Y-72797200D01*
X180871904Y-72797200D02*
X180776666Y-72844819D01*
X180776666Y-72844819D02*
X180395714Y-72844819D01*
X180395714Y-72844819D02*
X180395714Y-71844819D01*
X180395714Y-71844819D02*
X180729047Y-71844819D01*
X180729047Y-71844819D02*
X180824285Y-71892438D01*
X180824285Y-71892438D02*
X180871904Y-71940057D01*
X180871904Y-71940057D02*
X180919523Y-72035295D01*
X180919523Y-72035295D02*
X180919523Y-72130533D01*
X180919523Y-72130533D02*
X180871904Y-72225771D01*
X180871904Y-72225771D02*
X180824285Y-72273390D01*
X180824285Y-72273390D02*
X180729047Y-72321009D01*
X180729047Y-72321009D02*
X180395714Y-72321009D01*
X181300476Y-71844819D02*
X181967142Y-71844819D01*
X181967142Y-71844819D02*
X181300476Y-72844819D01*
X181300476Y-72844819D02*
X181967142Y-72844819D01*
X182871904Y-72844819D02*
X182300476Y-72844819D01*
X182586190Y-72844819D02*
X182586190Y-71844819D01*
X182586190Y-71844819D02*
X182490952Y-71987676D01*
X182490952Y-71987676D02*
X182395714Y-72082914D01*
X182395714Y-72082914D02*
X182300476Y-72130533D01*
X184223866Y-61340951D02*
X184223866Y-60579047D01*
X184604819Y-60959999D02*
X183842914Y-60959999D01*
D13*
X141305080Y-64492381D02*
X142305080Y-64492381D01*
X142305080Y-64492381D02*
X141590795Y-64825714D01*
X141590795Y-64825714D02*
X142305080Y-65159047D01*
X142305080Y-65159047D02*
X141305080Y-65159047D01*
X141305080Y-65635238D02*
X142305080Y-65635238D01*
X141400319Y-66682856D02*
X141352700Y-66635237D01*
X141352700Y-66635237D02*
X141305080Y-66492380D01*
X141305080Y-66492380D02*
X141305080Y-66397142D01*
X141305080Y-66397142D02*
X141352700Y-66254285D01*
X141352700Y-66254285D02*
X141447938Y-66159047D01*
X141447938Y-66159047D02*
X141543176Y-66111428D01*
X141543176Y-66111428D02*
X141733652Y-66063809D01*
X141733652Y-66063809D02*
X141876509Y-66063809D01*
X141876509Y-66063809D02*
X142066985Y-66111428D01*
X142066985Y-66111428D02*
X142162223Y-66159047D01*
X142162223Y-66159047D02*
X142257461Y-66254285D01*
X142257461Y-66254285D02*
X142305080Y-66397142D01*
X142305080Y-66397142D02*
X142305080Y-66492380D01*
X142305080Y-66492380D02*
X142257461Y-66635237D01*
X142257461Y-66635237D02*
X142209842Y-66682856D01*
X142209842Y-67063809D02*
X142257461Y-67111428D01*
X142257461Y-67111428D02*
X142305080Y-67206666D01*
X142305080Y-67206666D02*
X142305080Y-67444761D01*
X142305080Y-67444761D02*
X142257461Y-67539999D01*
X142257461Y-67539999D02*
X142209842Y-67587618D01*
X142209842Y-67587618D02*
X142114604Y-67635237D01*
X142114604Y-67635237D02*
X142019366Y-67635237D01*
X142019366Y-67635237D02*
X141876509Y-67587618D01*
X141876509Y-67587618D02*
X141305080Y-67016190D01*
X141305080Y-67016190D02*
X141305080Y-67635237D01*
D12*
X152452530Y-83268333D02*
X152476340Y-83292142D01*
X152476340Y-83292142D02*
X152500149Y-83363571D01*
X152500149Y-83363571D02*
X152500149Y-83411190D01*
X152500149Y-83411190D02*
X152476340Y-83482618D01*
X152476340Y-83482618D02*
X152428720Y-83530237D01*
X152428720Y-83530237D02*
X152381101Y-83554047D01*
X152381101Y-83554047D02*
X152285863Y-83577856D01*
X152285863Y-83577856D02*
X152214435Y-83577856D01*
X152214435Y-83577856D02*
X152119197Y-83554047D01*
X152119197Y-83554047D02*
X152071578Y-83530237D01*
X152071578Y-83530237D02*
X152023959Y-83482618D01*
X152023959Y-83482618D02*
X152000149Y-83411190D01*
X152000149Y-83411190D02*
X152000149Y-83363571D01*
X152000149Y-83363571D02*
X152023959Y-83292142D01*
X152023959Y-83292142D02*
X152047768Y-83268333D01*
X152047768Y-83077856D02*
X152023959Y-83054047D01*
X152023959Y-83054047D02*
X152000149Y-83006428D01*
X152000149Y-83006428D02*
X152000149Y-82887380D01*
X152000149Y-82887380D02*
X152023959Y-82839761D01*
X152023959Y-82839761D02*
X152047768Y-82815952D01*
X152047768Y-82815952D02*
X152095387Y-82792142D01*
X152095387Y-82792142D02*
X152143006Y-82792142D01*
X152143006Y-82792142D02*
X152214435Y-82815952D01*
X152214435Y-82815952D02*
X152500149Y-83101666D01*
X152500149Y-83101666D02*
X152500149Y-82792142D01*
D13*
X170656667Y-76022419D02*
X170656667Y-75022419D01*
X171085238Y-75117657D02*
X171132857Y-75070038D01*
X171132857Y-75070038D02*
X171228095Y-75022419D01*
X171228095Y-75022419D02*
X171466190Y-75022419D01*
X171466190Y-75022419D02*
X171561428Y-75070038D01*
X171561428Y-75070038D02*
X171609047Y-75117657D01*
X171609047Y-75117657D02*
X171656666Y-75212895D01*
X171656666Y-75212895D02*
X171656666Y-75308133D01*
X171656666Y-75308133D02*
X171609047Y-75450990D01*
X171609047Y-75450990D02*
X171037619Y-76022419D01*
X171037619Y-76022419D02*
X171656666Y-76022419D01*
X172656666Y-75927180D02*
X172609047Y-75974800D01*
X172609047Y-75974800D02*
X172466190Y-76022419D01*
X172466190Y-76022419D02*
X172370952Y-76022419D01*
X172370952Y-76022419D02*
X172228095Y-75974800D01*
X172228095Y-75974800D02*
X172132857Y-75879561D01*
X172132857Y-75879561D02*
X172085238Y-75784323D01*
X172085238Y-75784323D02*
X172037619Y-75593847D01*
X172037619Y-75593847D02*
X172037619Y-75450990D01*
X172037619Y-75450990D02*
X172085238Y-75260514D01*
X172085238Y-75260514D02*
X172132857Y-75165276D01*
X172132857Y-75165276D02*
X172228095Y-75070038D01*
X172228095Y-75070038D02*
X172370952Y-75022419D01*
X172370952Y-75022419D02*
X172466190Y-75022419D01*
X172466190Y-75022419D02*
X172609047Y-75070038D01*
X172609047Y-75070038D02*
X172656666Y-75117657D01*
X172847143Y-76117657D02*
X173609047Y-76117657D01*
X173847143Y-76022419D02*
X173847143Y-75022419D01*
X173847143Y-75022419D02*
X174418571Y-76022419D01*
X174418571Y-76022419D02*
X174418571Y-75022419D01*
X174894762Y-75498609D02*
X175228095Y-75498609D01*
X175370952Y-76022419D02*
X174894762Y-76022419D01*
X174894762Y-76022419D02*
X174894762Y-75022419D01*
X174894762Y-75022419D02*
X175370952Y-75022419D01*
X175990000Y-75022419D02*
X176180476Y-75022419D01*
X176180476Y-75022419D02*
X176275714Y-75070038D01*
X176275714Y-75070038D02*
X176370952Y-75165276D01*
X176370952Y-75165276D02*
X176418571Y-75355752D01*
X176418571Y-75355752D02*
X176418571Y-75689085D01*
X176418571Y-75689085D02*
X176370952Y-75879561D01*
X176370952Y-75879561D02*
X176275714Y-75974800D01*
X176275714Y-75974800D02*
X176180476Y-76022419D01*
X176180476Y-76022419D02*
X175990000Y-76022419D01*
X175990000Y-76022419D02*
X175894762Y-75974800D01*
X175894762Y-75974800D02*
X175799524Y-75879561D01*
X175799524Y-75879561D02*
X175751905Y-75689085D01*
X175751905Y-75689085D02*
X175751905Y-75355752D01*
X175751905Y-75355752D02*
X175799524Y-75165276D01*
X175799524Y-75165276D02*
X175894762Y-75070038D01*
X175894762Y-75070038D02*
X175990000Y-75022419D01*
X177370952Y-76022419D02*
X176799524Y-76022419D01*
X177085238Y-76022419D02*
X177085238Y-75022419D01*
X177085238Y-75022419D02*
X176990000Y-75165276D01*
X176990000Y-75165276D02*
X176894762Y-75260514D01*
X176894762Y-75260514D02*
X176799524Y-75308133D01*
D10*
X190319819Y-71682856D02*
X189319819Y-71682856D01*
X189415057Y-71254285D02*
X189367438Y-71206666D01*
X189367438Y-71206666D02*
X189319819Y-71111428D01*
X189319819Y-71111428D02*
X189319819Y-70873333D01*
X189319819Y-70873333D02*
X189367438Y-70778095D01*
X189367438Y-70778095D02*
X189415057Y-70730476D01*
X189415057Y-70730476D02*
X189510295Y-70682857D01*
X189510295Y-70682857D02*
X189605533Y-70682857D01*
X189605533Y-70682857D02*
X189748390Y-70730476D01*
X189748390Y-70730476D02*
X190319819Y-71301904D01*
X190319819Y-71301904D02*
X190319819Y-70682857D01*
X190224580Y-69682857D02*
X190272200Y-69730476D01*
X190272200Y-69730476D02*
X190319819Y-69873333D01*
X190319819Y-69873333D02*
X190319819Y-69968571D01*
X190319819Y-69968571D02*
X190272200Y-70111428D01*
X190272200Y-70111428D02*
X190176961Y-70206666D01*
X190176961Y-70206666D02*
X190081723Y-70254285D01*
X190081723Y-70254285D02*
X189891247Y-70301904D01*
X189891247Y-70301904D02*
X189748390Y-70301904D01*
X189748390Y-70301904D02*
X189557914Y-70254285D01*
X189557914Y-70254285D02*
X189462676Y-70206666D01*
X189462676Y-70206666D02*
X189367438Y-70111428D01*
X189367438Y-70111428D02*
X189319819Y-69968571D01*
X189319819Y-69968571D02*
X189319819Y-69873333D01*
X189319819Y-69873333D02*
X189367438Y-69730476D01*
X189367438Y-69730476D02*
X189415057Y-69682857D01*
X190415057Y-69492381D02*
X190415057Y-68730476D01*
X189796009Y-68492380D02*
X189796009Y-68159047D01*
X190319819Y-68016190D02*
X190319819Y-68492380D01*
X190319819Y-68492380D02*
X189319819Y-68492380D01*
X189319819Y-68492380D02*
X189319819Y-68016190D01*
X189319819Y-67682856D02*
X190319819Y-67016190D01*
X189319819Y-67016190D02*
X190319819Y-67682856D01*
X189319819Y-66778094D02*
X189319819Y-66206666D01*
X190319819Y-66492380D02*
X189319819Y-66492380D01*
X190319819Y-65349523D02*
X190319819Y-65920951D01*
X190319819Y-65635237D02*
X189319819Y-65635237D01*
X189319819Y-65635237D02*
X189462676Y-65730475D01*
X189462676Y-65730475D02*
X189557914Y-65825713D01*
X189557914Y-65825713D02*
X189605533Y-65920951D01*
X155090905Y-83428819D02*
X155090905Y-82428819D01*
X155090905Y-82428819D02*
X155329000Y-82428819D01*
X155329000Y-82428819D02*
X155471857Y-82476438D01*
X155471857Y-82476438D02*
X155567095Y-82571676D01*
X155567095Y-82571676D02*
X155614714Y-82666914D01*
X155614714Y-82666914D02*
X155662333Y-82857390D01*
X155662333Y-82857390D02*
X155662333Y-83000247D01*
X155662333Y-83000247D02*
X155614714Y-83190723D01*
X155614714Y-83190723D02*
X155567095Y-83285961D01*
X155567095Y-83285961D02*
X155471857Y-83381200D01*
X155471857Y-83381200D02*
X155329000Y-83428819D01*
X155329000Y-83428819D02*
X155090905Y-83428819D01*
X156043286Y-82524057D02*
X156090905Y-82476438D01*
X156090905Y-82476438D02*
X156186143Y-82428819D01*
X156186143Y-82428819D02*
X156424238Y-82428819D01*
X156424238Y-82428819D02*
X156519476Y-82476438D01*
X156519476Y-82476438D02*
X156567095Y-82524057D01*
X156567095Y-82524057D02*
X156614714Y-82619295D01*
X156614714Y-82619295D02*
X156614714Y-82714533D01*
X156614714Y-82714533D02*
X156567095Y-82857390D01*
X156567095Y-82857390D02*
X155995667Y-83428819D01*
X155995667Y-83428819D02*
X156614714Y-83428819D01*
D12*
X171629530Y-83232333D02*
X171653340Y-83256142D01*
X171653340Y-83256142D02*
X171677149Y-83327571D01*
X171677149Y-83327571D02*
X171677149Y-83375190D01*
X171677149Y-83375190D02*
X171653340Y-83446618D01*
X171653340Y-83446618D02*
X171605720Y-83494237D01*
X171605720Y-83494237D02*
X171558101Y-83518047D01*
X171558101Y-83518047D02*
X171462863Y-83541856D01*
X171462863Y-83541856D02*
X171391435Y-83541856D01*
X171391435Y-83541856D02*
X171296197Y-83518047D01*
X171296197Y-83518047D02*
X171248578Y-83494237D01*
X171248578Y-83494237D02*
X171200959Y-83446618D01*
X171200959Y-83446618D02*
X171177149Y-83375190D01*
X171177149Y-83375190D02*
X171177149Y-83327571D01*
X171177149Y-83327571D02*
X171200959Y-83256142D01*
X171200959Y-83256142D02*
X171224768Y-83232333D01*
X171177149Y-82779952D02*
X171177149Y-83018047D01*
X171177149Y-83018047D02*
X171415244Y-83041856D01*
X171415244Y-83041856D02*
X171391435Y-83018047D01*
X171391435Y-83018047D02*
X171367625Y-82970428D01*
X171367625Y-82970428D02*
X171367625Y-82851380D01*
X171367625Y-82851380D02*
X171391435Y-82803761D01*
X171391435Y-82803761D02*
X171415244Y-82779952D01*
X171415244Y-82779952D02*
X171462863Y-82756142D01*
X171462863Y-82756142D02*
X171581911Y-82756142D01*
X171581911Y-82756142D02*
X171629530Y-82779952D01*
X171629530Y-82779952D02*
X171653340Y-82803761D01*
X171653340Y-82803761D02*
X171677149Y-82851380D01*
X171677149Y-82851380D02*
X171677149Y-82970428D01*
X171677149Y-82970428D02*
X171653340Y-83018047D01*
X171653340Y-83018047D02*
X171629530Y-83041856D01*
D14*
%TO.C,D3*%
X164030000Y-80024000D02*
X164030000Y-85924000D01*
X160130000Y-80024000D02*
X160130000Y-85924000D01*
X160130000Y-85924000D02*
X161205000Y-85924000D01*
%TO.C,D1*%
X150935000Y-80024000D02*
X150935000Y-85924000D01*
X147035000Y-80024000D02*
X147035000Y-85924000D01*
X147035000Y-85924000D02*
X148110000Y-85924000D01*
%TO.C,D4*%
X170380000Y-80080000D02*
X170380000Y-85980000D01*
X166480000Y-80080000D02*
X166480000Y-85980000D01*
X166480000Y-85980000D02*
X167555000Y-85980000D01*
%TO.C,5V_EXT1*%
X198330000Y-75930000D02*
X197080000Y-75930000D01*
X198040000Y-76220000D02*
X192070000Y-76220000D01*
X192070000Y-76220000D02*
X192070000Y-86340000D01*
X198030000Y-76230000D02*
X197280000Y-76230000D01*
X197280000Y-76230000D02*
X197280000Y-78030000D01*
X195780000Y-76230000D02*
X195780000Y-76980000D01*
X195780000Y-76980000D02*
X192830000Y-76980000D01*
X192830000Y-76980000D02*
X192830000Y-81280000D01*
X198330000Y-77180000D02*
X198330000Y-75930000D01*
X198030000Y-78030000D02*
X198030000Y-76230000D01*
X197280000Y-78030000D02*
X198030000Y-78030000D01*
X198030000Y-79530000D02*
X197280000Y-79530000D01*
X197280000Y-79530000D02*
X197280000Y-83030000D01*
X198030000Y-83030000D02*
X198030000Y-79530000D01*
X197280000Y-83030000D02*
X198030000Y-83030000D01*
X198030000Y-84530000D02*
X197280000Y-84530000D01*
X197280000Y-84530000D02*
X197280000Y-86330000D01*
X195780000Y-85580000D02*
X192830000Y-85580000D01*
X192830000Y-85580000D02*
X192830000Y-81280000D01*
X198030000Y-86330000D02*
X198030000Y-84530000D01*
X197280000Y-86330000D02*
X198030000Y-86330000D01*
X195780000Y-86330000D02*
X195780000Y-85580000D01*
X198040000Y-86340000D02*
X198040000Y-76220000D01*
X192070000Y-86340000D02*
X198040000Y-86340000D01*
%TO.C,PI1*%
X186750000Y-49470000D02*
X186750000Y-50800000D01*
X185420000Y-49470000D02*
X186750000Y-49470000D01*
X184150000Y-49470000D02*
X135830000Y-49470000D01*
X184150000Y-49470000D02*
X184150000Y-52070000D01*
X135830000Y-49470000D02*
X135830000Y-54670000D01*
X186750000Y-52070000D02*
X186750000Y-54670000D01*
X184150000Y-52070000D02*
X186750000Y-52070000D01*
X186750000Y-54670000D02*
X135830000Y-54670000D01*
%TO.C,D5*%
X176730000Y-80080000D02*
X176730000Y-85980000D01*
X172830000Y-80080000D02*
X172830000Y-85980000D01*
X172830000Y-85980000D02*
X173905000Y-85980000D01*
%TO.C,3V_EXT1*%
X198330000Y-50530000D02*
X197080000Y-50530000D01*
X198040000Y-50820000D02*
X192070000Y-50820000D01*
X192070000Y-50820000D02*
X192070000Y-60940000D01*
X198030000Y-50830000D02*
X197280000Y-50830000D01*
X197280000Y-50830000D02*
X197280000Y-52630000D01*
X195780000Y-50830000D02*
X195780000Y-51580000D01*
X195780000Y-51580000D02*
X192830000Y-51580000D01*
X192830000Y-51580000D02*
X192830000Y-55880000D01*
X198330000Y-51780000D02*
X198330000Y-50530000D01*
X198030000Y-52630000D02*
X198030000Y-50830000D01*
X197280000Y-52630000D02*
X198030000Y-52630000D01*
X198030000Y-54130000D02*
X197280000Y-54130000D01*
X197280000Y-54130000D02*
X197280000Y-57630000D01*
X198030000Y-57630000D02*
X198030000Y-54130000D01*
X197280000Y-57630000D02*
X198030000Y-57630000D01*
X198030000Y-59130000D02*
X197280000Y-59130000D01*
X197280000Y-59130000D02*
X197280000Y-60930000D01*
X195780000Y-60180000D02*
X192830000Y-60180000D01*
X192830000Y-60180000D02*
X192830000Y-55880000D01*
X198030000Y-60930000D02*
X198030000Y-59130000D01*
X197280000Y-60930000D02*
X198030000Y-60930000D01*
X195780000Y-60930000D02*
X195780000Y-60180000D01*
X198040000Y-60940000D02*
X198040000Y-50820000D01*
X192070000Y-60940000D02*
X198040000Y-60940000D01*
%TO.C,BZ1*%
X187710000Y-64770000D02*
G75*
G03*
X187710000Y-64770000I-6100000J0D01*
G01*
%TO.C,I2C_EXT1*%
X198330000Y-61960000D02*
X197080000Y-61960000D01*
X198040000Y-62250000D02*
X192070000Y-62250000D01*
X192070000Y-62250000D02*
X192070000Y-74870000D01*
X198030000Y-62260000D02*
X197280000Y-62260000D01*
X197280000Y-62260000D02*
X197280000Y-64060000D01*
X195780000Y-62260000D02*
X195780000Y-63010000D01*
X195780000Y-63010000D02*
X192830000Y-63010000D01*
X192830000Y-63010000D02*
X192830000Y-68560000D01*
X198330000Y-63210000D02*
X198330000Y-61960000D01*
X198030000Y-64060000D02*
X198030000Y-62260000D01*
X197280000Y-64060000D02*
X198030000Y-64060000D01*
X198030000Y-65560000D02*
X197280000Y-65560000D01*
X197280000Y-65560000D02*
X197280000Y-71560000D01*
X198030000Y-71560000D02*
X198030000Y-65560000D01*
X197280000Y-71560000D02*
X198030000Y-71560000D01*
X198030000Y-73060000D02*
X197280000Y-73060000D01*
X197280000Y-73060000D02*
X197280000Y-74860000D01*
X195780000Y-74110000D02*
X192830000Y-74110000D01*
X192830000Y-74110000D02*
X192830000Y-68560000D01*
X198030000Y-74860000D02*
X198030000Y-73060000D01*
X197280000Y-74860000D02*
X198030000Y-74860000D01*
X195780000Y-74860000D02*
X195780000Y-74110000D01*
X198040000Y-74870000D02*
X198040000Y-62250000D01*
X192070000Y-74870000D02*
X198040000Y-74870000D01*
%TO.C,D2*%
X157680000Y-80024000D02*
X157680000Y-85924000D01*
X153780000Y-80024000D02*
X153780000Y-85924000D01*
X153780000Y-85924000D02*
X154855000Y-85924000D01*
%TD*%
M02*
