%TF.GenerationSoftware,KiCad,Pcbnew,7.0.8-7.0.8~ubuntu22.04.1*%
%TF.CreationDate,2023-11-17T20:39:09+00:00*%
%TF.ProjectId,v4head,76346865-6164-42e6-9b69-6361645f7063,rev?*%
%TF.SameCoordinates,Original*%
%TF.FileFunction,Legend,Bot*%
%TF.FilePolarity,Positive*%
%FSLAX46Y46*%
G04 Gerber Fmt 4.6, Leading zero omitted, Abs format (unit mm)*
G04 Created by KiCad (PCBNEW 7.0.8-7.0.8~ubuntu22.04.1) date 2023-11-17 20:39:09*
%MOMM*%
%LPD*%
G01*
G04 APERTURE LIST*
%ADD10C,0.150000*%
%ADD11C,0.125000*%
%ADD12C,0.100000*%
%ADD13C,0.120000*%
G04 APERTURE END LIST*
D10*
X136144048Y-78666133D02*
X136905953Y-78666133D01*
X136525000Y-78285180D02*
X136525000Y-79047085D01*
X148844048Y-72951133D02*
X149605953Y-72951133D01*
X149225000Y-72570180D02*
X149225000Y-73332085D01*
D11*
X121259523Y-75128595D02*
X120802380Y-75128595D01*
X121030952Y-75928595D02*
X121030952Y-75128595D01*
X120611904Y-75128595D02*
X120078570Y-75928595D01*
X120078570Y-75128595D02*
X120611904Y-75928595D01*
D10*
X148844048Y-69776133D02*
X149605953Y-69776133D01*
X138684046Y-82476133D02*
X139445951Y-82476133D01*
X139064998Y-82095180D02*
X139064998Y-82857085D01*
X138684046Y-85016133D02*
X139445951Y-85016133D01*
X185674048Y-81206133D02*
X186435953Y-81206133D01*
X186055000Y-80825180D02*
X186055000Y-81587085D01*
X185674048Y-83746133D02*
X186435953Y-83746133D01*
X125955713Y-79147200D02*
X125812856Y-79194819D01*
X125812856Y-79194819D02*
X125574761Y-79194819D01*
X125574761Y-79194819D02*
X125479523Y-79147200D01*
X125479523Y-79147200D02*
X125431904Y-79099580D01*
X125431904Y-79099580D02*
X125384285Y-79004342D01*
X125384285Y-79004342D02*
X125384285Y-78909104D01*
X125384285Y-78909104D02*
X125431904Y-78813866D01*
X125431904Y-78813866D02*
X125479523Y-78766247D01*
X125479523Y-78766247D02*
X125574761Y-78718628D01*
X125574761Y-78718628D02*
X125765237Y-78671009D01*
X125765237Y-78671009D02*
X125860475Y-78623390D01*
X125860475Y-78623390D02*
X125908094Y-78575771D01*
X125908094Y-78575771D02*
X125955713Y-78480533D01*
X125955713Y-78480533D02*
X125955713Y-78385295D01*
X125955713Y-78385295D02*
X125908094Y-78290057D01*
X125908094Y-78290057D02*
X125860475Y-78242438D01*
X125860475Y-78242438D02*
X125765237Y-78194819D01*
X125765237Y-78194819D02*
X125527142Y-78194819D01*
X125527142Y-78194819D02*
X125384285Y-78242438D01*
X124955713Y-78671009D02*
X124622380Y-78671009D01*
X124479523Y-79194819D02*
X124955713Y-79194819D01*
X124955713Y-79194819D02*
X124955713Y-78194819D01*
X124955713Y-78194819D02*
X124479523Y-78194819D01*
X123479523Y-79194819D02*
X123812856Y-78718628D01*
X124050951Y-79194819D02*
X124050951Y-78194819D01*
X124050951Y-78194819D02*
X123669999Y-78194819D01*
X123669999Y-78194819D02*
X123574761Y-78242438D01*
X123574761Y-78242438D02*
X123527142Y-78290057D01*
X123527142Y-78290057D02*
X123479523Y-78385295D01*
X123479523Y-78385295D02*
X123479523Y-78528152D01*
X123479523Y-78528152D02*
X123527142Y-78623390D01*
X123527142Y-78623390D02*
X123574761Y-78671009D01*
X123574761Y-78671009D02*
X123669999Y-78718628D01*
X123669999Y-78718628D02*
X124050951Y-78718628D01*
X123050951Y-79194819D02*
X123050951Y-78194819D01*
X122622380Y-78909104D02*
X122146190Y-78909104D01*
X122717618Y-79194819D02*
X122384285Y-78194819D01*
X122384285Y-78194819D02*
X122050952Y-79194819D01*
X121241428Y-79194819D02*
X121717618Y-79194819D01*
X121717618Y-79194819D02*
X121717618Y-78194819D01*
X120384285Y-79194819D02*
X120955713Y-79194819D01*
X120669999Y-79194819D02*
X120669999Y-78194819D01*
X120669999Y-78194819D02*
X120765237Y-78337676D01*
X120765237Y-78337676D02*
X120860475Y-78432914D01*
X120860475Y-78432914D02*
X120955713Y-78480533D01*
X189684819Y-79541905D02*
X188684819Y-79541905D01*
X188684819Y-79541905D02*
X189684819Y-80113333D01*
X189684819Y-80113333D02*
X188684819Y-80113333D01*
X189161009Y-80589524D02*
X189161009Y-80922857D01*
X189684819Y-81065714D02*
X189684819Y-80589524D01*
X189684819Y-80589524D02*
X188684819Y-80589524D01*
X188684819Y-80589524D02*
X188684819Y-81065714D01*
X188684819Y-81684762D02*
X188684819Y-81875238D01*
X188684819Y-81875238D02*
X188732438Y-81970476D01*
X188732438Y-81970476D02*
X188827676Y-82065714D01*
X188827676Y-82065714D02*
X189018152Y-82113333D01*
X189018152Y-82113333D02*
X189351485Y-82113333D01*
X189351485Y-82113333D02*
X189541961Y-82065714D01*
X189541961Y-82065714D02*
X189637200Y-81970476D01*
X189637200Y-81970476D02*
X189684819Y-81875238D01*
X189684819Y-81875238D02*
X189684819Y-81684762D01*
X189684819Y-81684762D02*
X189637200Y-81589524D01*
X189637200Y-81589524D02*
X189541961Y-81494286D01*
X189541961Y-81494286D02*
X189351485Y-81446667D01*
X189351485Y-81446667D02*
X189018152Y-81446667D01*
X189018152Y-81446667D02*
X188827676Y-81494286D01*
X188827676Y-81494286D02*
X188732438Y-81589524D01*
X188732438Y-81589524D02*
X188684819Y-81684762D01*
X189684819Y-83065714D02*
X189684819Y-82494286D01*
X189684819Y-82780000D02*
X188684819Y-82780000D01*
X188684819Y-82780000D02*
X188827676Y-82684762D01*
X188827676Y-82684762D02*
X188922914Y-82589524D01*
X188922914Y-82589524D02*
X188970533Y-82494286D01*
D12*
X149204919Y-64492381D02*
X148204919Y-64492381D01*
X148204919Y-64492381D02*
X148919204Y-64825714D01*
X148919204Y-64825714D02*
X148204919Y-65159047D01*
X148204919Y-65159047D02*
X149204919Y-65159047D01*
X149204919Y-65635238D02*
X148204919Y-65635238D01*
X149109680Y-66682856D02*
X149157300Y-66635237D01*
X149157300Y-66635237D02*
X149204919Y-66492380D01*
X149204919Y-66492380D02*
X149204919Y-66397142D01*
X149204919Y-66397142D02*
X149157300Y-66254285D01*
X149157300Y-66254285D02*
X149062061Y-66159047D01*
X149062061Y-66159047D02*
X148966823Y-66111428D01*
X148966823Y-66111428D02*
X148776347Y-66063809D01*
X148776347Y-66063809D02*
X148633490Y-66063809D01*
X148633490Y-66063809D02*
X148443014Y-66111428D01*
X148443014Y-66111428D02*
X148347776Y-66159047D01*
X148347776Y-66159047D02*
X148252538Y-66254285D01*
X148252538Y-66254285D02*
X148204919Y-66397142D01*
X148204919Y-66397142D02*
X148204919Y-66492380D01*
X148204919Y-66492380D02*
X148252538Y-66635237D01*
X148252538Y-66635237D02*
X148300157Y-66682856D01*
X149204919Y-67635237D02*
X149204919Y-67063809D01*
X149204919Y-67349523D02*
X148204919Y-67349523D01*
X148204919Y-67349523D02*
X148347776Y-67254285D01*
X148347776Y-67254285D02*
X148443014Y-67159047D01*
X148443014Y-67159047D02*
X148490633Y-67063809D01*
D10*
X143790200Y-80859524D02*
X143837819Y-81002381D01*
X143837819Y-81002381D02*
X143837819Y-81240476D01*
X143837819Y-81240476D02*
X143790200Y-81335714D01*
X143790200Y-81335714D02*
X143742580Y-81383333D01*
X143742580Y-81383333D02*
X143647342Y-81430952D01*
X143647342Y-81430952D02*
X143552104Y-81430952D01*
X143552104Y-81430952D02*
X143456866Y-81383333D01*
X143456866Y-81383333D02*
X143409247Y-81335714D01*
X143409247Y-81335714D02*
X143361628Y-81240476D01*
X143361628Y-81240476D02*
X143314009Y-81050000D01*
X143314009Y-81050000D02*
X143266390Y-80954762D01*
X143266390Y-80954762D02*
X143218771Y-80907143D01*
X143218771Y-80907143D02*
X143123533Y-80859524D01*
X143123533Y-80859524D02*
X143028295Y-80859524D01*
X143028295Y-80859524D02*
X142933057Y-80907143D01*
X142933057Y-80907143D02*
X142885438Y-80954762D01*
X142885438Y-80954762D02*
X142837819Y-81050000D01*
X142837819Y-81050000D02*
X142837819Y-81288095D01*
X142837819Y-81288095D02*
X142885438Y-81430952D01*
X143837819Y-82430952D02*
X143361628Y-82097619D01*
X143837819Y-81859524D02*
X142837819Y-81859524D01*
X142837819Y-81859524D02*
X142837819Y-82240476D01*
X142837819Y-82240476D02*
X142885438Y-82335714D01*
X142885438Y-82335714D02*
X142933057Y-82383333D01*
X142933057Y-82383333D02*
X143028295Y-82430952D01*
X143028295Y-82430952D02*
X143171152Y-82430952D01*
X143171152Y-82430952D02*
X143266390Y-82383333D01*
X143266390Y-82383333D02*
X143314009Y-82335714D01*
X143314009Y-82335714D02*
X143361628Y-82240476D01*
X143361628Y-82240476D02*
X143361628Y-81859524D01*
X142837819Y-82716667D02*
X143837819Y-83050000D01*
X143837819Y-83050000D02*
X142837819Y-83383333D01*
X143837819Y-84240476D02*
X143837819Y-83669048D01*
X143837819Y-83954762D02*
X142837819Y-83954762D01*
X142837819Y-83954762D02*
X142980676Y-83859524D01*
X142980676Y-83859524D02*
X143075914Y-83764286D01*
X143075914Y-83764286D02*
X143123533Y-83669048D01*
X135179523Y-79194819D02*
X135179523Y-78194819D01*
X135179523Y-78194819D02*
X134798571Y-78194819D01*
X134798571Y-78194819D02*
X134703333Y-78242438D01*
X134703333Y-78242438D02*
X134655714Y-78290057D01*
X134655714Y-78290057D02*
X134608095Y-78385295D01*
X134608095Y-78385295D02*
X134608095Y-78528152D01*
X134608095Y-78528152D02*
X134655714Y-78623390D01*
X134655714Y-78623390D02*
X134703333Y-78671009D01*
X134703333Y-78671009D02*
X134798571Y-78718628D01*
X134798571Y-78718628D02*
X135179523Y-78718628D01*
X134274761Y-78194819D02*
X134036666Y-79194819D01*
X134036666Y-79194819D02*
X133846190Y-78480533D01*
X133846190Y-78480533D02*
X133655714Y-79194819D01*
X133655714Y-79194819D02*
X133417619Y-78194819D01*
X132465238Y-79194819D02*
X132798571Y-78718628D01*
X133036666Y-79194819D02*
X133036666Y-78194819D01*
X133036666Y-78194819D02*
X132655714Y-78194819D01*
X132655714Y-78194819D02*
X132560476Y-78242438D01*
X132560476Y-78242438D02*
X132512857Y-78290057D01*
X132512857Y-78290057D02*
X132465238Y-78385295D01*
X132465238Y-78385295D02*
X132465238Y-78528152D01*
X132465238Y-78528152D02*
X132512857Y-78623390D01*
X132512857Y-78623390D02*
X132560476Y-78671009D01*
X132560476Y-78671009D02*
X132655714Y-78718628D01*
X132655714Y-78718628D02*
X133036666Y-78718628D01*
X131512857Y-79194819D02*
X132084285Y-79194819D01*
X131798571Y-79194819D02*
X131798571Y-78194819D01*
X131798571Y-78194819D02*
X131893809Y-78337676D01*
X131893809Y-78337676D02*
X131989047Y-78432914D01*
X131989047Y-78432914D02*
X132084285Y-78480533D01*
X169941666Y-59994819D02*
X169941666Y-58994819D01*
X169941666Y-59471009D02*
X169370238Y-59471009D01*
X169370238Y-59994819D02*
X169370238Y-58994819D01*
X168703571Y-58994819D02*
X168513095Y-58994819D01*
X168513095Y-58994819D02*
X168417857Y-59042438D01*
X168417857Y-59042438D02*
X168322619Y-59137676D01*
X168322619Y-59137676D02*
X168275000Y-59328152D01*
X168275000Y-59328152D02*
X168275000Y-59661485D01*
X168275000Y-59661485D02*
X168322619Y-59851961D01*
X168322619Y-59851961D02*
X168417857Y-59947200D01*
X168417857Y-59947200D02*
X168513095Y-59994819D01*
X168513095Y-59994819D02*
X168703571Y-59994819D01*
X168703571Y-59994819D02*
X168798809Y-59947200D01*
X168798809Y-59947200D02*
X168894047Y-59851961D01*
X168894047Y-59851961D02*
X168941666Y-59661485D01*
X168941666Y-59661485D02*
X168941666Y-59328152D01*
X168941666Y-59328152D02*
X168894047Y-59137676D01*
X168894047Y-59137676D02*
X168798809Y-59042438D01*
X168798809Y-59042438D02*
X168703571Y-58994819D01*
X167370238Y-59994819D02*
X167846428Y-59994819D01*
X167846428Y-59994819D02*
X167846428Y-58994819D01*
X167036904Y-59471009D02*
X166703571Y-59471009D01*
X166560714Y-59994819D02*
X167036904Y-59994819D01*
X167036904Y-59994819D02*
X167036904Y-58994819D01*
X167036904Y-58994819D02*
X166560714Y-58994819D01*
D13*
%TO.C,SERIAL1*%
X127270000Y-79800000D02*
X127270000Y-81050000D01*
X126980000Y-86060000D02*
X119360000Y-86060000D01*
X126980000Y-80090000D02*
X126980000Y-86060000D01*
X126970000Y-82350000D02*
X126220000Y-82350000D01*
X126970000Y-80850000D02*
X125170000Y-80850000D01*
X126970000Y-80100000D02*
X126970000Y-80850000D01*
X126220000Y-85300000D02*
X123170000Y-85300000D01*
X126220000Y-82350000D02*
X126220000Y-85300000D01*
X126020000Y-79800000D02*
X127270000Y-79800000D01*
X125170000Y-80850000D02*
X125170000Y-80100000D01*
X125170000Y-80100000D02*
X126970000Y-80100000D01*
X123670000Y-80850000D02*
X122670000Y-80850000D01*
X123670000Y-80100000D02*
X123670000Y-80850000D01*
X122670000Y-80850000D02*
X122670000Y-80100000D01*
X122670000Y-80100000D02*
X123670000Y-80100000D01*
X121170000Y-80850000D02*
X119370000Y-80850000D01*
X121170000Y-80100000D02*
X121170000Y-80850000D01*
X120120000Y-85300000D02*
X123170000Y-85300000D01*
X120120000Y-82350000D02*
X120120000Y-85300000D01*
X119370000Y-82350000D02*
X120120000Y-82350000D01*
X119370000Y-80850000D02*
X119370000Y-80100000D01*
X119370000Y-80100000D02*
X121170000Y-80100000D01*
X119360000Y-86060000D02*
X119360000Y-80090000D01*
X119360000Y-80090000D02*
X126980000Y-80090000D01*
%TO.C,NEO1*%
X181400000Y-75930000D02*
X182650000Y-75930000D01*
X187660000Y-76220000D02*
X187660000Y-86340000D01*
X181690000Y-76220000D02*
X187660000Y-76220000D01*
X183950000Y-76230000D02*
X183950000Y-76980000D01*
X182450000Y-76230000D02*
X182450000Y-78030000D01*
X181700000Y-76230000D02*
X182450000Y-76230000D01*
X186900000Y-76980000D02*
X186900000Y-81280000D01*
X183950000Y-76980000D02*
X186900000Y-76980000D01*
X181400000Y-77180000D02*
X181400000Y-75930000D01*
X182450000Y-78030000D02*
X181700000Y-78030000D01*
X181700000Y-78030000D02*
X181700000Y-76230000D01*
X182450000Y-79530000D02*
X182450000Y-83030000D01*
X181700000Y-79530000D02*
X182450000Y-79530000D01*
X182450000Y-83030000D02*
X181700000Y-83030000D01*
X181700000Y-83030000D02*
X181700000Y-79530000D01*
X182450000Y-84530000D02*
X182450000Y-86330000D01*
X181700000Y-84530000D02*
X182450000Y-84530000D01*
X186900000Y-85580000D02*
X186900000Y-81280000D01*
X183950000Y-85580000D02*
X186900000Y-85580000D01*
X183950000Y-86330000D02*
X183950000Y-85580000D01*
X182450000Y-86330000D02*
X181700000Y-86330000D01*
X181700000Y-86330000D02*
X181700000Y-84530000D01*
X187660000Y-86340000D02*
X181690000Y-86340000D01*
X181690000Y-86340000D02*
X181690000Y-76220000D01*
%TO.C,SRV1*%
X142300000Y-86420000D02*
X139640000Y-86420000D01*
X142300000Y-81280000D02*
X142300000Y-86420000D01*
X142300000Y-81280000D02*
X139640000Y-81280000D01*
X142300000Y-80010000D02*
X142300000Y-78680000D01*
X142300000Y-78680000D02*
X140970000Y-78680000D01*
X139640000Y-81280000D02*
X139640000Y-86420000D01*
%TO.C,PWR1*%
X137470000Y-79800000D02*
X137470000Y-81050000D01*
X137180000Y-86060000D02*
X129560000Y-86060000D01*
X137180000Y-80090000D02*
X137180000Y-86060000D01*
X137170000Y-82350000D02*
X136420000Y-82350000D01*
X137170000Y-80850000D02*
X135370000Y-80850000D01*
X137170000Y-80100000D02*
X137170000Y-80850000D01*
X136420000Y-85300000D02*
X133370000Y-85300000D01*
X136420000Y-82350000D02*
X136420000Y-85300000D01*
X136220000Y-79800000D02*
X137470000Y-79800000D01*
X135370000Y-80850000D02*
X135370000Y-80100000D01*
X135370000Y-80100000D02*
X137170000Y-80100000D01*
X133870000Y-80850000D02*
X132870000Y-80850000D01*
X133870000Y-80100000D02*
X133870000Y-80850000D01*
X132870000Y-80850000D02*
X132870000Y-80100000D01*
X132870000Y-80100000D02*
X133870000Y-80100000D01*
X131370000Y-80850000D02*
X129570000Y-80850000D01*
X131370000Y-80100000D02*
X131370000Y-80850000D01*
X130320000Y-85300000D02*
X133370000Y-85300000D01*
X130320000Y-82350000D02*
X130320000Y-85300000D01*
X129570000Y-82350000D02*
X130320000Y-82350000D01*
X129570000Y-80850000D02*
X129570000Y-80100000D01*
X129570000Y-80100000D02*
X131370000Y-80100000D01*
X129560000Y-86060000D02*
X129560000Y-80090000D01*
X129560000Y-80090000D02*
X137180000Y-80090000D01*
%TO.C,HOLE*%
X173775000Y-66040000D02*
G75*
G03*
X173775000Y-66040000I-5500000J0D01*
G01*
%TD*%
M02*
