<svg width="264mm" height="175mm" viewBox="0 0 264 175" xmlns="http://www.w3.org/2000/svg" version="1.1" preserveAspectRatio="xMidYMid meet"><g id="svgGroup" stroke-linecap="round" fill-rule="evenodd" font-size="9pt" stroke="#000" stroke-width="0.25mm" fill="none" style="stroke:#000;stroke-width:0.25mm;fill:none"><path d="M 0 89 L 0 106.395 L 3 106.395 L 3 123.465 L 0 123.465 L 0 140.535 L 3 140.535 L 3 157.605 L 0 157.605 L 0 175 L 17.395 175 L 17.395 172 L 34.465 172 L 34.465 175 L 51.535 175 L 51.535 172 L 68.605 172 L 68.605 175 L 86 175 L 86 157.605 L 83 157.605 L 83 140.535 L 86 140.535 L 86 123.465 L 83 123.465 L 83 106.395 L 86 106.395 L 86 89 L 68.605 89 L 68.605 92 L 51.535 92 L 51.535 89 L 34.465 89 L 34.465 92 L 17.395 92 L 17.395 89 L 0 89 Z" id="front_outsideCutPath" stroke="#0000FF" stroke-width="0.01" style="stroke:#0000FF;stroke-width:0.01" vector-effect="non-scaling-stroke"/><path d="M 92 89 L 92 106.395 L 89 106.395 L 89 123.465 L 92 123.465 L 92 140.535 L 89 140.535 L 89 157.605 L 92 157.605 L 92 175 L 106.395 175 L 106.395 172 L 123.465 172 L 123.465 175 L 140.535 175 L 140.535 172 L 157.605 172 L 157.605 175 L 172 175 L 172 157.605 L 175 157.605 L 175 140.535 L 172 140.535 L 172 123.465 L 175 123.465 L 175 106.395 L 172 106.395 L 172 89 L 157.605 89 L 157.605 92 L 140.535 92 L 140.535 89 L 123.465 89 L 123.465 92 L 106.395 92 L 106.395 89 L 92 89 Z" id="left_outsideCutPath" stroke="#0000FF" stroke-width="0.01" style="stroke:#0000FF;stroke-width:0.01" vector-effect="non-scaling-stroke"/><path d="M 181 92 L 181 106.395 L 178 106.395 L 178 123.465 L 181 123.465 L 181 140.535 L 178 140.535 L 178 157.605 L 181 157.605 L 181 172 L 195.395 172 L 195.395 175 L 212.465 175 L 212.465 172 L 229.535 172 L 229.535 175 L 246.605 175 L 246.605 172 L 261 172 L 261 157.605 L 264 157.605 L 264 140.535 L 261 140.535 L 261 123.465 L 264 123.465 L 264 106.395 L 261 106.395 L 261 92 L 246.605 92 L 246.605 89 L 229.535 89 L 229.535 92 L 212.465 92 L 212.465 89 L 195.395 89 L 195.395 92 L 181 92 Z" id="top_outsideCutPath" stroke="#0000FF" stroke-width="0.01" style="stroke:#0000FF;stroke-width:0.01" vector-effect="non-scaling-stroke"/><path d="M 0 0 L 0 17.395 L 3 17.395 L 3 34.465 L 0 34.465 L 0 51.535 L 3 51.535 L 3 68.605 L 0 68.605 L 0 86 L 17.395 86 L 17.395 83 L 34.465 83 L 34.465 86 L 51.535 86 L 51.535 83 L 68.605 83 L 68.605 86 L 86 86 L 86 68.605 L 83 68.605 L 83 51.535 L 86 51.535 L 86 34.465 L 83 34.465 L 83 17.395 L 86 17.395 L 86 0 L 68.605 0 L 68.605 3 L 51.535 3 L 51.535 0 L 34.465 0 L 34.465 3 L 17.395 3 L 17.395 0 L 0 0 Z" id="back_outsideCutPath" stroke="#0000FF" stroke-width="0.01" style="stroke:#0000FF;stroke-width:0.01" vector-effect="non-scaling-stroke"/><path d="M 92 0 L 92 17.395 L 89 17.395 L 89 34.465 L 92 34.465 L 92 51.535 L 89 51.535 L 89 68.605 L 92 68.605 L 92 86 L 106.395 86 L 106.395 83 L 123.465 83 L 123.465 86 L 140.535 86 L 140.535 83 L 157.605 83 L 157.605 86 L 172 86 L 172 68.605 L 175 68.605 L 175 51.535 L 172 51.535 L 172 34.465 L 175 34.465 L 175 17.395 L 172 17.395 L 172 0 L 157.605 0 L 157.605 3 L 140.535 3 L 140.535 0 L 123.465 0 L 123.465 3 L 106.395 3 L 106.395 0 L 92 0 Z" id="right_outsideCutPath" stroke="#0000FF" stroke-width="0.01" style="stroke:#0000FF;stroke-width:0.01" vector-effect="non-scaling-stroke"/><path d="M 181 3 L 181 17.395 L 178 17.395 L 178 34.465 L 181 34.465 L 181 51.535 L 178 51.535 L 178 68.605 L 181 68.605 L 181 83 L 195.395 83 L 195.395 86 L 212.465 86 L 212.465 83 L 229.535 83 L 229.535 86 L 246.605 86 L 246.605 83 L 261 83 L 261 68.605 L 264 68.605 L 264 51.535 L 261 51.535 L 261 34.465 L 264 34.465 L 264 17.395 L 261 17.395 L 261 3 L 246.605 3 L 246.605 0 L 229.535 0 L 229.535 3 L 212.465 3 L 212.465 0 L 195.395 0 L 195.395 3 L 181 3 Z" id="bottom_outsideCutPath" stroke="#0000FF" stroke-width="0.01" style="stroke:#0000FF;stroke-width:0.01" vector-effect="non-scaling-stroke"/></g></svg>