<?xml version="1.0" encoding="UTF-8" standalone="no"?>
<!-- Created with Inkscape (http://www.inkscape.org/) -->

<svg
   xmlns:dc="http://purl.org/dc/elements/1.1/"
   xmlns:cc="http://creativecommons.org/ns#"
   xmlns:rdf="http://www.w3.org/1999/02/22-rdf-syntax-ns#"
   xmlns:svg="http://www.w3.org/2000/svg"
   xmlns="http://www.w3.org/2000/svg"
   xmlns:sodipodi="http://sodipodi.sourceforge.net/DTD/sodipodi-0.dtd"
   xmlns:inkscape="http://www.inkscape.org/namespaces/inkscape"
   width="800mm"
   height="450mm"
   viewBox="0 0 800 450"
   version="1.1"
   id="svg8"
   inkscape:version="0.92.2 5c3e80d, 2017-08-06"
   sodipodi:docname="drawing.svg">
  <defs
     id="defs2" />
  <sodipodi:namedview
     id="base"
     pagecolor="#ffffff"
     bordercolor="#666666"
     borderopacity="1.0"
     inkscape:pageopacity="0.0"
     inkscape:pageshadow="2"
     inkscape:zoom="0.35"
     inkscape:cx="1250"
     inkscape:cy="902.85714"
     inkscape:document-units="mm"
     inkscape:current-layer="layer1"
     showgrid="false"
     inkscape:window-width="1680"
     inkscape:window-height="933"
     inkscape:window-x="-1"
     inkscape:window-y="0"
     inkscape:window-maximized="0" />
  <metadata
     id="metadata5">
    <rdf:RDF>
      <cc:Work
         rdf:about="">
        <dc:format>image/svg+xml</dc:format>
        <dc:type
           rdf:resource="http://purl.org/dc/dcmitype/StillImage" />
        <dc:title></dc:title>
      </cc:Work>
    </rdf:RDF>
  </metadata>
  <g
     inkscape:label="Layer 1"
     inkscape:groupmode="layer"
     id="layer1"
     transform="translate(0,153)">
    <rect
       style="fill:none;stroke:#0000ff;stroke-width:0.58353007;stroke-miterlimit:4;stroke-dasharray:none;stroke-opacity:0.73953486"
       id="rect815"
       width="79.416473"
       height="79.416473"
       x="44.129387"
       y="-129.73647" />
    <g
       style="font-size:12px;fill:none;fill-rule:evenodd;stroke:#0000c0;stroke-width:1;stroke-linecap:round;stroke-miterlimit:4;stroke-dasharray:none;stroke-opacity:1"
       font-size="9pt"
       id="svgGroup"
       transform="translate(40.494079,-33.359306)">
      <path
         style="vector-effect:non-scaling-stroke;stroke:#0000c0;stroke-width:1;stroke-miterlimit:4;stroke-dasharray:none;stroke-opacity:1"
         id="front_outsideCutPath"
         d="m 0,89 v 17.395 h 3 v 17.07 H 0 v 17.07 h 3 v 17.07 H 0 V 175 h 17.395 v -3 h 17.07 v 3 h 17.07 v -3 h 17.07 v 3 H 86 v -17.395 h -3 v -17.07 h 3 v -17.07 h -3 v -17.07 h 3 V 89 H 68.605 v 3 h -17.07 v -3 h -17.07 v 3 h -17.07 v -3 z"
         inkscape:connector-curvature="0" />
      <path
         style="vector-effect:non-scaling-stroke;stroke:#0000c0;stroke-width:1;stroke-miterlimit:4;stroke-dasharray:none;stroke-opacity:1"
         id="left_outsideCutPath"
         d="m 92,89 v 17.395 h -3 v 17.07 h 3 v 17.07 h -3 v 17.07 h 3 V 175 h 14.395 v -3 h 17.07 v 3 h 17.07 v -3 h 17.07 v 3 H 172 v -17.395 h 3 v -17.07 h -3 v -17.07 h 3 v -17.07 h -3 V 89 h -14.395 v 3 h -17.07 v -3 h -17.07 v 3 h -17.07 v -3 z"
         inkscape:connector-curvature="0" />
      <path
         style="vector-effect:non-scaling-stroke;stroke:#0000c0;stroke-width:1;stroke-miterlimit:4;stroke-dasharray:none;stroke-opacity:1"
         id="top_outsideCutPath"
         d="m 181,92 v 14.395 h -3 v 17.07 h 3 v 17.07 h -3 v 17.07 h 3 V 172 h 14.395 v 3 h 17.07 v -3 h 17.07 v 3 h 17.07 v -3 H 261 v -14.395 h 3 v -17.07 h -3 v -17.07 h 3 v -17.07 h -3 V 92 h -14.395 v -3 h -17.07 v 3 h -17.07 v -3 h -17.07 v 3 z"
         inkscape:connector-curvature="0" />
      <path
         style="vector-effect:non-scaling-stroke;stroke:#0000c0;stroke-width:1;stroke-miterlimit:4;stroke-dasharray:none;stroke-opacity:1"
         id="back_outsideCutPath"
         d="m 0,0 v 17.395 h 3 v 17.07 H 0 v 17.07 h 3 v 17.07 H 0 V 86 h 17.395 v -3 h 17.07 v 3 h 17.07 v -3 h 17.07 v 3 H 86 V 68.605 h -3 v -17.07 h 3 v -17.07 h -3 v -17.07 h 3 V 0 H 68.605 V 3 H 51.535 V 0 H 34.465 V 3 H 17.395 V 0 Z"
         inkscape:connector-curvature="0" />
      <path
         style="vector-effect:non-scaling-stroke;stroke:#0000c0;stroke-width:1;stroke-miterlimit:4;stroke-dasharray:none;stroke-opacity:1"
         id="right_outsideCutPath"
         d="m 92,0 v 17.395 h -3 v 17.07 h 3 v 17.07 h -3 v 17.07 h 3 V 86 h 14.395 v -3 h 17.07 v 3 h 17.07 v -3 h 17.07 v 3 H 172 V 68.605 h 3 v -17.07 h -3 v -17.07 h 3 v -17.07 h -3 V 0 h -14.395 v 3 h -17.07 V 0 h -17.07 v 3 h -17.07 V 0 Z"
         inkscape:connector-curvature="0" />
      <path
         style="vector-effect:non-scaling-stroke;stroke:#0000c0;stroke-width:1;stroke-miterlimit:4;stroke-dasharray:none;stroke-opacity:1"
         id="bottom_outsideCutPath"
         d="m 181,3 v 14.395 h -3 v 17.07 h 3 v 17.07 h -3 v 17.07 h 3 V 83 h 14.395 v 3 h 17.07 v -3 h 17.07 v 3 h 17.07 V 83 H 261 V 68.605 h 3 v -17.07 h -3 v -17.07 h 3 v -17.07 h -3 V 3 H 246.605 V 0 h -17.07 v 3 h -17.07 V 0 h -17.07 v 3 z"
         inkscape:connector-curvature="0" />
    </g>
  </g>
</svg>
