<svg width="289mm" height="225mm" viewBox="0 0 289 225" xmlns="http://www.w3.org/2000/svg" version="1.1" preserveAspectRatio="xMidYMid meet"><g id="svgGroup" stroke-linecap="round" fill-rule="evenodd" font-size="9pt" stroke="#000" stroke-width="0.25mm" fill="none" style="stroke:#000;stroke-width:0.25mm;fill:none"><path d="M 0 184 L 0 195.965 L 3 195.965 L 3 213.035 L 0 213.035 L 0 225 L 17.395 225 L 17.395 222 L 34.465 222 L 34.465 225 L 51.535 225 L 51.535 222 L 68.605 222 L 68.605 225 L 86 225 L 86 213.035 L 83 213.035 L 83 195.965 L 86 195.965 L 86 184 L 68.605 184 L 68.605 187 L 51.535 187 L 51.535 184 L 34.465 184 L 34.465 187 L 17.395 187 L 17.395 184 L 0 184 Z" id="front_outsideCutPath" stroke="#0000FF" stroke-width="0.01" style="stroke:#0000FF;stroke-width:0.01" vector-effect="non-scaling-stroke"/><path d="M 92 184 L 92 195.965 L 89 195.965 L 89 213.035 L 92 213.035 L 92 225 L 101.825 225 L 101.825 222 L 118.895 222 L 118.895 225 L 135.965 225 L 135.965 222 L 153.035 222 L 153.035 225 L 170.105 225 L 170.105 222 L 187.175 222 L 187.175 225 L 197 225 L 197 213.035 L 200 213.035 L 200 195.965 L 197 195.965 L 197 184 L 187.175 184 L 187.175 187 L 170.105 187 L 170.105 184 L 153.035 184 L 153.035 187 L 135.965 187 L 135.965 184 L 118.895 184 L 118.895 187 L 101.825 187 L 101.825 184 L 92 184 Z" id="left_outsideCutPath" stroke="#0000FF" stroke-width="0.01" style="stroke:#0000FF;stroke-width:0.01" vector-effect="non-scaling-stroke"/><path d="M 206 117 L 206 126.825 L 203 126.825 L 203 143.895 L 206 143.895 L 206 160.965 L 203 160.965 L 203 178.035 L 206 178.035 L 206 195.105 L 203 195.105 L 203 212.175 L 206 212.175 L 206 222 L 220.395 222 L 220.395 225 L 237.465 225 L 237.465 222 L 254.535 222 L 254.535 225 L 271.605 225 L 271.605 222 L 286 222 L 286 212.175 L 289 212.175 L 289 195.105 L 286 195.105 L 286 178.035 L 289 178.035 L 289 160.965 L 286 160.965 L 286 143.895 L 289 143.895 L 289 126.825 L 286 126.825 L 286 117 L 271.605 117 L 271.605 114 L 254.535 114 L 254.535 117 L 237.465 117 L 237.465 114 L 220.395 114 L 220.395 117 L 206 117 Z" id="top_outsideCutPath" stroke="#0000FF" stroke-width="0.01" style="stroke:#0000FF;stroke-width:0.01" vector-effect="non-scaling-stroke"/><path d="M 0 140 L 0 151.965 L 3 151.965 L 3 169.035 L 0 169.035 L 0 181 L 17.395 181 L 17.395 178 L 34.465 178 L 34.465 181 L 51.535 181 L 51.535 178 L 68.605 178 L 68.605 181 L 86 181 L 86 169.035 L 83 169.035 L 83 151.965 L 86 151.965 L 86 140 L 68.605 140 L 68.605 143 L 51.535 143 L 51.535 140 L 34.465 140 L 34.465 143 L 17.395 143 L 17.395 140 L 0 140 Z" id="back_outsideCutPath" stroke="#0000FF" stroke-width="0.01" style="stroke:#0000FF;stroke-width:0.01" vector-effect="non-scaling-stroke"/><path d="M 92 140 L 92 151.965 L 89 151.965 L 89 169.035 L 92 169.035 L 92 181 L 101.825 181 L 101.825 178 L 118.895 178 L 118.895 181 L 135.965 181 L 135.965 178 L 153.035 178 L 153.035 181 L 170.105 181 L 170.105 178 L 187.175 178 L 187.175 181 L 197 181 L 197 169.035 L 200 169.035 L 200 151.965 L 197 151.965 L 197 140 L 187.175 140 L 187.175 143 L 170.105 143 L 170.105 140 L 153.035 140 L 153.035 143 L 135.965 143 L 135.965 140 L 118.895 140 L 118.895 143 L 101.825 143 L 101.825 140 L 92 140 Z" id="right_outsideCutPath" stroke="#0000FF" stroke-width="0.01" style="stroke:#0000FF;stroke-width:0.01" vector-effect="non-scaling-stroke"/><path d="M 206 3 L 206 12.825 L 203 12.825 L 203 29.895 L 206 29.895 L 206 46.965 L 203 46.965 L 203 64.035 L 206 64.035 L 206 81.105 L 203 81.105 L 203 98.175 L 206 98.175 L 206 108 L 220.395 108 L 220.395 111 L 237.465 111 L 237.465 108 L 254.535 108 L 254.535 111 L 271.605 111 L 271.605 108 L 286 108 L 286 98.175 L 289 98.175 L 289 81.105 L 286 81.105 L 286 64.035 L 289 64.035 L 289 46.965 L 286 46.965 L 286 29.895 L 289 29.895 L 289 12.825 L 286 12.825 L 286 3 L 271.605 3 L 271.605 0 L 254.535 0 L 254.535 3 L 237.465 3 L 237.465 0 L 220.395 0 L 220.395 3 L 206 3 Z" id="bottom_outsideCutPath" stroke="#0000FF" stroke-width="0.01" style="stroke:#0000FF;stroke-width:0.01" vector-effect="non-scaling-stroke"/></g></svg>