G04 MADE WITH FRITZING*
G04 WWW.FRITZING.ORG*
G04 DOUBLE SIDED*
G04 HOLES PLATED*
G04 CONTOUR ON CENTER OF CONTOUR VECTOR*
%ASAXBY*%
%FSLAX23Y23*%
%MOIN*%
%OFA0B0*%
%SFA1.0B1.0*%
%ADD10C,0.074000*%
%ADD11C,0.078000*%
%ADD12C,0.075000*%
%ADD13R,0.078000X0.078000*%
%ADD14C,0.048000*%
%ADD15C,0.024000*%
%ADD16C,0.020000*%
%LNCOPPER0*%
G90*
G70*
G54D10*
X1074Y1598D03*
X974Y1598D03*
X874Y1598D03*
X774Y1598D03*
X674Y1598D03*
X574Y1598D03*
X1124Y1498D03*
X1124Y1398D03*
X1124Y1298D03*
X1124Y1198D03*
X1124Y1098D03*
X1009Y1153D03*
X1009Y1053D03*
X1124Y998D03*
X1124Y898D03*
X1124Y798D03*
X1124Y698D03*
X1124Y598D03*
X1124Y498D03*
X1124Y398D03*
X524Y398D03*
X524Y498D03*
X524Y598D03*
X524Y698D03*
X524Y798D03*
X524Y898D03*
X524Y998D03*
X524Y1098D03*
X524Y1198D03*
X524Y1298D03*
X524Y1398D03*
X524Y1498D03*
G54D11*
X102Y775D03*
X202Y775D03*
X302Y775D03*
X102Y538D03*
X202Y538D03*
X302Y538D03*
X102Y420D03*
X202Y420D03*
X302Y420D03*
X102Y893D03*
X202Y893D03*
X302Y893D03*
X102Y1011D03*
X202Y1011D03*
X302Y1011D03*
X102Y1129D03*
X202Y1129D03*
X302Y1129D03*
X102Y1483D03*
X202Y1483D03*
X302Y1483D03*
X102Y656D03*
X202Y656D03*
X302Y656D03*
X102Y1247D03*
X202Y1247D03*
X302Y1247D03*
X102Y1365D03*
X202Y1365D03*
X302Y1365D03*
G54D12*
X850Y263D03*
X650Y263D03*
X850Y145D03*
X650Y145D03*
G54D11*
X1009Y268D03*
X1009Y168D03*
G54D13*
X102Y775D03*
X102Y538D03*
X102Y420D03*
X102Y1011D03*
X102Y1129D03*
X102Y1483D03*
X102Y656D03*
X102Y1247D03*
X102Y1365D03*
G54D14*
X416Y146D02*
X535Y65D01*
D02*
X535Y65D02*
X771Y65D01*
D02*
X771Y65D02*
X838Y132D01*
D02*
X220Y146D02*
X416Y146D01*
D02*
X142Y224D02*
X220Y146D01*
D02*
X106Y402D02*
X142Y224D01*
D02*
X650Y245D02*
X650Y162D01*
D02*
X661Y276D02*
X1111Y783D01*
D02*
X102Y519D02*
X102Y439D01*
D02*
X102Y637D02*
X102Y439D01*
D02*
X102Y675D02*
X102Y756D01*
D02*
X104Y849D02*
X102Y794D01*
D02*
X103Y874D02*
X104Y849D01*
D02*
X102Y992D02*
X102Y912D01*
D02*
X102Y1110D02*
X102Y1030D01*
D02*
X102Y1228D02*
X102Y1148D01*
D02*
X102Y1266D02*
X102Y1346D01*
D02*
X102Y1464D02*
X102Y1384D01*
G54D15*
D02*
X320Y1241D02*
X416Y1209D01*
D02*
X416Y1209D02*
X416Y461D01*
D02*
X416Y461D02*
X507Y408D01*
D02*
X416Y1406D02*
X457Y1680D01*
D02*
X320Y1371D02*
X416Y1406D01*
D02*
X457Y1680D02*
X1124Y1680D01*
D02*
X1124Y1680D02*
X1205Y1561D01*
D02*
X1205Y1561D02*
X1205Y461D01*
D02*
X1205Y461D02*
X1140Y410D01*
G54D16*
X73Y922D02*
X131Y922D01*
X131Y864D01*
X73Y864D01*
X73Y922D01*
D02*
G04 End of Copper0*
M02*