; NON-PLATED HOLES START AT T1
; THROUGH (PLATED) HOLES START AT T100
M48
INCH
T1C0.086614
T100C0.015748
T101C0.040000
T102C0.035000
T103C0.038000
%
T1
X013309Y000963
X013309Y017963
X001308Y017963
X001308Y000963
T100
X002180Y001248
X012500Y001728
X014900Y016128
X012879Y013339
X004480Y018064
T101
X005309Y010963
X005309Y013963
X011309Y013963
X011309Y009963
X008809Y016963
X007809Y016963
X005309Y014963
X005809Y016963
X009809Y016963
X005309Y012963
X010158Y012513
X005309Y009963
X011309Y012963
X011309Y015963
X005309Y004963
X011309Y006963
X011309Y007963
X005309Y005963
X005309Y007963
X011309Y008963
X011309Y004963
X011309Y011963
X011309Y005963
X010809Y016963
X011309Y010963
X005309Y015963
X005309Y008963
X011309Y014963
X010158Y011513
X006809Y016963
X005309Y011963
X005309Y006963
T102
X006568Y002428
X006568Y003609
X008568Y002428
X008568Y003609
T103
X003309Y005963
X003309Y015963
X013712Y008492
X003309Y004963
X003309Y003963
X007309Y013963
X013712Y009492
X002309Y003963
X001309Y010963
X001309Y008963
X001309Y004963
X013677Y014923
X013677Y015923
X005273Y003683
X002309Y015963
X002309Y005963
X007309Y009963
X007309Y007963
X007309Y011963
X007309Y006963
X002309Y004963
X012906Y002700
X002309Y014963
X003309Y011963
X013712Y010492
X001309Y014963
X003309Y014963
X003309Y007963
X002309Y008963
X001309Y015963
X001309Y007963
X013712Y011492
X003309Y008963
X001309Y011963
X003309Y013963
X002309Y007963
X001309Y003963
X005273Y002683
X012906Y004700
X007309Y008963
X003309Y010963
X012906Y003700
X001309Y005963
X007309Y010963
X002309Y011963
X002309Y013963
X007309Y012963
X001309Y013963
X002309Y010963
T00
M30
