; NON-PLATED HOLES START AT T1
; THROUGH (PLATED) HOLES START AT T100
M48
INCH
T100C0.015748
T101C0.038000
T102C0.040000
T103C0.035000
%
T100
X005642Y013496
X009242Y014696
T101
X012266Y014311
X010266Y014311
X016766Y016811
X012266Y006311
X010266Y006311
X011266Y014311
X004266Y018811
X014266Y001311
X011266Y006311
X020766Y018811
X014266Y006311
X012266Y012311
X010266Y012311
X010266Y004311
X011266Y012311
X020266Y001311
X012266Y009311
X010266Y009311
X020766Y016811
X020266Y006311
X011266Y009311
X014266Y004911
X016766Y020811
X012266Y010311
X010266Y010311
X011766Y003311
X014266Y009911
X011266Y010311
X012266Y007311
X010266Y007311
X004266Y019811
X017266Y011811
X019266Y011811
X020266Y004911
X011266Y007311
X020766Y019811
X020266Y009911
X012266Y013311
X010266Y013311
X011266Y013311
X004266Y017811
X012266Y011311
X010266Y011311
X010266Y003311
X011766Y004311
X011266Y011311
X016766Y018811
X012266Y008311
X010266Y008311
X020766Y015811
X011266Y008311
T102
X007266Y012311
X001266Y012311
X007266Y004311
X001266Y004311
X007266Y009311
X001266Y009311
X007266Y010311
X001266Y010311
X007266Y002311
X001266Y002311
X007266Y007311
X001266Y007311
X002766Y001311
X004766Y001311
X006766Y001311
X001766Y001311
X003766Y001311
X005766Y001311
X004266Y013311
X002266Y013311
X007266Y013311
X001266Y013311
X003266Y013311
X007266Y005311
X001266Y005311
X002416Y005761
X007266Y011311
X001266Y011311
X007266Y003311
X001266Y003311
X007266Y008311
X001266Y008311
X007266Y006311
X001266Y006311
X002416Y006761
T103
X004266Y014811
X003266Y014811
X001266Y014811
X006266Y014811
T00
M30
