G04 MADE WITH FRITZING*
G04 WWW.FRITZING.ORG*
G04 DOUBLE SIDED*
G04 HOLES PLATED*
G04 CONTOUR ON CENTER OF CONTOUR VECTOR*
%ASAXBY*%
%FSLAX23Y23*%
%MOIN*%
%OFA0B0*%
%SFA1.0B1.0*%
%ADD10C,0.088000*%
%ADD11C,0.084000*%
%ADD12C,0.085000*%
%ADD13C,0.049370*%
%ADD14R,0.087630X0.087806*%
%LNMASK0*%
G90*
G70*
G54D10*
X1027Y1431D03*
X1127Y1431D03*
X1227Y1431D03*
X1027Y1331D03*
X1127Y1331D03*
X1227Y1331D03*
X1027Y1231D03*
X1127Y1231D03*
X1227Y1231D03*
X1027Y1131D03*
X1127Y1131D03*
X1227Y1131D03*
X1027Y1031D03*
X1127Y1031D03*
X1227Y1031D03*
X1027Y931D03*
X1127Y931D03*
X1227Y931D03*
X1027Y831D03*
X1127Y831D03*
X1227Y831D03*
X1027Y731D03*
X1127Y731D03*
X1227Y731D03*
X1027Y631D03*
X1127Y631D03*
X1227Y631D03*
G54D11*
X677Y131D03*
X577Y131D03*
X477Y131D03*
X377Y131D03*
X277Y131D03*
X177Y131D03*
X242Y676D03*
X242Y576D03*
X327Y1331D03*
X227Y1331D03*
X127Y231D03*
X127Y331D03*
X127Y431D03*
X127Y531D03*
X127Y631D03*
X127Y731D03*
X127Y831D03*
X127Y931D03*
X127Y1031D03*
X127Y1131D03*
X127Y1231D03*
X127Y1331D03*
X727Y1331D03*
X727Y1231D03*
X727Y1131D03*
X727Y1031D03*
X727Y931D03*
X727Y831D03*
X727Y731D03*
X727Y631D03*
X727Y531D03*
X727Y431D03*
X727Y331D03*
X727Y231D03*
X427Y1331D03*
G54D10*
X2027Y131D03*
X2027Y491D03*
X1427Y491D03*
X1427Y131D03*
X2027Y631D03*
X2027Y991D03*
X1427Y991D03*
X1427Y631D03*
X1677Y2081D03*
X1677Y1881D03*
X1677Y1681D03*
X427Y1981D03*
X427Y1881D03*
X427Y1781D03*
X2077Y1881D03*
X2077Y1981D03*
X1927Y1181D03*
X1727Y1181D03*
X2077Y1681D03*
X2077Y1581D03*
G54D12*
X127Y1481D03*
X327Y1481D03*
X427Y1481D03*
X627Y1481D03*
G54D13*
X564Y1350D03*
X924Y1470D03*
G54D10*
X1027Y331D03*
X1027Y331D03*
X1027Y431D03*
X1177Y431D03*
X1177Y431D03*
X1177Y331D03*
G54D14*
X1427Y491D03*
X1427Y132D03*
X2027Y131D03*
X2027Y491D03*
X1427Y991D03*
X1427Y632D03*
X2027Y631D03*
X2027Y991D03*
G04 End of Mask0*
M02*