G04 MADE WITH FRITZING*
G04 WWW.FRITZING.ORG*
G04 DOUBLE SIDED*
G04 HOLES PLATED*
G04 CONTOUR ON CENTER OF CONTOUR VECTOR*
%ASAXBY*%
%FSLAX23Y23*%
%MOIN*%
%OFA0B0*%
%SFA1.0B1.0*%
%ADD10C,0.078000*%
%ADD11C,0.074000*%
%ADD12C,0.075000*%
%ADD13C,0.039370*%
%ADD14R,0.077630X0.077806*%
%ADD15C,0.024000*%
%LNCOPPER1*%
G90*
G70*
G54D10*
X1050Y318D03*
X1050Y318D03*
X1050Y418D03*
X1200Y418D03*
X1200Y418D03*
X1200Y318D03*
X1050Y618D03*
X1150Y618D03*
X1250Y618D03*
G54D11*
X700Y118D03*
X600Y118D03*
X500Y118D03*
X400Y118D03*
X300Y118D03*
X200Y118D03*
X265Y663D03*
X265Y563D03*
X350Y1318D03*
X250Y1318D03*
X150Y218D03*
X150Y318D03*
X150Y418D03*
X150Y518D03*
X150Y618D03*
X150Y718D03*
X150Y818D03*
X150Y918D03*
X150Y1018D03*
X150Y1118D03*
X150Y1218D03*
X150Y1318D03*
X750Y1318D03*
X750Y1218D03*
X750Y1118D03*
X750Y1018D03*
X750Y918D03*
X750Y818D03*
X750Y718D03*
X750Y618D03*
X750Y518D03*
X750Y418D03*
X750Y318D03*
X750Y218D03*
X450Y1318D03*
G54D10*
X2050Y618D03*
X2050Y978D03*
X1450Y978D03*
X1450Y618D03*
X2050Y118D03*
X2050Y478D03*
X1450Y478D03*
X1450Y118D03*
X1800Y2018D03*
X1800Y1818D03*
X1800Y1618D03*
X550Y1918D03*
X550Y1818D03*
X550Y1718D03*
X1050Y718D03*
X1150Y718D03*
X1250Y718D03*
X1050Y818D03*
X1150Y818D03*
X1250Y818D03*
X1050Y918D03*
X1150Y918D03*
X1250Y918D03*
X1050Y1018D03*
X1150Y1018D03*
X1250Y1018D03*
X1050Y1118D03*
X1150Y1118D03*
X1250Y1118D03*
X1050Y1218D03*
X1150Y1218D03*
X1250Y1218D03*
X1050Y1318D03*
X1150Y1318D03*
X1250Y1318D03*
X1050Y1418D03*
X1150Y1418D03*
X1250Y1418D03*
X2100Y1868D03*
X2100Y1968D03*
X1950Y1168D03*
X1750Y1168D03*
X2100Y1668D03*
X2100Y1568D03*
G54D12*
X450Y1468D03*
X650Y1468D03*
X150Y1468D03*
X350Y1468D03*
G54D13*
X588Y1337D03*
X948Y1457D03*
G54D14*
X1450Y978D03*
X1450Y619D03*
X2051Y618D03*
X2050Y978D03*
X1450Y478D03*
X1450Y119D03*
X2051Y118D03*
X2050Y478D03*
G54D15*
X781Y718D02*
X1020Y718D01*
D02*
X781Y1118D02*
X1020Y1118D01*
D02*
X781Y1218D02*
X1020Y1218D01*
D02*
X781Y618D02*
X1020Y618D01*
D02*
X781Y1318D02*
X1020Y1318D01*
D02*
X527Y1700D02*
X276Y1505D01*
X276Y1505D02*
X276Y1385D01*
X276Y1385D02*
X108Y1385D01*
X108Y1385D02*
X84Y1361D01*
X84Y1361D02*
X108Y1241D01*
X108Y1241D02*
X123Y1233D01*
D02*
X422Y1468D02*
X379Y1468D01*
D02*
X173Y940D02*
X516Y1265D01*
X516Y1265D02*
X516Y1385D01*
X516Y1385D02*
X376Y1455D01*
D02*
X1150Y748D02*
X1150Y788D01*
D02*
X1150Y688D02*
X1150Y648D01*
D02*
X673Y1485D02*
X732Y1529D01*
X732Y1529D02*
X1860Y1529D01*
X1860Y1529D02*
X2074Y1653D01*
D02*
X1250Y1188D02*
X1250Y1148D01*
D02*
X574Y1799D02*
X612Y1769D01*
X612Y1769D02*
X612Y1649D01*
X612Y1649D02*
X564Y1337D01*
X564Y1337D02*
X569Y1337D01*
D02*
X2073Y498D02*
X2124Y545D01*
X2124Y545D02*
X2124Y929D01*
X2124Y929D02*
X2075Y961D01*
D02*
X2081Y1545D02*
X1770Y1191D01*
D02*
X965Y1465D02*
X996Y1481D01*
X996Y1481D02*
X1308Y1481D01*
X1308Y1481D02*
X1726Y1185D01*
D02*
X580Y1911D02*
X1771Y1625D01*
G04 End of Copper1*
M02*