G04 MADE WITH FRITZING*
G04 WWW.FRITZING.ORG*
G04 DOUBLE SIDED*
G04 HOLES PLATED*
G04 CONTOUR ON CENTER OF CONTOUR VECTOR*
%ASAXBY*%
%FSLAX23Y23*%
%MOIN*%
%OFA0B0*%
%SFA1.0B1.0*%
%ADD10C,0.078000*%
%ADD11C,0.074000*%
%ADD12C,0.075000*%
%ADD13C,0.039370*%
%ADD14R,0.077630X0.077806*%
%ADD15C,0.048000*%
%ADD16C,0.024000*%
%LNCOPPER0*%
G90*
G70*
G54D10*
X1027Y1431D03*
X1127Y1431D03*
X1227Y1431D03*
X1027Y1331D03*
X1127Y1331D03*
X1227Y1331D03*
X1027Y1231D03*
X1127Y1231D03*
X1227Y1231D03*
X1027Y1131D03*
X1127Y1131D03*
X1227Y1131D03*
X1027Y1031D03*
X1127Y1031D03*
X1227Y1031D03*
X1027Y931D03*
X1127Y931D03*
X1227Y931D03*
X1027Y831D03*
X1127Y831D03*
X1227Y831D03*
X1027Y731D03*
X1127Y731D03*
X1227Y731D03*
X1027Y631D03*
X1127Y631D03*
X1227Y631D03*
G54D11*
X677Y131D03*
X577Y131D03*
X477Y131D03*
X377Y131D03*
X277Y131D03*
X177Y131D03*
X242Y676D03*
X242Y576D03*
X327Y1331D03*
X227Y1331D03*
X127Y231D03*
X127Y331D03*
X127Y431D03*
X127Y531D03*
X127Y631D03*
X127Y731D03*
X127Y831D03*
X127Y931D03*
X127Y1031D03*
X127Y1131D03*
X127Y1231D03*
X127Y1331D03*
X727Y1331D03*
X727Y1231D03*
X727Y1131D03*
X727Y1031D03*
X727Y931D03*
X727Y831D03*
X727Y731D03*
X727Y631D03*
X727Y531D03*
X727Y431D03*
X727Y331D03*
X727Y231D03*
X427Y1331D03*
G54D10*
X2027Y131D03*
X2027Y491D03*
X1427Y491D03*
X1427Y131D03*
X2027Y631D03*
X2027Y991D03*
X1427Y991D03*
X1427Y631D03*
X1677Y2081D03*
X1677Y1881D03*
X1677Y1681D03*
X427Y1981D03*
X427Y1881D03*
X427Y1781D03*
X2077Y1881D03*
X2077Y1981D03*
X1927Y1181D03*
X1727Y1181D03*
X2077Y1681D03*
X2077Y1581D03*
G54D12*
X127Y1481D03*
X327Y1481D03*
X427Y1481D03*
X627Y1481D03*
G54D13*
X564Y1350D03*
X924Y1470D03*
G54D10*
X1027Y331D03*
X1027Y331D03*
X1027Y431D03*
X1177Y431D03*
X1177Y431D03*
X1177Y331D03*
G54D14*
X1427Y491D03*
X1427Y132D03*
X2027Y131D03*
X2027Y491D03*
X1427Y991D03*
X1427Y632D03*
X2027Y631D03*
X2027Y991D03*
G54D15*
X1127Y772D02*
X1127Y790D01*
D02*
X1127Y690D02*
X1127Y672D01*
D02*
X1227Y1190D02*
X1227Y1172D01*
D02*
X1217Y441D02*
X1387Y481D01*
D02*
X1209Y305D02*
X1394Y157D01*
G54D16*
D02*
X998Y322D02*
X756Y241D01*
G54D15*
D02*
X2045Y1954D02*
X1956Y1878D01*
D02*
X1956Y1878D02*
X1928Y1222D01*
G54D16*
D02*
X998Y422D02*
X756Y341D01*
D02*
X146Y1355D02*
X180Y1398D01*
D02*
X180Y1398D02*
X996Y1398D01*
D02*
X996Y1398D02*
X1006Y1409D01*
G54D15*
D02*
X1127Y890D02*
X1127Y872D01*
D02*
X1127Y990D02*
X1127Y972D01*
D02*
X1127Y1090D02*
X1127Y1072D01*
D02*
X1127Y1190D02*
X1127Y1172D01*
D02*
X1127Y1290D02*
X1127Y1272D01*
D02*
X1127Y1390D02*
X1127Y1372D01*
D02*
X1644Y1856D02*
X1140Y1470D01*
D02*
X1140Y1470D02*
X1140Y1470D01*
D02*
X2077Y1840D02*
X2077Y1722D01*
D02*
X2037Y671D02*
X2100Y918D01*
D02*
X2100Y918D02*
X2148Y1638D01*
D02*
X2148Y1638D02*
X2112Y1660D01*
D02*
X2017Y171D02*
X1956Y414D01*
D02*
X1956Y414D02*
X1956Y582D01*
D02*
X1956Y582D02*
X1993Y607D01*
D02*
X1227Y690D02*
X1227Y672D01*
D02*
X1227Y790D02*
X1227Y772D01*
D02*
X1227Y890D02*
X1227Y872D01*
D02*
X1227Y990D02*
X1227Y972D01*
D02*
X1227Y1090D02*
X1227Y1072D01*
D02*
X1227Y1290D02*
X1227Y1272D01*
D02*
X1227Y1390D02*
X1227Y1372D01*
D02*
X1385Y631D02*
X1268Y631D01*
G54D16*
D02*
X758Y533D02*
X1188Y558D01*
D02*
X1188Y558D02*
X1213Y604D01*
D02*
X545Y1347D02*
X457Y1335D01*
G54D15*
D02*
X1761Y1159D02*
X1992Y1013D01*
G54D16*
D02*
X145Y1503D02*
X156Y1518D01*
D02*
X156Y1518D02*
X468Y1566D01*
D02*
X468Y1566D02*
X684Y1566D01*
D02*
X684Y1566D02*
X907Y1477D01*
G54D15*
D02*
X1663Y1642D02*
X1441Y1030D01*
G54D16*
D02*
X397Y108D02*
X444Y54D01*
D02*
X444Y54D02*
X1500Y54D01*
D02*
X1500Y54D02*
X1500Y702D01*
D02*
X1500Y702D02*
X1434Y962D01*
G04 End of Copper0*
M02*