G04 MADE WITH FRITZING*
G04 WWW.FRITZING.ORG*
G04 DOUBLE SIDED*
G04 HOLES PLATED*
G04 CONTOUR ON CENTER OF CONTOUR VECTOR*
%ASAXBY*%
%FSLAX23Y23*%
%MOIN*%
%OFA0B0*%
%SFA1.0B1.0*%
%ADD10C,0.078000*%
%ADD11C,0.074000*%
%ADD12C,0.075000*%
%ADD13C,0.039370*%
%ADD14R,0.077630X0.077806*%
%ADD15C,0.024000*%
%ADD16C,0.048000*%
%LNCOPPER1*%
G90*
G70*
G54D10*
X1027Y1431D03*
X1127Y1431D03*
X1227Y1431D03*
X1027Y1331D03*
X1127Y1331D03*
X1227Y1331D03*
X1027Y1231D03*
X1127Y1231D03*
X1227Y1231D03*
X1027Y1131D03*
X1127Y1131D03*
X1227Y1131D03*
X1027Y1031D03*
X1127Y1031D03*
X1227Y1031D03*
X1027Y931D03*
X1127Y931D03*
X1227Y931D03*
X1027Y831D03*
X1127Y831D03*
X1227Y831D03*
X1027Y731D03*
X1127Y731D03*
X1227Y731D03*
X1027Y631D03*
X1127Y631D03*
X1227Y631D03*
G54D11*
X677Y131D03*
X577Y131D03*
X477Y131D03*
X377Y131D03*
X277Y131D03*
X177Y131D03*
X242Y676D03*
X242Y576D03*
X327Y1331D03*
X227Y1331D03*
X127Y231D03*
X127Y331D03*
X127Y431D03*
X127Y531D03*
X127Y631D03*
X127Y731D03*
X127Y831D03*
X127Y931D03*
X127Y1031D03*
X127Y1131D03*
X127Y1231D03*
X127Y1331D03*
X727Y1331D03*
X727Y1231D03*
X727Y1131D03*
X727Y1031D03*
X727Y931D03*
X727Y831D03*
X727Y731D03*
X727Y631D03*
X727Y531D03*
X727Y431D03*
X727Y331D03*
X727Y231D03*
X427Y1331D03*
G54D10*
X2027Y131D03*
X2027Y491D03*
X1427Y491D03*
X1427Y131D03*
X2027Y631D03*
X2027Y991D03*
X1427Y991D03*
X1427Y631D03*
X1677Y2081D03*
X1677Y1881D03*
X1677Y1681D03*
X427Y1981D03*
X427Y1881D03*
X427Y1781D03*
X2077Y1881D03*
X2077Y1981D03*
X1927Y1181D03*
X1727Y1181D03*
X2077Y1681D03*
X2077Y1581D03*
G54D12*
X127Y1481D03*
X327Y1481D03*
X427Y1481D03*
X627Y1481D03*
G54D13*
X564Y1350D03*
X924Y1470D03*
G54D10*
X1027Y331D03*
X1027Y331D03*
X1027Y431D03*
X1177Y431D03*
X1177Y431D03*
X1177Y331D03*
G54D14*
X1427Y491D03*
X1427Y132D03*
X2027Y131D03*
X2027Y491D03*
X1427Y991D03*
X1427Y632D03*
X2027Y631D03*
X2027Y991D03*
G54D15*
X758Y1031D02*
X997Y1031D01*
D02*
X758Y931D02*
X997Y931D01*
D02*
X758Y831D02*
X997Y831D01*
D02*
X758Y1131D02*
X997Y1131D01*
D02*
X758Y731D02*
X997Y731D01*
D02*
X410Y1756D02*
X252Y1518D01*
D02*
X758Y1331D02*
X997Y1331D01*
D02*
X758Y631D02*
X997Y631D01*
D02*
X758Y1231D02*
X997Y1231D01*
D02*
X252Y1398D02*
X84Y1398D01*
D02*
X252Y1518D02*
X252Y1398D01*
D02*
X398Y1481D02*
X355Y1481D01*
D02*
X84Y1254D02*
X99Y1246D01*
D02*
X60Y1374D02*
X84Y1254D01*
D02*
X84Y1398D02*
X60Y1374D01*
D02*
X149Y953D02*
X492Y1278D01*
D02*
X492Y1398D02*
X352Y1468D01*
D02*
X492Y1278D02*
X492Y1398D01*
D02*
X1836Y1542D02*
X2051Y1666D01*
D02*
X708Y1542D02*
X1836Y1542D01*
D02*
X650Y1498D02*
X708Y1542D01*
D02*
X588Y1782D02*
X588Y1662D01*
D02*
X452Y1865D02*
X588Y1782D01*
G54D16*
D02*
X2100Y942D02*
X2061Y968D01*
D02*
X2127Y581D02*
X2100Y942D01*
D02*
X2057Y519D02*
X2127Y581D01*
G54D15*
D02*
X540Y1350D02*
X545Y1350D01*
D02*
X588Y1662D02*
X540Y1350D01*
D02*
X2057Y1558D02*
X1746Y1204D01*
D02*
X1284Y1494D02*
X1702Y1198D01*
D02*
X972Y1494D02*
X1284Y1494D01*
D02*
X941Y1478D02*
X972Y1494D01*
D02*
X456Y1974D02*
X1647Y1688D01*
G04 End of Copper1*
M02*