; NON-PLATED HOLES START AT T1
; THROUGH (PLATED) HOLES START AT T100
M48
INCH
T100C0.040000
T101C0.035000
T102C0.015748
T103C0.038000
%
T100
X007503Y006181
X001503Y006181
X007503Y012181
X001503Y012181
X002653Y005631
X007503Y004181
X001503Y004181
X007503Y009181
X001503Y009181
X007503Y010181
X001503Y010181
X007503Y002181
X001503Y002181
X003003Y001181
X005003Y001181
X007503Y007181
X001503Y007181
X002003Y001181
X004003Y001181
X006003Y001181
X002503Y013181
X007003Y001181
X007503Y013181
X001503Y013181
X003503Y013181
X002653Y006631
X007503Y005181
X001503Y005181
X004503Y013181
X007503Y011181
X001503Y011181
X007503Y003181
X001503Y003181
X007503Y008181
X001503Y008181
T101
X006503Y014681
X004503Y014681
X003503Y014681
X001503Y014681
T102
X005880Y013366
X009480Y014566
T103
X010503Y003181
X011503Y011181
X005503Y019181
X021003Y015681
X012503Y008181
X010503Y008181
X011503Y008181
X012503Y014181
X010503Y014181
X005503Y017181
X012503Y006181
X010503Y006181
X011503Y014181
X014503Y001181
X011503Y006181
X021003Y018681
X014503Y006181
X012503Y012181
X010503Y012181
X018003Y018181
X010503Y004181
X011503Y012181
X020503Y001181
X021003Y016681
X012503Y009181
X010503Y009181
X020503Y006181
X011503Y009181
X014503Y004781
X012503Y010181
X010503Y010181
X012003Y003181
X018003Y016181
X011503Y010181
X014503Y009781
X005503Y018181
X012503Y007181
X010503Y007181
X017503Y011681
X020503Y004781
X011503Y007181
X021003Y019681
X020503Y009781
X012503Y013181
X010503Y013181
X019503Y011681
X011503Y013181
X018003Y020181
X012503Y011181
X010503Y011181
X012003Y004181
T00
M30
