G04 MADE WITH FRITZING*
G04 WWW.FRITZING.ORG*
G04 DOUBLE SIDED*
G04 HOLES PLATED*
G04 CONTOUR ON CENTER OF CONTOUR VECTOR*
%ASAXBY*%
%FSLAX23Y23*%
%MOIN*%
%OFA0B0*%
%SFA1.0B1.0*%
%ADD10C,0.064000*%
%ADD11C,0.084803*%
%ADD12C,0.076000*%
%ADD13C,0.073976*%
%ADD14C,0.088000*%
%ADD15C,0.049370*%
%ADD16R,0.088000X0.088000*%
%ADD17R,0.001000X0.001000*%
%LNMASK0*%
G90*
G70*
G54D10*
X2057Y234D03*
X2057Y133D03*
X1958Y234D03*
X1958Y133D03*
X1858Y234D03*
X1858Y133D03*
X1758Y234D03*
X1758Y133D03*
X1658Y234D03*
X1658Y133D03*
X1558Y234D03*
X1558Y133D03*
X1458Y234D03*
X1458Y133D03*
X1358Y234D03*
X1358Y133D03*
X1258Y234D03*
X1258Y133D03*
X1158Y234D03*
X1158Y133D03*
X1058Y234D03*
X1058Y133D03*
X958Y234D03*
X958Y133D03*
X858Y234D03*
X858Y133D03*
X758Y234D03*
X758Y133D03*
X658Y234D03*
X658Y133D03*
X558Y234D03*
X558Y133D03*
X458Y234D03*
X458Y133D03*
X358Y234D03*
X358Y133D03*
X258Y234D03*
X258Y133D03*
X158Y234D03*
X158Y133D03*
G54D11*
X1158Y934D03*
X1158Y433D03*
X1158Y533D03*
X1158Y633D03*
X1158Y733D03*
X1158Y833D03*
X1558Y934D03*
X1559Y433D03*
X1559Y533D03*
X1559Y633D03*
X1559Y733D03*
X1559Y833D03*
G54D12*
X658Y534D03*
X258Y534D03*
X558Y534D03*
X158Y534D03*
X458Y534D03*
X358Y534D03*
G54D13*
X408Y742D03*
G54D12*
X658Y434D03*
X258Y434D03*
X558Y434D03*
X158Y434D03*
X458Y434D03*
X358Y434D03*
G54D13*
X408Y642D03*
G54D14*
X758Y934D03*
X758Y834D03*
X758Y734D03*
X1758Y934D03*
X1758Y834D03*
X1758Y734D03*
X858Y634D03*
X858Y634D03*
X858Y534D03*
X1758Y534D03*
X1758Y534D03*
X1758Y434D03*
X1058Y434D03*
X1058Y534D03*
X1058Y634D03*
X1058Y734D03*
X1058Y834D03*
X1058Y934D03*
X158Y734D03*
X158Y834D03*
X2058Y534D03*
X2058Y534D03*
X2058Y434D03*
G54D15*
X1308Y51D03*
X852Y435D03*
X612Y675D03*
X252Y675D03*
X900Y891D03*
G54D16*
X158Y734D03*
G54D17*
X150Y279D02*
X164Y279D01*
X250Y279D02*
X264Y279D01*
X350Y279D02*
X364Y279D01*
X450Y279D02*
X464Y279D01*
X550Y279D02*
X564Y279D01*
X650Y279D02*
X664Y279D01*
X750Y279D02*
X764Y279D01*
X850Y279D02*
X864Y279D01*
X950Y279D02*
X964Y279D01*
X1050Y279D02*
X1064Y279D01*
X1150Y279D02*
X1164Y279D01*
X1250Y279D02*
X1264Y279D01*
X1350Y279D02*
X1364Y279D01*
X1450Y279D02*
X1464Y279D01*
X1550Y279D02*
X1564Y279D01*
X1650Y279D02*
X1664Y279D01*
X1750Y279D02*
X1764Y279D01*
X1850Y279D02*
X1864Y279D01*
X1950Y279D02*
X1964Y279D01*
X2050Y279D02*
X2064Y279D01*
X146Y278D02*
X169Y278D01*
X246Y278D02*
X269Y278D01*
X346Y278D02*
X369Y278D01*
X446Y278D02*
X469Y278D01*
X546Y278D02*
X569Y278D01*
X646Y278D02*
X669Y278D01*
X746Y278D02*
X769Y278D01*
X846Y278D02*
X869Y278D01*
X946Y278D02*
X969Y278D01*
X1046Y278D02*
X1069Y278D01*
X1146Y278D02*
X1169Y278D01*
X1246Y278D02*
X1269Y278D01*
X1346Y278D02*
X1368Y278D01*
X1446Y278D02*
X1468Y278D01*
X1546Y278D02*
X1568Y278D01*
X1646Y278D02*
X1668Y278D01*
X1746Y278D02*
X1768Y278D01*
X1846Y278D02*
X1868Y278D01*
X1946Y278D02*
X1968Y278D01*
X2045Y278D02*
X2068Y278D01*
X143Y277D02*
X171Y277D01*
X243Y277D02*
X271Y277D01*
X343Y277D02*
X371Y277D01*
X443Y277D02*
X471Y277D01*
X543Y277D02*
X571Y277D01*
X643Y277D02*
X671Y277D01*
X743Y277D02*
X771Y277D01*
X843Y277D02*
X871Y277D01*
X943Y277D02*
X971Y277D01*
X1043Y277D02*
X1071Y277D01*
X1143Y277D02*
X1171Y277D01*
X1243Y277D02*
X1271Y277D01*
X1343Y277D02*
X1371Y277D01*
X1443Y277D02*
X1471Y277D01*
X1543Y277D02*
X1571Y277D01*
X1643Y277D02*
X1671Y277D01*
X1743Y277D02*
X1771Y277D01*
X1843Y277D02*
X1871Y277D01*
X1943Y277D02*
X1971Y277D01*
X2043Y277D02*
X2071Y277D01*
X141Y276D02*
X174Y276D01*
X241Y276D02*
X274Y276D01*
X341Y276D02*
X374Y276D01*
X441Y276D02*
X474Y276D01*
X541Y276D02*
X574Y276D01*
X641Y276D02*
X674Y276D01*
X741Y276D02*
X774Y276D01*
X841Y276D02*
X874Y276D01*
X941Y276D02*
X974Y276D01*
X1041Y276D02*
X1074Y276D01*
X1141Y276D02*
X1174Y276D01*
X1241Y276D02*
X1274Y276D01*
X1341Y276D02*
X1374Y276D01*
X1441Y276D02*
X1474Y276D01*
X1541Y276D02*
X1574Y276D01*
X1641Y276D02*
X1674Y276D01*
X1741Y276D02*
X1774Y276D01*
X1841Y276D02*
X1874Y276D01*
X1941Y276D02*
X1974Y276D01*
X2040Y276D02*
X2073Y276D01*
X139Y275D02*
X176Y275D01*
X239Y275D02*
X276Y275D01*
X339Y275D02*
X376Y275D01*
X439Y275D02*
X476Y275D01*
X539Y275D02*
X576Y275D01*
X639Y275D02*
X676Y275D01*
X739Y275D02*
X776Y275D01*
X839Y275D02*
X875Y275D01*
X939Y275D02*
X975Y275D01*
X1039Y275D02*
X1075Y275D01*
X1139Y275D02*
X1175Y275D01*
X1239Y275D02*
X1275Y275D01*
X1339Y275D02*
X1375Y275D01*
X1439Y275D02*
X1475Y275D01*
X1539Y275D02*
X1575Y275D01*
X1639Y275D02*
X1675Y275D01*
X1739Y275D02*
X1775Y275D01*
X1839Y275D02*
X1875Y275D01*
X1939Y275D02*
X1975Y275D01*
X2038Y275D02*
X2075Y275D01*
X137Y274D02*
X177Y274D01*
X237Y274D02*
X277Y274D01*
X337Y274D02*
X377Y274D01*
X437Y274D02*
X477Y274D01*
X537Y274D02*
X577Y274D01*
X637Y274D02*
X677Y274D01*
X737Y274D02*
X777Y274D01*
X837Y274D02*
X877Y274D01*
X937Y274D02*
X977Y274D01*
X1037Y274D02*
X1077Y274D01*
X1137Y274D02*
X1177Y274D01*
X1237Y274D02*
X1277Y274D01*
X1337Y274D02*
X1377Y274D01*
X1437Y274D02*
X1477Y274D01*
X1537Y274D02*
X1577Y274D01*
X1637Y274D02*
X1677Y274D01*
X1737Y274D02*
X1777Y274D01*
X1837Y274D02*
X1877Y274D01*
X1937Y274D02*
X1977Y274D01*
X2037Y274D02*
X2077Y274D01*
X136Y273D02*
X179Y273D01*
X236Y273D02*
X279Y273D01*
X336Y273D02*
X379Y273D01*
X436Y273D02*
X479Y273D01*
X536Y273D02*
X579Y273D01*
X636Y273D02*
X679Y273D01*
X736Y273D02*
X779Y273D01*
X836Y273D02*
X879Y273D01*
X936Y273D02*
X979Y273D01*
X1036Y273D02*
X1079Y273D01*
X1136Y273D02*
X1179Y273D01*
X1236Y273D02*
X1279Y273D01*
X1336Y273D02*
X1379Y273D01*
X1436Y273D02*
X1479Y273D01*
X1536Y273D02*
X1579Y273D01*
X1636Y273D02*
X1679Y273D01*
X1736Y273D02*
X1779Y273D01*
X1836Y273D02*
X1879Y273D01*
X1936Y273D02*
X1979Y273D01*
X2035Y273D02*
X2078Y273D01*
X134Y272D02*
X180Y272D01*
X234Y272D02*
X280Y272D01*
X334Y272D02*
X380Y272D01*
X434Y272D02*
X480Y272D01*
X534Y272D02*
X580Y272D01*
X634Y272D02*
X680Y272D01*
X734Y272D02*
X780Y272D01*
X834Y272D02*
X880Y272D01*
X934Y272D02*
X980Y272D01*
X1034Y272D02*
X1080Y272D01*
X1134Y272D02*
X1180Y272D01*
X1234Y272D02*
X1280Y272D01*
X1334Y272D02*
X1380Y272D01*
X1434Y272D02*
X1480Y272D01*
X1534Y272D02*
X1580Y272D01*
X1634Y272D02*
X1680Y272D01*
X1734Y272D02*
X1780Y272D01*
X1834Y272D02*
X1880Y272D01*
X1934Y272D02*
X1980Y272D01*
X2034Y272D02*
X2079Y272D01*
X133Y271D02*
X181Y271D01*
X233Y271D02*
X281Y271D01*
X333Y271D02*
X381Y271D01*
X433Y271D02*
X481Y271D01*
X533Y271D02*
X581Y271D01*
X633Y271D02*
X681Y271D01*
X733Y271D02*
X781Y271D01*
X833Y271D02*
X881Y271D01*
X933Y271D02*
X981Y271D01*
X1033Y271D02*
X1081Y271D01*
X1133Y271D02*
X1181Y271D01*
X1233Y271D02*
X1281Y271D01*
X1333Y271D02*
X1381Y271D01*
X1433Y271D02*
X1481Y271D01*
X1533Y271D02*
X1581Y271D01*
X1633Y271D02*
X1681Y271D01*
X1733Y271D02*
X1781Y271D01*
X1833Y271D02*
X1881Y271D01*
X1933Y271D02*
X1981Y271D01*
X2033Y271D02*
X2081Y271D01*
X132Y270D02*
X182Y270D01*
X232Y270D02*
X282Y270D01*
X332Y270D02*
X382Y270D01*
X432Y270D02*
X482Y270D01*
X532Y270D02*
X582Y270D01*
X632Y270D02*
X682Y270D01*
X732Y270D02*
X782Y270D01*
X832Y270D02*
X882Y270D01*
X932Y270D02*
X982Y270D01*
X1032Y270D02*
X1082Y270D01*
X1132Y270D02*
X1182Y270D01*
X1232Y270D02*
X1282Y270D01*
X1332Y270D02*
X1382Y270D01*
X1432Y270D02*
X1482Y270D01*
X1532Y270D02*
X1582Y270D01*
X1632Y270D02*
X1682Y270D01*
X1732Y270D02*
X1782Y270D01*
X1832Y270D02*
X1882Y270D01*
X1932Y270D02*
X1982Y270D01*
X2032Y270D02*
X2082Y270D01*
X131Y269D02*
X183Y269D01*
X231Y269D02*
X283Y269D01*
X331Y269D02*
X383Y269D01*
X431Y269D02*
X483Y269D01*
X531Y269D02*
X583Y269D01*
X631Y269D02*
X683Y269D01*
X731Y269D02*
X783Y269D01*
X831Y269D02*
X883Y269D01*
X931Y269D02*
X983Y269D01*
X1031Y269D02*
X1083Y269D01*
X1131Y269D02*
X1183Y269D01*
X1231Y269D02*
X1283Y269D01*
X1331Y269D02*
X1383Y269D01*
X1431Y269D02*
X1483Y269D01*
X1531Y269D02*
X1583Y269D01*
X1631Y269D02*
X1683Y269D01*
X1731Y269D02*
X1783Y269D01*
X1831Y269D02*
X1883Y269D01*
X1931Y269D02*
X1983Y269D01*
X2031Y269D02*
X2082Y269D01*
X131Y268D02*
X184Y268D01*
X231Y268D02*
X284Y268D01*
X331Y268D02*
X384Y268D01*
X431Y268D02*
X484Y268D01*
X531Y268D02*
X584Y268D01*
X631Y268D02*
X684Y268D01*
X731Y268D02*
X784Y268D01*
X831Y268D02*
X884Y268D01*
X931Y268D02*
X984Y268D01*
X1031Y268D02*
X1084Y268D01*
X1131Y268D02*
X1184Y268D01*
X1231Y268D02*
X1284Y268D01*
X1331Y268D02*
X1384Y268D01*
X1431Y268D02*
X1484Y268D01*
X1531Y268D02*
X1584Y268D01*
X1631Y268D02*
X1684Y268D01*
X1731Y268D02*
X1784Y268D01*
X1831Y268D02*
X1884Y268D01*
X1930Y268D02*
X1984Y268D01*
X2030Y268D02*
X2083Y268D01*
X130Y267D02*
X185Y267D01*
X230Y267D02*
X285Y267D01*
X330Y267D02*
X385Y267D01*
X430Y267D02*
X485Y267D01*
X530Y267D02*
X585Y267D01*
X630Y267D02*
X685Y267D01*
X730Y267D02*
X785Y267D01*
X830Y267D02*
X885Y267D01*
X930Y267D02*
X985Y267D01*
X1030Y267D02*
X1085Y267D01*
X1130Y267D02*
X1185Y267D01*
X1230Y267D02*
X1285Y267D01*
X1330Y267D02*
X1385Y267D01*
X1430Y267D02*
X1485Y267D01*
X1530Y267D02*
X1585Y267D01*
X1630Y267D02*
X1685Y267D01*
X1730Y267D02*
X1784Y267D01*
X1830Y267D02*
X1884Y267D01*
X1930Y267D02*
X1984Y267D01*
X2029Y267D02*
X2084Y267D01*
X129Y266D02*
X185Y266D01*
X229Y266D02*
X285Y266D01*
X329Y266D02*
X385Y266D01*
X429Y266D02*
X485Y266D01*
X529Y266D02*
X585Y266D01*
X629Y266D02*
X685Y266D01*
X729Y266D02*
X785Y266D01*
X829Y266D02*
X885Y266D01*
X929Y266D02*
X985Y266D01*
X1029Y266D02*
X1085Y266D01*
X1129Y266D02*
X1185Y266D01*
X1229Y266D02*
X1285Y266D01*
X1329Y266D02*
X1385Y266D01*
X1429Y266D02*
X1485Y266D01*
X1529Y266D02*
X1585Y266D01*
X1629Y266D02*
X1685Y266D01*
X1729Y266D02*
X1785Y266D01*
X1829Y266D02*
X1885Y266D01*
X1929Y266D02*
X1985Y266D01*
X2029Y266D02*
X2085Y266D01*
X129Y265D02*
X186Y265D01*
X229Y265D02*
X286Y265D01*
X329Y265D02*
X386Y265D01*
X429Y265D02*
X486Y265D01*
X529Y265D02*
X586Y265D01*
X629Y265D02*
X686Y265D01*
X729Y265D02*
X786Y265D01*
X829Y265D02*
X886Y265D01*
X929Y265D02*
X986Y265D01*
X1029Y265D02*
X1086Y265D01*
X1129Y265D02*
X1186Y265D01*
X1229Y265D02*
X1286Y265D01*
X1329Y265D02*
X1386Y265D01*
X1429Y265D02*
X1486Y265D01*
X1529Y265D02*
X1586Y265D01*
X1629Y265D02*
X1686Y265D01*
X1729Y265D02*
X1786Y265D01*
X1828Y265D02*
X1886Y265D01*
X1928Y265D02*
X1986Y265D01*
X2028Y265D02*
X2085Y265D01*
X128Y264D02*
X186Y264D01*
X228Y264D02*
X286Y264D01*
X328Y264D02*
X386Y264D01*
X428Y264D02*
X486Y264D01*
X528Y264D02*
X586Y264D01*
X628Y264D02*
X686Y264D01*
X728Y264D02*
X786Y264D01*
X828Y264D02*
X886Y264D01*
X928Y264D02*
X986Y264D01*
X1028Y264D02*
X1086Y264D01*
X1128Y264D02*
X1186Y264D01*
X1228Y264D02*
X1286Y264D01*
X1328Y264D02*
X1386Y264D01*
X1428Y264D02*
X1486Y264D01*
X1528Y264D02*
X1586Y264D01*
X1628Y264D02*
X1686Y264D01*
X1728Y264D02*
X1786Y264D01*
X1828Y264D02*
X1886Y264D01*
X1928Y264D02*
X1986Y264D01*
X2028Y264D02*
X2086Y264D01*
X128Y263D02*
X187Y263D01*
X228Y263D02*
X287Y263D01*
X328Y263D02*
X387Y263D01*
X428Y263D02*
X487Y263D01*
X528Y263D02*
X587Y263D01*
X628Y263D02*
X687Y263D01*
X728Y263D02*
X787Y263D01*
X828Y263D02*
X887Y263D01*
X928Y263D02*
X987Y263D01*
X1028Y263D02*
X1087Y263D01*
X1128Y263D02*
X1187Y263D01*
X1228Y263D02*
X1287Y263D01*
X1328Y263D02*
X1387Y263D01*
X1428Y263D02*
X1487Y263D01*
X1528Y263D02*
X1587Y263D01*
X1627Y263D02*
X1687Y263D01*
X1727Y263D02*
X1787Y263D01*
X1827Y263D02*
X1887Y263D01*
X1927Y263D02*
X1987Y263D01*
X2027Y263D02*
X2086Y263D01*
X127Y262D02*
X187Y262D01*
X227Y262D02*
X287Y262D01*
X327Y262D02*
X387Y262D01*
X427Y262D02*
X487Y262D01*
X527Y262D02*
X587Y262D01*
X627Y262D02*
X687Y262D01*
X727Y262D02*
X787Y262D01*
X827Y262D02*
X887Y262D01*
X927Y262D02*
X987Y262D01*
X1027Y262D02*
X1087Y262D01*
X1127Y262D02*
X1187Y262D01*
X1227Y262D02*
X1287Y262D01*
X1327Y262D02*
X1387Y262D01*
X1427Y262D02*
X1487Y262D01*
X1527Y262D02*
X1587Y262D01*
X1627Y262D02*
X1687Y262D01*
X1727Y262D02*
X1787Y262D01*
X1827Y262D02*
X1887Y262D01*
X1927Y262D02*
X1987Y262D01*
X2027Y262D02*
X2087Y262D01*
X127Y261D02*
X188Y261D01*
X227Y261D02*
X288Y261D01*
X327Y261D02*
X388Y261D01*
X427Y261D02*
X488Y261D01*
X527Y261D02*
X588Y261D01*
X627Y261D02*
X688Y261D01*
X727Y261D02*
X788Y261D01*
X827Y261D02*
X888Y261D01*
X927Y261D02*
X988Y261D01*
X1027Y261D02*
X1088Y261D01*
X1127Y261D02*
X1188Y261D01*
X1227Y261D02*
X1288Y261D01*
X1327Y261D02*
X1388Y261D01*
X1427Y261D02*
X1488Y261D01*
X1527Y261D02*
X1588Y261D01*
X1627Y261D02*
X1688Y261D01*
X1727Y261D02*
X1788Y261D01*
X1827Y261D02*
X1888Y261D01*
X1927Y261D02*
X1988Y261D01*
X2026Y261D02*
X2087Y261D01*
X127Y260D02*
X188Y260D01*
X227Y260D02*
X288Y260D01*
X327Y260D02*
X388Y260D01*
X427Y260D02*
X488Y260D01*
X526Y260D02*
X588Y260D01*
X626Y260D02*
X688Y260D01*
X726Y260D02*
X788Y260D01*
X826Y260D02*
X888Y260D01*
X926Y260D02*
X988Y260D01*
X1026Y260D02*
X1088Y260D01*
X1126Y260D02*
X1188Y260D01*
X1226Y260D02*
X1288Y260D01*
X1326Y260D02*
X1388Y260D01*
X1426Y260D02*
X1488Y260D01*
X1526Y260D02*
X1588Y260D01*
X1626Y260D02*
X1688Y260D01*
X1726Y260D02*
X1788Y260D01*
X1826Y260D02*
X1888Y260D01*
X1926Y260D02*
X1988Y260D01*
X2026Y260D02*
X2087Y260D01*
X126Y259D02*
X188Y259D01*
X226Y259D02*
X288Y259D01*
X326Y259D02*
X388Y259D01*
X426Y259D02*
X488Y259D01*
X526Y259D02*
X588Y259D01*
X626Y259D02*
X688Y259D01*
X726Y259D02*
X788Y259D01*
X826Y259D02*
X888Y259D01*
X926Y259D02*
X988Y259D01*
X1026Y259D02*
X1088Y259D01*
X1126Y259D02*
X1188Y259D01*
X1226Y259D02*
X1288Y259D01*
X1326Y259D02*
X1388Y259D01*
X1426Y259D02*
X1488Y259D01*
X1526Y259D02*
X1588Y259D01*
X1626Y259D02*
X1688Y259D01*
X1726Y259D02*
X1788Y259D01*
X1826Y259D02*
X1888Y259D01*
X1926Y259D02*
X1988Y259D01*
X2026Y259D02*
X2088Y259D01*
X126Y258D02*
X188Y258D01*
X226Y258D02*
X288Y258D01*
X326Y258D02*
X388Y258D01*
X426Y258D02*
X488Y258D01*
X526Y258D02*
X588Y258D01*
X626Y258D02*
X688Y258D01*
X726Y258D02*
X788Y258D01*
X826Y258D02*
X888Y258D01*
X926Y258D02*
X988Y258D01*
X1026Y258D02*
X1088Y258D01*
X1126Y258D02*
X1188Y258D01*
X1226Y258D02*
X1288Y258D01*
X1326Y258D02*
X1388Y258D01*
X1426Y258D02*
X1488Y258D01*
X1526Y258D02*
X1588Y258D01*
X1626Y258D02*
X1688Y258D01*
X1726Y258D02*
X1788Y258D01*
X1826Y258D02*
X1888Y258D01*
X1926Y258D02*
X1988Y258D01*
X2025Y258D02*
X2088Y258D01*
X126Y257D02*
X189Y257D01*
X226Y257D02*
X289Y257D01*
X326Y257D02*
X389Y257D01*
X426Y257D02*
X489Y257D01*
X526Y257D02*
X589Y257D01*
X626Y257D02*
X689Y257D01*
X726Y257D02*
X789Y257D01*
X826Y257D02*
X889Y257D01*
X926Y257D02*
X989Y257D01*
X1026Y257D02*
X1089Y257D01*
X1126Y257D02*
X1189Y257D01*
X1226Y257D02*
X1289Y257D01*
X1326Y257D02*
X1389Y257D01*
X1426Y257D02*
X1489Y257D01*
X1526Y257D02*
X1589Y257D01*
X1626Y257D02*
X1688Y257D01*
X1726Y257D02*
X1788Y257D01*
X1826Y257D02*
X1888Y257D01*
X1926Y257D02*
X1988Y257D01*
X2025Y257D02*
X2088Y257D01*
X126Y256D02*
X189Y256D01*
X226Y256D02*
X289Y256D01*
X326Y256D02*
X389Y256D01*
X426Y256D02*
X489Y256D01*
X526Y256D02*
X589Y256D01*
X626Y256D02*
X689Y256D01*
X726Y256D02*
X789Y256D01*
X826Y256D02*
X889Y256D01*
X926Y256D02*
X989Y256D01*
X1026Y256D02*
X1089Y256D01*
X1126Y256D02*
X1189Y256D01*
X1226Y256D02*
X1289Y256D01*
X1326Y256D02*
X1389Y256D01*
X1426Y256D02*
X1489Y256D01*
X1526Y256D02*
X1589Y256D01*
X1626Y256D02*
X1689Y256D01*
X1726Y256D02*
X1789Y256D01*
X1826Y256D02*
X1889Y256D01*
X1926Y256D02*
X1989Y256D01*
X2025Y256D02*
X2088Y256D01*
X126Y255D02*
X189Y255D01*
X226Y255D02*
X289Y255D01*
X326Y255D02*
X389Y255D01*
X426Y255D02*
X489Y255D01*
X526Y255D02*
X589Y255D01*
X626Y255D02*
X689Y255D01*
X726Y255D02*
X789Y255D01*
X826Y255D02*
X889Y255D01*
X926Y255D02*
X989Y255D01*
X1026Y255D02*
X1089Y255D01*
X1126Y255D02*
X1189Y255D01*
X1226Y255D02*
X1289Y255D01*
X1326Y255D02*
X1389Y255D01*
X1426Y255D02*
X1489Y255D01*
X1526Y255D02*
X1589Y255D01*
X1626Y255D02*
X1689Y255D01*
X1726Y255D02*
X1789Y255D01*
X1826Y255D02*
X1889Y255D01*
X1926Y255D02*
X1989Y255D01*
X2025Y255D02*
X2088Y255D01*
X126Y254D02*
X189Y254D01*
X226Y254D02*
X289Y254D01*
X326Y254D02*
X389Y254D01*
X426Y254D02*
X489Y254D01*
X526Y254D02*
X589Y254D01*
X626Y254D02*
X689Y254D01*
X726Y254D02*
X789Y254D01*
X826Y254D02*
X889Y254D01*
X926Y254D02*
X989Y254D01*
X1026Y254D02*
X1089Y254D01*
X1126Y254D02*
X1189Y254D01*
X1226Y254D02*
X1289Y254D01*
X1326Y254D02*
X1389Y254D01*
X1426Y254D02*
X1489Y254D01*
X1526Y254D02*
X1589Y254D01*
X1626Y254D02*
X1689Y254D01*
X1726Y254D02*
X1789Y254D01*
X1826Y254D02*
X1889Y254D01*
X1926Y254D02*
X1989Y254D01*
X2025Y254D02*
X2088Y254D01*
X126Y253D02*
X189Y253D01*
X226Y253D02*
X289Y253D01*
X326Y253D02*
X389Y253D01*
X426Y253D02*
X489Y253D01*
X526Y253D02*
X589Y253D01*
X626Y253D02*
X689Y253D01*
X726Y253D02*
X789Y253D01*
X826Y253D02*
X889Y253D01*
X926Y253D02*
X989Y253D01*
X1026Y253D02*
X1089Y253D01*
X1126Y253D02*
X1189Y253D01*
X1226Y253D02*
X1289Y253D01*
X1326Y253D02*
X1389Y253D01*
X1426Y253D02*
X1489Y253D01*
X1526Y253D02*
X1589Y253D01*
X1626Y253D02*
X1689Y253D01*
X1726Y253D02*
X1789Y253D01*
X1826Y253D02*
X1889Y253D01*
X1926Y253D02*
X1989Y253D01*
X2025Y253D02*
X2088Y253D01*
X126Y252D02*
X189Y252D01*
X226Y252D02*
X289Y252D01*
X326Y252D02*
X389Y252D01*
X426Y252D02*
X489Y252D01*
X526Y252D02*
X589Y252D01*
X626Y252D02*
X689Y252D01*
X726Y252D02*
X789Y252D01*
X826Y252D02*
X889Y252D01*
X926Y252D02*
X989Y252D01*
X1026Y252D02*
X1089Y252D01*
X1126Y252D02*
X1189Y252D01*
X1226Y252D02*
X1289Y252D01*
X1326Y252D02*
X1389Y252D01*
X1426Y252D02*
X1489Y252D01*
X1526Y252D02*
X1589Y252D01*
X1626Y252D02*
X1689Y252D01*
X1726Y252D02*
X1789Y252D01*
X1826Y252D02*
X1889Y252D01*
X1926Y252D02*
X1989Y252D01*
X2025Y252D02*
X2088Y252D01*
X126Y251D02*
X189Y251D01*
X226Y251D02*
X289Y251D01*
X326Y251D02*
X389Y251D01*
X426Y251D02*
X489Y251D01*
X526Y251D02*
X589Y251D01*
X626Y251D02*
X689Y251D01*
X726Y251D02*
X789Y251D01*
X826Y251D02*
X889Y251D01*
X926Y251D02*
X989Y251D01*
X1026Y251D02*
X1089Y251D01*
X1126Y251D02*
X1189Y251D01*
X1226Y251D02*
X1289Y251D01*
X1326Y251D02*
X1389Y251D01*
X1426Y251D02*
X1489Y251D01*
X1526Y251D02*
X1589Y251D01*
X1626Y251D02*
X1689Y251D01*
X1726Y251D02*
X1789Y251D01*
X1826Y251D02*
X1889Y251D01*
X1926Y251D02*
X1989Y251D01*
X2025Y251D02*
X2088Y251D01*
X126Y250D02*
X189Y250D01*
X226Y250D02*
X289Y250D01*
X326Y250D02*
X389Y250D01*
X426Y250D02*
X489Y250D01*
X526Y250D02*
X589Y250D01*
X626Y250D02*
X689Y250D01*
X726Y250D02*
X789Y250D01*
X826Y250D02*
X889Y250D01*
X926Y250D02*
X989Y250D01*
X1026Y250D02*
X1089Y250D01*
X1126Y250D02*
X1189Y250D01*
X1226Y250D02*
X1289Y250D01*
X1326Y250D02*
X1389Y250D01*
X1426Y250D02*
X1489Y250D01*
X1526Y250D02*
X1589Y250D01*
X1626Y250D02*
X1689Y250D01*
X1726Y250D02*
X1789Y250D01*
X1826Y250D02*
X1889Y250D01*
X1926Y250D02*
X1989Y250D01*
X2025Y250D02*
X2088Y250D01*
X126Y249D02*
X189Y249D01*
X226Y249D02*
X289Y249D01*
X326Y249D02*
X389Y249D01*
X426Y249D02*
X489Y249D01*
X526Y249D02*
X589Y249D01*
X626Y249D02*
X689Y249D01*
X726Y249D02*
X789Y249D01*
X826Y249D02*
X889Y249D01*
X926Y249D02*
X989Y249D01*
X1026Y249D02*
X1089Y249D01*
X1126Y249D02*
X1189Y249D01*
X1226Y249D02*
X1289Y249D01*
X1326Y249D02*
X1389Y249D01*
X1426Y249D02*
X1489Y249D01*
X1526Y249D02*
X1589Y249D01*
X1626Y249D02*
X1689Y249D01*
X1726Y249D02*
X1789Y249D01*
X1826Y249D02*
X1889Y249D01*
X1926Y249D02*
X1989Y249D01*
X2025Y249D02*
X2088Y249D01*
X126Y248D02*
X152Y248D01*
X163Y248D02*
X189Y248D01*
X226Y248D02*
X252Y248D01*
X263Y248D02*
X289Y248D01*
X326Y248D02*
X352Y248D01*
X363Y248D02*
X389Y248D01*
X426Y248D02*
X452Y248D01*
X463Y248D02*
X489Y248D01*
X526Y248D02*
X552Y248D01*
X563Y248D02*
X589Y248D01*
X626Y248D02*
X652Y248D01*
X663Y248D02*
X689Y248D01*
X726Y248D02*
X751Y248D01*
X763Y248D02*
X789Y248D01*
X826Y248D02*
X851Y248D01*
X863Y248D02*
X889Y248D01*
X926Y248D02*
X951Y248D01*
X963Y248D02*
X989Y248D01*
X1026Y248D02*
X1051Y248D01*
X1063Y248D02*
X1089Y248D01*
X1126Y248D02*
X1151Y248D01*
X1163Y248D02*
X1189Y248D01*
X1226Y248D02*
X1251Y248D01*
X1263Y248D02*
X1289Y248D01*
X1326Y248D02*
X1351Y248D01*
X1363Y248D02*
X1389Y248D01*
X1426Y248D02*
X1451Y248D01*
X1463Y248D02*
X1489Y248D01*
X1526Y248D02*
X1551Y248D01*
X1563Y248D02*
X1589Y248D01*
X1626Y248D02*
X1651Y248D01*
X1663Y248D02*
X1689Y248D01*
X1726Y248D02*
X1751Y248D01*
X1763Y248D02*
X1789Y248D01*
X1826Y248D02*
X1851Y248D01*
X1863Y248D02*
X1889Y248D01*
X1926Y248D02*
X1951Y248D01*
X1963Y248D02*
X1989Y248D01*
X2025Y248D02*
X2051Y248D01*
X2062Y248D02*
X2088Y248D01*
X126Y247D02*
X150Y247D01*
X165Y247D02*
X189Y247D01*
X226Y247D02*
X250Y247D01*
X265Y247D02*
X289Y247D01*
X326Y247D02*
X350Y247D01*
X365Y247D02*
X389Y247D01*
X426Y247D02*
X450Y247D01*
X465Y247D02*
X489Y247D01*
X526Y247D02*
X550Y247D01*
X565Y247D02*
X589Y247D01*
X626Y247D02*
X650Y247D01*
X665Y247D02*
X689Y247D01*
X726Y247D02*
X750Y247D01*
X765Y247D02*
X789Y247D01*
X826Y247D02*
X850Y247D01*
X865Y247D02*
X889Y247D01*
X926Y247D02*
X950Y247D01*
X965Y247D02*
X989Y247D01*
X1026Y247D02*
X1050Y247D01*
X1065Y247D02*
X1089Y247D01*
X1126Y247D02*
X1150Y247D01*
X1165Y247D02*
X1189Y247D01*
X1226Y247D02*
X1250Y247D01*
X1265Y247D02*
X1289Y247D01*
X1326Y247D02*
X1350Y247D01*
X1365Y247D02*
X1389Y247D01*
X1426Y247D02*
X1450Y247D01*
X1465Y247D02*
X1489Y247D01*
X1526Y247D02*
X1550Y247D01*
X1565Y247D02*
X1589Y247D01*
X1626Y247D02*
X1649Y247D01*
X1665Y247D02*
X1689Y247D01*
X1726Y247D02*
X1749Y247D01*
X1765Y247D02*
X1789Y247D01*
X1826Y247D02*
X1849Y247D01*
X1865Y247D02*
X1889Y247D01*
X1926Y247D02*
X1949Y247D01*
X1965Y247D02*
X1989Y247D01*
X2025Y247D02*
X2049Y247D01*
X2064Y247D02*
X2088Y247D01*
X126Y246D02*
X148Y246D01*
X166Y246D02*
X189Y246D01*
X226Y246D02*
X248Y246D01*
X266Y246D02*
X289Y246D01*
X326Y246D02*
X348Y246D01*
X366Y246D02*
X389Y246D01*
X426Y246D02*
X448Y246D01*
X466Y246D02*
X489Y246D01*
X526Y246D02*
X548Y246D01*
X566Y246D02*
X589Y246D01*
X626Y246D02*
X648Y246D01*
X666Y246D02*
X689Y246D01*
X726Y246D02*
X748Y246D01*
X766Y246D02*
X789Y246D01*
X826Y246D02*
X848Y246D01*
X866Y246D02*
X889Y246D01*
X926Y246D02*
X948Y246D01*
X966Y246D02*
X989Y246D01*
X1026Y246D02*
X1048Y246D01*
X1066Y246D02*
X1089Y246D01*
X1126Y246D02*
X1148Y246D01*
X1166Y246D02*
X1189Y246D01*
X1226Y246D02*
X1248Y246D01*
X1266Y246D02*
X1289Y246D01*
X1326Y246D02*
X1348Y246D01*
X1366Y246D02*
X1389Y246D01*
X1426Y246D02*
X1448Y246D01*
X1466Y246D02*
X1489Y246D01*
X1526Y246D02*
X1548Y246D01*
X1566Y246D02*
X1589Y246D01*
X1626Y246D02*
X1648Y246D01*
X1666Y246D02*
X1689Y246D01*
X1726Y246D02*
X1748Y246D01*
X1766Y246D02*
X1789Y246D01*
X1826Y246D02*
X1848Y246D01*
X1866Y246D02*
X1889Y246D01*
X1926Y246D02*
X1948Y246D01*
X1966Y246D02*
X1989Y246D01*
X2025Y246D02*
X2048Y246D01*
X2066Y246D02*
X2088Y246D01*
X126Y245D02*
X147Y245D01*
X167Y245D02*
X189Y245D01*
X226Y245D02*
X247Y245D01*
X267Y245D02*
X289Y245D01*
X326Y245D02*
X347Y245D01*
X367Y245D02*
X389Y245D01*
X426Y245D02*
X447Y245D01*
X467Y245D02*
X489Y245D01*
X526Y245D02*
X547Y245D01*
X567Y245D02*
X589Y245D01*
X626Y245D02*
X647Y245D01*
X667Y245D02*
X689Y245D01*
X726Y245D02*
X747Y245D01*
X767Y245D02*
X789Y245D01*
X826Y245D02*
X847Y245D01*
X867Y245D02*
X889Y245D01*
X926Y245D02*
X947Y245D01*
X967Y245D02*
X989Y245D01*
X1026Y245D02*
X1047Y245D01*
X1067Y245D02*
X1089Y245D01*
X1126Y245D02*
X1147Y245D01*
X1167Y245D02*
X1189Y245D01*
X1226Y245D02*
X1247Y245D01*
X1267Y245D02*
X1289Y245D01*
X1326Y245D02*
X1347Y245D01*
X1367Y245D02*
X1389Y245D01*
X1426Y245D02*
X1447Y245D01*
X1467Y245D02*
X1489Y245D01*
X1526Y245D02*
X1547Y245D01*
X1567Y245D02*
X1589Y245D01*
X1626Y245D02*
X1647Y245D01*
X1667Y245D02*
X1689Y245D01*
X1726Y245D02*
X1747Y245D01*
X1767Y245D02*
X1789Y245D01*
X1826Y245D02*
X1847Y245D01*
X1867Y245D02*
X1889Y245D01*
X1926Y245D02*
X1947Y245D01*
X1967Y245D02*
X1989Y245D01*
X2025Y245D02*
X2046Y245D01*
X2067Y245D02*
X2088Y245D01*
X126Y244D02*
X146Y244D01*
X168Y244D02*
X189Y244D01*
X226Y244D02*
X246Y244D01*
X268Y244D02*
X289Y244D01*
X326Y244D02*
X346Y244D01*
X368Y244D02*
X389Y244D01*
X426Y244D02*
X446Y244D01*
X468Y244D02*
X489Y244D01*
X526Y244D02*
X546Y244D01*
X568Y244D02*
X589Y244D01*
X626Y244D02*
X646Y244D01*
X668Y244D02*
X689Y244D01*
X726Y244D02*
X746Y244D01*
X768Y244D02*
X789Y244D01*
X826Y244D02*
X846Y244D01*
X868Y244D02*
X889Y244D01*
X926Y244D02*
X946Y244D01*
X968Y244D02*
X989Y244D01*
X1026Y244D02*
X1046Y244D01*
X1068Y244D02*
X1089Y244D01*
X1126Y244D02*
X1146Y244D01*
X1168Y244D02*
X1189Y244D01*
X1226Y244D02*
X1246Y244D01*
X1268Y244D02*
X1289Y244D01*
X1326Y244D02*
X1346Y244D01*
X1368Y244D02*
X1389Y244D01*
X1426Y244D02*
X1446Y244D01*
X1468Y244D02*
X1489Y244D01*
X1526Y244D02*
X1546Y244D01*
X1568Y244D02*
X1589Y244D01*
X1626Y244D02*
X1646Y244D01*
X1668Y244D02*
X1689Y244D01*
X1726Y244D02*
X1746Y244D01*
X1768Y244D02*
X1789Y244D01*
X1826Y244D02*
X1846Y244D01*
X1868Y244D02*
X1889Y244D01*
X1926Y244D02*
X1946Y244D01*
X1968Y244D02*
X1989Y244D01*
X2025Y244D02*
X2046Y244D01*
X2068Y244D02*
X2088Y244D01*
X126Y243D02*
X145Y243D01*
X169Y243D02*
X189Y243D01*
X226Y243D02*
X245Y243D01*
X269Y243D02*
X289Y243D01*
X326Y243D02*
X345Y243D01*
X369Y243D02*
X389Y243D01*
X426Y243D02*
X445Y243D01*
X469Y243D02*
X489Y243D01*
X526Y243D02*
X545Y243D01*
X569Y243D02*
X589Y243D01*
X626Y243D02*
X645Y243D01*
X669Y243D02*
X689Y243D01*
X726Y243D02*
X745Y243D01*
X769Y243D02*
X789Y243D01*
X826Y243D02*
X845Y243D01*
X869Y243D02*
X889Y243D01*
X926Y243D02*
X945Y243D01*
X969Y243D02*
X989Y243D01*
X1026Y243D02*
X1045Y243D01*
X1069Y243D02*
X1089Y243D01*
X1126Y243D02*
X1145Y243D01*
X1169Y243D02*
X1189Y243D01*
X1226Y243D02*
X1245Y243D01*
X1269Y243D02*
X1289Y243D01*
X1326Y243D02*
X1345Y243D01*
X1369Y243D02*
X1389Y243D01*
X1426Y243D02*
X1445Y243D01*
X1469Y243D02*
X1489Y243D01*
X1526Y243D02*
X1545Y243D01*
X1569Y243D02*
X1589Y243D01*
X1626Y243D02*
X1645Y243D01*
X1669Y243D02*
X1689Y243D01*
X1726Y243D02*
X1745Y243D01*
X1769Y243D02*
X1789Y243D01*
X1826Y243D02*
X1845Y243D01*
X1869Y243D02*
X1889Y243D01*
X1926Y243D02*
X1945Y243D01*
X1969Y243D02*
X1989Y243D01*
X2025Y243D02*
X2045Y243D01*
X2069Y243D02*
X2088Y243D01*
X126Y242D02*
X145Y242D01*
X170Y242D02*
X189Y242D01*
X226Y242D02*
X245Y242D01*
X270Y242D02*
X289Y242D01*
X326Y242D02*
X345Y242D01*
X370Y242D02*
X389Y242D01*
X426Y242D02*
X445Y242D01*
X470Y242D02*
X489Y242D01*
X526Y242D02*
X545Y242D01*
X570Y242D02*
X589Y242D01*
X626Y242D02*
X645Y242D01*
X670Y242D02*
X689Y242D01*
X726Y242D02*
X745Y242D01*
X770Y242D02*
X789Y242D01*
X826Y242D02*
X845Y242D01*
X870Y242D02*
X889Y242D01*
X926Y242D02*
X945Y242D01*
X970Y242D02*
X989Y242D01*
X1026Y242D02*
X1045Y242D01*
X1070Y242D02*
X1089Y242D01*
X1126Y242D02*
X1145Y242D01*
X1170Y242D02*
X1189Y242D01*
X1226Y242D02*
X1245Y242D01*
X1270Y242D02*
X1289Y242D01*
X1326Y242D02*
X1345Y242D01*
X1370Y242D02*
X1389Y242D01*
X1426Y242D02*
X1445Y242D01*
X1470Y242D02*
X1489Y242D01*
X1526Y242D02*
X1545Y242D01*
X1570Y242D02*
X1589Y242D01*
X1626Y242D02*
X1645Y242D01*
X1670Y242D02*
X1689Y242D01*
X1726Y242D02*
X1745Y242D01*
X1770Y242D02*
X1789Y242D01*
X1826Y242D02*
X1845Y242D01*
X1870Y242D02*
X1889Y242D01*
X1926Y242D02*
X1945Y242D01*
X1970Y242D02*
X1989Y242D01*
X2025Y242D02*
X2044Y242D01*
X2069Y242D02*
X2088Y242D01*
X126Y241D02*
X144Y241D01*
X170Y241D02*
X189Y241D01*
X226Y241D02*
X244Y241D01*
X270Y241D02*
X289Y241D01*
X326Y241D02*
X344Y241D01*
X370Y241D02*
X389Y241D01*
X426Y241D02*
X444Y241D01*
X470Y241D02*
X489Y241D01*
X526Y241D02*
X544Y241D01*
X570Y241D02*
X589Y241D01*
X626Y241D02*
X644Y241D01*
X670Y241D02*
X689Y241D01*
X726Y241D02*
X744Y241D01*
X770Y241D02*
X789Y241D01*
X826Y241D02*
X844Y241D01*
X870Y241D02*
X889Y241D01*
X926Y241D02*
X944Y241D01*
X970Y241D02*
X989Y241D01*
X1026Y241D02*
X1044Y241D01*
X1070Y241D02*
X1089Y241D01*
X1126Y241D02*
X1144Y241D01*
X1170Y241D02*
X1189Y241D01*
X1226Y241D02*
X1244Y241D01*
X1270Y241D02*
X1289Y241D01*
X1326Y241D02*
X1344Y241D01*
X1370Y241D02*
X1389Y241D01*
X1426Y241D02*
X1444Y241D01*
X1470Y241D02*
X1489Y241D01*
X1526Y241D02*
X1544Y241D01*
X1570Y241D02*
X1589Y241D01*
X1626Y241D02*
X1644Y241D01*
X1670Y241D02*
X1689Y241D01*
X1726Y241D02*
X1744Y241D01*
X1770Y241D02*
X1789Y241D01*
X1826Y241D02*
X1844Y241D01*
X1870Y241D02*
X1889Y241D01*
X1926Y241D02*
X1944Y241D01*
X1970Y241D02*
X1989Y241D01*
X2025Y241D02*
X2043Y241D01*
X2070Y241D02*
X2088Y241D01*
X126Y240D02*
X144Y240D01*
X171Y240D02*
X189Y240D01*
X226Y240D02*
X244Y240D01*
X271Y240D02*
X289Y240D01*
X326Y240D02*
X344Y240D01*
X371Y240D02*
X389Y240D01*
X426Y240D02*
X444Y240D01*
X471Y240D02*
X489Y240D01*
X526Y240D02*
X544Y240D01*
X571Y240D02*
X589Y240D01*
X626Y240D02*
X644Y240D01*
X671Y240D02*
X689Y240D01*
X726Y240D02*
X744Y240D01*
X771Y240D02*
X789Y240D01*
X826Y240D02*
X844Y240D01*
X871Y240D02*
X889Y240D01*
X926Y240D02*
X944Y240D01*
X971Y240D02*
X989Y240D01*
X1026Y240D02*
X1044Y240D01*
X1071Y240D02*
X1089Y240D01*
X1126Y240D02*
X1144Y240D01*
X1171Y240D02*
X1189Y240D01*
X1226Y240D02*
X1244Y240D01*
X1271Y240D02*
X1289Y240D01*
X1326Y240D02*
X1344Y240D01*
X1371Y240D02*
X1389Y240D01*
X1426Y240D02*
X1444Y240D01*
X1471Y240D02*
X1489Y240D01*
X1526Y240D02*
X1544Y240D01*
X1571Y240D02*
X1589Y240D01*
X1626Y240D02*
X1644Y240D01*
X1671Y240D02*
X1689Y240D01*
X1726Y240D02*
X1744Y240D01*
X1771Y240D02*
X1789Y240D01*
X1826Y240D02*
X1844Y240D01*
X1871Y240D02*
X1889Y240D01*
X1926Y240D02*
X1944Y240D01*
X1971Y240D02*
X1989Y240D01*
X2025Y240D02*
X2043Y240D01*
X2070Y240D02*
X2088Y240D01*
X126Y239D02*
X143Y239D01*
X171Y239D02*
X189Y239D01*
X226Y239D02*
X243Y239D01*
X271Y239D02*
X289Y239D01*
X326Y239D02*
X343Y239D01*
X371Y239D02*
X389Y239D01*
X426Y239D02*
X443Y239D01*
X471Y239D02*
X489Y239D01*
X526Y239D02*
X543Y239D01*
X571Y239D02*
X589Y239D01*
X626Y239D02*
X643Y239D01*
X671Y239D02*
X689Y239D01*
X726Y239D02*
X743Y239D01*
X771Y239D02*
X789Y239D01*
X826Y239D02*
X843Y239D01*
X871Y239D02*
X889Y239D01*
X926Y239D02*
X943Y239D01*
X971Y239D02*
X989Y239D01*
X1026Y239D02*
X1043Y239D01*
X1071Y239D02*
X1089Y239D01*
X1126Y239D02*
X1143Y239D01*
X1171Y239D02*
X1189Y239D01*
X1226Y239D02*
X1243Y239D01*
X1271Y239D02*
X1289Y239D01*
X1326Y239D02*
X1343Y239D01*
X1371Y239D02*
X1389Y239D01*
X1426Y239D02*
X1443Y239D01*
X1471Y239D02*
X1489Y239D01*
X1526Y239D02*
X1543Y239D01*
X1571Y239D02*
X1589Y239D01*
X1626Y239D02*
X1643Y239D01*
X1671Y239D02*
X1689Y239D01*
X1726Y239D02*
X1743Y239D01*
X1771Y239D02*
X1789Y239D01*
X1826Y239D02*
X1843Y239D01*
X1871Y239D02*
X1889Y239D01*
X1926Y239D02*
X1943Y239D01*
X1971Y239D02*
X1989Y239D01*
X2025Y239D02*
X2043Y239D01*
X2071Y239D02*
X2088Y239D01*
X126Y238D02*
X143Y238D01*
X171Y238D02*
X189Y238D01*
X226Y238D02*
X243Y238D01*
X271Y238D02*
X289Y238D01*
X326Y238D02*
X343Y238D01*
X371Y238D02*
X389Y238D01*
X426Y238D02*
X443Y238D01*
X471Y238D02*
X489Y238D01*
X526Y238D02*
X543Y238D01*
X571Y238D02*
X589Y238D01*
X626Y238D02*
X643Y238D01*
X671Y238D02*
X689Y238D01*
X726Y238D02*
X743Y238D01*
X771Y238D02*
X789Y238D01*
X826Y238D02*
X843Y238D01*
X871Y238D02*
X889Y238D01*
X926Y238D02*
X943Y238D01*
X971Y238D02*
X989Y238D01*
X1026Y238D02*
X1043Y238D01*
X1071Y238D02*
X1089Y238D01*
X1126Y238D02*
X1143Y238D01*
X1171Y238D02*
X1189Y238D01*
X1226Y238D02*
X1243Y238D01*
X1271Y238D02*
X1289Y238D01*
X1326Y238D02*
X1343Y238D01*
X1371Y238D02*
X1389Y238D01*
X1426Y238D02*
X1443Y238D01*
X1471Y238D02*
X1489Y238D01*
X1526Y238D02*
X1543Y238D01*
X1571Y238D02*
X1589Y238D01*
X1626Y238D02*
X1643Y238D01*
X1671Y238D02*
X1689Y238D01*
X1726Y238D02*
X1743Y238D01*
X1771Y238D02*
X1789Y238D01*
X1826Y238D02*
X1843Y238D01*
X1871Y238D02*
X1889Y238D01*
X1926Y238D02*
X1943Y238D01*
X1971Y238D02*
X1989Y238D01*
X2025Y238D02*
X2042Y238D01*
X2071Y238D02*
X2088Y238D01*
X126Y237D02*
X143Y237D01*
X172Y237D02*
X189Y237D01*
X226Y237D02*
X243Y237D01*
X272Y237D02*
X289Y237D01*
X326Y237D02*
X343Y237D01*
X372Y237D02*
X389Y237D01*
X426Y237D02*
X443Y237D01*
X472Y237D02*
X489Y237D01*
X526Y237D02*
X543Y237D01*
X572Y237D02*
X589Y237D01*
X626Y237D02*
X643Y237D01*
X672Y237D02*
X689Y237D01*
X726Y237D02*
X743Y237D01*
X772Y237D02*
X789Y237D01*
X826Y237D02*
X843Y237D01*
X872Y237D02*
X889Y237D01*
X926Y237D02*
X943Y237D01*
X972Y237D02*
X989Y237D01*
X1026Y237D02*
X1043Y237D01*
X1072Y237D02*
X1089Y237D01*
X1126Y237D02*
X1143Y237D01*
X1171Y237D02*
X1189Y237D01*
X1226Y237D02*
X1243Y237D01*
X1271Y237D02*
X1289Y237D01*
X1326Y237D02*
X1343Y237D01*
X1371Y237D02*
X1389Y237D01*
X1426Y237D02*
X1443Y237D01*
X1471Y237D02*
X1489Y237D01*
X1526Y237D02*
X1543Y237D01*
X1571Y237D02*
X1589Y237D01*
X1626Y237D02*
X1643Y237D01*
X1671Y237D02*
X1689Y237D01*
X1726Y237D02*
X1743Y237D01*
X1771Y237D02*
X1789Y237D01*
X1826Y237D02*
X1843Y237D01*
X1871Y237D02*
X1889Y237D01*
X1926Y237D02*
X1943Y237D01*
X1971Y237D02*
X1989Y237D01*
X2025Y237D02*
X2042Y237D01*
X2071Y237D02*
X2088Y237D01*
X126Y236D02*
X143Y236D01*
X172Y236D02*
X189Y236D01*
X226Y236D02*
X243Y236D01*
X272Y236D02*
X289Y236D01*
X326Y236D02*
X343Y236D01*
X372Y236D02*
X389Y236D01*
X426Y236D02*
X443Y236D01*
X472Y236D02*
X489Y236D01*
X526Y236D02*
X543Y236D01*
X572Y236D02*
X589Y236D01*
X626Y236D02*
X643Y236D01*
X672Y236D02*
X689Y236D01*
X726Y236D02*
X743Y236D01*
X772Y236D02*
X789Y236D01*
X826Y236D02*
X843Y236D01*
X872Y236D02*
X889Y236D01*
X926Y236D02*
X943Y236D01*
X972Y236D02*
X989Y236D01*
X1026Y236D02*
X1043Y236D01*
X1072Y236D02*
X1089Y236D01*
X1126Y236D02*
X1143Y236D01*
X1172Y236D02*
X1189Y236D01*
X1226Y236D02*
X1243Y236D01*
X1272Y236D02*
X1289Y236D01*
X1326Y236D02*
X1343Y236D01*
X1372Y236D02*
X1389Y236D01*
X1426Y236D02*
X1443Y236D01*
X1472Y236D02*
X1489Y236D01*
X1526Y236D02*
X1543Y236D01*
X1572Y236D02*
X1589Y236D01*
X1626Y236D02*
X1643Y236D01*
X1672Y236D02*
X1689Y236D01*
X1726Y236D02*
X1743Y236D01*
X1772Y236D02*
X1789Y236D01*
X1826Y236D02*
X1843Y236D01*
X1872Y236D02*
X1889Y236D01*
X1926Y236D02*
X1943Y236D01*
X1972Y236D02*
X1989Y236D01*
X2025Y236D02*
X2042Y236D01*
X2071Y236D02*
X2088Y236D01*
X126Y235D02*
X143Y235D01*
X172Y235D02*
X189Y235D01*
X226Y235D02*
X243Y235D01*
X272Y235D02*
X289Y235D01*
X326Y235D02*
X343Y235D01*
X372Y235D02*
X389Y235D01*
X426Y235D02*
X443Y235D01*
X472Y235D02*
X489Y235D01*
X526Y235D02*
X543Y235D01*
X572Y235D02*
X589Y235D01*
X626Y235D02*
X643Y235D01*
X672Y235D02*
X689Y235D01*
X726Y235D02*
X743Y235D01*
X772Y235D02*
X789Y235D01*
X826Y235D02*
X843Y235D01*
X872Y235D02*
X889Y235D01*
X926Y235D02*
X943Y235D01*
X972Y235D02*
X989Y235D01*
X1026Y235D02*
X1043Y235D01*
X1072Y235D02*
X1089Y235D01*
X1126Y235D02*
X1143Y235D01*
X1172Y235D02*
X1189Y235D01*
X1226Y235D02*
X1243Y235D01*
X1272Y235D02*
X1289Y235D01*
X1326Y235D02*
X1343Y235D01*
X1372Y235D02*
X1389Y235D01*
X1426Y235D02*
X1443Y235D01*
X1472Y235D02*
X1489Y235D01*
X1526Y235D02*
X1543Y235D01*
X1572Y235D02*
X1589Y235D01*
X1626Y235D02*
X1643Y235D01*
X1672Y235D02*
X1689Y235D01*
X1726Y235D02*
X1743Y235D01*
X1772Y235D02*
X1789Y235D01*
X1826Y235D02*
X1843Y235D01*
X1872Y235D02*
X1889Y235D01*
X1926Y235D02*
X1943Y235D01*
X1972Y235D02*
X1989Y235D01*
X2025Y235D02*
X2042Y235D01*
X2071Y235D02*
X2088Y235D01*
X126Y234D02*
X143Y234D01*
X172Y234D02*
X189Y234D01*
X226Y234D02*
X243Y234D01*
X272Y234D02*
X289Y234D01*
X326Y234D02*
X343Y234D01*
X372Y234D02*
X389Y234D01*
X426Y234D02*
X443Y234D01*
X472Y234D02*
X489Y234D01*
X526Y234D02*
X543Y234D01*
X572Y234D02*
X589Y234D01*
X626Y234D02*
X643Y234D01*
X672Y234D02*
X689Y234D01*
X726Y234D02*
X743Y234D01*
X772Y234D02*
X789Y234D01*
X826Y234D02*
X843Y234D01*
X872Y234D02*
X889Y234D01*
X926Y234D02*
X943Y234D01*
X972Y234D02*
X989Y234D01*
X1026Y234D02*
X1043Y234D01*
X1072Y234D02*
X1089Y234D01*
X1126Y234D02*
X1143Y234D01*
X1172Y234D02*
X1189Y234D01*
X1226Y234D02*
X1243Y234D01*
X1272Y234D02*
X1289Y234D01*
X1326Y234D02*
X1343Y234D01*
X1372Y234D02*
X1389Y234D01*
X1426Y234D02*
X1443Y234D01*
X1472Y234D02*
X1489Y234D01*
X1526Y234D02*
X1543Y234D01*
X1572Y234D02*
X1589Y234D01*
X1626Y234D02*
X1643Y234D01*
X1672Y234D02*
X1689Y234D01*
X1726Y234D02*
X1743Y234D01*
X1772Y234D02*
X1789Y234D01*
X1826Y234D02*
X1843Y234D01*
X1872Y234D02*
X1889Y234D01*
X1926Y234D02*
X1943Y234D01*
X1972Y234D02*
X1989Y234D01*
X2025Y234D02*
X2042Y234D01*
X2071Y234D02*
X2088Y234D01*
X126Y233D02*
X143Y233D01*
X172Y233D02*
X189Y233D01*
X226Y233D02*
X243Y233D01*
X272Y233D02*
X289Y233D01*
X326Y233D02*
X343Y233D01*
X372Y233D02*
X389Y233D01*
X426Y233D02*
X443Y233D01*
X472Y233D02*
X489Y233D01*
X526Y233D02*
X543Y233D01*
X572Y233D02*
X589Y233D01*
X626Y233D02*
X643Y233D01*
X672Y233D02*
X689Y233D01*
X726Y233D02*
X743Y233D01*
X772Y233D02*
X789Y233D01*
X826Y233D02*
X843Y233D01*
X872Y233D02*
X889Y233D01*
X926Y233D02*
X943Y233D01*
X972Y233D02*
X989Y233D01*
X1026Y233D02*
X1043Y233D01*
X1072Y233D02*
X1089Y233D01*
X1126Y233D02*
X1143Y233D01*
X1171Y233D02*
X1189Y233D01*
X1226Y233D02*
X1243Y233D01*
X1271Y233D02*
X1289Y233D01*
X1326Y233D02*
X1343Y233D01*
X1371Y233D02*
X1389Y233D01*
X1426Y233D02*
X1443Y233D01*
X1471Y233D02*
X1489Y233D01*
X1526Y233D02*
X1543Y233D01*
X1571Y233D02*
X1589Y233D01*
X1626Y233D02*
X1643Y233D01*
X1671Y233D02*
X1689Y233D01*
X1726Y233D02*
X1743Y233D01*
X1771Y233D02*
X1789Y233D01*
X1826Y233D02*
X1843Y233D01*
X1871Y233D02*
X1889Y233D01*
X1926Y233D02*
X1943Y233D01*
X1971Y233D02*
X1989Y233D01*
X2025Y233D02*
X2042Y233D01*
X2071Y233D02*
X2088Y233D01*
X126Y232D02*
X143Y232D01*
X171Y232D02*
X189Y232D01*
X226Y232D02*
X243Y232D01*
X271Y232D02*
X289Y232D01*
X326Y232D02*
X343Y232D01*
X371Y232D02*
X389Y232D01*
X426Y232D02*
X443Y232D01*
X471Y232D02*
X489Y232D01*
X526Y232D02*
X543Y232D01*
X571Y232D02*
X589Y232D01*
X626Y232D02*
X643Y232D01*
X671Y232D02*
X689Y232D01*
X726Y232D02*
X743Y232D01*
X771Y232D02*
X789Y232D01*
X826Y232D02*
X843Y232D01*
X871Y232D02*
X889Y232D01*
X926Y232D02*
X943Y232D01*
X971Y232D02*
X989Y232D01*
X1026Y232D02*
X1043Y232D01*
X1071Y232D02*
X1089Y232D01*
X1126Y232D02*
X1143Y232D01*
X1171Y232D02*
X1189Y232D01*
X1226Y232D02*
X1243Y232D01*
X1271Y232D02*
X1289Y232D01*
X1326Y232D02*
X1343Y232D01*
X1371Y232D02*
X1389Y232D01*
X1426Y232D02*
X1443Y232D01*
X1471Y232D02*
X1489Y232D01*
X1526Y232D02*
X1543Y232D01*
X1571Y232D02*
X1589Y232D01*
X1626Y232D02*
X1643Y232D01*
X1671Y232D02*
X1689Y232D01*
X1726Y232D02*
X1743Y232D01*
X1771Y232D02*
X1789Y232D01*
X1826Y232D02*
X1843Y232D01*
X1871Y232D02*
X1889Y232D01*
X1926Y232D02*
X1943Y232D01*
X1971Y232D02*
X1989Y232D01*
X2025Y232D02*
X2042Y232D01*
X2071Y232D02*
X2088Y232D01*
X126Y231D02*
X143Y231D01*
X171Y231D02*
X189Y231D01*
X226Y231D02*
X243Y231D01*
X271Y231D02*
X289Y231D01*
X326Y231D02*
X343Y231D01*
X371Y231D02*
X389Y231D01*
X426Y231D02*
X443Y231D01*
X471Y231D02*
X489Y231D01*
X526Y231D02*
X543Y231D01*
X571Y231D02*
X589Y231D01*
X626Y231D02*
X643Y231D01*
X671Y231D02*
X689Y231D01*
X726Y231D02*
X743Y231D01*
X771Y231D02*
X789Y231D01*
X826Y231D02*
X843Y231D01*
X871Y231D02*
X889Y231D01*
X926Y231D02*
X943Y231D01*
X971Y231D02*
X989Y231D01*
X1026Y231D02*
X1043Y231D01*
X1071Y231D02*
X1089Y231D01*
X1126Y231D02*
X1143Y231D01*
X1171Y231D02*
X1189Y231D01*
X1226Y231D02*
X1243Y231D01*
X1271Y231D02*
X1289Y231D01*
X1326Y231D02*
X1343Y231D01*
X1371Y231D02*
X1389Y231D01*
X1426Y231D02*
X1443Y231D01*
X1471Y231D02*
X1489Y231D01*
X1526Y231D02*
X1543Y231D01*
X1571Y231D02*
X1589Y231D01*
X1626Y231D02*
X1643Y231D01*
X1671Y231D02*
X1689Y231D01*
X1726Y231D02*
X1743Y231D01*
X1771Y231D02*
X1789Y231D01*
X1826Y231D02*
X1843Y231D01*
X1871Y231D02*
X1889Y231D01*
X1926Y231D02*
X1943Y231D01*
X1971Y231D02*
X1989Y231D01*
X2025Y231D02*
X2043Y231D01*
X2071Y231D02*
X2088Y231D01*
X126Y230D02*
X144Y230D01*
X171Y230D02*
X189Y230D01*
X226Y230D02*
X244Y230D01*
X271Y230D02*
X289Y230D01*
X326Y230D02*
X344Y230D01*
X371Y230D02*
X389Y230D01*
X426Y230D02*
X444Y230D01*
X471Y230D02*
X489Y230D01*
X526Y230D02*
X544Y230D01*
X571Y230D02*
X589Y230D01*
X626Y230D02*
X644Y230D01*
X671Y230D02*
X689Y230D01*
X726Y230D02*
X744Y230D01*
X771Y230D02*
X789Y230D01*
X826Y230D02*
X844Y230D01*
X871Y230D02*
X889Y230D01*
X926Y230D02*
X944Y230D01*
X971Y230D02*
X989Y230D01*
X1026Y230D02*
X1044Y230D01*
X1071Y230D02*
X1089Y230D01*
X1126Y230D02*
X1144Y230D01*
X1171Y230D02*
X1189Y230D01*
X1226Y230D02*
X1244Y230D01*
X1271Y230D02*
X1289Y230D01*
X1326Y230D02*
X1344Y230D01*
X1371Y230D02*
X1389Y230D01*
X1426Y230D02*
X1444Y230D01*
X1471Y230D02*
X1489Y230D01*
X1526Y230D02*
X1544Y230D01*
X1571Y230D02*
X1589Y230D01*
X1626Y230D02*
X1644Y230D01*
X1671Y230D02*
X1689Y230D01*
X1726Y230D02*
X1743Y230D01*
X1771Y230D02*
X1789Y230D01*
X1826Y230D02*
X1843Y230D01*
X1871Y230D02*
X1889Y230D01*
X1926Y230D02*
X1943Y230D01*
X1971Y230D02*
X1989Y230D01*
X2025Y230D02*
X2043Y230D01*
X2070Y230D02*
X2088Y230D01*
X126Y229D02*
X144Y229D01*
X170Y229D02*
X189Y229D01*
X226Y229D02*
X244Y229D01*
X270Y229D02*
X289Y229D01*
X326Y229D02*
X344Y229D01*
X370Y229D02*
X389Y229D01*
X426Y229D02*
X444Y229D01*
X470Y229D02*
X489Y229D01*
X526Y229D02*
X544Y229D01*
X570Y229D02*
X589Y229D01*
X626Y229D02*
X644Y229D01*
X670Y229D02*
X689Y229D01*
X726Y229D02*
X744Y229D01*
X770Y229D02*
X789Y229D01*
X826Y229D02*
X844Y229D01*
X870Y229D02*
X889Y229D01*
X926Y229D02*
X944Y229D01*
X970Y229D02*
X989Y229D01*
X1026Y229D02*
X1044Y229D01*
X1070Y229D02*
X1089Y229D01*
X1126Y229D02*
X1144Y229D01*
X1170Y229D02*
X1189Y229D01*
X1226Y229D02*
X1244Y229D01*
X1270Y229D02*
X1289Y229D01*
X1326Y229D02*
X1344Y229D01*
X1370Y229D02*
X1389Y229D01*
X1426Y229D02*
X1444Y229D01*
X1470Y229D02*
X1489Y229D01*
X1526Y229D02*
X1544Y229D01*
X1570Y229D02*
X1589Y229D01*
X1626Y229D02*
X1644Y229D01*
X1670Y229D02*
X1689Y229D01*
X1726Y229D02*
X1744Y229D01*
X1770Y229D02*
X1789Y229D01*
X1826Y229D02*
X1844Y229D01*
X1870Y229D02*
X1889Y229D01*
X1926Y229D02*
X1944Y229D01*
X1970Y229D02*
X1989Y229D01*
X2025Y229D02*
X2043Y229D01*
X2070Y229D02*
X2088Y229D01*
X126Y228D02*
X145Y228D01*
X170Y228D02*
X189Y228D01*
X226Y228D02*
X245Y228D01*
X270Y228D02*
X289Y228D01*
X326Y228D02*
X345Y228D01*
X370Y228D02*
X389Y228D01*
X426Y228D02*
X445Y228D01*
X470Y228D02*
X489Y228D01*
X526Y228D02*
X545Y228D01*
X570Y228D02*
X589Y228D01*
X626Y228D02*
X645Y228D01*
X670Y228D02*
X689Y228D01*
X726Y228D02*
X745Y228D01*
X770Y228D02*
X789Y228D01*
X826Y228D02*
X845Y228D01*
X870Y228D02*
X889Y228D01*
X926Y228D02*
X945Y228D01*
X970Y228D02*
X989Y228D01*
X1026Y228D02*
X1045Y228D01*
X1070Y228D02*
X1089Y228D01*
X1126Y228D02*
X1145Y228D01*
X1170Y228D02*
X1189Y228D01*
X1226Y228D02*
X1245Y228D01*
X1270Y228D02*
X1289Y228D01*
X1326Y228D02*
X1345Y228D01*
X1370Y228D02*
X1389Y228D01*
X1426Y228D02*
X1445Y228D01*
X1470Y228D02*
X1489Y228D01*
X1526Y228D02*
X1544Y228D01*
X1570Y228D02*
X1589Y228D01*
X1626Y228D02*
X1644Y228D01*
X1670Y228D02*
X1689Y228D01*
X1726Y228D02*
X1744Y228D01*
X1770Y228D02*
X1789Y228D01*
X1826Y228D02*
X1844Y228D01*
X1870Y228D02*
X1889Y228D01*
X1926Y228D02*
X1944Y228D01*
X1970Y228D02*
X1989Y228D01*
X2025Y228D02*
X2044Y228D01*
X2069Y228D02*
X2088Y228D01*
X126Y227D02*
X145Y227D01*
X169Y227D02*
X189Y227D01*
X226Y227D02*
X245Y227D01*
X269Y227D02*
X289Y227D01*
X326Y227D02*
X345Y227D01*
X369Y227D02*
X389Y227D01*
X426Y227D02*
X445Y227D01*
X469Y227D02*
X489Y227D01*
X526Y227D02*
X545Y227D01*
X569Y227D02*
X589Y227D01*
X626Y227D02*
X645Y227D01*
X669Y227D02*
X689Y227D01*
X726Y227D02*
X745Y227D01*
X769Y227D02*
X789Y227D01*
X826Y227D02*
X845Y227D01*
X869Y227D02*
X889Y227D01*
X926Y227D02*
X945Y227D01*
X969Y227D02*
X989Y227D01*
X1026Y227D02*
X1045Y227D01*
X1069Y227D02*
X1089Y227D01*
X1126Y227D02*
X1145Y227D01*
X1169Y227D02*
X1189Y227D01*
X1226Y227D02*
X1245Y227D01*
X1269Y227D02*
X1289Y227D01*
X1326Y227D02*
X1345Y227D01*
X1369Y227D02*
X1389Y227D01*
X1426Y227D02*
X1445Y227D01*
X1469Y227D02*
X1489Y227D01*
X1526Y227D02*
X1545Y227D01*
X1569Y227D02*
X1589Y227D01*
X1626Y227D02*
X1645Y227D01*
X1669Y227D02*
X1689Y227D01*
X1726Y227D02*
X1745Y227D01*
X1769Y227D02*
X1789Y227D01*
X1826Y227D02*
X1845Y227D01*
X1869Y227D02*
X1889Y227D01*
X1926Y227D02*
X1945Y227D01*
X1969Y227D02*
X1989Y227D01*
X2025Y227D02*
X2045Y227D01*
X2069Y227D02*
X2088Y227D01*
X126Y226D02*
X146Y226D01*
X168Y226D02*
X189Y226D01*
X226Y226D02*
X246Y226D01*
X268Y226D02*
X289Y226D01*
X326Y226D02*
X346Y226D01*
X368Y226D02*
X389Y226D01*
X426Y226D02*
X446Y226D01*
X468Y226D02*
X489Y226D01*
X526Y226D02*
X546Y226D01*
X568Y226D02*
X589Y226D01*
X626Y226D02*
X646Y226D01*
X668Y226D02*
X689Y226D01*
X726Y226D02*
X746Y226D01*
X768Y226D02*
X789Y226D01*
X826Y226D02*
X846Y226D01*
X868Y226D02*
X889Y226D01*
X926Y226D02*
X946Y226D01*
X968Y226D02*
X989Y226D01*
X1026Y226D02*
X1046Y226D01*
X1068Y226D02*
X1089Y226D01*
X1126Y226D02*
X1146Y226D01*
X1168Y226D02*
X1189Y226D01*
X1226Y226D02*
X1246Y226D01*
X1268Y226D02*
X1289Y226D01*
X1326Y226D02*
X1346Y226D01*
X1368Y226D02*
X1389Y226D01*
X1426Y226D02*
X1446Y226D01*
X1468Y226D02*
X1489Y226D01*
X1526Y226D02*
X1546Y226D01*
X1568Y226D02*
X1589Y226D01*
X1626Y226D02*
X1646Y226D01*
X1668Y226D02*
X1689Y226D01*
X1726Y226D02*
X1746Y226D01*
X1768Y226D02*
X1789Y226D01*
X1826Y226D02*
X1846Y226D01*
X1868Y226D02*
X1889Y226D01*
X1926Y226D02*
X1946Y226D01*
X1968Y226D02*
X1989Y226D01*
X2025Y226D02*
X2045Y226D01*
X2068Y226D02*
X2088Y226D01*
X126Y225D02*
X147Y225D01*
X168Y225D02*
X189Y225D01*
X226Y225D02*
X247Y225D01*
X268Y225D02*
X289Y225D01*
X326Y225D02*
X347Y225D01*
X368Y225D02*
X389Y225D01*
X426Y225D02*
X447Y225D01*
X468Y225D02*
X489Y225D01*
X526Y225D02*
X547Y225D01*
X568Y225D02*
X589Y225D01*
X626Y225D02*
X647Y225D01*
X668Y225D02*
X689Y225D01*
X726Y225D02*
X747Y225D01*
X768Y225D02*
X789Y225D01*
X826Y225D02*
X847Y225D01*
X867Y225D02*
X889Y225D01*
X926Y225D02*
X947Y225D01*
X967Y225D02*
X989Y225D01*
X1026Y225D02*
X1047Y225D01*
X1067Y225D02*
X1089Y225D01*
X1126Y225D02*
X1147Y225D01*
X1167Y225D02*
X1189Y225D01*
X1226Y225D02*
X1247Y225D01*
X1267Y225D02*
X1289Y225D01*
X1326Y225D02*
X1347Y225D01*
X1367Y225D02*
X1389Y225D01*
X1426Y225D02*
X1447Y225D01*
X1467Y225D02*
X1489Y225D01*
X1526Y225D02*
X1547Y225D01*
X1567Y225D02*
X1589Y225D01*
X1626Y225D02*
X1647Y225D01*
X1667Y225D02*
X1689Y225D01*
X1726Y225D02*
X1747Y225D01*
X1767Y225D02*
X1789Y225D01*
X1826Y225D02*
X1847Y225D01*
X1867Y225D02*
X1889Y225D01*
X1926Y225D02*
X1947Y225D01*
X1967Y225D02*
X1989Y225D01*
X2025Y225D02*
X2046Y225D01*
X2067Y225D02*
X2088Y225D01*
X126Y224D02*
X148Y224D01*
X166Y224D02*
X189Y224D01*
X226Y224D02*
X248Y224D01*
X266Y224D02*
X289Y224D01*
X326Y224D02*
X348Y224D01*
X366Y224D02*
X389Y224D01*
X426Y224D02*
X448Y224D01*
X466Y224D02*
X489Y224D01*
X526Y224D02*
X548Y224D01*
X566Y224D02*
X589Y224D01*
X626Y224D02*
X648Y224D01*
X666Y224D02*
X689Y224D01*
X726Y224D02*
X748Y224D01*
X766Y224D02*
X789Y224D01*
X826Y224D02*
X848Y224D01*
X866Y224D02*
X889Y224D01*
X926Y224D02*
X948Y224D01*
X966Y224D02*
X989Y224D01*
X1026Y224D02*
X1048Y224D01*
X1066Y224D02*
X1089Y224D01*
X1126Y224D02*
X1148Y224D01*
X1166Y224D02*
X1189Y224D01*
X1226Y224D02*
X1248Y224D01*
X1266Y224D02*
X1289Y224D01*
X1326Y224D02*
X1348Y224D01*
X1366Y224D02*
X1389Y224D01*
X1426Y224D02*
X1448Y224D01*
X1466Y224D02*
X1489Y224D01*
X1526Y224D02*
X1548Y224D01*
X1566Y224D02*
X1589Y224D01*
X1626Y224D02*
X1648Y224D01*
X1666Y224D02*
X1689Y224D01*
X1726Y224D02*
X1748Y224D01*
X1766Y224D02*
X1789Y224D01*
X1826Y224D02*
X1848Y224D01*
X1866Y224D02*
X1889Y224D01*
X1926Y224D02*
X1948Y224D01*
X1966Y224D02*
X1989Y224D01*
X2025Y224D02*
X2048Y224D01*
X2066Y224D02*
X2088Y224D01*
X126Y223D02*
X149Y223D01*
X165Y223D02*
X189Y223D01*
X226Y223D02*
X249Y223D01*
X265Y223D02*
X289Y223D01*
X326Y223D02*
X349Y223D01*
X365Y223D02*
X389Y223D01*
X426Y223D02*
X449Y223D01*
X465Y223D02*
X489Y223D01*
X526Y223D02*
X549Y223D01*
X565Y223D02*
X589Y223D01*
X626Y223D02*
X649Y223D01*
X665Y223D02*
X689Y223D01*
X726Y223D02*
X749Y223D01*
X765Y223D02*
X789Y223D01*
X826Y223D02*
X849Y223D01*
X865Y223D02*
X889Y223D01*
X926Y223D02*
X949Y223D01*
X965Y223D02*
X989Y223D01*
X1026Y223D02*
X1049Y223D01*
X1065Y223D02*
X1089Y223D01*
X1126Y223D02*
X1149Y223D01*
X1165Y223D02*
X1189Y223D01*
X1226Y223D02*
X1249Y223D01*
X1265Y223D02*
X1289Y223D01*
X1326Y223D02*
X1349Y223D01*
X1365Y223D02*
X1389Y223D01*
X1426Y223D02*
X1449Y223D01*
X1465Y223D02*
X1489Y223D01*
X1526Y223D02*
X1549Y223D01*
X1565Y223D02*
X1589Y223D01*
X1626Y223D02*
X1649Y223D01*
X1665Y223D02*
X1689Y223D01*
X1726Y223D02*
X1749Y223D01*
X1765Y223D02*
X1789Y223D01*
X1826Y223D02*
X1849Y223D01*
X1865Y223D02*
X1889Y223D01*
X1926Y223D02*
X1949Y223D01*
X1965Y223D02*
X1989Y223D01*
X2025Y223D02*
X2049Y223D01*
X2064Y223D02*
X2088Y223D01*
X126Y222D02*
X151Y222D01*
X163Y222D02*
X189Y222D01*
X226Y222D02*
X251Y222D01*
X263Y222D02*
X289Y222D01*
X326Y222D02*
X351Y222D01*
X363Y222D02*
X389Y222D01*
X426Y222D02*
X451Y222D01*
X463Y222D02*
X489Y222D01*
X526Y222D02*
X551Y222D01*
X563Y222D02*
X589Y222D01*
X626Y222D02*
X651Y222D01*
X663Y222D02*
X689Y222D01*
X726Y222D02*
X751Y222D01*
X763Y222D02*
X789Y222D01*
X826Y222D02*
X851Y222D01*
X863Y222D02*
X889Y222D01*
X926Y222D02*
X951Y222D01*
X963Y222D02*
X989Y222D01*
X1026Y222D02*
X1051Y222D01*
X1063Y222D02*
X1089Y222D01*
X1126Y222D02*
X1151Y222D01*
X1163Y222D02*
X1189Y222D01*
X1226Y222D02*
X1251Y222D01*
X1263Y222D02*
X1289Y222D01*
X1326Y222D02*
X1351Y222D01*
X1363Y222D02*
X1389Y222D01*
X1426Y222D02*
X1451Y222D01*
X1463Y222D02*
X1489Y222D01*
X1526Y222D02*
X1551Y222D01*
X1563Y222D02*
X1589Y222D01*
X1626Y222D02*
X1651Y222D01*
X1663Y222D02*
X1689Y222D01*
X1726Y222D02*
X1751Y222D01*
X1763Y222D02*
X1789Y222D01*
X1826Y222D02*
X1851Y222D01*
X1863Y222D02*
X1889Y222D01*
X1926Y222D02*
X1951Y222D01*
X1963Y222D02*
X1989Y222D01*
X2025Y222D02*
X2051Y222D01*
X2063Y222D02*
X2088Y222D01*
X126Y221D02*
X189Y221D01*
X226Y221D02*
X289Y221D01*
X326Y221D02*
X389Y221D01*
X426Y221D02*
X489Y221D01*
X526Y221D02*
X589Y221D01*
X626Y221D02*
X689Y221D01*
X726Y221D02*
X756Y221D01*
X758Y221D02*
X789Y221D01*
X826Y221D02*
X856Y221D01*
X858Y221D02*
X889Y221D01*
X926Y221D02*
X956Y221D01*
X958Y221D02*
X989Y221D01*
X1026Y221D02*
X1056Y221D01*
X1058Y221D02*
X1089Y221D01*
X1126Y221D02*
X1189Y221D01*
X1226Y221D02*
X1256Y221D01*
X1258Y221D02*
X1289Y221D01*
X1326Y221D02*
X1356Y221D01*
X1358Y221D02*
X1389Y221D01*
X1426Y221D02*
X1456Y221D01*
X1458Y221D02*
X1489Y221D01*
X1526Y221D02*
X1556Y221D01*
X1558Y221D02*
X1589Y221D01*
X1626Y221D02*
X1689Y221D01*
X1726Y221D02*
X1756Y221D01*
X1758Y221D02*
X1789Y221D01*
X1826Y221D02*
X1889Y221D01*
X1926Y221D02*
X1956Y221D01*
X1958Y221D02*
X1989Y221D01*
X2025Y221D02*
X2088Y221D01*
X126Y220D02*
X189Y220D01*
X226Y220D02*
X289Y220D01*
X326Y220D02*
X389Y220D01*
X426Y220D02*
X489Y220D01*
X526Y220D02*
X589Y220D01*
X626Y220D02*
X689Y220D01*
X726Y220D02*
X789Y220D01*
X826Y220D02*
X889Y220D01*
X926Y220D02*
X989Y220D01*
X1026Y220D02*
X1089Y220D01*
X1126Y220D02*
X1189Y220D01*
X1226Y220D02*
X1289Y220D01*
X1326Y220D02*
X1389Y220D01*
X1426Y220D02*
X1489Y220D01*
X1526Y220D02*
X1589Y220D01*
X1626Y220D02*
X1689Y220D01*
X1726Y220D02*
X1789Y220D01*
X1826Y220D02*
X1889Y220D01*
X1926Y220D02*
X1989Y220D01*
X2025Y220D02*
X2088Y220D01*
X126Y219D02*
X189Y219D01*
X226Y219D02*
X289Y219D01*
X326Y219D02*
X389Y219D01*
X426Y219D02*
X489Y219D01*
X526Y219D02*
X589Y219D01*
X626Y219D02*
X689Y219D01*
X726Y219D02*
X789Y219D01*
X826Y219D02*
X889Y219D01*
X926Y219D02*
X989Y219D01*
X1026Y219D02*
X1089Y219D01*
X1126Y219D02*
X1189Y219D01*
X1226Y219D02*
X1289Y219D01*
X1326Y219D02*
X1389Y219D01*
X1426Y219D02*
X1489Y219D01*
X1526Y219D02*
X1589Y219D01*
X1626Y219D02*
X1689Y219D01*
X1726Y219D02*
X1789Y219D01*
X1826Y219D02*
X1889Y219D01*
X1926Y219D02*
X1989Y219D01*
X2025Y219D02*
X2088Y219D01*
X126Y218D02*
X189Y218D01*
X226Y218D02*
X289Y218D01*
X326Y218D02*
X389Y218D01*
X426Y218D02*
X489Y218D01*
X526Y218D02*
X589Y218D01*
X626Y218D02*
X689Y218D01*
X726Y218D02*
X789Y218D01*
X826Y218D02*
X889Y218D01*
X926Y218D02*
X989Y218D01*
X1026Y218D02*
X1089Y218D01*
X1126Y218D02*
X1189Y218D01*
X1226Y218D02*
X1289Y218D01*
X1326Y218D02*
X1389Y218D01*
X1426Y218D02*
X1489Y218D01*
X1526Y218D02*
X1589Y218D01*
X1626Y218D02*
X1689Y218D01*
X1726Y218D02*
X1789Y218D01*
X1826Y218D02*
X1889Y218D01*
X1926Y218D02*
X1989Y218D01*
X2025Y218D02*
X2088Y218D01*
X126Y217D02*
X189Y217D01*
X226Y217D02*
X289Y217D01*
X326Y217D02*
X389Y217D01*
X426Y217D02*
X489Y217D01*
X526Y217D02*
X589Y217D01*
X626Y217D02*
X689Y217D01*
X726Y217D02*
X789Y217D01*
X826Y217D02*
X889Y217D01*
X926Y217D02*
X989Y217D01*
X1026Y217D02*
X1089Y217D01*
X1126Y217D02*
X1189Y217D01*
X1226Y217D02*
X1289Y217D01*
X1326Y217D02*
X1389Y217D01*
X1426Y217D02*
X1489Y217D01*
X1526Y217D02*
X1589Y217D01*
X1626Y217D02*
X1689Y217D01*
X1726Y217D02*
X1789Y217D01*
X1826Y217D02*
X1889Y217D01*
X1926Y217D02*
X1989Y217D01*
X2025Y217D02*
X2088Y217D01*
X126Y216D02*
X189Y216D01*
X226Y216D02*
X289Y216D01*
X326Y216D02*
X389Y216D01*
X426Y216D02*
X489Y216D01*
X526Y216D02*
X589Y216D01*
X626Y216D02*
X689Y216D01*
X726Y216D02*
X789Y216D01*
X826Y216D02*
X889Y216D01*
X926Y216D02*
X989Y216D01*
X1026Y216D02*
X1089Y216D01*
X1126Y216D02*
X1189Y216D01*
X1226Y216D02*
X1289Y216D01*
X1326Y216D02*
X1389Y216D01*
X1426Y216D02*
X1489Y216D01*
X1526Y216D02*
X1589Y216D01*
X1626Y216D02*
X1689Y216D01*
X1726Y216D02*
X1789Y216D01*
X1826Y216D02*
X1889Y216D01*
X1926Y216D02*
X1989Y216D01*
X2025Y216D02*
X2088Y216D01*
X126Y215D02*
X189Y215D01*
X226Y215D02*
X289Y215D01*
X326Y215D02*
X389Y215D01*
X426Y215D02*
X489Y215D01*
X526Y215D02*
X589Y215D01*
X626Y215D02*
X689Y215D01*
X726Y215D02*
X789Y215D01*
X826Y215D02*
X889Y215D01*
X926Y215D02*
X989Y215D01*
X1026Y215D02*
X1089Y215D01*
X1126Y215D02*
X1189Y215D01*
X1226Y215D02*
X1289Y215D01*
X1326Y215D02*
X1389Y215D01*
X1426Y215D02*
X1489Y215D01*
X1526Y215D02*
X1589Y215D01*
X1626Y215D02*
X1689Y215D01*
X1726Y215D02*
X1789Y215D01*
X1826Y215D02*
X1889Y215D01*
X1926Y215D02*
X1989Y215D01*
X2025Y215D02*
X2088Y215D01*
X126Y214D02*
X189Y214D01*
X226Y214D02*
X289Y214D01*
X326Y214D02*
X389Y214D01*
X426Y214D02*
X489Y214D01*
X526Y214D02*
X589Y214D01*
X626Y214D02*
X689Y214D01*
X726Y214D02*
X789Y214D01*
X826Y214D02*
X889Y214D01*
X926Y214D02*
X989Y214D01*
X1026Y214D02*
X1089Y214D01*
X1126Y214D02*
X1189Y214D01*
X1226Y214D02*
X1289Y214D01*
X1326Y214D02*
X1389Y214D01*
X1426Y214D02*
X1489Y214D01*
X1526Y214D02*
X1589Y214D01*
X1626Y214D02*
X1689Y214D01*
X1726Y214D02*
X1789Y214D01*
X1826Y214D02*
X1889Y214D01*
X1926Y214D02*
X1989Y214D01*
X2025Y214D02*
X2088Y214D01*
X126Y213D02*
X189Y213D01*
X226Y213D02*
X289Y213D01*
X326Y213D02*
X389Y213D01*
X426Y213D02*
X489Y213D01*
X526Y213D02*
X589Y213D01*
X626Y213D02*
X689Y213D01*
X726Y213D02*
X789Y213D01*
X826Y213D02*
X889Y213D01*
X926Y213D02*
X989Y213D01*
X1026Y213D02*
X1089Y213D01*
X1126Y213D02*
X1189Y213D01*
X1226Y213D02*
X1289Y213D01*
X1326Y213D02*
X1389Y213D01*
X1426Y213D02*
X1489Y213D01*
X1526Y213D02*
X1589Y213D01*
X1626Y213D02*
X1689Y213D01*
X1726Y213D02*
X1789Y213D01*
X1826Y213D02*
X1889Y213D01*
X1926Y213D02*
X1989Y213D01*
X2025Y213D02*
X2088Y213D01*
X126Y212D02*
X189Y212D01*
X226Y212D02*
X289Y212D01*
X326Y212D02*
X389Y212D01*
X426Y212D02*
X489Y212D01*
X526Y212D02*
X589Y212D01*
X626Y212D02*
X689Y212D01*
X726Y212D02*
X788Y212D01*
X826Y212D02*
X888Y212D01*
X926Y212D02*
X988Y212D01*
X1026Y212D02*
X1088Y212D01*
X1126Y212D02*
X1188Y212D01*
X1226Y212D02*
X1288Y212D01*
X1326Y212D02*
X1388Y212D01*
X1426Y212D02*
X1488Y212D01*
X1526Y212D02*
X1588Y212D01*
X1626Y212D02*
X1688Y212D01*
X1726Y212D02*
X1788Y212D01*
X1826Y212D02*
X1888Y212D01*
X1926Y212D02*
X1988Y212D01*
X2025Y212D02*
X2088Y212D01*
X126Y211D02*
X188Y211D01*
X226Y211D02*
X288Y211D01*
X326Y211D02*
X388Y211D01*
X426Y211D02*
X488Y211D01*
X526Y211D02*
X588Y211D01*
X626Y211D02*
X688Y211D01*
X726Y211D02*
X788Y211D01*
X826Y211D02*
X888Y211D01*
X926Y211D02*
X988Y211D01*
X1026Y211D02*
X1088Y211D01*
X1126Y211D02*
X1188Y211D01*
X1226Y211D02*
X1288Y211D01*
X1326Y211D02*
X1388Y211D01*
X1426Y211D02*
X1488Y211D01*
X1526Y211D02*
X1588Y211D01*
X1626Y211D02*
X1688Y211D01*
X1726Y211D02*
X1788Y211D01*
X1826Y211D02*
X1888Y211D01*
X1926Y211D02*
X1988Y211D01*
X2026Y211D02*
X2088Y211D01*
X126Y210D02*
X188Y210D01*
X226Y210D02*
X288Y210D01*
X326Y210D02*
X388Y210D01*
X426Y210D02*
X488Y210D01*
X526Y210D02*
X588Y210D01*
X626Y210D02*
X688Y210D01*
X726Y210D02*
X788Y210D01*
X826Y210D02*
X888Y210D01*
X926Y210D02*
X988Y210D01*
X1026Y210D02*
X1088Y210D01*
X1126Y210D02*
X1188Y210D01*
X1226Y210D02*
X1288Y210D01*
X1326Y210D02*
X1388Y210D01*
X1426Y210D02*
X1488Y210D01*
X1526Y210D02*
X1588Y210D01*
X1626Y210D02*
X1688Y210D01*
X1726Y210D02*
X1788Y210D01*
X1826Y210D02*
X1888Y210D01*
X1926Y210D02*
X1988Y210D01*
X2026Y210D02*
X2087Y210D01*
X127Y209D02*
X188Y209D01*
X227Y209D02*
X288Y209D01*
X327Y209D02*
X388Y209D01*
X427Y209D02*
X488Y209D01*
X527Y209D02*
X588Y209D01*
X627Y209D02*
X688Y209D01*
X727Y209D02*
X788Y209D01*
X827Y209D02*
X888Y209D01*
X927Y209D02*
X988Y209D01*
X1027Y209D02*
X1088Y209D01*
X1127Y209D02*
X1188Y209D01*
X1227Y209D02*
X1288Y209D01*
X1327Y209D02*
X1388Y209D01*
X1427Y209D02*
X1488Y209D01*
X1527Y209D02*
X1588Y209D01*
X1627Y209D02*
X1688Y209D01*
X1727Y209D02*
X1788Y209D01*
X1827Y209D02*
X1888Y209D01*
X1927Y209D02*
X1988Y209D01*
X2026Y209D02*
X2087Y209D01*
X127Y208D02*
X187Y208D01*
X227Y208D02*
X287Y208D01*
X327Y208D02*
X387Y208D01*
X427Y208D02*
X487Y208D01*
X527Y208D02*
X587Y208D01*
X627Y208D02*
X687Y208D01*
X727Y208D02*
X787Y208D01*
X827Y208D02*
X887Y208D01*
X927Y208D02*
X987Y208D01*
X1027Y208D02*
X1087Y208D01*
X1127Y208D02*
X1187Y208D01*
X1227Y208D02*
X1287Y208D01*
X1327Y208D02*
X1387Y208D01*
X1427Y208D02*
X1487Y208D01*
X1527Y208D02*
X1587Y208D01*
X1627Y208D02*
X1687Y208D01*
X1727Y208D02*
X1787Y208D01*
X1827Y208D02*
X1887Y208D01*
X1927Y208D02*
X1987Y208D01*
X2027Y208D02*
X2087Y208D01*
X128Y207D02*
X187Y207D01*
X228Y207D02*
X287Y207D01*
X328Y207D02*
X387Y207D01*
X427Y207D02*
X487Y207D01*
X527Y207D02*
X587Y207D01*
X627Y207D02*
X687Y207D01*
X727Y207D02*
X787Y207D01*
X827Y207D02*
X887Y207D01*
X927Y207D02*
X987Y207D01*
X1027Y207D02*
X1087Y207D01*
X1127Y207D02*
X1187Y207D01*
X1227Y207D02*
X1287Y207D01*
X1327Y207D02*
X1387Y207D01*
X1427Y207D02*
X1487Y207D01*
X1527Y207D02*
X1587Y207D01*
X1627Y207D02*
X1687Y207D01*
X1727Y207D02*
X1787Y207D01*
X1827Y207D02*
X1887Y207D01*
X1927Y207D02*
X1987Y207D01*
X2027Y207D02*
X2086Y207D01*
X128Y206D02*
X187Y206D01*
X228Y206D02*
X287Y206D01*
X328Y206D02*
X387Y206D01*
X428Y206D02*
X487Y206D01*
X528Y206D02*
X587Y206D01*
X628Y206D02*
X687Y206D01*
X728Y206D02*
X787Y206D01*
X828Y206D02*
X887Y206D01*
X928Y206D02*
X987Y206D01*
X1028Y206D02*
X1087Y206D01*
X1128Y206D02*
X1186Y206D01*
X1228Y206D02*
X1286Y206D01*
X1328Y206D02*
X1386Y206D01*
X1428Y206D02*
X1486Y206D01*
X1528Y206D02*
X1586Y206D01*
X1628Y206D02*
X1686Y206D01*
X1728Y206D02*
X1786Y206D01*
X1828Y206D02*
X1886Y206D01*
X1928Y206D02*
X1986Y206D01*
X2027Y206D02*
X2086Y206D01*
X129Y205D02*
X186Y205D01*
X229Y205D02*
X286Y205D01*
X328Y205D02*
X386Y205D01*
X428Y205D02*
X486Y205D01*
X528Y205D02*
X586Y205D01*
X628Y205D02*
X686Y205D01*
X728Y205D02*
X786Y205D01*
X828Y205D02*
X886Y205D01*
X928Y205D02*
X986Y205D01*
X1028Y205D02*
X1086Y205D01*
X1128Y205D02*
X1186Y205D01*
X1228Y205D02*
X1286Y205D01*
X1328Y205D02*
X1386Y205D01*
X1428Y205D02*
X1486Y205D01*
X1528Y205D02*
X1586Y205D01*
X1628Y205D02*
X1686Y205D01*
X1728Y205D02*
X1786Y205D01*
X1828Y205D02*
X1886Y205D01*
X1928Y205D02*
X1986Y205D01*
X2028Y205D02*
X2085Y205D01*
X129Y204D02*
X185Y204D01*
X229Y204D02*
X285Y204D01*
X329Y204D02*
X385Y204D01*
X429Y204D02*
X485Y204D01*
X529Y204D02*
X585Y204D01*
X629Y204D02*
X685Y204D01*
X729Y204D02*
X785Y204D01*
X829Y204D02*
X885Y204D01*
X929Y204D02*
X985Y204D01*
X1029Y204D02*
X1085Y204D01*
X1129Y204D02*
X1185Y204D01*
X1229Y204D02*
X1285Y204D01*
X1329Y204D02*
X1385Y204D01*
X1429Y204D02*
X1485Y204D01*
X1529Y204D02*
X1585Y204D01*
X1629Y204D02*
X1685Y204D01*
X1729Y204D02*
X1785Y204D01*
X1829Y204D02*
X1885Y204D01*
X1929Y204D02*
X1985Y204D01*
X2028Y204D02*
X2085Y204D01*
X130Y203D02*
X185Y203D01*
X230Y203D02*
X285Y203D01*
X330Y203D02*
X385Y203D01*
X430Y203D02*
X485Y203D01*
X530Y203D02*
X585Y203D01*
X630Y203D02*
X685Y203D01*
X730Y203D02*
X785Y203D01*
X830Y203D02*
X885Y203D01*
X930Y203D02*
X985Y203D01*
X1030Y203D02*
X1085Y203D01*
X1130Y203D02*
X1185Y203D01*
X1230Y203D02*
X1285Y203D01*
X1330Y203D02*
X1385Y203D01*
X1430Y203D02*
X1485Y203D01*
X1530Y203D02*
X1585Y203D01*
X1630Y203D02*
X1685Y203D01*
X1730Y203D02*
X1785Y203D01*
X1830Y203D02*
X1885Y203D01*
X1930Y203D02*
X1985Y203D01*
X2029Y203D02*
X2084Y203D01*
X130Y202D02*
X184Y202D01*
X230Y202D02*
X284Y202D01*
X330Y202D02*
X384Y202D01*
X430Y202D02*
X484Y202D01*
X530Y202D02*
X584Y202D01*
X630Y202D02*
X684Y202D01*
X730Y202D02*
X784Y202D01*
X830Y202D02*
X884Y202D01*
X930Y202D02*
X984Y202D01*
X1030Y202D02*
X1084Y202D01*
X1130Y202D02*
X1184Y202D01*
X1230Y202D02*
X1284Y202D01*
X1330Y202D02*
X1384Y202D01*
X1430Y202D02*
X1484Y202D01*
X1530Y202D02*
X1584Y202D01*
X1630Y202D02*
X1684Y202D01*
X1730Y202D02*
X1784Y202D01*
X1830Y202D02*
X1884Y202D01*
X1930Y202D02*
X1984Y202D01*
X2030Y202D02*
X2083Y202D01*
X131Y201D02*
X183Y201D01*
X231Y201D02*
X283Y201D01*
X331Y201D02*
X383Y201D01*
X431Y201D02*
X483Y201D01*
X531Y201D02*
X583Y201D01*
X631Y201D02*
X683Y201D01*
X731Y201D02*
X783Y201D01*
X831Y201D02*
X883Y201D01*
X931Y201D02*
X983Y201D01*
X1031Y201D02*
X1083Y201D01*
X1131Y201D02*
X1183Y201D01*
X1231Y201D02*
X1283Y201D01*
X1331Y201D02*
X1383Y201D01*
X1431Y201D02*
X1483Y201D01*
X1531Y201D02*
X1583Y201D01*
X1631Y201D02*
X1683Y201D01*
X1731Y201D02*
X1783Y201D01*
X1831Y201D02*
X1883Y201D01*
X1931Y201D02*
X1983Y201D01*
X2031Y201D02*
X2083Y201D01*
X132Y200D02*
X182Y200D01*
X232Y200D02*
X282Y200D01*
X332Y200D02*
X382Y200D01*
X432Y200D02*
X482Y200D01*
X532Y200D02*
X582Y200D01*
X632Y200D02*
X682Y200D01*
X732Y200D02*
X782Y200D01*
X832Y200D02*
X882Y200D01*
X932Y200D02*
X982Y200D01*
X1032Y200D02*
X1082Y200D01*
X1132Y200D02*
X1182Y200D01*
X1232Y200D02*
X1282Y200D01*
X1332Y200D02*
X1382Y200D01*
X1432Y200D02*
X1482Y200D01*
X1532Y200D02*
X1582Y200D01*
X1632Y200D02*
X1682Y200D01*
X1732Y200D02*
X1782Y200D01*
X1832Y200D02*
X1882Y200D01*
X1932Y200D02*
X1982Y200D01*
X2032Y200D02*
X2082Y200D01*
X133Y199D02*
X181Y199D01*
X233Y199D02*
X281Y199D01*
X333Y199D02*
X381Y199D01*
X433Y199D02*
X481Y199D01*
X533Y199D02*
X581Y199D01*
X633Y199D02*
X681Y199D01*
X733Y199D02*
X781Y199D01*
X833Y199D02*
X881Y199D01*
X933Y199D02*
X981Y199D01*
X1033Y199D02*
X1081Y199D01*
X1133Y199D02*
X1181Y199D01*
X1233Y199D02*
X1281Y199D01*
X1333Y199D02*
X1381Y199D01*
X1433Y199D02*
X1481Y199D01*
X1533Y199D02*
X1581Y199D01*
X1633Y199D02*
X1681Y199D01*
X1733Y199D02*
X1781Y199D01*
X1833Y199D02*
X1881Y199D01*
X1933Y199D02*
X1981Y199D01*
X2032Y199D02*
X2081Y199D01*
X134Y198D02*
X180Y198D01*
X234Y198D02*
X280Y198D01*
X334Y198D02*
X380Y198D01*
X434Y198D02*
X480Y198D01*
X534Y198D02*
X580Y198D01*
X634Y198D02*
X680Y198D01*
X734Y198D02*
X780Y198D01*
X834Y198D02*
X880Y198D01*
X934Y198D02*
X980Y198D01*
X1034Y198D02*
X1080Y198D01*
X1134Y198D02*
X1180Y198D01*
X1234Y198D02*
X1280Y198D01*
X1334Y198D02*
X1380Y198D01*
X1434Y198D02*
X1480Y198D01*
X1534Y198D02*
X1580Y198D01*
X1634Y198D02*
X1680Y198D01*
X1734Y198D02*
X1780Y198D01*
X1834Y198D02*
X1880Y198D01*
X1934Y198D02*
X1980Y198D01*
X2034Y198D02*
X2080Y198D01*
X135Y197D02*
X179Y197D01*
X235Y197D02*
X279Y197D01*
X335Y197D02*
X379Y197D01*
X435Y197D02*
X479Y197D01*
X535Y197D02*
X579Y197D01*
X635Y197D02*
X679Y197D01*
X735Y197D02*
X779Y197D01*
X835Y197D02*
X879Y197D01*
X935Y197D02*
X979Y197D01*
X1035Y197D02*
X1079Y197D01*
X1135Y197D02*
X1179Y197D01*
X1235Y197D02*
X1279Y197D01*
X1335Y197D02*
X1379Y197D01*
X1435Y197D02*
X1479Y197D01*
X1535Y197D02*
X1579Y197D01*
X1635Y197D02*
X1679Y197D01*
X1735Y197D02*
X1779Y197D01*
X1835Y197D02*
X1879Y197D01*
X1935Y197D02*
X1979Y197D01*
X2035Y197D02*
X2079Y197D01*
X137Y196D02*
X178Y196D01*
X237Y196D02*
X278Y196D01*
X337Y196D02*
X378Y196D01*
X437Y196D02*
X478Y196D01*
X537Y196D02*
X578Y196D01*
X637Y196D02*
X678Y196D01*
X737Y196D02*
X778Y196D01*
X837Y196D02*
X878Y196D01*
X937Y196D02*
X978Y196D01*
X1037Y196D02*
X1078Y196D01*
X1137Y196D02*
X1178Y196D01*
X1237Y196D02*
X1278Y196D01*
X1337Y196D02*
X1378Y196D01*
X1437Y196D02*
X1478Y196D01*
X1537Y196D02*
X1578Y196D01*
X1637Y196D02*
X1678Y196D01*
X1737Y196D02*
X1778Y196D01*
X1837Y196D02*
X1878Y196D01*
X1937Y196D02*
X1978Y196D01*
X2036Y196D02*
X2077Y196D01*
X139Y195D02*
X176Y195D01*
X239Y195D02*
X276Y195D01*
X339Y195D02*
X376Y195D01*
X439Y195D02*
X476Y195D01*
X539Y195D02*
X576Y195D01*
X639Y195D02*
X676Y195D01*
X739Y195D02*
X776Y195D01*
X839Y195D02*
X876Y195D01*
X939Y195D02*
X976Y195D01*
X1039Y195D02*
X1076Y195D01*
X1138Y195D02*
X1176Y195D01*
X1238Y195D02*
X1276Y195D01*
X1338Y195D02*
X1376Y195D01*
X1438Y195D02*
X1476Y195D01*
X1538Y195D02*
X1576Y195D01*
X1638Y195D02*
X1676Y195D01*
X1738Y195D02*
X1776Y195D01*
X1838Y195D02*
X1876Y195D01*
X1938Y195D02*
X1976Y195D01*
X2038Y195D02*
X2075Y195D01*
X140Y194D02*
X174Y194D01*
X240Y194D02*
X274Y194D01*
X340Y194D02*
X374Y194D01*
X440Y194D02*
X474Y194D01*
X540Y194D02*
X574Y194D01*
X640Y194D02*
X674Y194D01*
X740Y194D02*
X774Y194D01*
X840Y194D02*
X874Y194D01*
X940Y194D02*
X974Y194D01*
X1040Y194D02*
X1074Y194D01*
X1140Y194D02*
X1174Y194D01*
X1240Y194D02*
X1274Y194D01*
X1340Y194D02*
X1374Y194D01*
X1440Y194D02*
X1474Y194D01*
X1540Y194D02*
X1574Y194D01*
X1640Y194D02*
X1674Y194D01*
X1740Y194D02*
X1774Y194D01*
X1840Y194D02*
X1874Y194D01*
X1940Y194D02*
X1974Y194D01*
X2040Y194D02*
X2074Y194D01*
X143Y193D02*
X172Y193D01*
X243Y193D02*
X272Y193D01*
X343Y193D02*
X372Y193D01*
X443Y193D02*
X472Y193D01*
X543Y193D02*
X572Y193D01*
X643Y193D02*
X672Y193D01*
X743Y193D02*
X772Y193D01*
X843Y193D02*
X872Y193D01*
X943Y193D02*
X972Y193D01*
X1043Y193D02*
X1072Y193D01*
X1143Y193D02*
X1172Y193D01*
X1243Y193D02*
X1272Y193D01*
X1343Y193D02*
X1372Y193D01*
X1443Y193D02*
X1472Y193D01*
X1543Y193D02*
X1572Y193D01*
X1643Y193D02*
X1672Y193D01*
X1743Y193D02*
X1772Y193D01*
X1843Y193D02*
X1872Y193D01*
X1943Y193D02*
X1972Y193D01*
X2042Y193D02*
X2071Y193D01*
X145Y192D02*
X169Y192D01*
X245Y192D02*
X269Y192D01*
X345Y192D02*
X369Y192D01*
X445Y192D02*
X469Y192D01*
X545Y192D02*
X569Y192D01*
X645Y192D02*
X669Y192D01*
X745Y192D02*
X769Y192D01*
X845Y192D02*
X869Y192D01*
X945Y192D02*
X969Y192D01*
X1045Y192D02*
X1069Y192D01*
X1145Y192D02*
X1169Y192D01*
X1245Y192D02*
X1269Y192D01*
X1345Y192D02*
X1369Y192D01*
X1445Y192D02*
X1469Y192D01*
X1545Y192D02*
X1569Y192D01*
X1645Y192D02*
X1669Y192D01*
X1745Y192D02*
X1769Y192D01*
X1845Y192D02*
X1869Y192D01*
X1945Y192D02*
X1969Y192D01*
X2045Y192D02*
X2069Y192D01*
X149Y191D02*
X165Y191D01*
X249Y191D02*
X265Y191D01*
X349Y191D02*
X365Y191D01*
X449Y191D02*
X465Y191D01*
X549Y191D02*
X565Y191D01*
X649Y191D02*
X665Y191D01*
X749Y191D02*
X765Y191D01*
X849Y191D02*
X865Y191D01*
X949Y191D02*
X965Y191D01*
X1049Y191D02*
X1065Y191D01*
X1149Y191D02*
X1165Y191D01*
X1249Y191D02*
X1265Y191D01*
X1349Y191D02*
X1365Y191D01*
X1449Y191D02*
X1465Y191D01*
X1549Y191D02*
X1565Y191D01*
X1649Y191D02*
X1665Y191D01*
X1749Y191D02*
X1765Y191D01*
X1849Y191D02*
X1865Y191D01*
X1949Y191D02*
X1965Y191D01*
X2048Y191D02*
X2065Y191D01*
X156Y190D02*
X159Y190D01*
X256Y190D02*
X259Y190D01*
X356Y190D02*
X359Y190D01*
X456Y190D02*
X459Y190D01*
X556Y190D02*
X559Y190D01*
X656Y190D02*
X659Y190D01*
X756Y190D02*
X759Y190D01*
X856Y190D02*
X859Y190D01*
X956Y190D02*
X959Y190D01*
X1056Y190D02*
X1059Y190D01*
X1156Y190D02*
X1159Y190D01*
X1256Y190D02*
X1259Y190D01*
X1356Y190D02*
X1359Y190D01*
X1456Y190D02*
X1459Y190D01*
X1556Y190D02*
X1559Y190D01*
X1656Y190D02*
X1659Y190D01*
X1756Y190D02*
X1759Y190D01*
X1856Y190D02*
X1859Y190D01*
X1956Y190D02*
X1959Y190D01*
X2055Y190D02*
X2058Y190D01*
X152Y179D02*
X162Y179D01*
X252Y179D02*
X262Y179D01*
X352Y179D02*
X362Y179D01*
X452Y179D02*
X462Y179D01*
X552Y179D02*
X562Y179D01*
X652Y179D02*
X662Y179D01*
X752Y179D02*
X762Y179D01*
X852Y179D02*
X862Y179D01*
X952Y179D02*
X962Y179D01*
X1052Y179D02*
X1062Y179D01*
X1152Y179D02*
X1162Y179D01*
X1252Y179D02*
X1262Y179D01*
X1352Y179D02*
X1362Y179D01*
X1452Y179D02*
X1462Y179D01*
X1552Y179D02*
X1562Y179D01*
X1652Y179D02*
X1662Y179D01*
X1752Y179D02*
X1762Y179D01*
X1852Y179D02*
X1862Y179D01*
X1952Y179D02*
X1962Y179D01*
X2051Y179D02*
X2062Y179D01*
X148Y178D02*
X167Y178D01*
X248Y178D02*
X267Y178D01*
X348Y178D02*
X367Y178D01*
X448Y178D02*
X467Y178D01*
X548Y178D02*
X567Y178D01*
X648Y178D02*
X667Y178D01*
X748Y178D02*
X767Y178D01*
X848Y178D02*
X867Y178D01*
X947Y178D02*
X967Y178D01*
X1047Y178D02*
X1067Y178D01*
X1147Y178D02*
X1167Y178D01*
X1247Y178D02*
X1267Y178D01*
X1347Y178D02*
X1367Y178D01*
X1447Y178D02*
X1467Y178D01*
X1547Y178D02*
X1567Y178D01*
X1647Y178D02*
X1667Y178D01*
X1747Y178D02*
X1767Y178D01*
X1847Y178D02*
X1867Y178D01*
X1947Y178D02*
X1967Y178D01*
X2047Y178D02*
X2066Y178D01*
X144Y177D02*
X170Y177D01*
X244Y177D02*
X270Y177D01*
X344Y177D02*
X370Y177D01*
X444Y177D02*
X470Y177D01*
X544Y177D02*
X570Y177D01*
X644Y177D02*
X670Y177D01*
X744Y177D02*
X770Y177D01*
X844Y177D02*
X870Y177D01*
X944Y177D02*
X970Y177D01*
X1044Y177D02*
X1070Y177D01*
X1144Y177D02*
X1170Y177D01*
X1244Y177D02*
X1270Y177D01*
X1344Y177D02*
X1370Y177D01*
X1444Y177D02*
X1470Y177D01*
X1544Y177D02*
X1570Y177D01*
X1644Y177D02*
X1670Y177D01*
X1744Y177D02*
X1770Y177D01*
X1844Y177D02*
X1870Y177D01*
X1944Y177D02*
X1970Y177D01*
X2044Y177D02*
X2070Y177D01*
X142Y176D02*
X173Y176D01*
X242Y176D02*
X273Y176D01*
X342Y176D02*
X373Y176D01*
X442Y176D02*
X473Y176D01*
X542Y176D02*
X573Y176D01*
X642Y176D02*
X673Y176D01*
X742Y176D02*
X773Y176D01*
X842Y176D02*
X873Y176D01*
X942Y176D02*
X973Y176D01*
X1042Y176D02*
X1073Y176D01*
X1142Y176D02*
X1173Y176D01*
X1242Y176D02*
X1273Y176D01*
X1342Y176D02*
X1373Y176D01*
X1442Y176D02*
X1473Y176D01*
X1542Y176D02*
X1573Y176D01*
X1642Y176D02*
X1673Y176D01*
X1742Y176D02*
X1773Y176D01*
X1842Y176D02*
X1873Y176D01*
X1942Y176D02*
X1973Y176D01*
X2041Y176D02*
X2072Y176D01*
X140Y175D02*
X175Y175D01*
X240Y175D02*
X275Y175D01*
X340Y175D02*
X375Y175D01*
X440Y175D02*
X475Y175D01*
X540Y175D02*
X575Y175D01*
X640Y175D02*
X675Y175D01*
X740Y175D02*
X775Y175D01*
X840Y175D02*
X875Y175D01*
X940Y175D02*
X975Y175D01*
X1040Y175D02*
X1075Y175D01*
X1140Y175D02*
X1175Y175D01*
X1240Y175D02*
X1275Y175D01*
X1340Y175D02*
X1375Y175D01*
X1440Y175D02*
X1475Y175D01*
X1540Y175D02*
X1575Y175D01*
X1640Y175D02*
X1675Y175D01*
X1740Y175D02*
X1775Y175D01*
X1839Y175D02*
X1875Y175D01*
X1939Y175D02*
X1975Y175D01*
X2039Y175D02*
X2074Y175D01*
X138Y174D02*
X177Y174D01*
X238Y174D02*
X277Y174D01*
X338Y174D02*
X377Y174D01*
X438Y174D02*
X477Y174D01*
X538Y174D02*
X577Y174D01*
X638Y174D02*
X676Y174D01*
X738Y174D02*
X776Y174D01*
X838Y174D02*
X876Y174D01*
X938Y174D02*
X976Y174D01*
X1038Y174D02*
X1076Y174D01*
X1138Y174D02*
X1176Y174D01*
X1238Y174D02*
X1276Y174D01*
X1338Y174D02*
X1376Y174D01*
X1438Y174D02*
X1476Y174D01*
X1538Y174D02*
X1576Y174D01*
X1638Y174D02*
X1676Y174D01*
X1738Y174D02*
X1776Y174D01*
X1838Y174D02*
X1876Y174D01*
X1938Y174D02*
X1976Y174D01*
X2037Y174D02*
X2076Y174D01*
X136Y173D02*
X178Y173D01*
X236Y173D02*
X278Y173D01*
X336Y173D02*
X378Y173D01*
X436Y173D02*
X478Y173D01*
X536Y173D02*
X578Y173D01*
X636Y173D02*
X678Y173D01*
X736Y173D02*
X778Y173D01*
X836Y173D02*
X878Y173D01*
X936Y173D02*
X978Y173D01*
X1036Y173D02*
X1078Y173D01*
X1136Y173D02*
X1178Y173D01*
X1236Y173D02*
X1278Y173D01*
X1336Y173D02*
X1378Y173D01*
X1436Y173D02*
X1478Y173D01*
X1536Y173D02*
X1578Y173D01*
X1636Y173D02*
X1678Y173D01*
X1736Y173D02*
X1778Y173D01*
X1836Y173D02*
X1878Y173D01*
X1936Y173D02*
X1978Y173D01*
X2036Y173D02*
X2078Y173D01*
X135Y172D02*
X180Y172D01*
X235Y172D02*
X280Y172D01*
X335Y172D02*
X380Y172D01*
X435Y172D02*
X480Y172D01*
X535Y172D02*
X580Y172D01*
X635Y172D02*
X680Y172D01*
X735Y172D02*
X780Y172D01*
X835Y172D02*
X880Y172D01*
X935Y172D02*
X980Y172D01*
X1035Y172D02*
X1080Y172D01*
X1135Y172D02*
X1179Y172D01*
X1235Y172D02*
X1279Y172D01*
X1335Y172D02*
X1379Y172D01*
X1435Y172D02*
X1479Y172D01*
X1535Y172D02*
X1579Y172D01*
X1635Y172D02*
X1679Y172D01*
X1735Y172D02*
X1779Y172D01*
X1835Y172D02*
X1879Y172D01*
X1935Y172D02*
X1979Y172D01*
X2034Y172D02*
X2079Y172D01*
X134Y171D02*
X181Y171D01*
X234Y171D02*
X281Y171D01*
X334Y171D02*
X381Y171D01*
X434Y171D02*
X481Y171D01*
X534Y171D02*
X581Y171D01*
X634Y171D02*
X681Y171D01*
X734Y171D02*
X781Y171D01*
X834Y171D02*
X881Y171D01*
X934Y171D02*
X981Y171D01*
X1034Y171D02*
X1081Y171D01*
X1134Y171D02*
X1181Y171D01*
X1234Y171D02*
X1281Y171D01*
X1334Y171D02*
X1381Y171D01*
X1434Y171D02*
X1481Y171D01*
X1534Y171D02*
X1581Y171D01*
X1634Y171D02*
X1681Y171D01*
X1734Y171D02*
X1781Y171D01*
X1834Y171D02*
X1881Y171D01*
X1934Y171D02*
X1981Y171D01*
X2033Y171D02*
X2080Y171D01*
X133Y170D02*
X182Y170D01*
X233Y170D02*
X282Y170D01*
X333Y170D02*
X382Y170D01*
X433Y170D02*
X482Y170D01*
X533Y170D02*
X582Y170D01*
X633Y170D02*
X682Y170D01*
X733Y170D02*
X782Y170D01*
X833Y170D02*
X882Y170D01*
X933Y170D02*
X982Y170D01*
X1033Y170D02*
X1082Y170D01*
X1133Y170D02*
X1182Y170D01*
X1233Y170D02*
X1282Y170D01*
X1333Y170D02*
X1382Y170D01*
X1433Y170D02*
X1482Y170D01*
X1533Y170D02*
X1582Y170D01*
X1633Y170D02*
X1682Y170D01*
X1733Y170D02*
X1782Y170D01*
X1833Y170D02*
X1882Y170D01*
X1933Y170D02*
X1982Y170D01*
X2032Y170D02*
X2081Y170D01*
X132Y169D02*
X183Y169D01*
X232Y169D02*
X283Y169D01*
X332Y169D02*
X383Y169D01*
X432Y169D02*
X483Y169D01*
X532Y169D02*
X583Y169D01*
X632Y169D02*
X683Y169D01*
X732Y169D02*
X783Y169D01*
X832Y169D02*
X883Y169D01*
X932Y169D02*
X983Y169D01*
X1032Y169D02*
X1083Y169D01*
X1132Y169D02*
X1183Y169D01*
X1232Y169D02*
X1283Y169D01*
X1332Y169D02*
X1383Y169D01*
X1432Y169D02*
X1483Y169D01*
X1532Y169D02*
X1583Y169D01*
X1632Y169D02*
X1683Y169D01*
X1732Y169D02*
X1783Y169D01*
X1832Y169D02*
X1883Y169D01*
X1932Y169D02*
X1983Y169D01*
X2031Y169D02*
X2082Y169D01*
X131Y168D02*
X184Y168D01*
X231Y168D02*
X284Y168D01*
X331Y168D02*
X384Y168D01*
X431Y168D02*
X484Y168D01*
X531Y168D02*
X584Y168D01*
X631Y168D02*
X684Y168D01*
X731Y168D02*
X784Y168D01*
X831Y168D02*
X884Y168D01*
X931Y168D02*
X984Y168D01*
X1031Y168D02*
X1083Y168D01*
X1131Y168D02*
X1183Y168D01*
X1231Y168D02*
X1283Y168D01*
X1331Y168D02*
X1383Y168D01*
X1431Y168D02*
X1483Y168D01*
X1531Y168D02*
X1583Y168D01*
X1631Y168D02*
X1683Y168D01*
X1731Y168D02*
X1783Y168D01*
X1831Y168D02*
X1883Y168D01*
X1931Y168D02*
X1983Y168D01*
X2030Y168D02*
X2083Y168D01*
X130Y167D02*
X184Y167D01*
X230Y167D02*
X284Y167D01*
X330Y167D02*
X384Y167D01*
X430Y167D02*
X484Y167D01*
X530Y167D02*
X584Y167D01*
X630Y167D02*
X684Y167D01*
X730Y167D02*
X784Y167D01*
X830Y167D02*
X884Y167D01*
X930Y167D02*
X984Y167D01*
X1030Y167D02*
X1084Y167D01*
X1130Y167D02*
X1184Y167D01*
X1230Y167D02*
X1284Y167D01*
X1330Y167D02*
X1384Y167D01*
X1430Y167D02*
X1484Y167D01*
X1530Y167D02*
X1584Y167D01*
X1630Y167D02*
X1684Y167D01*
X1730Y167D02*
X1784Y167D01*
X1830Y167D02*
X1884Y167D01*
X1930Y167D02*
X1984Y167D01*
X2030Y167D02*
X2084Y167D01*
X130Y166D02*
X185Y166D01*
X230Y166D02*
X285Y166D01*
X329Y166D02*
X385Y166D01*
X429Y166D02*
X485Y166D01*
X529Y166D02*
X585Y166D01*
X629Y166D02*
X685Y166D01*
X729Y166D02*
X785Y166D01*
X829Y166D02*
X885Y166D01*
X929Y166D02*
X985Y166D01*
X1029Y166D02*
X1085Y166D01*
X1129Y166D02*
X1185Y166D01*
X1229Y166D02*
X1285Y166D01*
X1329Y166D02*
X1385Y166D01*
X1429Y166D02*
X1485Y166D01*
X1529Y166D02*
X1585Y166D01*
X1629Y166D02*
X1685Y166D01*
X1729Y166D02*
X1785Y166D01*
X1829Y166D02*
X1885Y166D01*
X1929Y166D02*
X1985Y166D01*
X2029Y166D02*
X2084Y166D01*
X129Y165D02*
X186Y165D01*
X229Y165D02*
X286Y165D01*
X329Y165D02*
X386Y165D01*
X429Y165D02*
X486Y165D01*
X529Y165D02*
X586Y165D01*
X629Y165D02*
X686Y165D01*
X729Y165D02*
X786Y165D01*
X829Y165D02*
X886Y165D01*
X929Y165D02*
X986Y165D01*
X1029Y165D02*
X1086Y165D01*
X1129Y165D02*
X1186Y165D01*
X1229Y165D02*
X1286Y165D01*
X1329Y165D02*
X1386Y165D01*
X1429Y165D02*
X1486Y165D01*
X1529Y165D02*
X1586Y165D01*
X1629Y165D02*
X1686Y165D01*
X1729Y165D02*
X1786Y165D01*
X1829Y165D02*
X1886Y165D01*
X1929Y165D02*
X1986Y165D01*
X2028Y165D02*
X2085Y165D01*
X128Y164D02*
X186Y164D01*
X228Y164D02*
X286Y164D01*
X328Y164D02*
X386Y164D01*
X428Y164D02*
X486Y164D01*
X528Y164D02*
X586Y164D01*
X628Y164D02*
X686Y164D01*
X728Y164D02*
X786Y164D01*
X828Y164D02*
X886Y164D01*
X928Y164D02*
X986Y164D01*
X1028Y164D02*
X1086Y164D01*
X1128Y164D02*
X1186Y164D01*
X1228Y164D02*
X1286Y164D01*
X1328Y164D02*
X1386Y164D01*
X1428Y164D02*
X1486Y164D01*
X1528Y164D02*
X1586Y164D01*
X1628Y164D02*
X1686Y164D01*
X1728Y164D02*
X1786Y164D01*
X1828Y164D02*
X1886Y164D01*
X1928Y164D02*
X1986Y164D01*
X2028Y164D02*
X2086Y164D01*
X128Y163D02*
X187Y163D01*
X228Y163D02*
X287Y163D01*
X328Y163D02*
X387Y163D01*
X428Y163D02*
X487Y163D01*
X528Y163D02*
X587Y163D01*
X628Y163D02*
X687Y163D01*
X728Y163D02*
X787Y163D01*
X828Y163D02*
X887Y163D01*
X928Y163D02*
X987Y163D01*
X1028Y163D02*
X1087Y163D01*
X1128Y163D02*
X1187Y163D01*
X1228Y163D02*
X1287Y163D01*
X1328Y163D02*
X1387Y163D01*
X1428Y163D02*
X1487Y163D01*
X1528Y163D02*
X1587Y163D01*
X1628Y163D02*
X1687Y163D01*
X1728Y163D02*
X1787Y163D01*
X1828Y163D02*
X1887Y163D01*
X1928Y163D02*
X1987Y163D01*
X2027Y163D02*
X2086Y163D01*
X127Y162D02*
X187Y162D01*
X227Y162D02*
X287Y162D01*
X327Y162D02*
X387Y162D01*
X427Y162D02*
X487Y162D01*
X527Y162D02*
X587Y162D01*
X627Y162D02*
X687Y162D01*
X727Y162D02*
X787Y162D01*
X827Y162D02*
X887Y162D01*
X927Y162D02*
X987Y162D01*
X1027Y162D02*
X1087Y162D01*
X1127Y162D02*
X1187Y162D01*
X1227Y162D02*
X1287Y162D01*
X1327Y162D02*
X1387Y162D01*
X1427Y162D02*
X1487Y162D01*
X1527Y162D02*
X1587Y162D01*
X1627Y162D02*
X1687Y162D01*
X1727Y162D02*
X1787Y162D01*
X1827Y162D02*
X1887Y162D01*
X1927Y162D02*
X1987Y162D01*
X2027Y162D02*
X2087Y162D01*
X127Y161D02*
X188Y161D01*
X227Y161D02*
X288Y161D01*
X327Y161D02*
X388Y161D01*
X427Y161D02*
X488Y161D01*
X527Y161D02*
X587Y161D01*
X627Y161D02*
X687Y161D01*
X727Y161D02*
X787Y161D01*
X827Y161D02*
X887Y161D01*
X927Y161D02*
X987Y161D01*
X1027Y161D02*
X1087Y161D01*
X1127Y161D02*
X1187Y161D01*
X1227Y161D02*
X1287Y161D01*
X1327Y161D02*
X1387Y161D01*
X1427Y161D02*
X1487Y161D01*
X1527Y161D02*
X1587Y161D01*
X1627Y161D02*
X1687Y161D01*
X1727Y161D02*
X1787Y161D01*
X1827Y161D02*
X1887Y161D01*
X1927Y161D02*
X1987Y161D01*
X2026Y161D02*
X2087Y161D01*
X127Y160D02*
X188Y160D01*
X227Y160D02*
X288Y160D01*
X327Y160D02*
X388Y160D01*
X427Y160D02*
X488Y160D01*
X527Y160D02*
X588Y160D01*
X627Y160D02*
X688Y160D01*
X727Y160D02*
X788Y160D01*
X827Y160D02*
X888Y160D01*
X927Y160D02*
X988Y160D01*
X1027Y160D02*
X1088Y160D01*
X1127Y160D02*
X1188Y160D01*
X1227Y160D02*
X1288Y160D01*
X1327Y160D02*
X1388Y160D01*
X1427Y160D02*
X1488Y160D01*
X1527Y160D02*
X1588Y160D01*
X1627Y160D02*
X1688Y160D01*
X1727Y160D02*
X1788Y160D01*
X1827Y160D02*
X1888Y160D01*
X1926Y160D02*
X1988Y160D01*
X2026Y160D02*
X2087Y160D01*
X126Y159D02*
X188Y159D01*
X226Y159D02*
X288Y159D01*
X326Y159D02*
X388Y159D01*
X426Y159D02*
X488Y159D01*
X526Y159D02*
X588Y159D01*
X626Y159D02*
X688Y159D01*
X726Y159D02*
X788Y159D01*
X826Y159D02*
X888Y159D01*
X926Y159D02*
X988Y159D01*
X1026Y159D02*
X1088Y159D01*
X1126Y159D02*
X1188Y159D01*
X1226Y159D02*
X1288Y159D01*
X1326Y159D02*
X1388Y159D01*
X1426Y159D02*
X1488Y159D01*
X1526Y159D02*
X1588Y159D01*
X1626Y159D02*
X1688Y159D01*
X1726Y159D02*
X1788Y159D01*
X1826Y159D02*
X1888Y159D01*
X1926Y159D02*
X1988Y159D01*
X2026Y159D02*
X2088Y159D01*
X126Y158D02*
X188Y158D01*
X226Y158D02*
X288Y158D01*
X326Y158D02*
X388Y158D01*
X426Y158D02*
X488Y158D01*
X526Y158D02*
X588Y158D01*
X626Y158D02*
X688Y158D01*
X726Y158D02*
X788Y158D01*
X826Y158D02*
X888Y158D01*
X926Y158D02*
X988Y158D01*
X1026Y158D02*
X1088Y158D01*
X1126Y158D02*
X1188Y158D01*
X1226Y158D02*
X1288Y158D01*
X1326Y158D02*
X1388Y158D01*
X1426Y158D02*
X1488Y158D01*
X1526Y158D02*
X1588Y158D01*
X1626Y158D02*
X1688Y158D01*
X1726Y158D02*
X1788Y158D01*
X1826Y158D02*
X1888Y158D01*
X1926Y158D02*
X1988Y158D01*
X2026Y158D02*
X2088Y158D01*
X126Y157D02*
X189Y157D01*
X226Y157D02*
X289Y157D01*
X326Y157D02*
X389Y157D01*
X426Y157D02*
X489Y157D01*
X526Y157D02*
X589Y157D01*
X626Y157D02*
X689Y157D01*
X726Y157D02*
X789Y157D01*
X826Y157D02*
X889Y157D01*
X926Y157D02*
X989Y157D01*
X1026Y157D02*
X1088Y157D01*
X1126Y157D02*
X1188Y157D01*
X1226Y157D02*
X1288Y157D01*
X1326Y157D02*
X1388Y157D01*
X1426Y157D02*
X1488Y157D01*
X1526Y157D02*
X1588Y157D01*
X1626Y157D02*
X1688Y157D01*
X1726Y157D02*
X1788Y157D01*
X1826Y157D02*
X1888Y157D01*
X1926Y157D02*
X1988Y157D01*
X2025Y157D02*
X2088Y157D01*
X126Y156D02*
X189Y156D01*
X226Y156D02*
X289Y156D01*
X326Y156D02*
X389Y156D01*
X426Y156D02*
X489Y156D01*
X526Y156D02*
X589Y156D01*
X626Y156D02*
X689Y156D01*
X726Y156D02*
X789Y156D01*
X826Y156D02*
X889Y156D01*
X926Y156D02*
X989Y156D01*
X1026Y156D02*
X1089Y156D01*
X1126Y156D02*
X1189Y156D01*
X1226Y156D02*
X1289Y156D01*
X1326Y156D02*
X1389Y156D01*
X1426Y156D02*
X1489Y156D01*
X1526Y156D02*
X1589Y156D01*
X1626Y156D02*
X1689Y156D01*
X1726Y156D02*
X1789Y156D01*
X1826Y156D02*
X1889Y156D01*
X1926Y156D02*
X1989Y156D01*
X2025Y156D02*
X2088Y156D01*
X126Y155D02*
X189Y155D01*
X226Y155D02*
X289Y155D01*
X326Y155D02*
X389Y155D01*
X426Y155D02*
X489Y155D01*
X526Y155D02*
X589Y155D01*
X626Y155D02*
X689Y155D01*
X726Y155D02*
X789Y155D01*
X826Y155D02*
X889Y155D01*
X926Y155D02*
X989Y155D01*
X1026Y155D02*
X1089Y155D01*
X1126Y155D02*
X1189Y155D01*
X1226Y155D02*
X1289Y155D01*
X1326Y155D02*
X1389Y155D01*
X1426Y155D02*
X1489Y155D01*
X1526Y155D02*
X1589Y155D01*
X1626Y155D02*
X1689Y155D01*
X1726Y155D02*
X1789Y155D01*
X1826Y155D02*
X1889Y155D01*
X1926Y155D02*
X1989Y155D01*
X2025Y155D02*
X2088Y155D01*
X126Y154D02*
X189Y154D01*
X226Y154D02*
X289Y154D01*
X326Y154D02*
X389Y154D01*
X426Y154D02*
X489Y154D01*
X526Y154D02*
X589Y154D01*
X626Y154D02*
X689Y154D01*
X726Y154D02*
X789Y154D01*
X826Y154D02*
X889Y154D01*
X926Y154D02*
X989Y154D01*
X1026Y154D02*
X1089Y154D01*
X1126Y154D02*
X1189Y154D01*
X1226Y154D02*
X1289Y154D01*
X1326Y154D02*
X1389Y154D01*
X1426Y154D02*
X1489Y154D01*
X1526Y154D02*
X1589Y154D01*
X1626Y154D02*
X1689Y154D01*
X1726Y154D02*
X1789Y154D01*
X1826Y154D02*
X1889Y154D01*
X1926Y154D02*
X1989Y154D01*
X2025Y154D02*
X2088Y154D01*
X126Y153D02*
X189Y153D01*
X226Y153D02*
X289Y153D01*
X326Y153D02*
X389Y153D01*
X426Y153D02*
X489Y153D01*
X526Y153D02*
X589Y153D01*
X626Y153D02*
X689Y153D01*
X726Y153D02*
X789Y153D01*
X826Y153D02*
X889Y153D01*
X926Y153D02*
X989Y153D01*
X1026Y153D02*
X1089Y153D01*
X1126Y153D02*
X1189Y153D01*
X1226Y153D02*
X1289Y153D01*
X1326Y153D02*
X1389Y153D01*
X1426Y153D02*
X1489Y153D01*
X1526Y153D02*
X1589Y153D01*
X1626Y153D02*
X1689Y153D01*
X1726Y153D02*
X1789Y153D01*
X1826Y153D02*
X1889Y153D01*
X1926Y153D02*
X1989Y153D01*
X2025Y153D02*
X2088Y153D01*
X126Y152D02*
X189Y152D01*
X226Y152D02*
X289Y152D01*
X326Y152D02*
X389Y152D01*
X426Y152D02*
X489Y152D01*
X526Y152D02*
X589Y152D01*
X626Y152D02*
X689Y152D01*
X726Y152D02*
X789Y152D01*
X826Y152D02*
X889Y152D01*
X926Y152D02*
X989Y152D01*
X1026Y152D02*
X1089Y152D01*
X1126Y152D02*
X1189Y152D01*
X1226Y152D02*
X1289Y152D01*
X1326Y152D02*
X1389Y152D01*
X1426Y152D02*
X1489Y152D01*
X1526Y152D02*
X1589Y152D01*
X1626Y152D02*
X1689Y152D01*
X1726Y152D02*
X1789Y152D01*
X1826Y152D02*
X1889Y152D01*
X1926Y152D02*
X1989Y152D01*
X2025Y152D02*
X2088Y152D01*
X126Y151D02*
X189Y151D01*
X226Y151D02*
X289Y151D01*
X326Y151D02*
X389Y151D01*
X426Y151D02*
X489Y151D01*
X526Y151D02*
X589Y151D01*
X626Y151D02*
X689Y151D01*
X726Y151D02*
X789Y151D01*
X826Y151D02*
X889Y151D01*
X926Y151D02*
X989Y151D01*
X1026Y151D02*
X1089Y151D01*
X1126Y151D02*
X1189Y151D01*
X1226Y151D02*
X1289Y151D01*
X1326Y151D02*
X1389Y151D01*
X1426Y151D02*
X1489Y151D01*
X1526Y151D02*
X1589Y151D01*
X1626Y151D02*
X1689Y151D01*
X1726Y151D02*
X1789Y151D01*
X1826Y151D02*
X1889Y151D01*
X1926Y151D02*
X1989Y151D01*
X2025Y151D02*
X2088Y151D01*
X126Y150D02*
X189Y150D01*
X226Y150D02*
X289Y150D01*
X326Y150D02*
X389Y150D01*
X426Y150D02*
X489Y150D01*
X526Y150D02*
X589Y150D01*
X626Y150D02*
X689Y150D01*
X726Y150D02*
X789Y150D01*
X826Y150D02*
X889Y150D01*
X926Y150D02*
X989Y150D01*
X1026Y150D02*
X1089Y150D01*
X1126Y150D02*
X1189Y150D01*
X1226Y150D02*
X1289Y150D01*
X1326Y150D02*
X1389Y150D01*
X1426Y150D02*
X1489Y150D01*
X1526Y150D02*
X1589Y150D01*
X1626Y150D02*
X1689Y150D01*
X1726Y150D02*
X1789Y150D01*
X1826Y150D02*
X1889Y150D01*
X1926Y150D02*
X1989Y150D01*
X2025Y150D02*
X2088Y150D01*
X126Y149D02*
X189Y149D01*
X226Y149D02*
X289Y149D01*
X326Y149D02*
X389Y149D01*
X426Y149D02*
X489Y149D01*
X526Y149D02*
X589Y149D01*
X626Y149D02*
X689Y149D01*
X726Y149D02*
X789Y149D01*
X826Y149D02*
X889Y149D01*
X926Y149D02*
X989Y149D01*
X1026Y149D02*
X1089Y149D01*
X1126Y149D02*
X1189Y149D01*
X1226Y149D02*
X1289Y149D01*
X1326Y149D02*
X1389Y149D01*
X1426Y149D02*
X1489Y149D01*
X1526Y149D02*
X1589Y149D01*
X1626Y149D02*
X1689Y149D01*
X1726Y149D02*
X1789Y149D01*
X1826Y149D02*
X1889Y149D01*
X1926Y149D02*
X1989Y149D01*
X2025Y149D02*
X2088Y149D01*
X126Y148D02*
X153Y148D01*
X162Y148D02*
X189Y148D01*
X226Y148D02*
X253Y148D01*
X262Y148D02*
X289Y148D01*
X326Y148D02*
X353Y148D01*
X362Y148D02*
X389Y148D01*
X426Y148D02*
X453Y148D01*
X462Y148D02*
X489Y148D01*
X526Y148D02*
X553Y148D01*
X562Y148D02*
X589Y148D01*
X626Y148D02*
X653Y148D01*
X662Y148D02*
X689Y148D01*
X726Y148D02*
X753Y148D01*
X762Y148D02*
X789Y148D01*
X826Y148D02*
X853Y148D01*
X862Y148D02*
X889Y148D01*
X926Y148D02*
X953Y148D01*
X962Y148D02*
X989Y148D01*
X1026Y148D02*
X1053Y148D01*
X1062Y148D02*
X1089Y148D01*
X1126Y148D02*
X1153Y148D01*
X1162Y148D02*
X1189Y148D01*
X1226Y148D02*
X1253Y148D01*
X1262Y148D02*
X1289Y148D01*
X1326Y148D02*
X1353Y148D01*
X1362Y148D02*
X1389Y148D01*
X1426Y148D02*
X1453Y148D01*
X1462Y148D02*
X1489Y148D01*
X1526Y148D02*
X1553Y148D01*
X1562Y148D02*
X1589Y148D01*
X1626Y148D02*
X1653Y148D01*
X1662Y148D02*
X1689Y148D01*
X1726Y148D02*
X1753Y148D01*
X1762Y148D02*
X1789Y148D01*
X1826Y148D02*
X1853Y148D01*
X1862Y148D02*
X1889Y148D01*
X1926Y148D02*
X1953Y148D01*
X1962Y148D02*
X1989Y148D01*
X2025Y148D02*
X2052Y148D01*
X2061Y148D02*
X2088Y148D01*
X126Y147D02*
X150Y147D01*
X164Y147D02*
X189Y147D01*
X226Y147D02*
X250Y147D01*
X264Y147D02*
X289Y147D01*
X326Y147D02*
X350Y147D01*
X364Y147D02*
X389Y147D01*
X426Y147D02*
X450Y147D01*
X464Y147D02*
X489Y147D01*
X526Y147D02*
X550Y147D01*
X564Y147D02*
X589Y147D01*
X626Y147D02*
X650Y147D01*
X664Y147D02*
X689Y147D01*
X726Y147D02*
X750Y147D01*
X764Y147D02*
X789Y147D01*
X826Y147D02*
X850Y147D01*
X864Y147D02*
X889Y147D01*
X926Y147D02*
X950Y147D01*
X964Y147D02*
X989Y147D01*
X1026Y147D02*
X1050Y147D01*
X1064Y147D02*
X1089Y147D01*
X1126Y147D02*
X1150Y147D01*
X1164Y147D02*
X1189Y147D01*
X1226Y147D02*
X1250Y147D01*
X1264Y147D02*
X1289Y147D01*
X1326Y147D02*
X1350Y147D01*
X1364Y147D02*
X1389Y147D01*
X1426Y147D02*
X1450Y147D01*
X1464Y147D02*
X1489Y147D01*
X1526Y147D02*
X1550Y147D01*
X1564Y147D02*
X1589Y147D01*
X1626Y147D02*
X1650Y147D01*
X1664Y147D02*
X1689Y147D01*
X1726Y147D02*
X1750Y147D01*
X1764Y147D02*
X1789Y147D01*
X1826Y147D02*
X1850Y147D01*
X1864Y147D02*
X1889Y147D01*
X1926Y147D02*
X1950Y147D01*
X1964Y147D02*
X1989Y147D01*
X2025Y147D02*
X2050Y147D01*
X2064Y147D02*
X2088Y147D01*
X126Y146D02*
X149Y146D01*
X166Y146D02*
X189Y146D01*
X226Y146D02*
X249Y146D01*
X266Y146D02*
X289Y146D01*
X326Y146D02*
X349Y146D01*
X366Y146D02*
X389Y146D01*
X426Y146D02*
X449Y146D01*
X466Y146D02*
X489Y146D01*
X526Y146D02*
X549Y146D01*
X566Y146D02*
X589Y146D01*
X626Y146D02*
X649Y146D01*
X666Y146D02*
X689Y146D01*
X726Y146D02*
X749Y146D01*
X766Y146D02*
X789Y146D01*
X826Y146D02*
X849Y146D01*
X866Y146D02*
X889Y146D01*
X926Y146D02*
X949Y146D01*
X966Y146D02*
X989Y146D01*
X1026Y146D02*
X1049Y146D01*
X1066Y146D02*
X1089Y146D01*
X1126Y146D02*
X1149Y146D01*
X1166Y146D02*
X1189Y146D01*
X1226Y146D02*
X1249Y146D01*
X1266Y146D02*
X1289Y146D01*
X1326Y146D02*
X1349Y146D01*
X1366Y146D02*
X1389Y146D01*
X1426Y146D02*
X1449Y146D01*
X1466Y146D02*
X1489Y146D01*
X1526Y146D02*
X1549Y146D01*
X1566Y146D02*
X1589Y146D01*
X1626Y146D02*
X1649Y146D01*
X1666Y146D02*
X1689Y146D01*
X1726Y146D02*
X1749Y146D01*
X1766Y146D02*
X1789Y146D01*
X1826Y146D02*
X1849Y146D01*
X1866Y146D02*
X1889Y146D01*
X1926Y146D02*
X1949Y146D01*
X1966Y146D02*
X1989Y146D01*
X2025Y146D02*
X2048Y146D01*
X2065Y146D02*
X2088Y146D01*
X126Y145D02*
X148Y145D01*
X167Y145D02*
X189Y145D01*
X226Y145D02*
X248Y145D01*
X267Y145D02*
X289Y145D01*
X326Y145D02*
X348Y145D01*
X367Y145D02*
X389Y145D01*
X426Y145D02*
X448Y145D01*
X467Y145D02*
X489Y145D01*
X526Y145D02*
X548Y145D01*
X567Y145D02*
X589Y145D01*
X626Y145D02*
X647Y145D01*
X667Y145D02*
X689Y145D01*
X726Y145D02*
X747Y145D01*
X767Y145D02*
X789Y145D01*
X826Y145D02*
X847Y145D01*
X867Y145D02*
X889Y145D01*
X926Y145D02*
X947Y145D01*
X967Y145D02*
X989Y145D01*
X1026Y145D02*
X1047Y145D01*
X1067Y145D02*
X1089Y145D01*
X1126Y145D02*
X1147Y145D01*
X1167Y145D02*
X1189Y145D01*
X1226Y145D02*
X1247Y145D01*
X1267Y145D02*
X1289Y145D01*
X1326Y145D02*
X1347Y145D01*
X1367Y145D02*
X1389Y145D01*
X1426Y145D02*
X1447Y145D01*
X1467Y145D02*
X1489Y145D01*
X1526Y145D02*
X1547Y145D01*
X1567Y145D02*
X1589Y145D01*
X1626Y145D02*
X1647Y145D01*
X1667Y145D02*
X1689Y145D01*
X1726Y145D02*
X1747Y145D01*
X1767Y145D02*
X1789Y145D01*
X1826Y145D02*
X1847Y145D01*
X1867Y145D02*
X1889Y145D01*
X1926Y145D02*
X1947Y145D01*
X1967Y145D02*
X1989Y145D01*
X2025Y145D02*
X2047Y145D01*
X2066Y145D02*
X2088Y145D01*
X126Y144D02*
X147Y144D01*
X168Y144D02*
X189Y144D01*
X226Y144D02*
X247Y144D01*
X268Y144D02*
X289Y144D01*
X326Y144D02*
X346Y144D01*
X368Y144D02*
X389Y144D01*
X426Y144D02*
X446Y144D01*
X468Y144D02*
X489Y144D01*
X526Y144D02*
X546Y144D01*
X568Y144D02*
X589Y144D01*
X626Y144D02*
X646Y144D01*
X668Y144D02*
X689Y144D01*
X726Y144D02*
X746Y144D01*
X768Y144D02*
X789Y144D01*
X826Y144D02*
X846Y144D01*
X868Y144D02*
X889Y144D01*
X926Y144D02*
X946Y144D01*
X968Y144D02*
X989Y144D01*
X1026Y144D02*
X1046Y144D01*
X1068Y144D02*
X1089Y144D01*
X1126Y144D02*
X1146Y144D01*
X1168Y144D02*
X1189Y144D01*
X1226Y144D02*
X1246Y144D01*
X1268Y144D02*
X1289Y144D01*
X1326Y144D02*
X1346Y144D01*
X1368Y144D02*
X1389Y144D01*
X1426Y144D02*
X1446Y144D01*
X1468Y144D02*
X1489Y144D01*
X1526Y144D02*
X1546Y144D01*
X1568Y144D02*
X1589Y144D01*
X1626Y144D02*
X1646Y144D01*
X1668Y144D02*
X1689Y144D01*
X1726Y144D02*
X1746Y144D01*
X1768Y144D02*
X1789Y144D01*
X1826Y144D02*
X1846Y144D01*
X1868Y144D02*
X1889Y144D01*
X1926Y144D02*
X1946Y144D01*
X1968Y144D02*
X1989Y144D01*
X2025Y144D02*
X2046Y144D01*
X2067Y144D02*
X2088Y144D01*
X126Y143D02*
X146Y143D01*
X169Y143D02*
X189Y143D01*
X226Y143D02*
X246Y143D01*
X269Y143D02*
X289Y143D01*
X326Y143D02*
X346Y143D01*
X369Y143D02*
X389Y143D01*
X426Y143D02*
X446Y143D01*
X469Y143D02*
X489Y143D01*
X526Y143D02*
X546Y143D01*
X569Y143D02*
X589Y143D01*
X626Y143D02*
X646Y143D01*
X669Y143D02*
X689Y143D01*
X726Y143D02*
X746Y143D01*
X769Y143D02*
X789Y143D01*
X826Y143D02*
X846Y143D01*
X869Y143D02*
X889Y143D01*
X926Y143D02*
X946Y143D01*
X969Y143D02*
X989Y143D01*
X1026Y143D02*
X1046Y143D01*
X1069Y143D02*
X1089Y143D01*
X1126Y143D02*
X1146Y143D01*
X1169Y143D02*
X1189Y143D01*
X1226Y143D02*
X1246Y143D01*
X1269Y143D02*
X1289Y143D01*
X1326Y143D02*
X1346Y143D01*
X1369Y143D02*
X1389Y143D01*
X1426Y143D02*
X1446Y143D01*
X1469Y143D02*
X1489Y143D01*
X1526Y143D02*
X1546Y143D01*
X1569Y143D02*
X1589Y143D01*
X1626Y143D02*
X1646Y143D01*
X1669Y143D02*
X1689Y143D01*
X1726Y143D02*
X1746Y143D01*
X1769Y143D02*
X1789Y143D01*
X1826Y143D02*
X1845Y143D01*
X1869Y143D02*
X1889Y143D01*
X1926Y143D02*
X1945Y143D01*
X1969Y143D02*
X1989Y143D01*
X2025Y143D02*
X2045Y143D01*
X2068Y143D02*
X2088Y143D01*
X126Y142D02*
X145Y142D01*
X170Y142D02*
X189Y142D01*
X226Y142D02*
X245Y142D01*
X270Y142D02*
X289Y142D01*
X326Y142D02*
X345Y142D01*
X370Y142D02*
X389Y142D01*
X426Y142D02*
X445Y142D01*
X470Y142D02*
X489Y142D01*
X526Y142D02*
X545Y142D01*
X570Y142D02*
X589Y142D01*
X626Y142D02*
X645Y142D01*
X670Y142D02*
X689Y142D01*
X726Y142D02*
X745Y142D01*
X770Y142D02*
X789Y142D01*
X826Y142D02*
X845Y142D01*
X870Y142D02*
X889Y142D01*
X926Y142D02*
X945Y142D01*
X970Y142D02*
X989Y142D01*
X1026Y142D02*
X1045Y142D01*
X1070Y142D02*
X1089Y142D01*
X1126Y142D02*
X1145Y142D01*
X1170Y142D02*
X1189Y142D01*
X1226Y142D02*
X1245Y142D01*
X1270Y142D02*
X1289Y142D01*
X1326Y142D02*
X1345Y142D01*
X1370Y142D02*
X1389Y142D01*
X1426Y142D02*
X1445Y142D01*
X1470Y142D02*
X1489Y142D01*
X1526Y142D02*
X1545Y142D01*
X1570Y142D02*
X1589Y142D01*
X1626Y142D02*
X1645Y142D01*
X1670Y142D02*
X1689Y142D01*
X1726Y142D02*
X1745Y142D01*
X1770Y142D02*
X1789Y142D01*
X1826Y142D02*
X1845Y142D01*
X1869Y142D02*
X1889Y142D01*
X1926Y142D02*
X1945Y142D01*
X1969Y142D02*
X1989Y142D01*
X2025Y142D02*
X2044Y142D01*
X2069Y142D02*
X2088Y142D01*
X126Y141D02*
X144Y141D01*
X170Y141D02*
X189Y141D01*
X226Y141D02*
X244Y141D01*
X270Y141D02*
X289Y141D01*
X326Y141D02*
X344Y141D01*
X370Y141D02*
X389Y141D01*
X426Y141D02*
X444Y141D01*
X470Y141D02*
X489Y141D01*
X526Y141D02*
X544Y141D01*
X570Y141D02*
X589Y141D01*
X626Y141D02*
X644Y141D01*
X670Y141D02*
X689Y141D01*
X726Y141D02*
X744Y141D01*
X770Y141D02*
X789Y141D01*
X826Y141D02*
X844Y141D01*
X870Y141D02*
X889Y141D01*
X926Y141D02*
X944Y141D01*
X970Y141D02*
X989Y141D01*
X1026Y141D02*
X1044Y141D01*
X1070Y141D02*
X1089Y141D01*
X1126Y141D02*
X1144Y141D01*
X1170Y141D02*
X1189Y141D01*
X1226Y141D02*
X1244Y141D01*
X1270Y141D02*
X1289Y141D01*
X1326Y141D02*
X1344Y141D01*
X1370Y141D02*
X1389Y141D01*
X1426Y141D02*
X1444Y141D01*
X1470Y141D02*
X1489Y141D01*
X1526Y141D02*
X1544Y141D01*
X1570Y141D02*
X1589Y141D01*
X1626Y141D02*
X1644Y141D01*
X1670Y141D02*
X1689Y141D01*
X1726Y141D02*
X1744Y141D01*
X1770Y141D02*
X1789Y141D01*
X1826Y141D02*
X1844Y141D01*
X1870Y141D02*
X1889Y141D01*
X1926Y141D02*
X1944Y141D01*
X1970Y141D02*
X1989Y141D01*
X2025Y141D02*
X2044Y141D01*
X2070Y141D02*
X2088Y141D01*
X126Y140D02*
X144Y140D01*
X171Y140D02*
X189Y140D01*
X226Y140D02*
X244Y140D01*
X271Y140D02*
X289Y140D01*
X326Y140D02*
X344Y140D01*
X371Y140D02*
X389Y140D01*
X426Y140D02*
X444Y140D01*
X471Y140D02*
X489Y140D01*
X526Y140D02*
X544Y140D01*
X571Y140D02*
X589Y140D01*
X626Y140D02*
X644Y140D01*
X671Y140D02*
X689Y140D01*
X726Y140D02*
X744Y140D01*
X771Y140D02*
X789Y140D01*
X826Y140D02*
X844Y140D01*
X871Y140D02*
X889Y140D01*
X926Y140D02*
X944Y140D01*
X971Y140D02*
X989Y140D01*
X1026Y140D02*
X1044Y140D01*
X1071Y140D02*
X1089Y140D01*
X1126Y140D02*
X1144Y140D01*
X1171Y140D02*
X1189Y140D01*
X1226Y140D02*
X1244Y140D01*
X1271Y140D02*
X1289Y140D01*
X1326Y140D02*
X1344Y140D01*
X1371Y140D02*
X1389Y140D01*
X1426Y140D02*
X1444Y140D01*
X1471Y140D02*
X1489Y140D01*
X1526Y140D02*
X1544Y140D01*
X1571Y140D02*
X1589Y140D01*
X1626Y140D02*
X1644Y140D01*
X1671Y140D02*
X1689Y140D01*
X1726Y140D02*
X1744Y140D01*
X1771Y140D02*
X1789Y140D01*
X1826Y140D02*
X1844Y140D01*
X1871Y140D02*
X1889Y140D01*
X1926Y140D02*
X1944Y140D01*
X1971Y140D02*
X1989Y140D01*
X2025Y140D02*
X2043Y140D01*
X2070Y140D02*
X2088Y140D01*
X126Y139D02*
X143Y139D01*
X171Y139D02*
X189Y139D01*
X226Y139D02*
X243Y139D01*
X271Y139D02*
X289Y139D01*
X326Y139D02*
X343Y139D01*
X371Y139D02*
X389Y139D01*
X426Y139D02*
X443Y139D01*
X471Y139D02*
X489Y139D01*
X526Y139D02*
X543Y139D01*
X571Y139D02*
X589Y139D01*
X626Y139D02*
X643Y139D01*
X671Y139D02*
X689Y139D01*
X726Y139D02*
X743Y139D01*
X771Y139D02*
X789Y139D01*
X826Y139D02*
X843Y139D01*
X871Y139D02*
X889Y139D01*
X926Y139D02*
X943Y139D01*
X971Y139D02*
X989Y139D01*
X1026Y139D02*
X1043Y139D01*
X1071Y139D02*
X1089Y139D01*
X1126Y139D02*
X1143Y139D01*
X1171Y139D02*
X1189Y139D01*
X1226Y139D02*
X1243Y139D01*
X1271Y139D02*
X1289Y139D01*
X1326Y139D02*
X1343Y139D01*
X1371Y139D02*
X1389Y139D01*
X1426Y139D02*
X1443Y139D01*
X1471Y139D02*
X1489Y139D01*
X1526Y139D02*
X1543Y139D01*
X1571Y139D02*
X1589Y139D01*
X1626Y139D02*
X1643Y139D01*
X1671Y139D02*
X1689Y139D01*
X1726Y139D02*
X1743Y139D01*
X1771Y139D02*
X1789Y139D01*
X1826Y139D02*
X1843Y139D01*
X1871Y139D02*
X1889Y139D01*
X1926Y139D02*
X1943Y139D01*
X1971Y139D02*
X1989Y139D01*
X2025Y139D02*
X2043Y139D01*
X2070Y139D02*
X2088Y139D01*
X126Y138D02*
X143Y138D01*
X171Y138D02*
X189Y138D01*
X226Y138D02*
X243Y138D01*
X271Y138D02*
X289Y138D01*
X326Y138D02*
X343Y138D01*
X371Y138D02*
X389Y138D01*
X426Y138D02*
X443Y138D01*
X471Y138D02*
X489Y138D01*
X526Y138D02*
X543Y138D01*
X571Y138D02*
X589Y138D01*
X626Y138D02*
X643Y138D01*
X671Y138D02*
X689Y138D01*
X726Y138D02*
X743Y138D01*
X771Y138D02*
X789Y138D01*
X826Y138D02*
X843Y138D01*
X871Y138D02*
X889Y138D01*
X926Y138D02*
X943Y138D01*
X971Y138D02*
X989Y138D01*
X1026Y138D02*
X1043Y138D01*
X1071Y138D02*
X1089Y138D01*
X1126Y138D02*
X1143Y138D01*
X1171Y138D02*
X1189Y138D01*
X1226Y138D02*
X1243Y138D01*
X1271Y138D02*
X1289Y138D01*
X1326Y138D02*
X1343Y138D01*
X1371Y138D02*
X1389Y138D01*
X1426Y138D02*
X1443Y138D01*
X1471Y138D02*
X1489Y138D01*
X1526Y138D02*
X1543Y138D01*
X1571Y138D02*
X1589Y138D01*
X1626Y138D02*
X1643Y138D01*
X1671Y138D02*
X1689Y138D01*
X1726Y138D02*
X1743Y138D01*
X1771Y138D02*
X1789Y138D01*
X1826Y138D02*
X1843Y138D01*
X1871Y138D02*
X1889Y138D01*
X1926Y138D02*
X1943Y138D01*
X1971Y138D02*
X1989Y138D01*
X2025Y138D02*
X2043Y138D01*
X2071Y138D02*
X2088Y138D01*
X126Y137D02*
X143Y137D01*
X172Y137D02*
X189Y137D01*
X226Y137D02*
X243Y137D01*
X272Y137D02*
X289Y137D01*
X326Y137D02*
X343Y137D01*
X372Y137D02*
X389Y137D01*
X426Y137D02*
X443Y137D01*
X472Y137D02*
X489Y137D01*
X526Y137D02*
X543Y137D01*
X572Y137D02*
X589Y137D01*
X626Y137D02*
X643Y137D01*
X672Y137D02*
X689Y137D01*
X726Y137D02*
X743Y137D01*
X772Y137D02*
X789Y137D01*
X826Y137D02*
X843Y137D01*
X871Y137D02*
X889Y137D01*
X926Y137D02*
X943Y137D01*
X971Y137D02*
X989Y137D01*
X1026Y137D02*
X1043Y137D01*
X1071Y137D02*
X1089Y137D01*
X1126Y137D02*
X1143Y137D01*
X1171Y137D02*
X1189Y137D01*
X1226Y137D02*
X1243Y137D01*
X1271Y137D02*
X1289Y137D01*
X1326Y137D02*
X1343Y137D01*
X1371Y137D02*
X1389Y137D01*
X1426Y137D02*
X1443Y137D01*
X1471Y137D02*
X1489Y137D01*
X1526Y137D02*
X1543Y137D01*
X1571Y137D02*
X1589Y137D01*
X1626Y137D02*
X1643Y137D01*
X1671Y137D02*
X1689Y137D01*
X1726Y137D02*
X1743Y137D01*
X1771Y137D02*
X1789Y137D01*
X1826Y137D02*
X1843Y137D01*
X1871Y137D02*
X1889Y137D01*
X1926Y137D02*
X1943Y137D01*
X1971Y137D02*
X1989Y137D01*
X2025Y137D02*
X2042Y137D01*
X2071Y137D02*
X2088Y137D01*
X126Y136D02*
X143Y136D01*
X172Y136D02*
X189Y136D01*
X226Y136D02*
X243Y136D01*
X272Y136D02*
X289Y136D01*
X326Y136D02*
X343Y136D01*
X372Y136D02*
X389Y136D01*
X426Y136D02*
X443Y136D01*
X472Y136D02*
X489Y136D01*
X526Y136D02*
X543Y136D01*
X572Y136D02*
X589Y136D01*
X626Y136D02*
X643Y136D01*
X672Y136D02*
X689Y136D01*
X726Y136D02*
X743Y136D01*
X772Y136D02*
X789Y136D01*
X826Y136D02*
X843Y136D01*
X872Y136D02*
X889Y136D01*
X926Y136D02*
X943Y136D01*
X972Y136D02*
X989Y136D01*
X1026Y136D02*
X1043Y136D01*
X1072Y136D02*
X1089Y136D01*
X1126Y136D02*
X1143Y136D01*
X1172Y136D02*
X1189Y136D01*
X1226Y136D02*
X1243Y136D01*
X1272Y136D02*
X1289Y136D01*
X1326Y136D02*
X1343Y136D01*
X1372Y136D02*
X1389Y136D01*
X1426Y136D02*
X1443Y136D01*
X1472Y136D02*
X1489Y136D01*
X1526Y136D02*
X1543Y136D01*
X1572Y136D02*
X1589Y136D01*
X1626Y136D02*
X1643Y136D01*
X1672Y136D02*
X1689Y136D01*
X1726Y136D02*
X1743Y136D01*
X1771Y136D02*
X1789Y136D01*
X1826Y136D02*
X1843Y136D01*
X1871Y136D02*
X1889Y136D01*
X1926Y136D02*
X1943Y136D01*
X1971Y136D02*
X1989Y136D01*
X2025Y136D02*
X2042Y136D01*
X2071Y136D02*
X2088Y136D01*
X126Y135D02*
X143Y135D01*
X172Y135D02*
X189Y135D01*
X226Y135D02*
X243Y135D01*
X272Y135D02*
X289Y135D01*
X326Y135D02*
X343Y135D01*
X372Y135D02*
X389Y135D01*
X426Y135D02*
X443Y135D01*
X472Y135D02*
X489Y135D01*
X526Y135D02*
X543Y135D01*
X572Y135D02*
X589Y135D01*
X626Y135D02*
X643Y135D01*
X672Y135D02*
X689Y135D01*
X726Y135D02*
X743Y135D01*
X772Y135D02*
X789Y135D01*
X826Y135D02*
X843Y135D01*
X872Y135D02*
X889Y135D01*
X926Y135D02*
X943Y135D01*
X972Y135D02*
X989Y135D01*
X1026Y135D02*
X1043Y135D01*
X1072Y135D02*
X1089Y135D01*
X1126Y135D02*
X1143Y135D01*
X1172Y135D02*
X1189Y135D01*
X1226Y135D02*
X1243Y135D01*
X1272Y135D02*
X1289Y135D01*
X1326Y135D02*
X1343Y135D01*
X1372Y135D02*
X1389Y135D01*
X1426Y135D02*
X1443Y135D01*
X1472Y135D02*
X1489Y135D01*
X1526Y135D02*
X1543Y135D01*
X1572Y135D02*
X1589Y135D01*
X1626Y135D02*
X1643Y135D01*
X1672Y135D02*
X1689Y135D01*
X1726Y135D02*
X1743Y135D01*
X1772Y135D02*
X1789Y135D01*
X1826Y135D02*
X1843Y135D01*
X1872Y135D02*
X1889Y135D01*
X1926Y135D02*
X1943Y135D01*
X1972Y135D02*
X1989Y135D01*
X2025Y135D02*
X2042Y135D01*
X2071Y135D02*
X2088Y135D01*
X126Y134D02*
X143Y134D01*
X172Y134D02*
X189Y134D01*
X226Y134D02*
X243Y134D01*
X272Y134D02*
X289Y134D01*
X326Y134D02*
X343Y134D01*
X372Y134D02*
X389Y134D01*
X426Y134D02*
X443Y134D01*
X472Y134D02*
X489Y134D01*
X526Y134D02*
X543Y134D01*
X572Y134D02*
X589Y134D01*
X626Y134D02*
X643Y134D01*
X672Y134D02*
X689Y134D01*
X726Y134D02*
X743Y134D01*
X772Y134D02*
X789Y134D01*
X826Y134D02*
X843Y134D01*
X872Y134D02*
X889Y134D01*
X926Y134D02*
X943Y134D01*
X972Y134D02*
X989Y134D01*
X1026Y134D02*
X1043Y134D01*
X1072Y134D02*
X1089Y134D01*
X1126Y134D02*
X1143Y134D01*
X1172Y134D02*
X1189Y134D01*
X1226Y134D02*
X1243Y134D01*
X1272Y134D02*
X1289Y134D01*
X1326Y134D02*
X1343Y134D01*
X1372Y134D02*
X1389Y134D01*
X1426Y134D02*
X1443Y134D01*
X1472Y134D02*
X1489Y134D01*
X1526Y134D02*
X1543Y134D01*
X1572Y134D02*
X1589Y134D01*
X1626Y134D02*
X1643Y134D01*
X1672Y134D02*
X1689Y134D01*
X1726Y134D02*
X1743Y134D01*
X1772Y134D02*
X1789Y134D01*
X1826Y134D02*
X1843Y134D01*
X1872Y134D02*
X1889Y134D01*
X1926Y134D02*
X1943Y134D01*
X1972Y134D02*
X1989Y134D01*
X2025Y134D02*
X2042Y134D01*
X2071Y134D02*
X2088Y134D01*
X126Y133D02*
X143Y133D01*
X172Y133D02*
X189Y133D01*
X226Y133D02*
X243Y133D01*
X272Y133D02*
X289Y133D01*
X326Y133D02*
X343Y133D01*
X372Y133D02*
X389Y133D01*
X426Y133D02*
X443Y133D01*
X472Y133D02*
X489Y133D01*
X526Y133D02*
X543Y133D01*
X572Y133D02*
X589Y133D01*
X626Y133D02*
X643Y133D01*
X672Y133D02*
X689Y133D01*
X726Y133D02*
X743Y133D01*
X772Y133D02*
X789Y133D01*
X826Y133D02*
X843Y133D01*
X872Y133D02*
X889Y133D01*
X926Y133D02*
X943Y133D01*
X972Y133D02*
X989Y133D01*
X1026Y133D02*
X1043Y133D01*
X1072Y133D02*
X1089Y133D01*
X1126Y133D02*
X1143Y133D01*
X1172Y133D02*
X1189Y133D01*
X1226Y133D02*
X1243Y133D01*
X1272Y133D02*
X1289Y133D01*
X1326Y133D02*
X1343Y133D01*
X1372Y133D02*
X1389Y133D01*
X1426Y133D02*
X1443Y133D01*
X1472Y133D02*
X1489Y133D01*
X1526Y133D02*
X1543Y133D01*
X1572Y133D02*
X1589Y133D01*
X1626Y133D02*
X1643Y133D01*
X1672Y133D02*
X1689Y133D01*
X1726Y133D02*
X1743Y133D01*
X1771Y133D02*
X1789Y133D01*
X1826Y133D02*
X1843Y133D01*
X1871Y133D02*
X1889Y133D01*
X1926Y133D02*
X1943Y133D01*
X1971Y133D02*
X1989Y133D01*
X2025Y133D02*
X2042Y133D01*
X2071Y133D02*
X2088Y133D01*
X126Y132D02*
X143Y132D01*
X172Y132D02*
X189Y132D01*
X226Y132D02*
X243Y132D01*
X272Y132D02*
X289Y132D01*
X326Y132D02*
X343Y132D01*
X372Y132D02*
X389Y132D01*
X426Y132D02*
X443Y132D01*
X472Y132D02*
X489Y132D01*
X526Y132D02*
X543Y132D01*
X572Y132D02*
X589Y132D01*
X626Y132D02*
X643Y132D01*
X671Y132D02*
X689Y132D01*
X726Y132D02*
X743Y132D01*
X771Y132D02*
X789Y132D01*
X826Y132D02*
X843Y132D01*
X871Y132D02*
X889Y132D01*
X926Y132D02*
X943Y132D01*
X971Y132D02*
X989Y132D01*
X1026Y132D02*
X1043Y132D01*
X1071Y132D02*
X1089Y132D01*
X1126Y132D02*
X1143Y132D01*
X1171Y132D02*
X1189Y132D01*
X1226Y132D02*
X1243Y132D01*
X1271Y132D02*
X1289Y132D01*
X1326Y132D02*
X1343Y132D01*
X1371Y132D02*
X1389Y132D01*
X1426Y132D02*
X1443Y132D01*
X1471Y132D02*
X1489Y132D01*
X1526Y132D02*
X1543Y132D01*
X1571Y132D02*
X1589Y132D01*
X1626Y132D02*
X1643Y132D01*
X1671Y132D02*
X1689Y132D01*
X1726Y132D02*
X1743Y132D01*
X1771Y132D02*
X1789Y132D01*
X1826Y132D02*
X1843Y132D01*
X1871Y132D02*
X1889Y132D01*
X1926Y132D02*
X1943Y132D01*
X1971Y132D02*
X1989Y132D01*
X2025Y132D02*
X2042Y132D01*
X2071Y132D02*
X2088Y132D01*
X126Y131D02*
X143Y131D01*
X171Y131D02*
X189Y131D01*
X226Y131D02*
X243Y131D01*
X271Y131D02*
X289Y131D01*
X326Y131D02*
X343Y131D01*
X371Y131D02*
X389Y131D01*
X426Y131D02*
X443Y131D01*
X471Y131D02*
X489Y131D01*
X526Y131D02*
X543Y131D01*
X571Y131D02*
X589Y131D01*
X626Y131D02*
X643Y131D01*
X671Y131D02*
X689Y131D01*
X726Y131D02*
X743Y131D01*
X771Y131D02*
X789Y131D01*
X826Y131D02*
X843Y131D01*
X871Y131D02*
X889Y131D01*
X926Y131D02*
X943Y131D01*
X971Y131D02*
X989Y131D01*
X1026Y131D02*
X1043Y131D01*
X1071Y131D02*
X1089Y131D01*
X1126Y131D02*
X1143Y131D01*
X1171Y131D02*
X1189Y131D01*
X1226Y131D02*
X1243Y131D01*
X1271Y131D02*
X1289Y131D01*
X1326Y131D02*
X1343Y131D01*
X1371Y131D02*
X1389Y131D01*
X1426Y131D02*
X1443Y131D01*
X1471Y131D02*
X1489Y131D01*
X1526Y131D02*
X1543Y131D01*
X1571Y131D02*
X1589Y131D01*
X1626Y131D02*
X1643Y131D01*
X1671Y131D02*
X1689Y131D01*
X1726Y131D02*
X1743Y131D01*
X1771Y131D02*
X1789Y131D01*
X1826Y131D02*
X1843Y131D01*
X1871Y131D02*
X1889Y131D01*
X1926Y131D02*
X1943Y131D01*
X1971Y131D02*
X1989Y131D01*
X2025Y131D02*
X2043Y131D01*
X2071Y131D02*
X2088Y131D01*
X126Y130D02*
X144Y130D01*
X171Y130D02*
X189Y130D01*
X226Y130D02*
X244Y130D01*
X271Y130D02*
X289Y130D01*
X326Y130D02*
X343Y130D01*
X371Y130D02*
X389Y130D01*
X426Y130D02*
X443Y130D01*
X471Y130D02*
X489Y130D01*
X526Y130D02*
X543Y130D01*
X571Y130D02*
X589Y130D01*
X626Y130D02*
X643Y130D01*
X671Y130D02*
X689Y130D01*
X726Y130D02*
X743Y130D01*
X771Y130D02*
X789Y130D01*
X826Y130D02*
X843Y130D01*
X871Y130D02*
X889Y130D01*
X926Y130D02*
X943Y130D01*
X971Y130D02*
X989Y130D01*
X1026Y130D02*
X1043Y130D01*
X1071Y130D02*
X1089Y130D01*
X1126Y130D02*
X1143Y130D01*
X1171Y130D02*
X1189Y130D01*
X1226Y130D02*
X1243Y130D01*
X1271Y130D02*
X1289Y130D01*
X1326Y130D02*
X1343Y130D01*
X1371Y130D02*
X1389Y130D01*
X1426Y130D02*
X1443Y130D01*
X1471Y130D02*
X1489Y130D01*
X1526Y130D02*
X1543Y130D01*
X1571Y130D02*
X1589Y130D01*
X1626Y130D02*
X1643Y130D01*
X1671Y130D02*
X1689Y130D01*
X1726Y130D02*
X1743Y130D01*
X1771Y130D02*
X1789Y130D01*
X1826Y130D02*
X1843Y130D01*
X1871Y130D02*
X1889Y130D01*
X1926Y130D02*
X1943Y130D01*
X1971Y130D02*
X1989Y130D01*
X2025Y130D02*
X2043Y130D01*
X2070Y130D02*
X2088Y130D01*
X126Y129D02*
X144Y129D01*
X171Y129D02*
X189Y129D01*
X226Y129D02*
X244Y129D01*
X271Y129D02*
X289Y129D01*
X326Y129D02*
X344Y129D01*
X371Y129D02*
X389Y129D01*
X426Y129D02*
X444Y129D01*
X471Y129D02*
X489Y129D01*
X526Y129D02*
X544Y129D01*
X571Y129D02*
X589Y129D01*
X626Y129D02*
X644Y129D01*
X671Y129D02*
X689Y129D01*
X726Y129D02*
X744Y129D01*
X771Y129D02*
X789Y129D01*
X826Y129D02*
X844Y129D01*
X871Y129D02*
X889Y129D01*
X926Y129D02*
X944Y129D01*
X971Y129D02*
X989Y129D01*
X1026Y129D02*
X1044Y129D01*
X1071Y129D02*
X1089Y129D01*
X1126Y129D02*
X1144Y129D01*
X1171Y129D02*
X1189Y129D01*
X1226Y129D02*
X1244Y129D01*
X1271Y129D02*
X1289Y129D01*
X1326Y129D02*
X1344Y129D01*
X1371Y129D02*
X1389Y129D01*
X1426Y129D02*
X1444Y129D01*
X1471Y129D02*
X1489Y129D01*
X1526Y129D02*
X1544Y129D01*
X1571Y129D02*
X1589Y129D01*
X1626Y129D02*
X1644Y129D01*
X1671Y129D02*
X1689Y129D01*
X1726Y129D02*
X1744Y129D01*
X1771Y129D02*
X1789Y129D01*
X1826Y129D02*
X1844Y129D01*
X1871Y129D02*
X1889Y129D01*
X1926Y129D02*
X1944Y129D01*
X1971Y129D02*
X1989Y129D01*
X2025Y129D02*
X2043Y129D01*
X2070Y129D02*
X2088Y129D01*
X126Y128D02*
X144Y128D01*
X170Y128D02*
X189Y128D01*
X226Y128D02*
X244Y128D01*
X270Y128D02*
X289Y128D01*
X326Y128D02*
X344Y128D01*
X370Y128D02*
X389Y128D01*
X426Y128D02*
X444Y128D01*
X470Y128D02*
X489Y128D01*
X526Y128D02*
X544Y128D01*
X570Y128D02*
X589Y128D01*
X626Y128D02*
X644Y128D01*
X670Y128D02*
X689Y128D01*
X726Y128D02*
X744Y128D01*
X770Y128D02*
X789Y128D01*
X826Y128D02*
X844Y128D01*
X870Y128D02*
X889Y128D01*
X926Y128D02*
X944Y128D01*
X970Y128D02*
X989Y128D01*
X1026Y128D02*
X1044Y128D01*
X1070Y128D02*
X1089Y128D01*
X1126Y128D02*
X1144Y128D01*
X1170Y128D02*
X1189Y128D01*
X1226Y128D02*
X1244Y128D01*
X1270Y128D02*
X1289Y128D01*
X1326Y128D02*
X1344Y128D01*
X1370Y128D02*
X1389Y128D01*
X1426Y128D02*
X1444Y128D01*
X1470Y128D02*
X1489Y128D01*
X1526Y128D02*
X1544Y128D01*
X1570Y128D02*
X1589Y128D01*
X1626Y128D02*
X1644Y128D01*
X1670Y128D02*
X1689Y128D01*
X1726Y128D02*
X1744Y128D01*
X1770Y128D02*
X1789Y128D01*
X1826Y128D02*
X1844Y128D01*
X1870Y128D02*
X1889Y128D01*
X1926Y128D02*
X1944Y128D01*
X1970Y128D02*
X1989Y128D01*
X2025Y128D02*
X2044Y128D01*
X2070Y128D02*
X2088Y128D01*
X126Y127D02*
X145Y127D01*
X170Y127D02*
X189Y127D01*
X226Y127D02*
X245Y127D01*
X270Y127D02*
X289Y127D01*
X326Y127D02*
X345Y127D01*
X370Y127D02*
X389Y127D01*
X426Y127D02*
X445Y127D01*
X470Y127D02*
X489Y127D01*
X526Y127D02*
X545Y127D01*
X570Y127D02*
X589Y127D01*
X626Y127D02*
X645Y127D01*
X670Y127D02*
X689Y127D01*
X726Y127D02*
X745Y127D01*
X770Y127D02*
X789Y127D01*
X826Y127D02*
X845Y127D01*
X870Y127D02*
X889Y127D01*
X926Y127D02*
X945Y127D01*
X970Y127D02*
X989Y127D01*
X1026Y127D02*
X1045Y127D01*
X1070Y127D02*
X1089Y127D01*
X1126Y127D02*
X1145Y127D01*
X1169Y127D02*
X1189Y127D01*
X1226Y127D02*
X1245Y127D01*
X1269Y127D02*
X1289Y127D01*
X1326Y127D02*
X1345Y127D01*
X1369Y127D02*
X1389Y127D01*
X1426Y127D02*
X1445Y127D01*
X1469Y127D02*
X1489Y127D01*
X1526Y127D02*
X1545Y127D01*
X1569Y127D02*
X1589Y127D01*
X1626Y127D02*
X1645Y127D01*
X1669Y127D02*
X1689Y127D01*
X1726Y127D02*
X1745Y127D01*
X1769Y127D02*
X1789Y127D01*
X1826Y127D02*
X1845Y127D01*
X1869Y127D02*
X1889Y127D01*
X1926Y127D02*
X1945Y127D01*
X1969Y127D02*
X1989Y127D01*
X2025Y127D02*
X2044Y127D01*
X2069Y127D02*
X2088Y127D01*
X126Y126D02*
X146Y126D01*
X169Y126D02*
X189Y126D01*
X226Y126D02*
X246Y126D01*
X269Y126D02*
X289Y126D01*
X326Y126D02*
X346Y126D01*
X369Y126D02*
X389Y126D01*
X426Y126D02*
X446Y126D01*
X469Y126D02*
X489Y126D01*
X526Y126D02*
X546Y126D01*
X569Y126D02*
X589Y126D01*
X626Y126D02*
X646Y126D01*
X669Y126D02*
X689Y126D01*
X726Y126D02*
X746Y126D01*
X769Y126D02*
X789Y126D01*
X826Y126D02*
X846Y126D01*
X869Y126D02*
X889Y126D01*
X926Y126D02*
X946Y126D01*
X969Y126D02*
X989Y126D01*
X1026Y126D02*
X1046Y126D01*
X1069Y126D02*
X1089Y126D01*
X1126Y126D02*
X1146Y126D01*
X1169Y126D02*
X1189Y126D01*
X1226Y126D02*
X1246Y126D01*
X1269Y126D02*
X1289Y126D01*
X1326Y126D02*
X1346Y126D01*
X1369Y126D02*
X1389Y126D01*
X1426Y126D02*
X1446Y126D01*
X1469Y126D02*
X1489Y126D01*
X1526Y126D02*
X1546Y126D01*
X1569Y126D02*
X1589Y126D01*
X1626Y126D02*
X1646Y126D01*
X1669Y126D02*
X1689Y126D01*
X1726Y126D02*
X1746Y126D01*
X1769Y126D02*
X1789Y126D01*
X1826Y126D02*
X1846Y126D01*
X1869Y126D02*
X1889Y126D01*
X1926Y126D02*
X1946Y126D01*
X1969Y126D02*
X1989Y126D01*
X2025Y126D02*
X2045Y126D01*
X2068Y126D02*
X2088Y126D01*
X126Y125D02*
X147Y125D01*
X168Y125D02*
X189Y125D01*
X226Y125D02*
X247Y125D01*
X268Y125D02*
X289Y125D01*
X326Y125D02*
X347Y125D01*
X368Y125D02*
X389Y125D01*
X426Y125D02*
X447Y125D01*
X468Y125D02*
X489Y125D01*
X526Y125D02*
X547Y125D01*
X568Y125D02*
X589Y125D01*
X626Y125D02*
X647Y125D01*
X668Y125D02*
X689Y125D01*
X726Y125D02*
X747Y125D01*
X768Y125D02*
X789Y125D01*
X826Y125D02*
X847Y125D01*
X868Y125D02*
X889Y125D01*
X926Y125D02*
X947Y125D01*
X968Y125D02*
X989Y125D01*
X1026Y125D02*
X1047Y125D01*
X1068Y125D02*
X1089Y125D01*
X1126Y125D02*
X1147Y125D01*
X1168Y125D02*
X1189Y125D01*
X1226Y125D02*
X1247Y125D01*
X1268Y125D02*
X1289Y125D01*
X1326Y125D02*
X1346Y125D01*
X1368Y125D02*
X1389Y125D01*
X1426Y125D02*
X1446Y125D01*
X1468Y125D02*
X1489Y125D01*
X1526Y125D02*
X1546Y125D01*
X1568Y125D02*
X1589Y125D01*
X1626Y125D02*
X1646Y125D01*
X1668Y125D02*
X1689Y125D01*
X1726Y125D02*
X1746Y125D01*
X1768Y125D02*
X1789Y125D01*
X1826Y125D02*
X1846Y125D01*
X1868Y125D02*
X1889Y125D01*
X1926Y125D02*
X1946Y125D01*
X1968Y125D02*
X1989Y125D01*
X2025Y125D02*
X2046Y125D01*
X2067Y125D02*
X2088Y125D01*
X126Y124D02*
X148Y124D01*
X167Y124D02*
X189Y124D01*
X226Y124D02*
X248Y124D01*
X267Y124D02*
X289Y124D01*
X326Y124D02*
X348Y124D01*
X367Y124D02*
X389Y124D01*
X426Y124D02*
X448Y124D01*
X467Y124D02*
X489Y124D01*
X526Y124D02*
X548Y124D01*
X567Y124D02*
X589Y124D01*
X626Y124D02*
X648Y124D01*
X667Y124D02*
X689Y124D01*
X726Y124D02*
X748Y124D01*
X767Y124D02*
X789Y124D01*
X826Y124D02*
X848Y124D01*
X867Y124D02*
X889Y124D01*
X926Y124D02*
X948Y124D01*
X967Y124D02*
X989Y124D01*
X1026Y124D02*
X1048Y124D01*
X1067Y124D02*
X1089Y124D01*
X1126Y124D02*
X1148Y124D01*
X1167Y124D02*
X1189Y124D01*
X1226Y124D02*
X1248Y124D01*
X1267Y124D02*
X1289Y124D01*
X1326Y124D02*
X1348Y124D01*
X1367Y124D02*
X1389Y124D01*
X1426Y124D02*
X1448Y124D01*
X1467Y124D02*
X1489Y124D01*
X1526Y124D02*
X1548Y124D01*
X1567Y124D02*
X1589Y124D01*
X1626Y124D02*
X1648Y124D01*
X1667Y124D02*
X1689Y124D01*
X1726Y124D02*
X1748Y124D01*
X1767Y124D02*
X1789Y124D01*
X1826Y124D02*
X1848Y124D01*
X1867Y124D02*
X1889Y124D01*
X1926Y124D02*
X1948Y124D01*
X1967Y124D02*
X1989Y124D01*
X2025Y124D02*
X2047Y124D01*
X2066Y124D02*
X2088Y124D01*
X126Y123D02*
X149Y123D01*
X166Y123D02*
X189Y123D01*
X226Y123D02*
X249Y123D01*
X266Y123D02*
X289Y123D01*
X326Y123D02*
X349Y123D01*
X366Y123D02*
X389Y123D01*
X426Y123D02*
X449Y123D01*
X466Y123D02*
X489Y123D01*
X526Y123D02*
X549Y123D01*
X566Y123D02*
X589Y123D01*
X626Y123D02*
X649Y123D01*
X666Y123D02*
X689Y123D01*
X726Y123D02*
X749Y123D01*
X766Y123D02*
X789Y123D01*
X826Y123D02*
X849Y123D01*
X866Y123D02*
X889Y123D01*
X926Y123D02*
X949Y123D01*
X966Y123D02*
X989Y123D01*
X1026Y123D02*
X1049Y123D01*
X1066Y123D02*
X1089Y123D01*
X1126Y123D02*
X1149Y123D01*
X1166Y123D02*
X1189Y123D01*
X1226Y123D02*
X1249Y123D01*
X1266Y123D02*
X1289Y123D01*
X1326Y123D02*
X1349Y123D01*
X1366Y123D02*
X1389Y123D01*
X1426Y123D02*
X1449Y123D01*
X1466Y123D02*
X1489Y123D01*
X1526Y123D02*
X1549Y123D01*
X1566Y123D02*
X1589Y123D01*
X1626Y123D02*
X1649Y123D01*
X1666Y123D02*
X1689Y123D01*
X1726Y123D02*
X1749Y123D01*
X1766Y123D02*
X1789Y123D01*
X1826Y123D02*
X1849Y123D01*
X1866Y123D02*
X1889Y123D01*
X1926Y123D02*
X1949Y123D01*
X1966Y123D02*
X1989Y123D01*
X2025Y123D02*
X2048Y123D01*
X2065Y123D02*
X2088Y123D01*
X126Y122D02*
X151Y122D01*
X164Y122D02*
X189Y122D01*
X226Y122D02*
X251Y122D01*
X264Y122D02*
X289Y122D01*
X326Y122D02*
X351Y122D01*
X364Y122D02*
X389Y122D01*
X426Y122D02*
X451Y122D01*
X464Y122D02*
X489Y122D01*
X526Y122D02*
X551Y122D01*
X564Y122D02*
X589Y122D01*
X626Y122D02*
X651Y122D01*
X664Y122D02*
X689Y122D01*
X726Y122D02*
X751Y122D01*
X764Y122D02*
X789Y122D01*
X826Y122D02*
X850Y122D01*
X864Y122D02*
X889Y122D01*
X926Y122D02*
X950Y122D01*
X964Y122D02*
X989Y122D01*
X1026Y122D02*
X1050Y122D01*
X1064Y122D02*
X1089Y122D01*
X1126Y122D02*
X1150Y122D01*
X1164Y122D02*
X1189Y122D01*
X1226Y122D02*
X1250Y122D01*
X1264Y122D02*
X1289Y122D01*
X1326Y122D02*
X1350Y122D01*
X1364Y122D02*
X1389Y122D01*
X1426Y122D02*
X1450Y122D01*
X1464Y122D02*
X1489Y122D01*
X1526Y122D02*
X1550Y122D01*
X1564Y122D02*
X1589Y122D01*
X1626Y122D02*
X1650Y122D01*
X1664Y122D02*
X1689Y122D01*
X1726Y122D02*
X1750Y122D01*
X1764Y122D02*
X1789Y122D01*
X1826Y122D02*
X1850Y122D01*
X1864Y122D02*
X1889Y122D01*
X1926Y122D02*
X1950Y122D01*
X1964Y122D02*
X1989Y122D01*
X2025Y122D02*
X2050Y122D01*
X2063Y122D02*
X2088Y122D01*
X126Y121D02*
X153Y121D01*
X161Y121D02*
X189Y121D01*
X226Y121D02*
X253Y121D01*
X261Y121D02*
X289Y121D01*
X326Y121D02*
X353Y121D01*
X361Y121D02*
X389Y121D01*
X426Y121D02*
X453Y121D01*
X461Y121D02*
X489Y121D01*
X526Y121D02*
X553Y121D01*
X561Y121D02*
X589Y121D01*
X626Y121D02*
X653Y121D01*
X661Y121D02*
X689Y121D01*
X726Y121D02*
X753Y121D01*
X761Y121D02*
X789Y121D01*
X826Y121D02*
X853Y121D01*
X861Y121D02*
X889Y121D01*
X926Y121D02*
X953Y121D01*
X961Y121D02*
X989Y121D01*
X1026Y121D02*
X1053Y121D01*
X1061Y121D02*
X1089Y121D01*
X1126Y121D02*
X1153Y121D01*
X1161Y121D02*
X1189Y121D01*
X1226Y121D02*
X1253Y121D01*
X1261Y121D02*
X1289Y121D01*
X1326Y121D02*
X1353Y121D01*
X1361Y121D02*
X1389Y121D01*
X1426Y121D02*
X1453Y121D01*
X1461Y121D02*
X1489Y121D01*
X1526Y121D02*
X1553Y121D01*
X1561Y121D02*
X1589Y121D01*
X1626Y121D02*
X1653Y121D01*
X1661Y121D02*
X1689Y121D01*
X1726Y121D02*
X1753Y121D01*
X1761Y121D02*
X1789Y121D01*
X1826Y121D02*
X1853Y121D01*
X1861Y121D02*
X1889Y121D01*
X1926Y121D02*
X1953Y121D01*
X1961Y121D02*
X1989Y121D01*
X2025Y121D02*
X2053Y121D01*
X2061Y121D02*
X2088Y121D01*
X126Y120D02*
X189Y120D01*
X226Y120D02*
X289Y120D01*
X326Y120D02*
X389Y120D01*
X426Y120D02*
X489Y120D01*
X526Y120D02*
X589Y120D01*
X626Y120D02*
X689Y120D01*
X726Y120D02*
X789Y120D01*
X826Y120D02*
X889Y120D01*
X926Y120D02*
X989Y120D01*
X1026Y120D02*
X1089Y120D01*
X1126Y120D02*
X1189Y120D01*
X1226Y120D02*
X1289Y120D01*
X1326Y120D02*
X1389Y120D01*
X1426Y120D02*
X1489Y120D01*
X1526Y120D02*
X1589Y120D01*
X1626Y120D02*
X1689Y120D01*
X1726Y120D02*
X1789Y120D01*
X1826Y120D02*
X1889Y120D01*
X1926Y120D02*
X1989Y120D01*
X2025Y120D02*
X2088Y120D01*
X126Y119D02*
X189Y119D01*
X226Y119D02*
X289Y119D01*
X326Y119D02*
X389Y119D01*
X426Y119D02*
X489Y119D01*
X526Y119D02*
X589Y119D01*
X626Y119D02*
X689Y119D01*
X726Y119D02*
X789Y119D01*
X826Y119D02*
X889Y119D01*
X926Y119D02*
X989Y119D01*
X1026Y119D02*
X1089Y119D01*
X1126Y119D02*
X1189Y119D01*
X1226Y119D02*
X1289Y119D01*
X1326Y119D02*
X1389Y119D01*
X1426Y119D02*
X1489Y119D01*
X1526Y119D02*
X1589Y119D01*
X1626Y119D02*
X1689Y119D01*
X1726Y119D02*
X1789Y119D01*
X1826Y119D02*
X1889Y119D01*
X1926Y119D02*
X1989Y119D01*
X2025Y119D02*
X2088Y119D01*
X126Y118D02*
X189Y118D01*
X226Y118D02*
X289Y118D01*
X326Y118D02*
X389Y118D01*
X426Y118D02*
X489Y118D01*
X526Y118D02*
X589Y118D01*
X626Y118D02*
X689Y118D01*
X726Y118D02*
X789Y118D01*
X826Y118D02*
X889Y118D01*
X926Y118D02*
X989Y118D01*
X1026Y118D02*
X1089Y118D01*
X1126Y118D02*
X1189Y118D01*
X1226Y118D02*
X1289Y118D01*
X1326Y118D02*
X1389Y118D01*
X1426Y118D02*
X1489Y118D01*
X1526Y118D02*
X1589Y118D01*
X1626Y118D02*
X1689Y118D01*
X1726Y118D02*
X1789Y118D01*
X1826Y118D02*
X1889Y118D01*
X1926Y118D02*
X1989Y118D01*
X2025Y118D02*
X2088Y118D01*
X126Y117D02*
X189Y117D01*
X226Y117D02*
X289Y117D01*
X326Y117D02*
X389Y117D01*
X426Y117D02*
X489Y117D01*
X526Y117D02*
X589Y117D01*
X626Y117D02*
X689Y117D01*
X726Y117D02*
X789Y117D01*
X826Y117D02*
X889Y117D01*
X926Y117D02*
X989Y117D01*
X1026Y117D02*
X1089Y117D01*
X1126Y117D02*
X1189Y117D01*
X1226Y117D02*
X1289Y117D01*
X1326Y117D02*
X1389Y117D01*
X1426Y117D02*
X1489Y117D01*
X1526Y117D02*
X1589Y117D01*
X1626Y117D02*
X1689Y117D01*
X1726Y117D02*
X1789Y117D01*
X1826Y117D02*
X1889Y117D01*
X1926Y117D02*
X1989Y117D01*
X2025Y117D02*
X2088Y117D01*
X126Y116D02*
X189Y116D01*
X226Y116D02*
X289Y116D01*
X326Y116D02*
X389Y116D01*
X426Y116D02*
X489Y116D01*
X526Y116D02*
X589Y116D01*
X626Y116D02*
X689Y116D01*
X726Y116D02*
X789Y116D01*
X826Y116D02*
X889Y116D01*
X926Y116D02*
X989Y116D01*
X1026Y116D02*
X1089Y116D01*
X1126Y116D02*
X1189Y116D01*
X1226Y116D02*
X1289Y116D01*
X1326Y116D02*
X1389Y116D01*
X1426Y116D02*
X1489Y116D01*
X1526Y116D02*
X1589Y116D01*
X1626Y116D02*
X1689Y116D01*
X1726Y116D02*
X1789Y116D01*
X1826Y116D02*
X1889Y116D01*
X1926Y116D02*
X1989Y116D01*
X2025Y116D02*
X2088Y116D01*
X126Y115D02*
X189Y115D01*
X226Y115D02*
X289Y115D01*
X326Y115D02*
X389Y115D01*
X426Y115D02*
X489Y115D01*
X526Y115D02*
X589Y115D01*
X626Y115D02*
X689Y115D01*
X726Y115D02*
X789Y115D01*
X826Y115D02*
X889Y115D01*
X926Y115D02*
X989Y115D01*
X1026Y115D02*
X1089Y115D01*
X1126Y115D02*
X1189Y115D01*
X1226Y115D02*
X1289Y115D01*
X1326Y115D02*
X1389Y115D01*
X1426Y115D02*
X1489Y115D01*
X1526Y115D02*
X1589Y115D01*
X1626Y115D02*
X1689Y115D01*
X1726Y115D02*
X1789Y115D01*
X1826Y115D02*
X1889Y115D01*
X1926Y115D02*
X1989Y115D01*
X2025Y115D02*
X2088Y115D01*
X126Y114D02*
X189Y114D01*
X226Y114D02*
X289Y114D01*
X326Y114D02*
X389Y114D01*
X426Y114D02*
X489Y114D01*
X526Y114D02*
X589Y114D01*
X626Y114D02*
X689Y114D01*
X726Y114D02*
X789Y114D01*
X826Y114D02*
X889Y114D01*
X926Y114D02*
X989Y114D01*
X1026Y114D02*
X1089Y114D01*
X1126Y114D02*
X1189Y114D01*
X1226Y114D02*
X1289Y114D01*
X1326Y114D02*
X1389Y114D01*
X1426Y114D02*
X1489Y114D01*
X1526Y114D02*
X1589Y114D01*
X1626Y114D02*
X1689Y114D01*
X1726Y114D02*
X1789Y114D01*
X1826Y114D02*
X1889Y114D01*
X1926Y114D02*
X1989Y114D01*
X2025Y114D02*
X2088Y114D01*
X126Y113D02*
X189Y113D01*
X226Y113D02*
X289Y113D01*
X326Y113D02*
X389Y113D01*
X426Y113D02*
X489Y113D01*
X526Y113D02*
X589Y113D01*
X626Y113D02*
X689Y113D01*
X726Y113D02*
X789Y113D01*
X826Y113D02*
X889Y113D01*
X926Y113D02*
X989Y113D01*
X1026Y113D02*
X1089Y113D01*
X1126Y113D02*
X1189Y113D01*
X1226Y113D02*
X1289Y113D01*
X1326Y113D02*
X1389Y113D01*
X1426Y113D02*
X1489Y113D01*
X1526Y113D02*
X1589Y113D01*
X1626Y113D02*
X1689Y113D01*
X1726Y113D02*
X1789Y113D01*
X1826Y113D02*
X1889Y113D01*
X1926Y113D02*
X1989Y113D01*
X2025Y113D02*
X2088Y113D01*
X126Y112D02*
X189Y112D01*
X226Y112D02*
X289Y112D01*
X326Y112D02*
X389Y112D01*
X426Y112D02*
X489Y112D01*
X526Y112D02*
X589Y112D01*
X626Y112D02*
X689Y112D01*
X726Y112D02*
X789Y112D01*
X826Y112D02*
X889Y112D01*
X926Y112D02*
X989Y112D01*
X1026Y112D02*
X1089Y112D01*
X1126Y112D02*
X1189Y112D01*
X1226Y112D02*
X1288Y112D01*
X1326Y112D02*
X1388Y112D01*
X1426Y112D02*
X1488Y112D01*
X1526Y112D02*
X1588Y112D01*
X1626Y112D02*
X1688Y112D01*
X1726Y112D02*
X1788Y112D01*
X1826Y112D02*
X1888Y112D01*
X1926Y112D02*
X1988Y112D01*
X2025Y112D02*
X2088Y112D01*
X126Y111D02*
X188Y111D01*
X226Y111D02*
X288Y111D01*
X326Y111D02*
X388Y111D01*
X426Y111D02*
X488Y111D01*
X526Y111D02*
X588Y111D01*
X626Y111D02*
X688Y111D01*
X726Y111D02*
X788Y111D01*
X826Y111D02*
X888Y111D01*
X926Y111D02*
X988Y111D01*
X1026Y111D02*
X1088Y111D01*
X1126Y111D02*
X1188Y111D01*
X1226Y111D02*
X1288Y111D01*
X1326Y111D02*
X1388Y111D01*
X1426Y111D02*
X1488Y111D01*
X1526Y111D02*
X1588Y111D01*
X1626Y111D02*
X1688Y111D01*
X1726Y111D02*
X1788Y111D01*
X1826Y111D02*
X1888Y111D01*
X1926Y111D02*
X1988Y111D01*
X2026Y111D02*
X2088Y111D01*
X126Y110D02*
X188Y110D01*
X226Y110D02*
X288Y110D01*
X326Y110D02*
X388Y110D01*
X426Y110D02*
X488Y110D01*
X526Y110D02*
X588Y110D01*
X626Y110D02*
X688Y110D01*
X726Y110D02*
X788Y110D01*
X826Y110D02*
X888Y110D01*
X926Y110D02*
X988Y110D01*
X1026Y110D02*
X1088Y110D01*
X1126Y110D02*
X1188Y110D01*
X1226Y110D02*
X1288Y110D01*
X1326Y110D02*
X1388Y110D01*
X1426Y110D02*
X1488Y110D01*
X1526Y110D02*
X1588Y110D01*
X1626Y110D02*
X1688Y110D01*
X1726Y110D02*
X1788Y110D01*
X1826Y110D02*
X1888Y110D01*
X1926Y110D02*
X1988Y110D01*
X2026Y110D02*
X2088Y110D01*
X127Y109D02*
X188Y109D01*
X227Y109D02*
X288Y109D01*
X327Y109D02*
X388Y109D01*
X427Y109D02*
X488Y109D01*
X527Y109D02*
X588Y109D01*
X627Y109D02*
X688Y109D01*
X727Y109D02*
X788Y109D01*
X827Y109D02*
X888Y109D01*
X927Y109D02*
X988Y109D01*
X1027Y109D02*
X1088Y109D01*
X1127Y109D02*
X1188Y109D01*
X1227Y109D02*
X1288Y109D01*
X1327Y109D02*
X1388Y109D01*
X1427Y109D02*
X1488Y109D01*
X1527Y109D02*
X1588Y109D01*
X1627Y109D02*
X1688Y109D01*
X1726Y109D02*
X1788Y109D01*
X1826Y109D02*
X1888Y109D01*
X1926Y109D02*
X1988Y109D01*
X2026Y109D02*
X2087Y109D01*
X127Y108D02*
X188Y108D01*
X227Y108D02*
X288Y108D01*
X327Y108D02*
X388Y108D01*
X427Y108D02*
X488Y108D01*
X527Y108D02*
X588Y108D01*
X627Y108D02*
X688Y108D01*
X727Y108D02*
X788Y108D01*
X827Y108D02*
X888Y108D01*
X927Y108D02*
X988Y108D01*
X1027Y108D02*
X1088Y108D01*
X1127Y108D02*
X1188Y108D01*
X1227Y108D02*
X1288Y108D01*
X1327Y108D02*
X1388Y108D01*
X1427Y108D02*
X1488Y108D01*
X1527Y108D02*
X1587Y108D01*
X1627Y108D02*
X1687Y108D01*
X1727Y108D02*
X1787Y108D01*
X1827Y108D02*
X1887Y108D01*
X1927Y108D02*
X1987Y108D01*
X2026Y108D02*
X2087Y108D01*
X127Y107D02*
X187Y107D01*
X227Y107D02*
X287Y107D01*
X327Y107D02*
X387Y107D01*
X427Y107D02*
X487Y107D01*
X527Y107D02*
X587Y107D01*
X627Y107D02*
X687Y107D01*
X727Y107D02*
X787Y107D01*
X827Y107D02*
X887Y107D01*
X927Y107D02*
X987Y107D01*
X1027Y107D02*
X1087Y107D01*
X1127Y107D02*
X1187Y107D01*
X1227Y107D02*
X1287Y107D01*
X1327Y107D02*
X1387Y107D01*
X1427Y107D02*
X1487Y107D01*
X1527Y107D02*
X1587Y107D01*
X1627Y107D02*
X1687Y107D01*
X1727Y107D02*
X1787Y107D01*
X1827Y107D02*
X1887Y107D01*
X1927Y107D02*
X1987Y107D01*
X2027Y107D02*
X2087Y107D01*
X128Y106D02*
X187Y106D01*
X228Y106D02*
X287Y106D01*
X328Y106D02*
X387Y106D01*
X428Y106D02*
X487Y106D01*
X528Y106D02*
X587Y106D01*
X628Y106D02*
X687Y106D01*
X728Y106D02*
X787Y106D01*
X828Y106D02*
X887Y106D01*
X928Y106D02*
X987Y106D01*
X1028Y106D02*
X1087Y106D01*
X1128Y106D02*
X1187Y106D01*
X1228Y106D02*
X1287Y106D01*
X1328Y106D02*
X1387Y106D01*
X1428Y106D02*
X1487Y106D01*
X1528Y106D02*
X1587Y106D01*
X1628Y106D02*
X1687Y106D01*
X1728Y106D02*
X1787Y106D01*
X1828Y106D02*
X1887Y106D01*
X1928Y106D02*
X1987Y106D01*
X2027Y106D02*
X2086Y106D01*
X128Y105D02*
X186Y105D01*
X228Y105D02*
X286Y105D01*
X328Y105D02*
X386Y105D01*
X428Y105D02*
X486Y105D01*
X528Y105D02*
X586Y105D01*
X628Y105D02*
X686Y105D01*
X728Y105D02*
X786Y105D01*
X828Y105D02*
X886Y105D01*
X928Y105D02*
X986Y105D01*
X1028Y105D02*
X1086Y105D01*
X1128Y105D02*
X1186Y105D01*
X1228Y105D02*
X1286Y105D01*
X1328Y105D02*
X1386Y105D01*
X1428Y105D02*
X1486Y105D01*
X1528Y105D02*
X1586Y105D01*
X1628Y105D02*
X1686Y105D01*
X1728Y105D02*
X1786Y105D01*
X1828Y105D02*
X1886Y105D01*
X1928Y105D02*
X1986Y105D01*
X2028Y105D02*
X2086Y105D01*
X129Y104D02*
X186Y104D01*
X229Y104D02*
X286Y104D01*
X329Y104D02*
X386Y104D01*
X429Y104D02*
X486Y104D01*
X529Y104D02*
X586Y104D01*
X629Y104D02*
X686Y104D01*
X729Y104D02*
X786Y104D01*
X829Y104D02*
X886Y104D01*
X929Y104D02*
X986Y104D01*
X1029Y104D02*
X1086Y104D01*
X1129Y104D02*
X1186Y104D01*
X1229Y104D02*
X1286Y104D01*
X1329Y104D02*
X1386Y104D01*
X1429Y104D02*
X1486Y104D01*
X1529Y104D02*
X1586Y104D01*
X1629Y104D02*
X1686Y104D01*
X1729Y104D02*
X1786Y104D01*
X1829Y104D02*
X1886Y104D01*
X1929Y104D02*
X1986Y104D01*
X2028Y104D02*
X2085Y104D01*
X129Y103D02*
X185Y103D01*
X229Y103D02*
X285Y103D01*
X329Y103D02*
X385Y103D01*
X429Y103D02*
X485Y103D01*
X529Y103D02*
X585Y103D01*
X629Y103D02*
X685Y103D01*
X729Y103D02*
X785Y103D01*
X829Y103D02*
X885Y103D01*
X929Y103D02*
X985Y103D01*
X1029Y103D02*
X1085Y103D01*
X1129Y103D02*
X1185Y103D01*
X1229Y103D02*
X1285Y103D01*
X1329Y103D02*
X1385Y103D01*
X1429Y103D02*
X1485Y103D01*
X1529Y103D02*
X1585Y103D01*
X1629Y103D02*
X1685Y103D01*
X1729Y103D02*
X1785Y103D01*
X1829Y103D02*
X1885Y103D01*
X1929Y103D02*
X1985Y103D01*
X2029Y103D02*
X2084Y103D01*
X130Y102D02*
X184Y102D01*
X230Y102D02*
X284Y102D01*
X330Y102D02*
X384Y102D01*
X430Y102D02*
X484Y102D01*
X530Y102D02*
X584Y102D01*
X630Y102D02*
X684Y102D01*
X730Y102D02*
X784Y102D01*
X830Y102D02*
X884Y102D01*
X930Y102D02*
X984Y102D01*
X1030Y102D02*
X1084Y102D01*
X1130Y102D02*
X1184Y102D01*
X1230Y102D02*
X1284Y102D01*
X1330Y102D02*
X1384Y102D01*
X1430Y102D02*
X1484Y102D01*
X1530Y102D02*
X1584Y102D01*
X1630Y102D02*
X1684Y102D01*
X1730Y102D02*
X1784Y102D01*
X1830Y102D02*
X1884Y102D01*
X1930Y102D02*
X1984Y102D01*
X2030Y102D02*
X2084Y102D01*
X131Y101D02*
X184Y101D01*
X231Y101D02*
X284Y101D01*
X331Y101D02*
X384Y101D01*
X431Y101D02*
X484Y101D01*
X531Y101D02*
X584Y101D01*
X631Y101D02*
X684Y101D01*
X731Y101D02*
X784Y101D01*
X831Y101D02*
X884Y101D01*
X931Y101D02*
X984Y101D01*
X1031Y101D02*
X1084Y101D01*
X1131Y101D02*
X1184Y101D01*
X1231Y101D02*
X1284Y101D01*
X1331Y101D02*
X1384Y101D01*
X1431Y101D02*
X1484Y101D01*
X1531Y101D02*
X1584Y101D01*
X1631Y101D02*
X1684Y101D01*
X1731Y101D02*
X1783Y101D01*
X1831Y101D02*
X1883Y101D01*
X1931Y101D02*
X1983Y101D01*
X2030Y101D02*
X2083Y101D01*
X132Y100D02*
X183Y100D01*
X232Y100D02*
X283Y100D01*
X332Y100D02*
X383Y100D01*
X432Y100D02*
X483Y100D01*
X532Y100D02*
X583Y100D01*
X632Y100D02*
X683Y100D01*
X732Y100D02*
X783Y100D01*
X832Y100D02*
X883Y100D01*
X932Y100D02*
X983Y100D01*
X1032Y100D02*
X1083Y100D01*
X1132Y100D02*
X1183Y100D01*
X1232Y100D02*
X1283Y100D01*
X1332Y100D02*
X1383Y100D01*
X1432Y100D02*
X1483Y100D01*
X1532Y100D02*
X1583Y100D01*
X1632Y100D02*
X1683Y100D01*
X1732Y100D02*
X1783Y100D01*
X1832Y100D02*
X1883Y100D01*
X1932Y100D02*
X1983Y100D01*
X2031Y100D02*
X2082Y100D01*
X133Y99D02*
X182Y99D01*
X233Y99D02*
X282Y99D01*
X333Y99D02*
X382Y99D01*
X433Y99D02*
X482Y99D01*
X533Y99D02*
X582Y99D01*
X633Y99D02*
X682Y99D01*
X733Y99D02*
X782Y99D01*
X833Y99D02*
X882Y99D01*
X933Y99D02*
X982Y99D01*
X1033Y99D02*
X1082Y99D01*
X1133Y99D02*
X1182Y99D01*
X1233Y99D02*
X1282Y99D01*
X1333Y99D02*
X1382Y99D01*
X1433Y99D02*
X1482Y99D01*
X1533Y99D02*
X1582Y99D01*
X1633Y99D02*
X1682Y99D01*
X1733Y99D02*
X1782Y99D01*
X1833Y99D02*
X1882Y99D01*
X1933Y99D02*
X1982Y99D01*
X2032Y99D02*
X2081Y99D01*
X134Y98D02*
X181Y98D01*
X234Y98D02*
X281Y98D01*
X334Y98D02*
X381Y98D01*
X434Y98D02*
X481Y98D01*
X534Y98D02*
X581Y98D01*
X634Y98D02*
X681Y98D01*
X734Y98D02*
X781Y98D01*
X834Y98D02*
X881Y98D01*
X934Y98D02*
X981Y98D01*
X1034Y98D02*
X1081Y98D01*
X1134Y98D02*
X1181Y98D01*
X1234Y98D02*
X1281Y98D01*
X1334Y98D02*
X1381Y98D01*
X1434Y98D02*
X1481Y98D01*
X1534Y98D02*
X1581Y98D01*
X1634Y98D02*
X1681Y98D01*
X1734Y98D02*
X1781Y98D01*
X1834Y98D02*
X1881Y98D01*
X1934Y98D02*
X1981Y98D01*
X2033Y98D02*
X2080Y98D01*
X135Y97D02*
X180Y97D01*
X235Y97D02*
X280Y97D01*
X335Y97D02*
X380Y97D01*
X435Y97D02*
X480Y97D01*
X535Y97D02*
X580Y97D01*
X635Y97D02*
X680Y97D01*
X735Y97D02*
X780Y97D01*
X835Y97D02*
X880Y97D01*
X935Y97D02*
X980Y97D01*
X1035Y97D02*
X1080Y97D01*
X1135Y97D02*
X1180Y97D01*
X1235Y97D02*
X1280Y97D01*
X1335Y97D02*
X1380Y97D01*
X1435Y97D02*
X1480Y97D01*
X1535Y97D02*
X1580Y97D01*
X1635Y97D02*
X1680Y97D01*
X1735Y97D02*
X1779Y97D01*
X1835Y97D02*
X1879Y97D01*
X1935Y97D02*
X1979Y97D01*
X2034Y97D02*
X2079Y97D01*
X136Y96D02*
X178Y96D01*
X236Y96D02*
X278Y96D01*
X336Y96D02*
X378Y96D01*
X436Y96D02*
X478Y96D01*
X536Y96D02*
X578Y96D01*
X636Y96D02*
X678Y96D01*
X736Y96D02*
X778Y96D01*
X836Y96D02*
X878Y96D01*
X936Y96D02*
X978Y96D01*
X1036Y96D02*
X1078Y96D01*
X1136Y96D02*
X1178Y96D01*
X1236Y96D02*
X1278Y96D01*
X1336Y96D02*
X1378Y96D01*
X1436Y96D02*
X1478Y96D01*
X1536Y96D02*
X1578Y96D01*
X1636Y96D02*
X1678Y96D01*
X1736Y96D02*
X1778Y96D01*
X1836Y96D02*
X1878Y96D01*
X1936Y96D02*
X1978Y96D01*
X2036Y96D02*
X2078Y96D01*
X138Y95D02*
X177Y95D01*
X238Y95D02*
X277Y95D01*
X338Y95D02*
X377Y95D01*
X438Y95D02*
X477Y95D01*
X538Y95D02*
X577Y95D01*
X638Y95D02*
X677Y95D01*
X738Y95D02*
X777Y95D01*
X838Y95D02*
X877Y95D01*
X938Y95D02*
X977Y95D01*
X1038Y95D02*
X1077Y95D01*
X1138Y95D02*
X1177Y95D01*
X1238Y95D02*
X1277Y95D01*
X1338Y95D02*
X1377Y95D01*
X1438Y95D02*
X1477Y95D01*
X1538Y95D02*
X1577Y95D01*
X1638Y95D02*
X1677Y95D01*
X1738Y95D02*
X1777Y95D01*
X1838Y95D02*
X1877Y95D01*
X1938Y95D02*
X1976Y95D01*
X2037Y95D02*
X2076Y95D01*
X140Y94D02*
X175Y94D01*
X240Y94D02*
X275Y94D01*
X340Y94D02*
X375Y94D01*
X440Y94D02*
X475Y94D01*
X540Y94D02*
X575Y94D01*
X640Y94D02*
X675Y94D01*
X740Y94D02*
X775Y94D01*
X840Y94D02*
X875Y94D01*
X940Y94D02*
X975Y94D01*
X1039Y94D02*
X1075Y94D01*
X1139Y94D02*
X1175Y94D01*
X1239Y94D02*
X1275Y94D01*
X1339Y94D02*
X1375Y94D01*
X1439Y94D02*
X1475Y94D01*
X1539Y94D02*
X1575Y94D01*
X1639Y94D02*
X1675Y94D01*
X1739Y94D02*
X1775Y94D01*
X1839Y94D02*
X1875Y94D01*
X1939Y94D02*
X1975Y94D01*
X2039Y94D02*
X2074Y94D01*
X142Y93D02*
X173Y93D01*
X242Y93D02*
X273Y93D01*
X342Y93D02*
X373Y93D01*
X442Y93D02*
X473Y93D01*
X542Y93D02*
X573Y93D01*
X642Y93D02*
X673Y93D01*
X742Y93D02*
X773Y93D01*
X842Y93D02*
X873Y93D01*
X942Y93D02*
X973Y93D01*
X1042Y93D02*
X1073Y93D01*
X1142Y93D02*
X1173Y93D01*
X1242Y93D02*
X1273Y93D01*
X1342Y93D02*
X1373Y93D01*
X1442Y93D02*
X1473Y93D01*
X1542Y93D02*
X1573Y93D01*
X1642Y93D02*
X1673Y93D01*
X1742Y93D02*
X1773Y93D01*
X1842Y93D02*
X1873Y93D01*
X1942Y93D02*
X1973Y93D01*
X2041Y93D02*
X2072Y93D01*
X144Y92D02*
X170Y92D01*
X244Y92D02*
X270Y92D01*
X344Y92D02*
X370Y92D01*
X444Y92D02*
X470Y92D01*
X544Y92D02*
X570Y92D01*
X644Y92D02*
X670Y92D01*
X744Y92D02*
X770Y92D01*
X844Y92D02*
X870Y92D01*
X944Y92D02*
X970Y92D01*
X1044Y92D02*
X1070Y92D01*
X1144Y92D02*
X1170Y92D01*
X1244Y92D02*
X1270Y92D01*
X1344Y92D02*
X1370Y92D01*
X1444Y92D02*
X1470Y92D01*
X1544Y92D02*
X1570Y92D01*
X1644Y92D02*
X1670Y92D01*
X1744Y92D02*
X1770Y92D01*
X1844Y92D02*
X1870Y92D01*
X1944Y92D02*
X1970Y92D01*
X2044Y92D02*
X2070Y92D01*
X147Y91D02*
X167Y91D01*
X247Y91D02*
X267Y91D01*
X347Y91D02*
X367Y91D01*
X447Y91D02*
X467Y91D01*
X547Y91D02*
X567Y91D01*
X647Y91D02*
X667Y91D01*
X747Y91D02*
X767Y91D01*
X847Y91D02*
X867Y91D01*
X947Y91D02*
X967Y91D01*
X1047Y91D02*
X1067Y91D01*
X1147Y91D02*
X1167Y91D01*
X1247Y91D02*
X1267Y91D01*
X1347Y91D02*
X1367Y91D01*
X1447Y91D02*
X1467Y91D01*
X1547Y91D02*
X1567Y91D01*
X1647Y91D02*
X1667Y91D01*
X1747Y91D02*
X1767Y91D01*
X1847Y91D02*
X1867Y91D01*
X1947Y91D02*
X1967Y91D01*
X2047Y91D02*
X2067Y91D01*
X152Y90D02*
X163Y90D01*
X252Y90D02*
X263Y90D01*
X352Y90D02*
X363Y90D01*
X452Y90D02*
X463Y90D01*
X552Y90D02*
X563Y90D01*
X652Y90D02*
X663Y90D01*
X752Y90D02*
X763Y90D01*
X852Y90D02*
X863Y90D01*
X952Y90D02*
X963Y90D01*
X1052Y90D02*
X1063Y90D01*
X1152Y90D02*
X1163Y90D01*
X1252Y90D02*
X1263Y90D01*
X1352Y90D02*
X1363Y90D01*
X1452Y90D02*
X1463Y90D01*
X1552Y90D02*
X1563Y90D01*
X1652Y90D02*
X1663Y90D01*
X1752Y90D02*
X1763Y90D01*
X1852Y90D02*
X1863Y90D01*
X1952Y90D02*
X1963Y90D01*
X2051Y90D02*
X2062Y90D01*
D02*
G04 End of Mask0*
M02*