; NON-PLATED HOLES START AT T1
; THROUGH (PLATED) HOLES START AT T100
M48
INCH
T100C0.038522
T101C0.040354
T102C0.039370
T103C0.015748
T104C0.038000
%
T100
X015586Y008384
X011582Y004384
X011577Y009388
X011581Y005384
X015586Y004384
X011582Y006384
X011581Y007384
X015586Y005384
X015582Y009388
X015586Y006384
X011582Y008384
X015586Y007384
T101
X004077Y006468
X004077Y007468
T102
X004577Y005388
X005577Y005388
X006577Y004388
X006577Y005388
X001577Y004388
X001577Y005388
X002577Y004388
X003577Y004388
X002577Y005388
X003577Y005388
X004577Y004388
X005577Y004388
T103
X008040Y000562
T104
X010577Y005388
X001577Y008388
X002577Y001383
X004577Y001383
X006577Y001383
X017577Y005388
X020573Y002388
X001577Y001383
X003577Y001383
X005577Y001383
X007577Y001383
X009577Y001383
X008577Y001383
X010577Y008388
X020577Y005388
X017577Y008388
X010577Y001383
X012577Y001383
X014577Y001383
X016577Y001383
X011577Y001383
X013577Y001383
X015577Y001383
X017577Y001383
X019577Y001383
X010577Y006388
X018577Y001383
X002577Y002388
X004577Y002388
X006577Y002388
X001577Y002388
X003577Y002388
X005577Y002388
X007577Y002388
X009577Y002388
X010577Y004388
X008577Y002388
X001577Y007388
X020573Y001383
X017577Y004388
X010577Y009388
X017577Y009388
X010577Y002388
X012577Y002388
X014577Y002388
X016577Y002388
X011577Y002388
X013577Y002388
X015577Y002388
X017577Y002388
X019577Y002388
X010577Y007388
X020577Y004388
X018577Y002388
X017577Y007388
T00
M30
