; NON-PLATED HOLES START AT T1
; THROUGH (PLATED) HOLES START AT T100
M48
INCH
T1C0.086614
T100C0.040000
T101C0.038000
T102C0.035000
%
T1
X012042Y001052
X001018Y001052
X001018Y016801
X012042Y016801
T100
X011238Y005982
X011238Y011982
X005238Y005982
X011238Y006982
X009738Y015982
X005238Y004982
X005238Y009982
X011238Y013982
X005238Y013982
X011238Y009982
X011238Y003982
X011238Y008982
X010088Y010532
X005238Y012982
X005738Y015982
X005238Y006982
X011238Y004982
X011238Y007982
X005238Y014982
X005238Y010982
X011238Y014982
X010088Y011532
X005238Y008982
X006738Y015982
X008738Y015982
X011238Y012982
X005238Y007982
X010738Y015982
X005238Y011982
X005238Y003982
X007738Y015982
X011238Y010982
T101
X002018Y007745
X001018Y007745
X002018Y012470
X002018Y008926
X001018Y013651
X001018Y011289
X001018Y005383
X001018Y014832
X003018Y012470
X003018Y007745
X003018Y006564
X002018Y013651
X003018Y014832
X001018Y006564
X001018Y010108
X010090Y002675
X003018Y008926
X001018Y004202
X003018Y010108
X002018Y006564
X002018Y014832
X002018Y005383
X001018Y008926
X002018Y011289
X003018Y004202
X002018Y004202
X003018Y005383
X002018Y010108
X010090Y001675
X003018Y013651
X003018Y011289
X001018Y012470
T102
X006498Y002627
X006498Y001446
X008498Y001446
X008498Y002627
T00
M30
