G04 MADE WITH FRITZING*
G04 WWW.FRITZING.ORG*
G04 DOUBLE SIDED*
G04 HOLES PLATED*
G04 CONTOUR ON CENTER OF CONTOUR VECTOR*
%ASAXBY*%
%FSLAX23Y23*%
%MOIN*%
%OFA0B0*%
%SFA1.0B1.0*%
%ADD10C,0.074000*%
%ADD11C,0.078000*%
%ADD12C,0.075000*%
%ADD13R,0.078000X0.078000*%
%ADD14C,0.048000*%
%ADD15C,0.032000*%
%ADD16C,0.024000*%
%ADD17C,0.020000*%
%LNCOPPER1*%
G90*
G70*
G54D10*
X1074Y1598D03*
X974Y1598D03*
X874Y1598D03*
X774Y1598D03*
X674Y1598D03*
X574Y1598D03*
X1124Y1498D03*
X1124Y1398D03*
X1124Y1298D03*
X1124Y1198D03*
X1124Y1098D03*
X1009Y1153D03*
X1009Y1053D03*
X1124Y998D03*
X1124Y898D03*
X1124Y798D03*
X1124Y698D03*
X1124Y598D03*
X1124Y498D03*
X1124Y398D03*
X524Y398D03*
X524Y498D03*
X524Y598D03*
X524Y698D03*
X524Y798D03*
X524Y898D03*
X524Y998D03*
X524Y1098D03*
X524Y1198D03*
X524Y1298D03*
X524Y1398D03*
X524Y1498D03*
G54D11*
X102Y1129D03*
X202Y1129D03*
X302Y1129D03*
X102Y656D03*
X202Y656D03*
X302Y656D03*
X102Y1483D03*
X202Y1483D03*
X302Y1483D03*
X102Y1247D03*
X202Y1247D03*
X302Y1247D03*
X102Y1365D03*
X202Y1365D03*
X302Y1365D03*
G54D12*
X850Y145D03*
X650Y145D03*
X850Y263D03*
X650Y263D03*
G54D11*
X1009Y268D03*
X1009Y168D03*
X102Y1011D03*
X202Y1011D03*
X302Y1011D03*
X102Y893D03*
X202Y893D03*
X302Y893D03*
X102Y775D03*
X202Y775D03*
X302Y775D03*
X102Y538D03*
X202Y538D03*
X302Y538D03*
X102Y420D03*
X202Y420D03*
X302Y420D03*
G54D13*
X102Y1129D03*
X102Y656D03*
X102Y1483D03*
X102Y1247D03*
X102Y1365D03*
X102Y1011D03*
X102Y775D03*
X102Y538D03*
X102Y420D03*
G54D14*
X202Y519D02*
X202Y439D01*
D02*
X202Y637D02*
X202Y557D01*
D02*
X202Y794D02*
X202Y874D01*
G54D15*
D02*
X504Y1101D02*
X321Y1126D01*
D02*
X321Y1010D02*
X504Y999D01*
D02*
X321Y893D02*
X504Y898D01*
D02*
X321Y777D02*
X504Y796D01*
G54D14*
D02*
X202Y1346D02*
X202Y1266D01*
D02*
X867Y147D02*
X990Y165D01*
D02*
X202Y1110D02*
X202Y1030D01*
D02*
X990Y267D02*
X867Y263D01*
D02*
X693Y380D02*
X836Y273D01*
D02*
X495Y263D02*
X693Y380D01*
D02*
X259Y263D02*
X495Y263D01*
D02*
X208Y402D02*
X259Y263D01*
G54D16*
D02*
X417Y420D02*
X321Y420D01*
D02*
X508Y486D02*
X417Y420D01*
D02*
X506Y588D02*
X417Y538D01*
D02*
X417Y538D02*
X321Y538D01*
D02*
X417Y656D02*
X321Y656D01*
D02*
X505Y691D02*
X417Y656D01*
G54D14*
D02*
X202Y756D02*
X202Y675D01*
D02*
X202Y992D02*
X202Y912D01*
D02*
X202Y1228D02*
X202Y1148D01*
D02*
X202Y1464D02*
X202Y1384D01*
G54D16*
D02*
X1205Y1561D02*
X1124Y1680D01*
D02*
X1205Y539D02*
X1205Y1561D01*
D02*
X1124Y1680D02*
X457Y1680D01*
D02*
X1142Y507D02*
X1205Y539D01*
D02*
X457Y1680D02*
X314Y1498D01*
G54D17*
X73Y922D02*
X131Y922D01*
X131Y864D01*
X73Y864D01*
X73Y922D01*
D02*
G04 End of Copper1*
M02*