G04 MADE WITH FRITZING*
G04 WWW.FRITZING.ORG*
G04 DOUBLE SIDED*
G04 HOLES PLATED*
G04 CONTOUR ON CENTER OF CONTOUR VECTOR*
%ASAXBY*%
%FSLAX23Y23*%
%MOIN*%
%OFA0B0*%
%SFA1.0B1.0*%
%ADD10C,0.084000*%
%ADD11C,0.088000*%
%ADD12C,0.085000*%
%ADD13C,0.096614*%
%ADD14R,0.088000X0.088000*%
%ADD15C,0.030000*%
%LNMASK0*%
G90*
G70*
G54D10*
X1074Y1598D03*
X974Y1598D03*
X874Y1598D03*
X774Y1598D03*
X674Y1598D03*
X574Y1598D03*
X1124Y1498D03*
X1124Y1398D03*
X1124Y1298D03*
X1124Y1198D03*
X1124Y1098D03*
X1009Y1153D03*
X1009Y1053D03*
X1124Y998D03*
X1124Y898D03*
X1124Y798D03*
X1124Y698D03*
X1124Y598D03*
X1124Y498D03*
X1124Y398D03*
X524Y398D03*
X524Y498D03*
X524Y598D03*
X524Y698D03*
X524Y798D03*
X524Y898D03*
X524Y998D03*
X524Y1098D03*
X524Y1198D03*
X524Y1298D03*
X524Y1398D03*
X524Y1498D03*
G54D11*
X102Y893D03*
X202Y893D03*
X302Y893D03*
X102Y1365D03*
X202Y1365D03*
X302Y1365D03*
X102Y1011D03*
X202Y1011D03*
X302Y1011D03*
X102Y1247D03*
X202Y1247D03*
X302Y1247D03*
X102Y656D03*
X202Y656D03*
X302Y656D03*
X102Y1129D03*
X202Y1129D03*
X302Y1129D03*
X102Y1483D03*
X202Y1483D03*
X302Y1483D03*
X102Y775D03*
X202Y775D03*
X302Y775D03*
X102Y538D03*
X202Y538D03*
X302Y538D03*
X102Y420D03*
X202Y420D03*
X302Y420D03*
G54D12*
X850Y145D03*
X650Y145D03*
X850Y263D03*
X650Y263D03*
G54D11*
X1009Y268D03*
X1009Y168D03*
G54D13*
X102Y1680D03*
X102Y105D03*
X1204Y1680D03*
X1204Y105D03*
G54D14*
X102Y1365D03*
X102Y1011D03*
X102Y1247D03*
X102Y656D03*
X102Y1129D03*
X102Y1483D03*
X102Y775D03*
X102Y538D03*
X102Y420D03*
G54D15*
G36*
X73Y922D02*
X131Y922D01*
X131Y864D01*
X73Y864D01*
X73Y922D01*
G37*
D02*
G04 End of Mask0*
M02*