G04 MADE WITH FRITZING*
G04 WWW.FRITZING.ORG*
G04 DOUBLE SIDED*
G04 HOLES PLATED*
G04 CONTOUR ON CENTER OF CONTOUR VECTOR*
%ASAXBY*%
%FSLAX23Y23*%
%MOIN*%
%OFA0B0*%
%SFA1.0B1.0*%
%ADD10C,0.054000*%
%ADD11C,0.074803*%
%ADD12C,0.066000*%
%ADD13C,0.063976*%
%ADD14C,0.078000*%
%ADD15C,0.039370*%
%ADD16R,0.078000X0.078000*%
%ADD17C,0.048000*%
%ADD18C,0.024000*%
%ADD19R,0.001000X0.001000*%
%LNCOPPER0*%
G90*
G70*
G54D10*
X2057Y234D03*
X2057Y133D03*
X1958Y234D03*
X1958Y133D03*
X1858Y234D03*
X1858Y133D03*
X1758Y234D03*
X1758Y133D03*
X1658Y234D03*
X1658Y133D03*
X1558Y234D03*
X1558Y133D03*
X1458Y234D03*
X1458Y133D03*
X1358Y234D03*
X1358Y133D03*
X1258Y234D03*
X1258Y133D03*
X1158Y234D03*
X1158Y133D03*
X1058Y234D03*
X1058Y133D03*
X958Y234D03*
X958Y133D03*
X858Y234D03*
X858Y133D03*
X758Y234D03*
X758Y133D03*
X658Y234D03*
X658Y133D03*
X558Y234D03*
X558Y133D03*
X458Y234D03*
X458Y133D03*
X358Y234D03*
X358Y133D03*
X258Y234D03*
X258Y133D03*
X158Y234D03*
X158Y133D03*
G54D11*
X1158Y934D03*
X1158Y433D03*
X1158Y533D03*
X1158Y633D03*
X1158Y733D03*
X1158Y833D03*
X1558Y934D03*
X1559Y433D03*
X1559Y533D03*
X1559Y633D03*
X1559Y733D03*
X1559Y833D03*
G54D12*
X658Y534D03*
X258Y534D03*
X558Y534D03*
X158Y534D03*
X458Y534D03*
X358Y534D03*
G54D13*
X408Y742D03*
G54D12*
X658Y434D03*
X258Y434D03*
X558Y434D03*
X158Y434D03*
X458Y434D03*
X358Y434D03*
G54D13*
X408Y642D03*
G54D14*
X758Y934D03*
X758Y834D03*
X758Y734D03*
X1758Y934D03*
X1758Y834D03*
X1758Y734D03*
X858Y634D03*
X858Y634D03*
X858Y534D03*
X1758Y534D03*
X1758Y534D03*
X1758Y434D03*
X1058Y434D03*
X1058Y534D03*
X1058Y634D03*
X1058Y734D03*
X1058Y834D03*
X1058Y934D03*
X158Y734D03*
X158Y834D03*
X2058Y534D03*
X2058Y534D03*
X2058Y434D03*
G54D15*
X1308Y51D03*
X852Y435D03*
X612Y675D03*
X252Y675D03*
X900Y891D03*
G54D16*
X158Y734D03*
G54D17*
X1758Y334D02*
X1687Y263D01*
D02*
X2019Y421D02*
X1758Y334D01*
G54D18*
D02*
X1589Y934D02*
X1728Y934D01*
D02*
X258Y503D02*
X258Y464D01*
D02*
X358Y503D02*
X358Y464D01*
D02*
X253Y163D02*
X252Y171D01*
X252Y171D02*
X204Y171D01*
X204Y171D02*
X204Y291D01*
X204Y291D02*
X335Y413D01*
D02*
X1739Y110D02*
X1692Y51D01*
X1692Y51D02*
X1404Y51D01*
X1404Y51D02*
X1404Y291D01*
X1404Y291D02*
X1548Y315D01*
X1548Y315D02*
X1185Y518D01*
D02*
X458Y503D02*
X458Y464D01*
D02*
X1308Y70D02*
X1308Y291D01*
X1308Y291D02*
X1332Y291D01*
X1332Y291D02*
X492Y363D01*
X492Y363D02*
X471Y406D01*
D02*
X186Y743D02*
X348Y795D01*
X348Y795D02*
X468Y795D01*
X468Y795D02*
X684Y771D01*
X684Y771D02*
X684Y651D01*
X684Y651D02*
X840Y450D01*
D02*
X539Y110D02*
X492Y51D01*
X492Y51D02*
X108Y51D01*
X108Y51D02*
X84Y891D01*
X84Y891D02*
X876Y1011D01*
X876Y1011D02*
X1030Y945D01*
D02*
X658Y464D02*
X658Y503D01*
D02*
X1032Y719D02*
X996Y699D01*
X996Y699D02*
X900Y387D01*
X900Y387D02*
X756Y387D01*
X756Y387D02*
X686Y420D01*
D02*
X558Y464D02*
X558Y503D01*
D02*
X605Y657D02*
X569Y562D01*
D02*
X1646Y261D02*
X1644Y267D01*
X1644Y267D02*
X1644Y279D01*
X1644Y279D02*
X1608Y315D01*
X1608Y315D02*
X1620Y363D01*
X1620Y363D02*
X1620Y603D01*
X1620Y603D02*
X1189Y631D01*
D02*
X175Y559D02*
X241Y659D01*
D02*
X1586Y620D02*
X1620Y603D01*
D02*
X1731Y720D02*
X1586Y647D01*
D02*
X787Y925D02*
X882Y896D01*
G54D19*
X150Y274D02*
X164Y274D01*
X250Y274D02*
X264Y274D01*
X350Y274D02*
X364Y274D01*
X450Y274D02*
X464Y274D01*
X550Y274D02*
X564Y274D01*
X650Y274D02*
X664Y274D01*
X750Y274D02*
X764Y274D01*
X850Y274D02*
X864Y274D01*
X950Y274D02*
X964Y274D01*
X1050Y274D02*
X1064Y274D01*
X1150Y274D02*
X1164Y274D01*
X1250Y274D02*
X1264Y274D01*
X1350Y274D02*
X1364Y274D01*
X1450Y274D02*
X1464Y274D01*
X1550Y274D02*
X1564Y274D01*
X1650Y274D02*
X1664Y274D01*
X1750Y274D02*
X1764Y274D01*
X1850Y274D02*
X1864Y274D01*
X1950Y274D02*
X1964Y274D01*
X2050Y274D02*
X2064Y274D01*
X147Y273D02*
X168Y273D01*
X247Y273D02*
X268Y273D01*
X347Y273D02*
X368Y273D01*
X447Y273D02*
X468Y273D01*
X547Y273D02*
X568Y273D01*
X647Y273D02*
X668Y273D01*
X747Y273D02*
X768Y273D01*
X846Y273D02*
X868Y273D01*
X946Y273D02*
X968Y273D01*
X1046Y273D02*
X1068Y273D01*
X1146Y273D02*
X1168Y273D01*
X1246Y273D02*
X1268Y273D01*
X1346Y273D02*
X1368Y273D01*
X1446Y273D02*
X1468Y273D01*
X1546Y273D02*
X1568Y273D01*
X1646Y273D02*
X1668Y273D01*
X1746Y273D02*
X1768Y273D01*
X1846Y273D02*
X1868Y273D01*
X1946Y273D02*
X1968Y273D01*
X2046Y273D02*
X2067Y273D01*
X144Y272D02*
X170Y272D01*
X244Y272D02*
X270Y272D01*
X344Y272D02*
X370Y272D01*
X444Y272D02*
X470Y272D01*
X544Y272D02*
X570Y272D01*
X644Y272D02*
X670Y272D01*
X744Y272D02*
X770Y272D01*
X844Y272D02*
X870Y272D01*
X944Y272D02*
X970Y272D01*
X1044Y272D02*
X1070Y272D01*
X1144Y272D02*
X1170Y272D01*
X1244Y272D02*
X1270Y272D01*
X1344Y272D02*
X1370Y272D01*
X1444Y272D02*
X1470Y272D01*
X1544Y272D02*
X1570Y272D01*
X1644Y272D02*
X1670Y272D01*
X1744Y272D02*
X1770Y272D01*
X1844Y272D02*
X1870Y272D01*
X1944Y272D02*
X1970Y272D01*
X2043Y272D02*
X2070Y272D01*
X142Y271D02*
X173Y271D01*
X242Y271D02*
X273Y271D01*
X342Y271D02*
X373Y271D01*
X442Y271D02*
X473Y271D01*
X542Y271D02*
X573Y271D01*
X642Y271D02*
X673Y271D01*
X742Y271D02*
X773Y271D01*
X842Y271D02*
X873Y271D01*
X942Y271D02*
X973Y271D01*
X1042Y271D02*
X1073Y271D01*
X1142Y271D02*
X1172Y271D01*
X1242Y271D02*
X1272Y271D01*
X1342Y271D02*
X1372Y271D01*
X1442Y271D02*
X1472Y271D01*
X1542Y271D02*
X1572Y271D01*
X1642Y271D02*
X1672Y271D01*
X1742Y271D02*
X1772Y271D01*
X1842Y271D02*
X1872Y271D01*
X1942Y271D02*
X1972Y271D01*
X2041Y271D02*
X2072Y271D01*
X140Y270D02*
X174Y270D01*
X240Y270D02*
X274Y270D01*
X340Y270D02*
X374Y270D01*
X440Y270D02*
X474Y270D01*
X540Y270D02*
X574Y270D01*
X640Y270D02*
X674Y270D01*
X740Y270D02*
X774Y270D01*
X840Y270D02*
X874Y270D01*
X940Y270D02*
X974Y270D01*
X1040Y270D02*
X1074Y270D01*
X1140Y270D02*
X1174Y270D01*
X1240Y270D02*
X1274Y270D01*
X1340Y270D02*
X1374Y270D01*
X1440Y270D02*
X1474Y270D01*
X1540Y270D02*
X1574Y270D01*
X1640Y270D02*
X1674Y270D01*
X1740Y270D02*
X1774Y270D01*
X1840Y270D02*
X1874Y270D01*
X1940Y270D02*
X1974Y270D01*
X2040Y270D02*
X2074Y270D01*
X139Y269D02*
X176Y269D01*
X239Y269D02*
X276Y269D01*
X339Y269D02*
X376Y269D01*
X439Y269D02*
X476Y269D01*
X539Y269D02*
X576Y269D01*
X639Y269D02*
X676Y269D01*
X739Y269D02*
X776Y269D01*
X839Y269D02*
X876Y269D01*
X939Y269D02*
X976Y269D01*
X1039Y269D02*
X1076Y269D01*
X1139Y269D02*
X1176Y269D01*
X1239Y269D02*
X1276Y269D01*
X1339Y269D02*
X1376Y269D01*
X1439Y269D02*
X1476Y269D01*
X1539Y269D02*
X1576Y269D01*
X1639Y269D02*
X1676Y269D01*
X1739Y269D02*
X1776Y269D01*
X1839Y269D02*
X1876Y269D01*
X1939Y269D02*
X1976Y269D01*
X2038Y269D02*
X2075Y269D01*
X138Y268D02*
X177Y268D01*
X238Y268D02*
X277Y268D01*
X338Y268D02*
X377Y268D01*
X438Y268D02*
X477Y268D01*
X538Y268D02*
X577Y268D01*
X638Y268D02*
X677Y268D01*
X738Y268D02*
X777Y268D01*
X838Y268D02*
X877Y268D01*
X937Y268D02*
X977Y268D01*
X1037Y268D02*
X1077Y268D01*
X1137Y268D02*
X1177Y268D01*
X1237Y268D02*
X1277Y268D01*
X1337Y268D02*
X1377Y268D01*
X1437Y268D02*
X1477Y268D01*
X1537Y268D02*
X1577Y268D01*
X1637Y268D02*
X1677Y268D01*
X1737Y268D02*
X1777Y268D01*
X1837Y268D02*
X1877Y268D01*
X1937Y268D02*
X1977Y268D01*
X2037Y268D02*
X2076Y268D01*
X136Y267D02*
X178Y267D01*
X236Y267D02*
X278Y267D01*
X336Y267D02*
X378Y267D01*
X436Y267D02*
X478Y267D01*
X536Y267D02*
X578Y267D01*
X636Y267D02*
X678Y267D01*
X736Y267D02*
X778Y267D01*
X836Y267D02*
X878Y267D01*
X936Y267D02*
X978Y267D01*
X1036Y267D02*
X1078Y267D01*
X1136Y267D02*
X1178Y267D01*
X1236Y267D02*
X1278Y267D01*
X1336Y267D02*
X1378Y267D01*
X1436Y267D02*
X1478Y267D01*
X1536Y267D02*
X1578Y267D01*
X1636Y267D02*
X1678Y267D01*
X1736Y267D02*
X1778Y267D01*
X1836Y267D02*
X1878Y267D01*
X1936Y267D02*
X1978Y267D01*
X2036Y267D02*
X2077Y267D01*
X135Y266D02*
X179Y266D01*
X235Y266D02*
X279Y266D01*
X335Y266D02*
X379Y266D01*
X435Y266D02*
X479Y266D01*
X535Y266D02*
X579Y266D01*
X635Y266D02*
X679Y266D01*
X735Y266D02*
X779Y266D01*
X835Y266D02*
X879Y266D01*
X935Y266D02*
X979Y266D01*
X1035Y266D02*
X1079Y266D01*
X1135Y266D02*
X1179Y266D01*
X1235Y266D02*
X1279Y266D01*
X1335Y266D02*
X1379Y266D01*
X1435Y266D02*
X1479Y266D01*
X1535Y266D02*
X1579Y266D01*
X1635Y266D02*
X1679Y266D01*
X1735Y266D02*
X1779Y266D01*
X1835Y266D02*
X1879Y266D01*
X1935Y266D02*
X1979Y266D01*
X2035Y266D02*
X2079Y266D01*
X135Y265D02*
X180Y265D01*
X235Y265D02*
X280Y265D01*
X335Y265D02*
X380Y265D01*
X435Y265D02*
X480Y265D01*
X535Y265D02*
X580Y265D01*
X635Y265D02*
X680Y265D01*
X735Y265D02*
X780Y265D01*
X835Y265D02*
X880Y265D01*
X935Y265D02*
X980Y265D01*
X1035Y265D02*
X1080Y265D01*
X1135Y265D02*
X1180Y265D01*
X1235Y265D02*
X1280Y265D01*
X1335Y265D02*
X1380Y265D01*
X1434Y265D02*
X1480Y265D01*
X1534Y265D02*
X1580Y265D01*
X1634Y265D02*
X1680Y265D01*
X1734Y265D02*
X1780Y265D01*
X1834Y265D02*
X1880Y265D01*
X1934Y265D02*
X1980Y265D01*
X2034Y265D02*
X2079Y265D01*
X134Y264D02*
X181Y264D01*
X234Y264D02*
X281Y264D01*
X334Y264D02*
X381Y264D01*
X434Y264D02*
X481Y264D01*
X534Y264D02*
X581Y264D01*
X634Y264D02*
X681Y264D01*
X734Y264D02*
X781Y264D01*
X834Y264D02*
X881Y264D01*
X934Y264D02*
X981Y264D01*
X1034Y264D02*
X1081Y264D01*
X1134Y264D02*
X1181Y264D01*
X1234Y264D02*
X1281Y264D01*
X1334Y264D02*
X1381Y264D01*
X1434Y264D02*
X1481Y264D01*
X1534Y264D02*
X1581Y264D01*
X1634Y264D02*
X1681Y264D01*
X1734Y264D02*
X1781Y264D01*
X1834Y264D02*
X1881Y264D01*
X1934Y264D02*
X1981Y264D01*
X2033Y264D02*
X2080Y264D01*
X133Y263D02*
X181Y263D01*
X233Y263D02*
X281Y263D01*
X333Y263D02*
X381Y263D01*
X433Y263D02*
X481Y263D01*
X533Y263D02*
X581Y263D01*
X633Y263D02*
X681Y263D01*
X733Y263D02*
X781Y263D01*
X833Y263D02*
X881Y263D01*
X933Y263D02*
X981Y263D01*
X1033Y263D02*
X1081Y263D01*
X1133Y263D02*
X1181Y263D01*
X1233Y263D02*
X1281Y263D01*
X1333Y263D02*
X1381Y263D01*
X1433Y263D02*
X1481Y263D01*
X1533Y263D02*
X1581Y263D01*
X1633Y263D02*
X1681Y263D01*
X1733Y263D02*
X1781Y263D01*
X1833Y263D02*
X1881Y263D01*
X1933Y263D02*
X1981Y263D01*
X2033Y263D02*
X2081Y263D01*
X133Y262D02*
X182Y262D01*
X233Y262D02*
X282Y262D01*
X333Y262D02*
X382Y262D01*
X433Y262D02*
X482Y262D01*
X533Y262D02*
X582Y262D01*
X633Y262D02*
X682Y262D01*
X733Y262D02*
X782Y262D01*
X833Y262D02*
X882Y262D01*
X933Y262D02*
X982Y262D01*
X1032Y262D02*
X1082Y262D01*
X1132Y262D02*
X1182Y262D01*
X1232Y262D02*
X1282Y262D01*
X1332Y262D02*
X1382Y262D01*
X1432Y262D02*
X1482Y262D01*
X1532Y262D02*
X1582Y262D01*
X1632Y262D02*
X1682Y262D01*
X1732Y262D02*
X1782Y262D01*
X1832Y262D02*
X1882Y262D01*
X1932Y262D02*
X1982Y262D01*
X2032Y262D02*
X2081Y262D01*
X132Y261D02*
X182Y261D01*
X232Y261D02*
X282Y261D01*
X332Y261D02*
X382Y261D01*
X432Y261D02*
X482Y261D01*
X532Y261D02*
X582Y261D01*
X632Y261D02*
X682Y261D01*
X732Y261D02*
X782Y261D01*
X832Y261D02*
X882Y261D01*
X932Y261D02*
X982Y261D01*
X1032Y261D02*
X1082Y261D01*
X1132Y261D02*
X1182Y261D01*
X1232Y261D02*
X1282Y261D01*
X1332Y261D02*
X1382Y261D01*
X1432Y261D02*
X1482Y261D01*
X1532Y261D02*
X1582Y261D01*
X1632Y261D02*
X1682Y261D01*
X1732Y261D02*
X1782Y261D01*
X1832Y261D02*
X1882Y261D01*
X1932Y261D02*
X1982Y261D01*
X2031Y261D02*
X2082Y261D01*
X132Y260D02*
X183Y260D01*
X232Y260D02*
X283Y260D01*
X332Y260D02*
X383Y260D01*
X432Y260D02*
X483Y260D01*
X532Y260D02*
X583Y260D01*
X632Y260D02*
X683Y260D01*
X732Y260D02*
X783Y260D01*
X832Y260D02*
X883Y260D01*
X932Y260D02*
X983Y260D01*
X1032Y260D02*
X1083Y260D01*
X1132Y260D02*
X1183Y260D01*
X1232Y260D02*
X1283Y260D01*
X1332Y260D02*
X1383Y260D01*
X1432Y260D02*
X1483Y260D01*
X1532Y260D02*
X1583Y260D01*
X1632Y260D02*
X1683Y260D01*
X1732Y260D02*
X1783Y260D01*
X1832Y260D02*
X1883Y260D01*
X1932Y260D02*
X1983Y260D01*
X2031Y260D02*
X2082Y260D01*
X131Y259D02*
X183Y259D01*
X231Y259D02*
X283Y259D01*
X331Y259D02*
X383Y259D01*
X431Y259D02*
X483Y259D01*
X531Y259D02*
X583Y259D01*
X631Y259D02*
X683Y259D01*
X731Y259D02*
X783Y259D01*
X831Y259D02*
X883Y259D01*
X931Y259D02*
X983Y259D01*
X1031Y259D02*
X1083Y259D01*
X1131Y259D02*
X1183Y259D01*
X1231Y259D02*
X1283Y259D01*
X1331Y259D02*
X1383Y259D01*
X1431Y259D02*
X1483Y259D01*
X1531Y259D02*
X1583Y259D01*
X1631Y259D02*
X1683Y259D01*
X1731Y259D02*
X1783Y259D01*
X1831Y259D02*
X1883Y259D01*
X1931Y259D02*
X1983Y259D01*
X2031Y259D02*
X2083Y259D01*
X131Y258D02*
X183Y258D01*
X231Y258D02*
X283Y258D01*
X331Y258D02*
X383Y258D01*
X431Y258D02*
X483Y258D01*
X531Y258D02*
X583Y258D01*
X631Y258D02*
X683Y258D01*
X731Y258D02*
X783Y258D01*
X831Y258D02*
X883Y258D01*
X931Y258D02*
X983Y258D01*
X1031Y258D02*
X1083Y258D01*
X1131Y258D02*
X1183Y258D01*
X1231Y258D02*
X1283Y258D01*
X1331Y258D02*
X1383Y258D01*
X1431Y258D02*
X1483Y258D01*
X1531Y258D02*
X1583Y258D01*
X1631Y258D02*
X1683Y258D01*
X1731Y258D02*
X1783Y258D01*
X1831Y258D02*
X1883Y258D01*
X1931Y258D02*
X1983Y258D01*
X2031Y258D02*
X2083Y258D01*
X131Y257D02*
X184Y257D01*
X231Y257D02*
X284Y257D01*
X331Y257D02*
X384Y257D01*
X431Y257D02*
X484Y257D01*
X531Y257D02*
X584Y257D01*
X631Y257D02*
X684Y257D01*
X731Y257D02*
X784Y257D01*
X831Y257D02*
X884Y257D01*
X931Y257D02*
X984Y257D01*
X1031Y257D02*
X1084Y257D01*
X1131Y257D02*
X1184Y257D01*
X1231Y257D02*
X1284Y257D01*
X1331Y257D02*
X1383Y257D01*
X1431Y257D02*
X1483Y257D01*
X1531Y257D02*
X1583Y257D01*
X1631Y257D02*
X1683Y257D01*
X1731Y257D02*
X1783Y257D01*
X1831Y257D02*
X1883Y257D01*
X1931Y257D02*
X1983Y257D01*
X2030Y257D02*
X2083Y257D01*
X131Y256D02*
X184Y256D01*
X231Y256D02*
X284Y256D01*
X331Y256D02*
X384Y256D01*
X431Y256D02*
X484Y256D01*
X531Y256D02*
X584Y256D01*
X631Y256D02*
X684Y256D01*
X731Y256D02*
X784Y256D01*
X831Y256D02*
X884Y256D01*
X931Y256D02*
X984Y256D01*
X1031Y256D02*
X1084Y256D01*
X1131Y256D02*
X1184Y256D01*
X1231Y256D02*
X1284Y256D01*
X1331Y256D02*
X1384Y256D01*
X1431Y256D02*
X1484Y256D01*
X1531Y256D02*
X1584Y256D01*
X1631Y256D02*
X1684Y256D01*
X1731Y256D02*
X1784Y256D01*
X1831Y256D02*
X1884Y256D01*
X1931Y256D02*
X1984Y256D01*
X2030Y256D02*
X2083Y256D01*
X131Y255D02*
X184Y255D01*
X231Y255D02*
X284Y255D01*
X331Y255D02*
X384Y255D01*
X431Y255D02*
X484Y255D01*
X531Y255D02*
X584Y255D01*
X631Y255D02*
X684Y255D01*
X731Y255D02*
X784Y255D01*
X831Y255D02*
X884Y255D01*
X931Y255D02*
X984Y255D01*
X1031Y255D02*
X1084Y255D01*
X1131Y255D02*
X1184Y255D01*
X1231Y255D02*
X1284Y255D01*
X1331Y255D02*
X1384Y255D01*
X1431Y255D02*
X1484Y255D01*
X1531Y255D02*
X1584Y255D01*
X1631Y255D02*
X1684Y255D01*
X1731Y255D02*
X1784Y255D01*
X1831Y255D02*
X1884Y255D01*
X1931Y255D02*
X1984Y255D01*
X2030Y255D02*
X2083Y255D01*
X131Y254D02*
X184Y254D01*
X231Y254D02*
X284Y254D01*
X331Y254D02*
X384Y254D01*
X431Y254D02*
X484Y254D01*
X531Y254D02*
X584Y254D01*
X631Y254D02*
X684Y254D01*
X731Y254D02*
X784Y254D01*
X831Y254D02*
X884Y254D01*
X931Y254D02*
X984Y254D01*
X1031Y254D02*
X1084Y254D01*
X1131Y254D02*
X1184Y254D01*
X1231Y254D02*
X1284Y254D01*
X1331Y254D02*
X1384Y254D01*
X1431Y254D02*
X1484Y254D01*
X1531Y254D02*
X1584Y254D01*
X1631Y254D02*
X1684Y254D01*
X1731Y254D02*
X1784Y254D01*
X1831Y254D02*
X1884Y254D01*
X1931Y254D02*
X1984Y254D01*
X2030Y254D02*
X2083Y254D01*
X131Y253D02*
X151Y253D01*
X163Y253D02*
X184Y253D01*
X231Y253D02*
X251Y253D01*
X263Y253D02*
X284Y253D01*
X331Y253D02*
X351Y253D01*
X363Y253D02*
X384Y253D01*
X431Y253D02*
X451Y253D01*
X463Y253D02*
X484Y253D01*
X531Y253D02*
X551Y253D01*
X563Y253D02*
X584Y253D01*
X631Y253D02*
X651Y253D01*
X663Y253D02*
X684Y253D01*
X731Y253D02*
X751Y253D01*
X763Y253D02*
X784Y253D01*
X831Y253D02*
X851Y253D01*
X863Y253D02*
X884Y253D01*
X931Y253D02*
X951Y253D01*
X963Y253D02*
X984Y253D01*
X1031Y253D02*
X1051Y253D01*
X1063Y253D02*
X1084Y253D01*
X1131Y253D02*
X1151Y253D01*
X1163Y253D02*
X1184Y253D01*
X1231Y253D02*
X1251Y253D01*
X1263Y253D02*
X1284Y253D01*
X1331Y253D02*
X1351Y253D01*
X1363Y253D02*
X1384Y253D01*
X1431Y253D02*
X1451Y253D01*
X1463Y253D02*
X1484Y253D01*
X1531Y253D02*
X1551Y253D01*
X1563Y253D02*
X1584Y253D01*
X1631Y253D02*
X1651Y253D01*
X1663Y253D02*
X1684Y253D01*
X1731Y253D02*
X1751Y253D01*
X1763Y253D02*
X1784Y253D01*
X1831Y253D02*
X1851Y253D01*
X1863Y253D02*
X1884Y253D01*
X1931Y253D02*
X1951Y253D01*
X1963Y253D02*
X1984Y253D01*
X2030Y253D02*
X2051Y253D01*
X2063Y253D02*
X2083Y253D01*
X131Y252D02*
X149Y252D01*
X166Y252D02*
X184Y252D01*
X231Y252D02*
X249Y252D01*
X266Y252D02*
X284Y252D01*
X331Y252D02*
X349Y252D01*
X366Y252D02*
X384Y252D01*
X431Y252D02*
X449Y252D01*
X466Y252D02*
X484Y252D01*
X531Y252D02*
X549Y252D01*
X566Y252D02*
X584Y252D01*
X631Y252D02*
X648Y252D01*
X666Y252D02*
X684Y252D01*
X731Y252D02*
X748Y252D01*
X766Y252D02*
X784Y252D01*
X831Y252D02*
X848Y252D01*
X866Y252D02*
X884Y252D01*
X931Y252D02*
X948Y252D01*
X966Y252D02*
X984Y252D01*
X1031Y252D02*
X1048Y252D01*
X1066Y252D02*
X1084Y252D01*
X1131Y252D02*
X1148Y252D01*
X1166Y252D02*
X1184Y252D01*
X1231Y252D02*
X1248Y252D01*
X1266Y252D02*
X1284Y252D01*
X1331Y252D02*
X1348Y252D01*
X1366Y252D02*
X1384Y252D01*
X1431Y252D02*
X1448Y252D01*
X1466Y252D02*
X1484Y252D01*
X1531Y252D02*
X1548Y252D01*
X1566Y252D02*
X1584Y252D01*
X1631Y252D02*
X1648Y252D01*
X1666Y252D02*
X1684Y252D01*
X1731Y252D02*
X1748Y252D01*
X1766Y252D02*
X1784Y252D01*
X1831Y252D02*
X1848Y252D01*
X1866Y252D02*
X1884Y252D01*
X1931Y252D02*
X1948Y252D01*
X1966Y252D02*
X1984Y252D01*
X2030Y252D02*
X2048Y252D01*
X2065Y252D02*
X2083Y252D01*
X131Y251D02*
X147Y251D01*
X168Y251D02*
X184Y251D01*
X231Y251D02*
X247Y251D01*
X268Y251D02*
X284Y251D01*
X331Y251D02*
X347Y251D01*
X368Y251D02*
X384Y251D01*
X431Y251D02*
X447Y251D01*
X468Y251D02*
X484Y251D01*
X531Y251D02*
X547Y251D01*
X568Y251D02*
X584Y251D01*
X631Y251D02*
X647Y251D01*
X668Y251D02*
X684Y251D01*
X731Y251D02*
X747Y251D01*
X768Y251D02*
X784Y251D01*
X831Y251D02*
X847Y251D01*
X868Y251D02*
X884Y251D01*
X931Y251D02*
X947Y251D01*
X968Y251D02*
X984Y251D01*
X1031Y251D02*
X1047Y251D01*
X1068Y251D02*
X1084Y251D01*
X1131Y251D02*
X1147Y251D01*
X1168Y251D02*
X1184Y251D01*
X1231Y251D02*
X1247Y251D01*
X1268Y251D02*
X1284Y251D01*
X1331Y251D02*
X1347Y251D01*
X1368Y251D02*
X1384Y251D01*
X1431Y251D02*
X1447Y251D01*
X1468Y251D02*
X1484Y251D01*
X1531Y251D02*
X1547Y251D01*
X1568Y251D02*
X1584Y251D01*
X1631Y251D02*
X1647Y251D01*
X1668Y251D02*
X1684Y251D01*
X1731Y251D02*
X1747Y251D01*
X1768Y251D02*
X1784Y251D01*
X1831Y251D02*
X1847Y251D01*
X1868Y251D02*
X1884Y251D01*
X1931Y251D02*
X1947Y251D01*
X1968Y251D02*
X1984Y251D01*
X2030Y251D02*
X2046Y251D01*
X2067Y251D02*
X2083Y251D01*
X131Y250D02*
X145Y250D01*
X169Y250D02*
X184Y250D01*
X231Y250D02*
X245Y250D01*
X269Y250D02*
X284Y250D01*
X331Y250D02*
X345Y250D01*
X369Y250D02*
X384Y250D01*
X431Y250D02*
X445Y250D01*
X469Y250D02*
X484Y250D01*
X531Y250D02*
X545Y250D01*
X569Y250D02*
X584Y250D01*
X631Y250D02*
X645Y250D01*
X669Y250D02*
X684Y250D01*
X731Y250D02*
X745Y250D01*
X769Y250D02*
X784Y250D01*
X831Y250D02*
X845Y250D01*
X869Y250D02*
X884Y250D01*
X931Y250D02*
X945Y250D01*
X969Y250D02*
X984Y250D01*
X1031Y250D02*
X1045Y250D01*
X1069Y250D02*
X1084Y250D01*
X1131Y250D02*
X1145Y250D01*
X1169Y250D02*
X1184Y250D01*
X1231Y250D02*
X1245Y250D01*
X1269Y250D02*
X1284Y250D01*
X1331Y250D02*
X1345Y250D01*
X1369Y250D02*
X1384Y250D01*
X1431Y250D02*
X1445Y250D01*
X1469Y250D02*
X1484Y250D01*
X1531Y250D02*
X1545Y250D01*
X1569Y250D02*
X1584Y250D01*
X1631Y250D02*
X1645Y250D01*
X1669Y250D02*
X1684Y250D01*
X1731Y250D02*
X1745Y250D01*
X1769Y250D02*
X1784Y250D01*
X1831Y250D02*
X1845Y250D01*
X1869Y250D02*
X1884Y250D01*
X1931Y250D02*
X1945Y250D01*
X1969Y250D02*
X1984Y250D01*
X2030Y250D02*
X2045Y250D01*
X2069Y250D02*
X2083Y250D01*
X131Y249D02*
X144Y249D01*
X170Y249D02*
X184Y249D01*
X231Y249D02*
X244Y249D01*
X270Y249D02*
X284Y249D01*
X331Y249D02*
X344Y249D01*
X370Y249D02*
X384Y249D01*
X431Y249D02*
X444Y249D01*
X470Y249D02*
X484Y249D01*
X531Y249D02*
X544Y249D01*
X570Y249D02*
X584Y249D01*
X631Y249D02*
X644Y249D01*
X670Y249D02*
X684Y249D01*
X731Y249D02*
X744Y249D01*
X770Y249D02*
X784Y249D01*
X831Y249D02*
X844Y249D01*
X870Y249D02*
X884Y249D01*
X931Y249D02*
X944Y249D01*
X970Y249D02*
X984Y249D01*
X1031Y249D02*
X1044Y249D01*
X1070Y249D02*
X1084Y249D01*
X1131Y249D02*
X1144Y249D01*
X1170Y249D02*
X1184Y249D01*
X1231Y249D02*
X1244Y249D01*
X1270Y249D02*
X1284Y249D01*
X1331Y249D02*
X1344Y249D01*
X1370Y249D02*
X1384Y249D01*
X1431Y249D02*
X1444Y249D01*
X1470Y249D02*
X1484Y249D01*
X1531Y249D02*
X1544Y249D01*
X1570Y249D02*
X1584Y249D01*
X1631Y249D02*
X1644Y249D01*
X1670Y249D02*
X1684Y249D01*
X1731Y249D02*
X1744Y249D01*
X1770Y249D02*
X1784Y249D01*
X1831Y249D02*
X1844Y249D01*
X1870Y249D02*
X1884Y249D01*
X1931Y249D02*
X1944Y249D01*
X1970Y249D02*
X1984Y249D01*
X2030Y249D02*
X2043Y249D01*
X2070Y249D02*
X2083Y249D01*
X131Y248D02*
X143Y248D01*
X172Y248D02*
X184Y248D01*
X231Y248D02*
X243Y248D01*
X272Y248D02*
X284Y248D01*
X331Y248D02*
X343Y248D01*
X372Y248D02*
X384Y248D01*
X431Y248D02*
X443Y248D01*
X471Y248D02*
X484Y248D01*
X531Y248D02*
X543Y248D01*
X571Y248D02*
X584Y248D01*
X631Y248D02*
X643Y248D01*
X671Y248D02*
X684Y248D01*
X731Y248D02*
X743Y248D01*
X771Y248D02*
X784Y248D01*
X831Y248D02*
X843Y248D01*
X871Y248D02*
X884Y248D01*
X931Y248D02*
X943Y248D01*
X971Y248D02*
X984Y248D01*
X1031Y248D02*
X1043Y248D01*
X1071Y248D02*
X1084Y248D01*
X1131Y248D02*
X1143Y248D01*
X1171Y248D02*
X1184Y248D01*
X1231Y248D02*
X1243Y248D01*
X1271Y248D02*
X1284Y248D01*
X1331Y248D02*
X1343Y248D01*
X1371Y248D02*
X1384Y248D01*
X1431Y248D02*
X1443Y248D01*
X1471Y248D02*
X1484Y248D01*
X1531Y248D02*
X1543Y248D01*
X1571Y248D02*
X1584Y248D01*
X1631Y248D02*
X1643Y248D01*
X1671Y248D02*
X1684Y248D01*
X1731Y248D02*
X1743Y248D01*
X1771Y248D02*
X1784Y248D01*
X1831Y248D02*
X1843Y248D01*
X1871Y248D02*
X1884Y248D01*
X1931Y248D02*
X1943Y248D01*
X1971Y248D02*
X1984Y248D01*
X2030Y248D02*
X2042Y248D01*
X2071Y248D02*
X2083Y248D01*
X131Y247D02*
X142Y247D01*
X172Y247D02*
X184Y247D01*
X231Y247D02*
X242Y247D01*
X272Y247D02*
X284Y247D01*
X331Y247D02*
X342Y247D01*
X372Y247D02*
X384Y247D01*
X431Y247D02*
X442Y247D01*
X472Y247D02*
X484Y247D01*
X531Y247D02*
X542Y247D01*
X572Y247D02*
X584Y247D01*
X631Y247D02*
X642Y247D01*
X672Y247D02*
X684Y247D01*
X731Y247D02*
X742Y247D01*
X772Y247D02*
X784Y247D01*
X831Y247D02*
X842Y247D01*
X872Y247D02*
X884Y247D01*
X931Y247D02*
X942Y247D01*
X972Y247D02*
X984Y247D01*
X1031Y247D02*
X1042Y247D01*
X1072Y247D02*
X1084Y247D01*
X1131Y247D02*
X1142Y247D01*
X1172Y247D02*
X1184Y247D01*
X1231Y247D02*
X1242Y247D01*
X1272Y247D02*
X1284Y247D01*
X1331Y247D02*
X1342Y247D01*
X1372Y247D02*
X1384Y247D01*
X1431Y247D02*
X1442Y247D01*
X1472Y247D02*
X1484Y247D01*
X1531Y247D02*
X1542Y247D01*
X1572Y247D02*
X1584Y247D01*
X1631Y247D02*
X1642Y247D01*
X1672Y247D02*
X1684Y247D01*
X1731Y247D02*
X1742Y247D01*
X1772Y247D02*
X1784Y247D01*
X1831Y247D02*
X1842Y247D01*
X1872Y247D02*
X1884Y247D01*
X1931Y247D02*
X1942Y247D01*
X1972Y247D02*
X1984Y247D01*
X2030Y247D02*
X2042Y247D01*
X2072Y247D02*
X2083Y247D01*
X131Y246D02*
X141Y246D01*
X173Y246D02*
X184Y246D01*
X231Y246D02*
X241Y246D01*
X273Y246D02*
X284Y246D01*
X331Y246D02*
X341Y246D01*
X373Y246D02*
X384Y246D01*
X431Y246D02*
X441Y246D01*
X473Y246D02*
X484Y246D01*
X531Y246D02*
X541Y246D01*
X573Y246D02*
X584Y246D01*
X631Y246D02*
X641Y246D01*
X673Y246D02*
X684Y246D01*
X731Y246D02*
X741Y246D01*
X773Y246D02*
X784Y246D01*
X831Y246D02*
X841Y246D01*
X873Y246D02*
X884Y246D01*
X931Y246D02*
X941Y246D01*
X973Y246D02*
X984Y246D01*
X1031Y246D02*
X1041Y246D01*
X1073Y246D02*
X1084Y246D01*
X1131Y246D02*
X1141Y246D01*
X1173Y246D02*
X1184Y246D01*
X1231Y246D02*
X1241Y246D01*
X1273Y246D02*
X1284Y246D01*
X1331Y246D02*
X1341Y246D01*
X1373Y246D02*
X1384Y246D01*
X1431Y246D02*
X1441Y246D01*
X1473Y246D02*
X1484Y246D01*
X1531Y246D02*
X1541Y246D01*
X1573Y246D02*
X1584Y246D01*
X1631Y246D02*
X1641Y246D01*
X1673Y246D02*
X1684Y246D01*
X1731Y246D02*
X1741Y246D01*
X1773Y246D02*
X1784Y246D01*
X1831Y246D02*
X1841Y246D01*
X1873Y246D02*
X1884Y246D01*
X1931Y246D02*
X1941Y246D01*
X1973Y246D02*
X1984Y246D01*
X2030Y246D02*
X2041Y246D01*
X2073Y246D02*
X2083Y246D01*
X131Y245D02*
X141Y245D01*
X174Y245D02*
X184Y245D01*
X231Y245D02*
X241Y245D01*
X274Y245D02*
X284Y245D01*
X331Y245D02*
X341Y245D01*
X374Y245D02*
X384Y245D01*
X431Y245D02*
X441Y245D01*
X474Y245D02*
X484Y245D01*
X531Y245D02*
X541Y245D01*
X574Y245D02*
X584Y245D01*
X631Y245D02*
X641Y245D01*
X674Y245D02*
X684Y245D01*
X731Y245D02*
X741Y245D01*
X774Y245D02*
X784Y245D01*
X831Y245D02*
X841Y245D01*
X874Y245D02*
X884Y245D01*
X931Y245D02*
X941Y245D01*
X974Y245D02*
X984Y245D01*
X1031Y245D02*
X1041Y245D01*
X1074Y245D02*
X1084Y245D01*
X1131Y245D02*
X1141Y245D01*
X1174Y245D02*
X1184Y245D01*
X1231Y245D02*
X1241Y245D01*
X1274Y245D02*
X1284Y245D01*
X1331Y245D02*
X1341Y245D01*
X1374Y245D02*
X1384Y245D01*
X1431Y245D02*
X1441Y245D01*
X1474Y245D02*
X1484Y245D01*
X1531Y245D02*
X1541Y245D01*
X1574Y245D02*
X1584Y245D01*
X1631Y245D02*
X1641Y245D01*
X1674Y245D02*
X1684Y245D01*
X1731Y245D02*
X1741Y245D01*
X1774Y245D02*
X1784Y245D01*
X1831Y245D02*
X1841Y245D01*
X1874Y245D02*
X1884Y245D01*
X1931Y245D02*
X1941Y245D01*
X1974Y245D02*
X1984Y245D01*
X2030Y245D02*
X2040Y245D01*
X2073Y245D02*
X2083Y245D01*
X131Y244D02*
X140Y244D01*
X174Y244D02*
X184Y244D01*
X231Y244D02*
X240Y244D01*
X274Y244D02*
X284Y244D01*
X331Y244D02*
X340Y244D01*
X374Y244D02*
X384Y244D01*
X431Y244D02*
X440Y244D01*
X474Y244D02*
X484Y244D01*
X531Y244D02*
X540Y244D01*
X574Y244D02*
X584Y244D01*
X631Y244D02*
X640Y244D01*
X674Y244D02*
X684Y244D01*
X731Y244D02*
X740Y244D01*
X774Y244D02*
X784Y244D01*
X831Y244D02*
X840Y244D01*
X874Y244D02*
X884Y244D01*
X931Y244D02*
X940Y244D01*
X974Y244D02*
X984Y244D01*
X1031Y244D02*
X1040Y244D01*
X1074Y244D02*
X1084Y244D01*
X1131Y244D02*
X1140Y244D01*
X1174Y244D02*
X1184Y244D01*
X1231Y244D02*
X1240Y244D01*
X1274Y244D02*
X1284Y244D01*
X1331Y244D02*
X1340Y244D01*
X1374Y244D02*
X1384Y244D01*
X1431Y244D02*
X1440Y244D01*
X1474Y244D02*
X1484Y244D01*
X1531Y244D02*
X1540Y244D01*
X1574Y244D02*
X1584Y244D01*
X1631Y244D02*
X1640Y244D01*
X1674Y244D02*
X1684Y244D01*
X1731Y244D02*
X1740Y244D01*
X1774Y244D02*
X1784Y244D01*
X1831Y244D02*
X1840Y244D01*
X1874Y244D02*
X1884Y244D01*
X1931Y244D02*
X1940Y244D01*
X1974Y244D02*
X1984Y244D01*
X2030Y244D02*
X2040Y244D01*
X2074Y244D02*
X2083Y244D01*
X131Y243D02*
X140Y243D01*
X175Y243D02*
X184Y243D01*
X231Y243D02*
X240Y243D01*
X275Y243D02*
X284Y243D01*
X331Y243D02*
X340Y243D01*
X375Y243D02*
X384Y243D01*
X431Y243D02*
X440Y243D01*
X475Y243D02*
X484Y243D01*
X531Y243D02*
X540Y243D01*
X575Y243D02*
X584Y243D01*
X631Y243D02*
X640Y243D01*
X675Y243D02*
X684Y243D01*
X731Y243D02*
X740Y243D01*
X775Y243D02*
X784Y243D01*
X831Y243D02*
X840Y243D01*
X875Y243D02*
X884Y243D01*
X931Y243D02*
X940Y243D01*
X975Y243D02*
X984Y243D01*
X1031Y243D02*
X1040Y243D01*
X1075Y243D02*
X1084Y243D01*
X1131Y243D02*
X1140Y243D01*
X1175Y243D02*
X1184Y243D01*
X1231Y243D02*
X1240Y243D01*
X1275Y243D02*
X1284Y243D01*
X1331Y243D02*
X1340Y243D01*
X1375Y243D02*
X1384Y243D01*
X1431Y243D02*
X1440Y243D01*
X1475Y243D02*
X1484Y243D01*
X1531Y243D02*
X1540Y243D01*
X1575Y243D02*
X1584Y243D01*
X1631Y243D02*
X1639Y243D01*
X1675Y243D02*
X1684Y243D01*
X1731Y243D02*
X1739Y243D01*
X1775Y243D02*
X1784Y243D01*
X1831Y243D02*
X1839Y243D01*
X1875Y243D02*
X1884Y243D01*
X1931Y243D02*
X1939Y243D01*
X1975Y243D02*
X1984Y243D01*
X2030Y243D02*
X2039Y243D01*
X2074Y243D02*
X2083Y243D01*
X131Y242D02*
X139Y242D01*
X175Y242D02*
X184Y242D01*
X231Y242D02*
X239Y242D01*
X275Y242D02*
X284Y242D01*
X331Y242D02*
X339Y242D01*
X375Y242D02*
X384Y242D01*
X431Y242D02*
X439Y242D01*
X475Y242D02*
X484Y242D01*
X531Y242D02*
X539Y242D01*
X575Y242D02*
X584Y242D01*
X631Y242D02*
X639Y242D01*
X675Y242D02*
X684Y242D01*
X731Y242D02*
X739Y242D01*
X775Y242D02*
X784Y242D01*
X831Y242D02*
X839Y242D01*
X875Y242D02*
X884Y242D01*
X931Y242D02*
X939Y242D01*
X975Y242D02*
X984Y242D01*
X1031Y242D02*
X1039Y242D01*
X1075Y242D02*
X1084Y242D01*
X1131Y242D02*
X1139Y242D01*
X1175Y242D02*
X1184Y242D01*
X1231Y242D02*
X1239Y242D01*
X1275Y242D02*
X1284Y242D01*
X1331Y242D02*
X1339Y242D01*
X1375Y242D02*
X1384Y242D01*
X1431Y242D02*
X1439Y242D01*
X1475Y242D02*
X1484Y242D01*
X1531Y242D02*
X1539Y242D01*
X1575Y242D02*
X1584Y242D01*
X1631Y242D02*
X1639Y242D01*
X1675Y242D02*
X1684Y242D01*
X1731Y242D02*
X1739Y242D01*
X1775Y242D02*
X1784Y242D01*
X1831Y242D02*
X1839Y242D01*
X1875Y242D02*
X1884Y242D01*
X1931Y242D02*
X1939Y242D01*
X1975Y242D02*
X1984Y242D01*
X2030Y242D02*
X2039Y242D01*
X2075Y242D02*
X2083Y242D01*
X131Y241D02*
X139Y241D01*
X176Y241D02*
X184Y241D01*
X231Y241D02*
X239Y241D01*
X276Y241D02*
X284Y241D01*
X331Y241D02*
X339Y241D01*
X376Y241D02*
X384Y241D01*
X431Y241D02*
X439Y241D01*
X476Y241D02*
X484Y241D01*
X531Y241D02*
X539Y241D01*
X576Y241D02*
X584Y241D01*
X631Y241D02*
X639Y241D01*
X676Y241D02*
X684Y241D01*
X731Y241D02*
X739Y241D01*
X776Y241D02*
X784Y241D01*
X831Y241D02*
X839Y241D01*
X876Y241D02*
X884Y241D01*
X931Y241D02*
X939Y241D01*
X976Y241D02*
X984Y241D01*
X1031Y241D02*
X1039Y241D01*
X1076Y241D02*
X1084Y241D01*
X1131Y241D02*
X1139Y241D01*
X1176Y241D02*
X1184Y241D01*
X1231Y241D02*
X1239Y241D01*
X1276Y241D02*
X1284Y241D01*
X1331Y241D02*
X1339Y241D01*
X1376Y241D02*
X1384Y241D01*
X1431Y241D02*
X1439Y241D01*
X1476Y241D02*
X1484Y241D01*
X1531Y241D02*
X1539Y241D01*
X1576Y241D02*
X1584Y241D01*
X1631Y241D02*
X1639Y241D01*
X1676Y241D02*
X1684Y241D01*
X1731Y241D02*
X1739Y241D01*
X1776Y241D02*
X1784Y241D01*
X1831Y241D02*
X1839Y241D01*
X1876Y241D02*
X1884Y241D01*
X1931Y241D02*
X1939Y241D01*
X1976Y241D02*
X1984Y241D01*
X2030Y241D02*
X2038Y241D01*
X2075Y241D02*
X2083Y241D01*
X131Y240D02*
X139Y240D01*
X176Y240D02*
X184Y240D01*
X231Y240D02*
X239Y240D01*
X276Y240D02*
X284Y240D01*
X331Y240D02*
X339Y240D01*
X376Y240D02*
X384Y240D01*
X431Y240D02*
X439Y240D01*
X476Y240D02*
X484Y240D01*
X531Y240D02*
X539Y240D01*
X576Y240D02*
X584Y240D01*
X631Y240D02*
X639Y240D01*
X676Y240D02*
X684Y240D01*
X731Y240D02*
X738Y240D01*
X776Y240D02*
X784Y240D01*
X831Y240D02*
X838Y240D01*
X876Y240D02*
X884Y240D01*
X931Y240D02*
X938Y240D01*
X976Y240D02*
X984Y240D01*
X1031Y240D02*
X1038Y240D01*
X1076Y240D02*
X1084Y240D01*
X1131Y240D02*
X1138Y240D01*
X1176Y240D02*
X1184Y240D01*
X1231Y240D02*
X1238Y240D01*
X1276Y240D02*
X1284Y240D01*
X1331Y240D02*
X1338Y240D01*
X1376Y240D02*
X1384Y240D01*
X1431Y240D02*
X1438Y240D01*
X1476Y240D02*
X1484Y240D01*
X1531Y240D02*
X1538Y240D01*
X1576Y240D02*
X1584Y240D01*
X1631Y240D02*
X1638Y240D01*
X1676Y240D02*
X1684Y240D01*
X1731Y240D02*
X1738Y240D01*
X1776Y240D02*
X1784Y240D01*
X1831Y240D02*
X1838Y240D01*
X1876Y240D02*
X1884Y240D01*
X1931Y240D02*
X1938Y240D01*
X1976Y240D02*
X1984Y240D01*
X2030Y240D02*
X2038Y240D01*
X2075Y240D02*
X2083Y240D01*
X131Y239D02*
X138Y239D01*
X176Y239D02*
X184Y239D01*
X231Y239D02*
X238Y239D01*
X276Y239D02*
X284Y239D01*
X331Y239D02*
X338Y239D01*
X376Y239D02*
X384Y239D01*
X431Y239D02*
X438Y239D01*
X476Y239D02*
X484Y239D01*
X531Y239D02*
X538Y239D01*
X576Y239D02*
X584Y239D01*
X631Y239D02*
X638Y239D01*
X676Y239D02*
X684Y239D01*
X731Y239D02*
X738Y239D01*
X776Y239D02*
X784Y239D01*
X831Y239D02*
X838Y239D01*
X876Y239D02*
X884Y239D01*
X931Y239D02*
X938Y239D01*
X976Y239D02*
X984Y239D01*
X1031Y239D02*
X1038Y239D01*
X1076Y239D02*
X1084Y239D01*
X1131Y239D02*
X1138Y239D01*
X1176Y239D02*
X1184Y239D01*
X1231Y239D02*
X1238Y239D01*
X1276Y239D02*
X1284Y239D01*
X1331Y239D02*
X1338Y239D01*
X1376Y239D02*
X1384Y239D01*
X1431Y239D02*
X1438Y239D01*
X1476Y239D02*
X1484Y239D01*
X1531Y239D02*
X1538Y239D01*
X1576Y239D02*
X1584Y239D01*
X1631Y239D02*
X1638Y239D01*
X1676Y239D02*
X1684Y239D01*
X1731Y239D02*
X1738Y239D01*
X1776Y239D02*
X1784Y239D01*
X1831Y239D02*
X1838Y239D01*
X1876Y239D02*
X1884Y239D01*
X1931Y239D02*
X1938Y239D01*
X1976Y239D02*
X1984Y239D01*
X2030Y239D02*
X2038Y239D01*
X2076Y239D02*
X2083Y239D01*
X131Y238D02*
X138Y238D01*
X176Y238D02*
X184Y238D01*
X231Y238D02*
X238Y238D01*
X276Y238D02*
X284Y238D01*
X331Y238D02*
X338Y238D01*
X376Y238D02*
X384Y238D01*
X431Y238D02*
X438Y238D01*
X476Y238D02*
X484Y238D01*
X531Y238D02*
X538Y238D01*
X576Y238D02*
X584Y238D01*
X631Y238D02*
X638Y238D01*
X676Y238D02*
X684Y238D01*
X731Y238D02*
X738Y238D01*
X776Y238D02*
X784Y238D01*
X831Y238D02*
X838Y238D01*
X876Y238D02*
X884Y238D01*
X931Y238D02*
X938Y238D01*
X976Y238D02*
X984Y238D01*
X1031Y238D02*
X1038Y238D01*
X1076Y238D02*
X1084Y238D01*
X1131Y238D02*
X1138Y238D01*
X1176Y238D02*
X1184Y238D01*
X1231Y238D02*
X1238Y238D01*
X1276Y238D02*
X1284Y238D01*
X1331Y238D02*
X1338Y238D01*
X1376Y238D02*
X1384Y238D01*
X1431Y238D02*
X1438Y238D01*
X1476Y238D02*
X1484Y238D01*
X1531Y238D02*
X1538Y238D01*
X1576Y238D02*
X1584Y238D01*
X1631Y238D02*
X1638Y238D01*
X1676Y238D02*
X1684Y238D01*
X1731Y238D02*
X1738Y238D01*
X1776Y238D02*
X1784Y238D01*
X1831Y238D02*
X1838Y238D01*
X1876Y238D02*
X1884Y238D01*
X1931Y238D02*
X1938Y238D01*
X1976Y238D02*
X1984Y238D01*
X2030Y238D02*
X2037Y238D01*
X2076Y238D02*
X2083Y238D01*
X131Y237D02*
X138Y237D01*
X177Y237D02*
X184Y237D01*
X231Y237D02*
X238Y237D01*
X277Y237D02*
X284Y237D01*
X331Y237D02*
X338Y237D01*
X377Y237D02*
X384Y237D01*
X431Y237D02*
X438Y237D01*
X477Y237D02*
X484Y237D01*
X531Y237D02*
X538Y237D01*
X577Y237D02*
X584Y237D01*
X631Y237D02*
X638Y237D01*
X677Y237D02*
X684Y237D01*
X731Y237D02*
X738Y237D01*
X777Y237D02*
X784Y237D01*
X831Y237D02*
X838Y237D01*
X876Y237D02*
X884Y237D01*
X931Y237D02*
X938Y237D01*
X976Y237D02*
X984Y237D01*
X1031Y237D02*
X1038Y237D01*
X1076Y237D02*
X1084Y237D01*
X1131Y237D02*
X1138Y237D01*
X1176Y237D02*
X1184Y237D01*
X1231Y237D02*
X1238Y237D01*
X1276Y237D02*
X1284Y237D01*
X1331Y237D02*
X1338Y237D01*
X1376Y237D02*
X1384Y237D01*
X1431Y237D02*
X1438Y237D01*
X1476Y237D02*
X1484Y237D01*
X1531Y237D02*
X1538Y237D01*
X1576Y237D02*
X1584Y237D01*
X1631Y237D02*
X1638Y237D01*
X1676Y237D02*
X1684Y237D01*
X1731Y237D02*
X1738Y237D01*
X1776Y237D02*
X1784Y237D01*
X1831Y237D02*
X1838Y237D01*
X1876Y237D02*
X1884Y237D01*
X1931Y237D02*
X1938Y237D01*
X1976Y237D02*
X1984Y237D01*
X2030Y237D02*
X2037Y237D01*
X2076Y237D02*
X2083Y237D01*
X131Y236D02*
X138Y236D01*
X177Y236D02*
X184Y236D01*
X231Y236D02*
X238Y236D01*
X277Y236D02*
X284Y236D01*
X331Y236D02*
X338Y236D01*
X377Y236D02*
X384Y236D01*
X431Y236D02*
X438Y236D01*
X477Y236D02*
X484Y236D01*
X531Y236D02*
X538Y236D01*
X577Y236D02*
X584Y236D01*
X631Y236D02*
X638Y236D01*
X677Y236D02*
X684Y236D01*
X731Y236D02*
X738Y236D01*
X777Y236D02*
X784Y236D01*
X831Y236D02*
X838Y236D01*
X877Y236D02*
X884Y236D01*
X931Y236D02*
X938Y236D01*
X977Y236D02*
X984Y236D01*
X1031Y236D02*
X1038Y236D01*
X1077Y236D02*
X1084Y236D01*
X1131Y236D02*
X1138Y236D01*
X1177Y236D02*
X1184Y236D01*
X1231Y236D02*
X1238Y236D01*
X1277Y236D02*
X1284Y236D01*
X1331Y236D02*
X1338Y236D01*
X1377Y236D02*
X1384Y236D01*
X1431Y236D02*
X1438Y236D01*
X1477Y236D02*
X1484Y236D01*
X1531Y236D02*
X1538Y236D01*
X1577Y236D02*
X1584Y236D01*
X1631Y236D02*
X1638Y236D01*
X1677Y236D02*
X1684Y236D01*
X1731Y236D02*
X1738Y236D01*
X1777Y236D02*
X1784Y236D01*
X1831Y236D02*
X1838Y236D01*
X1877Y236D02*
X1884Y236D01*
X1931Y236D02*
X1938Y236D01*
X1976Y236D02*
X1984Y236D01*
X2030Y236D02*
X2037Y236D01*
X2076Y236D02*
X2083Y236D01*
X131Y235D02*
X138Y235D01*
X177Y235D02*
X184Y235D01*
X231Y235D02*
X238Y235D01*
X277Y235D02*
X284Y235D01*
X331Y235D02*
X338Y235D01*
X377Y235D02*
X384Y235D01*
X431Y235D02*
X438Y235D01*
X477Y235D02*
X484Y235D01*
X531Y235D02*
X538Y235D01*
X577Y235D02*
X584Y235D01*
X631Y235D02*
X638Y235D01*
X677Y235D02*
X684Y235D01*
X731Y235D02*
X738Y235D01*
X777Y235D02*
X784Y235D01*
X831Y235D02*
X838Y235D01*
X877Y235D02*
X884Y235D01*
X931Y235D02*
X938Y235D01*
X977Y235D02*
X984Y235D01*
X1031Y235D02*
X1038Y235D01*
X1077Y235D02*
X1084Y235D01*
X1131Y235D02*
X1138Y235D01*
X1177Y235D02*
X1184Y235D01*
X1231Y235D02*
X1238Y235D01*
X1277Y235D02*
X1284Y235D01*
X1331Y235D02*
X1338Y235D01*
X1377Y235D02*
X1384Y235D01*
X1431Y235D02*
X1438Y235D01*
X1477Y235D02*
X1484Y235D01*
X1531Y235D02*
X1538Y235D01*
X1577Y235D02*
X1584Y235D01*
X1631Y235D02*
X1638Y235D01*
X1677Y235D02*
X1684Y235D01*
X1731Y235D02*
X1738Y235D01*
X1777Y235D02*
X1784Y235D01*
X1831Y235D02*
X1838Y235D01*
X1877Y235D02*
X1884Y235D01*
X1931Y235D02*
X1938Y235D01*
X1977Y235D02*
X1984Y235D01*
X2030Y235D02*
X2037Y235D01*
X2076Y235D02*
X2083Y235D01*
X131Y234D02*
X138Y234D01*
X177Y234D02*
X184Y234D01*
X231Y234D02*
X238Y234D01*
X277Y234D02*
X284Y234D01*
X331Y234D02*
X338Y234D01*
X377Y234D02*
X384Y234D01*
X431Y234D02*
X438Y234D01*
X477Y234D02*
X484Y234D01*
X531Y234D02*
X538Y234D01*
X577Y234D02*
X584Y234D01*
X631Y234D02*
X638Y234D01*
X677Y234D02*
X684Y234D01*
X731Y234D02*
X738Y234D01*
X777Y234D02*
X784Y234D01*
X831Y234D02*
X838Y234D01*
X877Y234D02*
X884Y234D01*
X931Y234D02*
X938Y234D01*
X977Y234D02*
X984Y234D01*
X1031Y234D02*
X1038Y234D01*
X1077Y234D02*
X1084Y234D01*
X1131Y234D02*
X1138Y234D01*
X1177Y234D02*
X1184Y234D01*
X1231Y234D02*
X1238Y234D01*
X1277Y234D02*
X1284Y234D01*
X1331Y234D02*
X1338Y234D01*
X1377Y234D02*
X1384Y234D01*
X1431Y234D02*
X1438Y234D01*
X1477Y234D02*
X1484Y234D01*
X1531Y234D02*
X1538Y234D01*
X1577Y234D02*
X1584Y234D01*
X1631Y234D02*
X1638Y234D01*
X1677Y234D02*
X1684Y234D01*
X1731Y234D02*
X1738Y234D01*
X1777Y234D02*
X1784Y234D01*
X1831Y234D02*
X1838Y234D01*
X1877Y234D02*
X1884Y234D01*
X1931Y234D02*
X1938Y234D01*
X1977Y234D02*
X1984Y234D01*
X2030Y234D02*
X2037Y234D01*
X2076Y234D02*
X2083Y234D01*
X131Y233D02*
X138Y233D01*
X177Y233D02*
X184Y233D01*
X231Y233D02*
X238Y233D01*
X277Y233D02*
X284Y233D01*
X331Y233D02*
X338Y233D01*
X377Y233D02*
X384Y233D01*
X431Y233D02*
X438Y233D01*
X477Y233D02*
X484Y233D01*
X531Y233D02*
X538Y233D01*
X577Y233D02*
X584Y233D01*
X631Y233D02*
X638Y233D01*
X677Y233D02*
X684Y233D01*
X731Y233D02*
X738Y233D01*
X777Y233D02*
X784Y233D01*
X831Y233D02*
X838Y233D01*
X877Y233D02*
X884Y233D01*
X931Y233D02*
X938Y233D01*
X977Y233D02*
X984Y233D01*
X1031Y233D02*
X1038Y233D01*
X1076Y233D02*
X1084Y233D01*
X1131Y233D02*
X1138Y233D01*
X1176Y233D02*
X1184Y233D01*
X1231Y233D02*
X1238Y233D01*
X1276Y233D02*
X1284Y233D01*
X1331Y233D02*
X1338Y233D01*
X1376Y233D02*
X1384Y233D01*
X1431Y233D02*
X1438Y233D01*
X1476Y233D02*
X1484Y233D01*
X1531Y233D02*
X1538Y233D01*
X1576Y233D02*
X1584Y233D01*
X1631Y233D02*
X1638Y233D01*
X1676Y233D02*
X1684Y233D01*
X1731Y233D02*
X1738Y233D01*
X1776Y233D02*
X1784Y233D01*
X1831Y233D02*
X1838Y233D01*
X1876Y233D02*
X1884Y233D01*
X1931Y233D02*
X1938Y233D01*
X1976Y233D02*
X1984Y233D01*
X2030Y233D02*
X2037Y233D01*
X2076Y233D02*
X2083Y233D01*
X131Y232D02*
X138Y232D01*
X176Y232D02*
X184Y232D01*
X231Y232D02*
X238Y232D01*
X276Y232D02*
X284Y232D01*
X331Y232D02*
X338Y232D01*
X376Y232D02*
X384Y232D01*
X431Y232D02*
X438Y232D01*
X476Y232D02*
X484Y232D01*
X531Y232D02*
X538Y232D01*
X576Y232D02*
X584Y232D01*
X631Y232D02*
X638Y232D01*
X676Y232D02*
X684Y232D01*
X731Y232D02*
X738Y232D01*
X776Y232D02*
X784Y232D01*
X831Y232D02*
X838Y232D01*
X876Y232D02*
X884Y232D01*
X931Y232D02*
X938Y232D01*
X976Y232D02*
X984Y232D01*
X1031Y232D02*
X1038Y232D01*
X1076Y232D02*
X1084Y232D01*
X1131Y232D02*
X1138Y232D01*
X1176Y232D02*
X1184Y232D01*
X1231Y232D02*
X1238Y232D01*
X1276Y232D02*
X1284Y232D01*
X1331Y232D02*
X1338Y232D01*
X1376Y232D02*
X1384Y232D01*
X1431Y232D02*
X1438Y232D01*
X1476Y232D02*
X1484Y232D01*
X1531Y232D02*
X1538Y232D01*
X1576Y232D02*
X1584Y232D01*
X1631Y232D02*
X1638Y232D01*
X1676Y232D02*
X1684Y232D01*
X1731Y232D02*
X1738Y232D01*
X1776Y232D02*
X1784Y232D01*
X1831Y232D02*
X1838Y232D01*
X1876Y232D02*
X1884Y232D01*
X1931Y232D02*
X1938Y232D01*
X1976Y232D02*
X1984Y232D01*
X2030Y232D02*
X2037Y232D01*
X2076Y232D02*
X2083Y232D01*
X131Y231D02*
X138Y231D01*
X176Y231D02*
X184Y231D01*
X231Y231D02*
X238Y231D01*
X276Y231D02*
X284Y231D01*
X331Y231D02*
X338Y231D01*
X376Y231D02*
X384Y231D01*
X431Y231D02*
X438Y231D01*
X476Y231D02*
X484Y231D01*
X531Y231D02*
X538Y231D01*
X576Y231D02*
X584Y231D01*
X631Y231D02*
X638Y231D01*
X676Y231D02*
X684Y231D01*
X731Y231D02*
X738Y231D01*
X776Y231D02*
X784Y231D01*
X831Y231D02*
X838Y231D01*
X876Y231D02*
X884Y231D01*
X931Y231D02*
X938Y231D01*
X976Y231D02*
X984Y231D01*
X1031Y231D02*
X1038Y231D01*
X1076Y231D02*
X1084Y231D01*
X1131Y231D02*
X1138Y231D01*
X1176Y231D02*
X1184Y231D01*
X1231Y231D02*
X1238Y231D01*
X1276Y231D02*
X1284Y231D01*
X1331Y231D02*
X1338Y231D01*
X1376Y231D02*
X1384Y231D01*
X1431Y231D02*
X1438Y231D01*
X1476Y231D02*
X1484Y231D01*
X1531Y231D02*
X1538Y231D01*
X1576Y231D02*
X1584Y231D01*
X1631Y231D02*
X1638Y231D01*
X1676Y231D02*
X1684Y231D01*
X1731Y231D02*
X1738Y231D01*
X1776Y231D02*
X1784Y231D01*
X1831Y231D02*
X1838Y231D01*
X1876Y231D02*
X1884Y231D01*
X1931Y231D02*
X1938Y231D01*
X1976Y231D02*
X1984Y231D01*
X2030Y231D02*
X2038Y231D01*
X2076Y231D02*
X2083Y231D01*
X131Y230D02*
X139Y230D01*
X176Y230D02*
X184Y230D01*
X231Y230D02*
X239Y230D01*
X276Y230D02*
X284Y230D01*
X331Y230D02*
X339Y230D01*
X376Y230D02*
X384Y230D01*
X431Y230D02*
X438Y230D01*
X476Y230D02*
X484Y230D01*
X531Y230D02*
X538Y230D01*
X576Y230D02*
X584Y230D01*
X631Y230D02*
X638Y230D01*
X676Y230D02*
X684Y230D01*
X731Y230D02*
X738Y230D01*
X776Y230D02*
X784Y230D01*
X831Y230D02*
X838Y230D01*
X876Y230D02*
X884Y230D01*
X931Y230D02*
X938Y230D01*
X976Y230D02*
X984Y230D01*
X1031Y230D02*
X1038Y230D01*
X1076Y230D02*
X1084Y230D01*
X1131Y230D02*
X1138Y230D01*
X1176Y230D02*
X1184Y230D01*
X1231Y230D02*
X1238Y230D01*
X1276Y230D02*
X1284Y230D01*
X1331Y230D02*
X1338Y230D01*
X1376Y230D02*
X1384Y230D01*
X1431Y230D02*
X1438Y230D01*
X1476Y230D02*
X1484Y230D01*
X1531Y230D02*
X1538Y230D01*
X1576Y230D02*
X1584Y230D01*
X1631Y230D02*
X1638Y230D01*
X1676Y230D02*
X1684Y230D01*
X1731Y230D02*
X1738Y230D01*
X1776Y230D02*
X1784Y230D01*
X1831Y230D02*
X1838Y230D01*
X1876Y230D02*
X1884Y230D01*
X1931Y230D02*
X1938Y230D01*
X1976Y230D02*
X1984Y230D01*
X2030Y230D02*
X2038Y230D01*
X2075Y230D02*
X2083Y230D01*
X131Y229D02*
X139Y229D01*
X176Y229D02*
X184Y229D01*
X231Y229D02*
X239Y229D01*
X276Y229D02*
X284Y229D01*
X331Y229D02*
X339Y229D01*
X376Y229D02*
X384Y229D01*
X431Y229D02*
X439Y229D01*
X476Y229D02*
X484Y229D01*
X531Y229D02*
X539Y229D01*
X576Y229D02*
X584Y229D01*
X631Y229D02*
X639Y229D01*
X676Y229D02*
X684Y229D01*
X731Y229D02*
X739Y229D01*
X776Y229D02*
X784Y229D01*
X831Y229D02*
X839Y229D01*
X876Y229D02*
X884Y229D01*
X931Y229D02*
X939Y229D01*
X976Y229D02*
X984Y229D01*
X1031Y229D02*
X1039Y229D01*
X1076Y229D02*
X1084Y229D01*
X1131Y229D02*
X1139Y229D01*
X1176Y229D02*
X1184Y229D01*
X1231Y229D02*
X1239Y229D01*
X1276Y229D02*
X1284Y229D01*
X1331Y229D02*
X1339Y229D01*
X1376Y229D02*
X1384Y229D01*
X1431Y229D02*
X1439Y229D01*
X1476Y229D02*
X1484Y229D01*
X1531Y229D02*
X1539Y229D01*
X1576Y229D02*
X1584Y229D01*
X1631Y229D02*
X1639Y229D01*
X1676Y229D02*
X1684Y229D01*
X1731Y229D02*
X1739Y229D01*
X1776Y229D02*
X1784Y229D01*
X1831Y229D02*
X1839Y229D01*
X1876Y229D02*
X1884Y229D01*
X1931Y229D02*
X1939Y229D01*
X1976Y229D02*
X1984Y229D01*
X2030Y229D02*
X2038Y229D01*
X2075Y229D02*
X2083Y229D01*
X131Y228D02*
X139Y228D01*
X175Y228D02*
X184Y228D01*
X231Y228D02*
X239Y228D01*
X275Y228D02*
X284Y228D01*
X331Y228D02*
X339Y228D01*
X375Y228D02*
X384Y228D01*
X431Y228D02*
X439Y228D01*
X475Y228D02*
X484Y228D01*
X531Y228D02*
X539Y228D01*
X575Y228D02*
X584Y228D01*
X631Y228D02*
X639Y228D01*
X675Y228D02*
X684Y228D01*
X731Y228D02*
X739Y228D01*
X775Y228D02*
X784Y228D01*
X831Y228D02*
X839Y228D01*
X875Y228D02*
X884Y228D01*
X931Y228D02*
X939Y228D01*
X975Y228D02*
X984Y228D01*
X1031Y228D02*
X1039Y228D01*
X1075Y228D02*
X1084Y228D01*
X1131Y228D02*
X1139Y228D01*
X1175Y228D02*
X1184Y228D01*
X1231Y228D02*
X1239Y228D01*
X1275Y228D02*
X1284Y228D01*
X1331Y228D02*
X1339Y228D01*
X1375Y228D02*
X1384Y228D01*
X1431Y228D02*
X1439Y228D01*
X1475Y228D02*
X1484Y228D01*
X1531Y228D02*
X1539Y228D01*
X1575Y228D02*
X1584Y228D01*
X1631Y228D02*
X1639Y228D01*
X1675Y228D02*
X1684Y228D01*
X1731Y228D02*
X1739Y228D01*
X1775Y228D02*
X1784Y228D01*
X1831Y228D02*
X1839Y228D01*
X1875Y228D02*
X1884Y228D01*
X1931Y228D02*
X1939Y228D01*
X1975Y228D02*
X1984Y228D01*
X2030Y228D02*
X2039Y228D01*
X2075Y228D02*
X2083Y228D01*
X131Y227D02*
X140Y227D01*
X175Y227D02*
X184Y227D01*
X231Y227D02*
X240Y227D01*
X275Y227D02*
X284Y227D01*
X331Y227D02*
X340Y227D01*
X375Y227D02*
X384Y227D01*
X431Y227D02*
X440Y227D01*
X475Y227D02*
X484Y227D01*
X531Y227D02*
X540Y227D01*
X575Y227D02*
X584Y227D01*
X631Y227D02*
X640Y227D01*
X675Y227D02*
X684Y227D01*
X731Y227D02*
X740Y227D01*
X775Y227D02*
X784Y227D01*
X831Y227D02*
X840Y227D01*
X875Y227D02*
X884Y227D01*
X931Y227D02*
X940Y227D01*
X975Y227D02*
X984Y227D01*
X1031Y227D02*
X1040Y227D01*
X1075Y227D02*
X1084Y227D01*
X1131Y227D02*
X1139Y227D01*
X1175Y227D02*
X1184Y227D01*
X1231Y227D02*
X1239Y227D01*
X1275Y227D02*
X1284Y227D01*
X1331Y227D02*
X1339Y227D01*
X1375Y227D02*
X1384Y227D01*
X1431Y227D02*
X1439Y227D01*
X1475Y227D02*
X1484Y227D01*
X1531Y227D02*
X1539Y227D01*
X1575Y227D02*
X1584Y227D01*
X1631Y227D02*
X1639Y227D01*
X1675Y227D02*
X1684Y227D01*
X1731Y227D02*
X1739Y227D01*
X1775Y227D02*
X1784Y227D01*
X1831Y227D02*
X1839Y227D01*
X1875Y227D02*
X1884Y227D01*
X1931Y227D02*
X1939Y227D01*
X1975Y227D02*
X1984Y227D01*
X2030Y227D02*
X2039Y227D01*
X2074Y227D02*
X2083Y227D01*
X131Y226D02*
X140Y226D01*
X174Y226D02*
X184Y226D01*
X231Y226D02*
X240Y226D01*
X274Y226D02*
X284Y226D01*
X331Y226D02*
X340Y226D01*
X374Y226D02*
X384Y226D01*
X431Y226D02*
X440Y226D01*
X474Y226D02*
X484Y226D01*
X531Y226D02*
X540Y226D01*
X574Y226D02*
X584Y226D01*
X631Y226D02*
X640Y226D01*
X674Y226D02*
X684Y226D01*
X731Y226D02*
X740Y226D01*
X774Y226D02*
X784Y226D01*
X831Y226D02*
X840Y226D01*
X874Y226D02*
X884Y226D01*
X931Y226D02*
X940Y226D01*
X974Y226D02*
X984Y226D01*
X1031Y226D02*
X1040Y226D01*
X1074Y226D02*
X1084Y226D01*
X1131Y226D02*
X1140Y226D01*
X1174Y226D02*
X1184Y226D01*
X1231Y226D02*
X1240Y226D01*
X1274Y226D02*
X1284Y226D01*
X1331Y226D02*
X1340Y226D01*
X1374Y226D02*
X1384Y226D01*
X1431Y226D02*
X1440Y226D01*
X1474Y226D02*
X1484Y226D01*
X1531Y226D02*
X1540Y226D01*
X1574Y226D02*
X1584Y226D01*
X1631Y226D02*
X1640Y226D01*
X1674Y226D02*
X1684Y226D01*
X1731Y226D02*
X1740Y226D01*
X1774Y226D02*
X1784Y226D01*
X1831Y226D02*
X1840Y226D01*
X1874Y226D02*
X1884Y226D01*
X1931Y226D02*
X1940Y226D01*
X1974Y226D02*
X1984Y226D01*
X2030Y226D02*
X2040Y226D01*
X2074Y226D02*
X2083Y226D01*
X131Y225D02*
X141Y225D01*
X174Y225D02*
X184Y225D01*
X231Y225D02*
X241Y225D01*
X274Y225D02*
X284Y225D01*
X331Y225D02*
X341Y225D01*
X374Y225D02*
X384Y225D01*
X431Y225D02*
X441Y225D01*
X474Y225D02*
X484Y225D01*
X531Y225D02*
X541Y225D01*
X574Y225D02*
X584Y225D01*
X631Y225D02*
X641Y225D01*
X674Y225D02*
X684Y225D01*
X731Y225D02*
X741Y225D01*
X774Y225D02*
X784Y225D01*
X831Y225D02*
X841Y225D01*
X874Y225D02*
X884Y225D01*
X931Y225D02*
X941Y225D01*
X974Y225D02*
X984Y225D01*
X1031Y225D02*
X1041Y225D01*
X1074Y225D02*
X1084Y225D01*
X1131Y225D02*
X1141Y225D01*
X1174Y225D02*
X1184Y225D01*
X1231Y225D02*
X1241Y225D01*
X1274Y225D02*
X1284Y225D01*
X1331Y225D02*
X1341Y225D01*
X1374Y225D02*
X1384Y225D01*
X1431Y225D02*
X1441Y225D01*
X1474Y225D02*
X1484Y225D01*
X1531Y225D02*
X1541Y225D01*
X1574Y225D02*
X1584Y225D01*
X1631Y225D02*
X1641Y225D01*
X1674Y225D02*
X1684Y225D01*
X1731Y225D02*
X1741Y225D01*
X1774Y225D02*
X1784Y225D01*
X1831Y225D02*
X1841Y225D01*
X1874Y225D02*
X1884Y225D01*
X1931Y225D02*
X1941Y225D01*
X1974Y225D02*
X1984Y225D01*
X2030Y225D02*
X2040Y225D01*
X2073Y225D02*
X2083Y225D01*
X131Y224D02*
X141Y224D01*
X173Y224D02*
X184Y224D01*
X231Y224D02*
X241Y224D01*
X273Y224D02*
X284Y224D01*
X331Y224D02*
X341Y224D01*
X373Y224D02*
X384Y224D01*
X431Y224D02*
X441Y224D01*
X473Y224D02*
X484Y224D01*
X531Y224D02*
X541Y224D01*
X573Y224D02*
X584Y224D01*
X631Y224D02*
X641Y224D01*
X673Y224D02*
X684Y224D01*
X731Y224D02*
X741Y224D01*
X773Y224D02*
X784Y224D01*
X831Y224D02*
X841Y224D01*
X873Y224D02*
X884Y224D01*
X931Y224D02*
X941Y224D01*
X973Y224D02*
X984Y224D01*
X1031Y224D02*
X1041Y224D01*
X1073Y224D02*
X1084Y224D01*
X1131Y224D02*
X1141Y224D01*
X1173Y224D02*
X1184Y224D01*
X1231Y224D02*
X1241Y224D01*
X1273Y224D02*
X1284Y224D01*
X1331Y224D02*
X1341Y224D01*
X1373Y224D02*
X1384Y224D01*
X1431Y224D02*
X1441Y224D01*
X1473Y224D02*
X1484Y224D01*
X1531Y224D02*
X1541Y224D01*
X1573Y224D02*
X1584Y224D01*
X1631Y224D02*
X1641Y224D01*
X1673Y224D02*
X1684Y224D01*
X1731Y224D02*
X1741Y224D01*
X1773Y224D02*
X1784Y224D01*
X1831Y224D02*
X1841Y224D01*
X1873Y224D02*
X1884Y224D01*
X1931Y224D02*
X1941Y224D01*
X1973Y224D02*
X1984Y224D01*
X2030Y224D02*
X2041Y224D01*
X2073Y224D02*
X2083Y224D01*
X131Y223D02*
X142Y223D01*
X172Y223D02*
X184Y223D01*
X231Y223D02*
X242Y223D01*
X272Y223D02*
X284Y223D01*
X331Y223D02*
X342Y223D01*
X372Y223D02*
X384Y223D01*
X431Y223D02*
X442Y223D01*
X472Y223D02*
X484Y223D01*
X531Y223D02*
X542Y223D01*
X572Y223D02*
X584Y223D01*
X631Y223D02*
X642Y223D01*
X672Y223D02*
X684Y223D01*
X731Y223D02*
X742Y223D01*
X772Y223D02*
X784Y223D01*
X831Y223D02*
X842Y223D01*
X872Y223D02*
X884Y223D01*
X931Y223D02*
X942Y223D01*
X972Y223D02*
X984Y223D01*
X1031Y223D02*
X1042Y223D01*
X1072Y223D02*
X1084Y223D01*
X1131Y223D02*
X1142Y223D01*
X1172Y223D02*
X1184Y223D01*
X1231Y223D02*
X1242Y223D01*
X1272Y223D02*
X1284Y223D01*
X1331Y223D02*
X1342Y223D01*
X1372Y223D02*
X1384Y223D01*
X1431Y223D02*
X1442Y223D01*
X1472Y223D02*
X1484Y223D01*
X1531Y223D02*
X1542Y223D01*
X1572Y223D02*
X1584Y223D01*
X1631Y223D02*
X1642Y223D01*
X1672Y223D02*
X1684Y223D01*
X1731Y223D02*
X1742Y223D01*
X1772Y223D02*
X1784Y223D01*
X1831Y223D02*
X1842Y223D01*
X1872Y223D02*
X1884Y223D01*
X1931Y223D02*
X1942Y223D01*
X1972Y223D02*
X1984Y223D01*
X2030Y223D02*
X2042Y223D01*
X2072Y223D02*
X2083Y223D01*
X131Y222D02*
X143Y222D01*
X172Y222D02*
X184Y222D01*
X231Y222D02*
X243Y222D01*
X272Y222D02*
X284Y222D01*
X331Y222D02*
X343Y222D01*
X372Y222D02*
X384Y222D01*
X431Y222D02*
X443Y222D01*
X472Y222D02*
X484Y222D01*
X531Y222D02*
X543Y222D01*
X572Y222D02*
X584Y222D01*
X631Y222D02*
X643Y222D01*
X672Y222D02*
X684Y222D01*
X731Y222D02*
X743Y222D01*
X772Y222D02*
X784Y222D01*
X831Y222D02*
X843Y222D01*
X872Y222D02*
X884Y222D01*
X931Y222D02*
X943Y222D01*
X972Y222D02*
X984Y222D01*
X1031Y222D02*
X1043Y222D01*
X1072Y222D02*
X1084Y222D01*
X1131Y222D02*
X1143Y222D01*
X1171Y222D02*
X1184Y222D01*
X1231Y222D02*
X1243Y222D01*
X1271Y222D02*
X1284Y222D01*
X1331Y222D02*
X1343Y222D01*
X1371Y222D02*
X1384Y222D01*
X1431Y222D02*
X1443Y222D01*
X1471Y222D02*
X1484Y222D01*
X1531Y222D02*
X1543Y222D01*
X1571Y222D02*
X1584Y222D01*
X1631Y222D02*
X1643Y222D01*
X1671Y222D02*
X1684Y222D01*
X1731Y222D02*
X1743Y222D01*
X1771Y222D02*
X1784Y222D01*
X1831Y222D02*
X1843Y222D01*
X1871Y222D02*
X1884Y222D01*
X1931Y222D02*
X1943Y222D01*
X1971Y222D02*
X1984Y222D01*
X2030Y222D02*
X2042Y222D01*
X2071Y222D02*
X2083Y222D01*
X131Y221D02*
X144Y221D01*
X171Y221D02*
X184Y221D01*
X231Y221D02*
X244Y221D01*
X271Y221D02*
X284Y221D01*
X331Y221D02*
X344Y221D01*
X371Y221D02*
X384Y221D01*
X431Y221D02*
X444Y221D01*
X471Y221D02*
X484Y221D01*
X531Y221D02*
X544Y221D01*
X571Y221D02*
X584Y221D01*
X631Y221D02*
X644Y221D01*
X671Y221D02*
X684Y221D01*
X731Y221D02*
X744Y221D01*
X771Y221D02*
X784Y221D01*
X831Y221D02*
X844Y221D01*
X870Y221D02*
X884Y221D01*
X931Y221D02*
X944Y221D01*
X970Y221D02*
X984Y221D01*
X1031Y221D02*
X1044Y221D01*
X1070Y221D02*
X1084Y221D01*
X1131Y221D02*
X1144Y221D01*
X1170Y221D02*
X1184Y221D01*
X1231Y221D02*
X1244Y221D01*
X1270Y221D02*
X1284Y221D01*
X1331Y221D02*
X1344Y221D01*
X1370Y221D02*
X1384Y221D01*
X1431Y221D02*
X1444Y221D01*
X1470Y221D02*
X1484Y221D01*
X1531Y221D02*
X1544Y221D01*
X1570Y221D02*
X1584Y221D01*
X1631Y221D02*
X1644Y221D01*
X1670Y221D02*
X1684Y221D01*
X1731Y221D02*
X1744Y221D01*
X1770Y221D02*
X1784Y221D01*
X1831Y221D02*
X1844Y221D01*
X1870Y221D02*
X1884Y221D01*
X1931Y221D02*
X1944Y221D01*
X1970Y221D02*
X1984Y221D01*
X2030Y221D02*
X2043Y221D01*
X2070Y221D02*
X2083Y221D01*
X131Y220D02*
X145Y220D01*
X169Y220D02*
X184Y220D01*
X231Y220D02*
X245Y220D01*
X269Y220D02*
X284Y220D01*
X331Y220D02*
X345Y220D01*
X369Y220D02*
X384Y220D01*
X431Y220D02*
X445Y220D01*
X469Y220D02*
X484Y220D01*
X531Y220D02*
X545Y220D01*
X569Y220D02*
X584Y220D01*
X631Y220D02*
X645Y220D01*
X669Y220D02*
X684Y220D01*
X731Y220D02*
X745Y220D01*
X769Y220D02*
X784Y220D01*
X831Y220D02*
X845Y220D01*
X869Y220D02*
X884Y220D01*
X931Y220D02*
X945Y220D01*
X969Y220D02*
X984Y220D01*
X1031Y220D02*
X1045Y220D01*
X1069Y220D02*
X1084Y220D01*
X1131Y220D02*
X1145Y220D01*
X1169Y220D02*
X1184Y220D01*
X1231Y220D02*
X1245Y220D01*
X1269Y220D02*
X1284Y220D01*
X1331Y220D02*
X1345Y220D01*
X1369Y220D02*
X1384Y220D01*
X1431Y220D02*
X1445Y220D01*
X1469Y220D02*
X1484Y220D01*
X1531Y220D02*
X1545Y220D01*
X1569Y220D02*
X1584Y220D01*
X1631Y220D02*
X1645Y220D01*
X1669Y220D02*
X1684Y220D01*
X1731Y220D02*
X1745Y220D01*
X1769Y220D02*
X1784Y220D01*
X1831Y220D02*
X1845Y220D01*
X1869Y220D02*
X1884Y220D01*
X1931Y220D02*
X1945Y220D01*
X1969Y220D02*
X1984Y220D01*
X2030Y220D02*
X2045Y220D01*
X2069Y220D02*
X2083Y220D01*
X131Y219D02*
X147Y219D01*
X168Y219D02*
X184Y219D01*
X231Y219D02*
X247Y219D01*
X268Y219D02*
X284Y219D01*
X331Y219D02*
X347Y219D01*
X368Y219D02*
X384Y219D01*
X431Y219D02*
X447Y219D01*
X468Y219D02*
X484Y219D01*
X531Y219D02*
X547Y219D01*
X568Y219D02*
X584Y219D01*
X631Y219D02*
X647Y219D01*
X668Y219D02*
X684Y219D01*
X731Y219D02*
X747Y219D01*
X768Y219D02*
X784Y219D01*
X831Y219D02*
X846Y219D01*
X868Y219D02*
X884Y219D01*
X931Y219D02*
X946Y219D01*
X968Y219D02*
X984Y219D01*
X1031Y219D02*
X1046Y219D01*
X1068Y219D02*
X1084Y219D01*
X1131Y219D02*
X1146Y219D01*
X1168Y219D02*
X1184Y219D01*
X1231Y219D02*
X1246Y219D01*
X1268Y219D02*
X1284Y219D01*
X1331Y219D02*
X1346Y219D01*
X1368Y219D02*
X1384Y219D01*
X1431Y219D02*
X1446Y219D01*
X1468Y219D02*
X1484Y219D01*
X1531Y219D02*
X1546Y219D01*
X1568Y219D02*
X1584Y219D01*
X1631Y219D02*
X1646Y219D01*
X1668Y219D02*
X1684Y219D01*
X1731Y219D02*
X1746Y219D01*
X1768Y219D02*
X1784Y219D01*
X1831Y219D02*
X1846Y219D01*
X1868Y219D02*
X1884Y219D01*
X1931Y219D02*
X1946Y219D01*
X1968Y219D02*
X1984Y219D01*
X2030Y219D02*
X2046Y219D01*
X2067Y219D02*
X2083Y219D01*
X131Y218D02*
X148Y218D01*
X166Y218D02*
X184Y218D01*
X231Y218D02*
X248Y218D01*
X266Y218D02*
X284Y218D01*
X331Y218D02*
X348Y218D01*
X366Y218D02*
X384Y218D01*
X431Y218D02*
X448Y218D01*
X466Y218D02*
X484Y218D01*
X531Y218D02*
X548Y218D01*
X566Y218D02*
X584Y218D01*
X631Y218D02*
X648Y218D01*
X666Y218D02*
X684Y218D01*
X731Y218D02*
X748Y218D01*
X766Y218D02*
X784Y218D01*
X831Y218D02*
X848Y218D01*
X866Y218D02*
X884Y218D01*
X931Y218D02*
X948Y218D01*
X966Y218D02*
X984Y218D01*
X1031Y218D02*
X1048Y218D01*
X1066Y218D02*
X1084Y218D01*
X1131Y218D02*
X1148Y218D01*
X1166Y218D02*
X1184Y218D01*
X1231Y218D02*
X1248Y218D01*
X1266Y218D02*
X1284Y218D01*
X1331Y218D02*
X1348Y218D01*
X1366Y218D02*
X1384Y218D01*
X1431Y218D02*
X1448Y218D01*
X1466Y218D02*
X1484Y218D01*
X1531Y218D02*
X1548Y218D01*
X1566Y218D02*
X1584Y218D01*
X1631Y218D02*
X1648Y218D01*
X1666Y218D02*
X1684Y218D01*
X1731Y218D02*
X1748Y218D01*
X1766Y218D02*
X1784Y218D01*
X1831Y218D02*
X1848Y218D01*
X1866Y218D02*
X1884Y218D01*
X1931Y218D02*
X1948Y218D01*
X1966Y218D02*
X1984Y218D01*
X2030Y218D02*
X2048Y218D01*
X2066Y218D02*
X2083Y218D01*
X131Y217D02*
X151Y217D01*
X164Y217D02*
X184Y217D01*
X231Y217D02*
X251Y217D01*
X264Y217D02*
X284Y217D01*
X331Y217D02*
X351Y217D01*
X364Y217D02*
X384Y217D01*
X431Y217D02*
X451Y217D01*
X464Y217D02*
X484Y217D01*
X531Y217D02*
X551Y217D01*
X564Y217D02*
X584Y217D01*
X631Y217D02*
X651Y217D01*
X664Y217D02*
X684Y217D01*
X731Y217D02*
X751Y217D01*
X764Y217D02*
X784Y217D01*
X831Y217D02*
X851Y217D01*
X864Y217D02*
X884Y217D01*
X931Y217D02*
X951Y217D01*
X964Y217D02*
X984Y217D01*
X1031Y217D02*
X1051Y217D01*
X1064Y217D02*
X1084Y217D01*
X1131Y217D02*
X1151Y217D01*
X1164Y217D02*
X1184Y217D01*
X1231Y217D02*
X1251Y217D01*
X1264Y217D02*
X1284Y217D01*
X1331Y217D02*
X1351Y217D01*
X1364Y217D02*
X1384Y217D01*
X1431Y217D02*
X1451Y217D01*
X1464Y217D02*
X1484Y217D01*
X1531Y217D02*
X1551Y217D01*
X1564Y217D02*
X1584Y217D01*
X1631Y217D02*
X1651Y217D01*
X1664Y217D02*
X1684Y217D01*
X1731Y217D02*
X1751Y217D01*
X1763Y217D02*
X1784Y217D01*
X1831Y217D02*
X1851Y217D01*
X1863Y217D02*
X1884Y217D01*
X1931Y217D02*
X1951Y217D01*
X1963Y217D02*
X1984Y217D01*
X2030Y217D02*
X2050Y217D01*
X2063Y217D02*
X2083Y217D01*
X131Y216D02*
X184Y216D01*
X231Y216D02*
X284Y216D01*
X331Y216D02*
X384Y216D01*
X431Y216D02*
X484Y216D01*
X531Y216D02*
X584Y216D01*
X631Y216D02*
X656Y216D01*
X658Y216D02*
X684Y216D01*
X731Y216D02*
X756Y216D01*
X758Y216D02*
X784Y216D01*
X831Y216D02*
X856Y216D01*
X858Y216D02*
X884Y216D01*
X931Y216D02*
X956Y216D01*
X958Y216D02*
X984Y216D01*
X1031Y216D02*
X1056Y216D01*
X1058Y216D02*
X1084Y216D01*
X1131Y216D02*
X1156Y216D01*
X1158Y216D02*
X1184Y216D01*
X1231Y216D02*
X1256Y216D01*
X1258Y216D02*
X1284Y216D01*
X1331Y216D02*
X1356Y216D01*
X1358Y216D02*
X1384Y216D01*
X1431Y216D02*
X1456Y216D01*
X1458Y216D02*
X1484Y216D01*
X1531Y216D02*
X1556Y216D01*
X1558Y216D02*
X1584Y216D01*
X1631Y216D02*
X1656Y216D01*
X1658Y216D02*
X1684Y216D01*
X1731Y216D02*
X1756Y216D01*
X1758Y216D02*
X1784Y216D01*
X1831Y216D02*
X1856Y216D01*
X1858Y216D02*
X1884Y216D01*
X1931Y216D02*
X1956Y216D01*
X1958Y216D02*
X1984Y216D01*
X2030Y216D02*
X2083Y216D01*
X131Y215D02*
X184Y215D01*
X231Y215D02*
X284Y215D01*
X331Y215D02*
X384Y215D01*
X431Y215D02*
X484Y215D01*
X531Y215D02*
X584Y215D01*
X631Y215D02*
X684Y215D01*
X731Y215D02*
X784Y215D01*
X831Y215D02*
X884Y215D01*
X931Y215D02*
X984Y215D01*
X1031Y215D02*
X1084Y215D01*
X1131Y215D02*
X1184Y215D01*
X1231Y215D02*
X1284Y215D01*
X1331Y215D02*
X1384Y215D01*
X1431Y215D02*
X1484Y215D01*
X1531Y215D02*
X1584Y215D01*
X1631Y215D02*
X1684Y215D01*
X1731Y215D02*
X1784Y215D01*
X1831Y215D02*
X1884Y215D01*
X1931Y215D02*
X1984Y215D01*
X2030Y215D02*
X2083Y215D01*
X131Y214D02*
X184Y214D01*
X231Y214D02*
X284Y214D01*
X331Y214D02*
X384Y214D01*
X431Y214D02*
X484Y214D01*
X531Y214D02*
X584Y214D01*
X631Y214D02*
X684Y214D01*
X731Y214D02*
X784Y214D01*
X831Y214D02*
X884Y214D01*
X931Y214D02*
X984Y214D01*
X1031Y214D02*
X1084Y214D01*
X1131Y214D02*
X1184Y214D01*
X1231Y214D02*
X1284Y214D01*
X1331Y214D02*
X1384Y214D01*
X1431Y214D02*
X1484Y214D01*
X1531Y214D02*
X1584Y214D01*
X1631Y214D02*
X1684Y214D01*
X1731Y214D02*
X1784Y214D01*
X1831Y214D02*
X1884Y214D01*
X1931Y214D02*
X1984Y214D01*
X2030Y214D02*
X2083Y214D01*
X131Y213D02*
X184Y213D01*
X231Y213D02*
X284Y213D01*
X331Y213D02*
X384Y213D01*
X431Y213D02*
X484Y213D01*
X531Y213D02*
X584Y213D01*
X631Y213D02*
X684Y213D01*
X731Y213D02*
X784Y213D01*
X831Y213D02*
X884Y213D01*
X931Y213D02*
X984Y213D01*
X1031Y213D02*
X1084Y213D01*
X1131Y213D02*
X1184Y213D01*
X1231Y213D02*
X1284Y213D01*
X1331Y213D02*
X1384Y213D01*
X1431Y213D02*
X1484Y213D01*
X1531Y213D02*
X1584Y213D01*
X1631Y213D02*
X1684Y213D01*
X1731Y213D02*
X1784Y213D01*
X1831Y213D02*
X1883Y213D01*
X1931Y213D02*
X1983Y213D01*
X2030Y213D02*
X2083Y213D01*
X131Y212D02*
X184Y212D01*
X231Y212D02*
X283Y212D01*
X331Y212D02*
X383Y212D01*
X431Y212D02*
X483Y212D01*
X531Y212D02*
X583Y212D01*
X631Y212D02*
X683Y212D01*
X731Y212D02*
X783Y212D01*
X831Y212D02*
X883Y212D01*
X931Y212D02*
X983Y212D01*
X1031Y212D02*
X1083Y212D01*
X1131Y212D02*
X1183Y212D01*
X1231Y212D02*
X1283Y212D01*
X1331Y212D02*
X1383Y212D01*
X1431Y212D02*
X1483Y212D01*
X1531Y212D02*
X1583Y212D01*
X1631Y212D02*
X1683Y212D01*
X1731Y212D02*
X1783Y212D01*
X1831Y212D02*
X1883Y212D01*
X1931Y212D02*
X1983Y212D01*
X2030Y212D02*
X2083Y212D01*
X131Y211D02*
X183Y211D01*
X231Y211D02*
X283Y211D01*
X331Y211D02*
X383Y211D01*
X431Y211D02*
X483Y211D01*
X531Y211D02*
X583Y211D01*
X631Y211D02*
X683Y211D01*
X731Y211D02*
X783Y211D01*
X831Y211D02*
X883Y211D01*
X931Y211D02*
X983Y211D01*
X1031Y211D02*
X1083Y211D01*
X1131Y211D02*
X1183Y211D01*
X1231Y211D02*
X1283Y211D01*
X1331Y211D02*
X1383Y211D01*
X1431Y211D02*
X1483Y211D01*
X1531Y211D02*
X1583Y211D01*
X1631Y211D02*
X1683Y211D01*
X1731Y211D02*
X1783Y211D01*
X1831Y211D02*
X1883Y211D01*
X1931Y211D02*
X1983Y211D01*
X2031Y211D02*
X2083Y211D01*
X132Y210D02*
X183Y210D01*
X232Y210D02*
X283Y210D01*
X332Y210D02*
X383Y210D01*
X432Y210D02*
X483Y210D01*
X532Y210D02*
X583Y210D01*
X632Y210D02*
X683Y210D01*
X732Y210D02*
X783Y210D01*
X832Y210D02*
X883Y210D01*
X932Y210D02*
X983Y210D01*
X1032Y210D02*
X1083Y210D01*
X1132Y210D02*
X1183Y210D01*
X1232Y210D02*
X1283Y210D01*
X1332Y210D02*
X1383Y210D01*
X1432Y210D02*
X1483Y210D01*
X1531Y210D02*
X1583Y210D01*
X1631Y210D02*
X1683Y210D01*
X1731Y210D02*
X1783Y210D01*
X1831Y210D02*
X1883Y210D01*
X1931Y210D02*
X1983Y210D01*
X2031Y210D02*
X2082Y210D01*
X132Y209D02*
X182Y209D01*
X232Y209D02*
X282Y209D01*
X332Y209D02*
X382Y209D01*
X432Y209D02*
X482Y209D01*
X532Y209D02*
X582Y209D01*
X632Y209D02*
X682Y209D01*
X732Y209D02*
X782Y209D01*
X832Y209D02*
X882Y209D01*
X932Y209D02*
X982Y209D01*
X1032Y209D02*
X1082Y209D01*
X1132Y209D02*
X1182Y209D01*
X1232Y209D02*
X1282Y209D01*
X1332Y209D02*
X1382Y209D01*
X1432Y209D02*
X1482Y209D01*
X1532Y209D02*
X1582Y209D01*
X1632Y209D02*
X1682Y209D01*
X1732Y209D02*
X1782Y209D01*
X1832Y209D02*
X1882Y209D01*
X1932Y209D02*
X1982Y209D01*
X2031Y209D02*
X2082Y209D01*
X132Y208D02*
X182Y208D01*
X232Y208D02*
X282Y208D01*
X332Y208D02*
X382Y208D01*
X432Y208D02*
X482Y208D01*
X532Y208D02*
X582Y208D01*
X632Y208D02*
X682Y208D01*
X732Y208D02*
X782Y208D01*
X832Y208D02*
X882Y208D01*
X932Y208D02*
X982Y208D01*
X1032Y208D02*
X1082Y208D01*
X1132Y208D02*
X1182Y208D01*
X1232Y208D02*
X1282Y208D01*
X1332Y208D02*
X1382Y208D01*
X1432Y208D02*
X1482Y208D01*
X1532Y208D02*
X1582Y208D01*
X1632Y208D02*
X1682Y208D01*
X1732Y208D02*
X1782Y208D01*
X1832Y208D02*
X1882Y208D01*
X1932Y208D02*
X1982Y208D01*
X2032Y208D02*
X2081Y208D01*
X133Y207D02*
X182Y207D01*
X233Y207D02*
X282Y207D01*
X333Y207D02*
X382Y207D01*
X433Y207D02*
X482Y207D01*
X533Y207D02*
X582Y207D01*
X633Y207D02*
X682Y207D01*
X733Y207D02*
X782Y207D01*
X833Y207D02*
X881Y207D01*
X933Y207D02*
X981Y207D01*
X1033Y207D02*
X1081Y207D01*
X1133Y207D02*
X1181Y207D01*
X1233Y207D02*
X1281Y207D01*
X1333Y207D02*
X1381Y207D01*
X1433Y207D02*
X1481Y207D01*
X1533Y207D02*
X1581Y207D01*
X1633Y207D02*
X1681Y207D01*
X1733Y207D02*
X1781Y207D01*
X1833Y207D02*
X1881Y207D01*
X1933Y207D02*
X1981Y207D01*
X2032Y207D02*
X2081Y207D01*
X134Y206D02*
X181Y206D01*
X234Y206D02*
X281Y206D01*
X334Y206D02*
X381Y206D01*
X434Y206D02*
X481Y206D01*
X534Y206D02*
X581Y206D01*
X634Y206D02*
X681Y206D01*
X734Y206D02*
X781Y206D01*
X834Y206D02*
X881Y206D01*
X934Y206D02*
X981Y206D01*
X1034Y206D02*
X1081Y206D01*
X1134Y206D02*
X1181Y206D01*
X1234Y206D02*
X1281Y206D01*
X1334Y206D02*
X1381Y206D01*
X1434Y206D02*
X1481Y206D01*
X1534Y206D02*
X1581Y206D01*
X1634Y206D02*
X1681Y206D01*
X1734Y206D02*
X1781Y206D01*
X1834Y206D02*
X1881Y206D01*
X1934Y206D02*
X1981Y206D01*
X2033Y206D02*
X2080Y206D01*
X134Y205D02*
X180Y205D01*
X234Y205D02*
X280Y205D01*
X334Y205D02*
X380Y205D01*
X434Y205D02*
X480Y205D01*
X534Y205D02*
X580Y205D01*
X634Y205D02*
X680Y205D01*
X734Y205D02*
X780Y205D01*
X834Y205D02*
X880Y205D01*
X934Y205D02*
X980Y205D01*
X1034Y205D02*
X1080Y205D01*
X1134Y205D02*
X1180Y205D01*
X1234Y205D02*
X1280Y205D01*
X1334Y205D02*
X1380Y205D01*
X1434Y205D02*
X1480Y205D01*
X1534Y205D02*
X1580Y205D01*
X1634Y205D02*
X1680Y205D01*
X1734Y205D02*
X1780Y205D01*
X1834Y205D02*
X1880Y205D01*
X1934Y205D02*
X1980Y205D01*
X2034Y205D02*
X2080Y205D01*
X135Y204D02*
X179Y204D01*
X235Y204D02*
X279Y204D01*
X335Y204D02*
X379Y204D01*
X435Y204D02*
X479Y204D01*
X535Y204D02*
X579Y204D01*
X635Y204D02*
X679Y204D01*
X735Y204D02*
X779Y204D01*
X835Y204D02*
X879Y204D01*
X935Y204D02*
X979Y204D01*
X1035Y204D02*
X1079Y204D01*
X1135Y204D02*
X1179Y204D01*
X1235Y204D02*
X1279Y204D01*
X1335Y204D02*
X1379Y204D01*
X1435Y204D02*
X1479Y204D01*
X1535Y204D02*
X1579Y204D01*
X1635Y204D02*
X1679Y204D01*
X1735Y204D02*
X1779Y204D01*
X1835Y204D02*
X1879Y204D01*
X1935Y204D02*
X1979Y204D01*
X2035Y204D02*
X2079Y204D01*
X136Y203D02*
X178Y203D01*
X236Y203D02*
X278Y203D01*
X336Y203D02*
X378Y203D01*
X436Y203D02*
X478Y203D01*
X536Y203D02*
X578Y203D01*
X636Y203D02*
X678Y203D01*
X736Y203D02*
X778Y203D01*
X836Y203D02*
X878Y203D01*
X936Y203D02*
X978Y203D01*
X1036Y203D02*
X1078Y203D01*
X1136Y203D02*
X1178Y203D01*
X1236Y203D02*
X1278Y203D01*
X1336Y203D02*
X1378Y203D01*
X1436Y203D02*
X1478Y203D01*
X1536Y203D02*
X1578Y203D01*
X1636Y203D02*
X1678Y203D01*
X1736Y203D02*
X1778Y203D01*
X1836Y203D02*
X1878Y203D01*
X1936Y203D02*
X1978Y203D01*
X2036Y203D02*
X2078Y203D01*
X137Y202D02*
X177Y202D01*
X237Y202D02*
X277Y202D01*
X337Y202D02*
X377Y202D01*
X437Y202D02*
X477Y202D01*
X537Y202D02*
X577Y202D01*
X637Y202D02*
X677Y202D01*
X737Y202D02*
X777Y202D01*
X837Y202D02*
X877Y202D01*
X937Y202D02*
X977Y202D01*
X1037Y202D02*
X1077Y202D01*
X1137Y202D02*
X1177Y202D01*
X1237Y202D02*
X1277Y202D01*
X1337Y202D02*
X1377Y202D01*
X1437Y202D02*
X1477Y202D01*
X1537Y202D02*
X1577Y202D01*
X1637Y202D02*
X1677Y202D01*
X1737Y202D02*
X1777Y202D01*
X1837Y202D02*
X1877Y202D01*
X1937Y202D02*
X1977Y202D01*
X2037Y202D02*
X2077Y202D01*
X138Y201D02*
X176Y201D01*
X238Y201D02*
X276Y201D01*
X338Y201D02*
X376Y201D01*
X438Y201D02*
X476Y201D01*
X538Y201D02*
X576Y201D01*
X638Y201D02*
X676Y201D01*
X738Y201D02*
X776Y201D01*
X838Y201D02*
X876Y201D01*
X938Y201D02*
X976Y201D01*
X1038Y201D02*
X1076Y201D01*
X1138Y201D02*
X1176Y201D01*
X1238Y201D02*
X1276Y201D01*
X1338Y201D02*
X1376Y201D01*
X1438Y201D02*
X1476Y201D01*
X1538Y201D02*
X1576Y201D01*
X1638Y201D02*
X1676Y201D01*
X1738Y201D02*
X1776Y201D01*
X1838Y201D02*
X1876Y201D01*
X1938Y201D02*
X1976Y201D01*
X2038Y201D02*
X2075Y201D01*
X140Y200D02*
X175Y200D01*
X240Y200D02*
X275Y200D01*
X340Y200D02*
X375Y200D01*
X440Y200D02*
X475Y200D01*
X540Y200D02*
X575Y200D01*
X640Y200D02*
X675Y200D01*
X740Y200D02*
X775Y200D01*
X840Y200D02*
X875Y200D01*
X940Y200D02*
X975Y200D01*
X1040Y200D02*
X1075Y200D01*
X1140Y200D02*
X1175Y200D01*
X1240Y200D02*
X1275Y200D01*
X1340Y200D02*
X1375Y200D01*
X1440Y200D02*
X1475Y200D01*
X1540Y200D02*
X1575Y200D01*
X1640Y200D02*
X1675Y200D01*
X1740Y200D02*
X1775Y200D01*
X1840Y200D02*
X1875Y200D01*
X1940Y200D02*
X1975Y200D01*
X2039Y200D02*
X2074Y200D01*
X142Y199D02*
X173Y199D01*
X242Y199D02*
X273Y199D01*
X342Y199D02*
X373Y199D01*
X442Y199D02*
X473Y199D01*
X542Y199D02*
X573Y199D01*
X642Y199D02*
X673Y199D01*
X741Y199D02*
X773Y199D01*
X841Y199D02*
X873Y199D01*
X941Y199D02*
X973Y199D01*
X1041Y199D02*
X1073Y199D01*
X1141Y199D02*
X1173Y199D01*
X1241Y199D02*
X1273Y199D01*
X1341Y199D02*
X1373Y199D01*
X1441Y199D02*
X1473Y199D01*
X1541Y199D02*
X1573Y199D01*
X1641Y199D02*
X1673Y199D01*
X1741Y199D02*
X1773Y199D01*
X1841Y199D02*
X1873Y199D01*
X1941Y199D02*
X1973Y199D01*
X2041Y199D02*
X2072Y199D01*
X143Y198D02*
X171Y198D01*
X243Y198D02*
X271Y198D01*
X343Y198D02*
X371Y198D01*
X443Y198D02*
X471Y198D01*
X543Y198D02*
X571Y198D01*
X643Y198D02*
X671Y198D01*
X743Y198D02*
X771Y198D01*
X843Y198D02*
X871Y198D01*
X943Y198D02*
X971Y198D01*
X1043Y198D02*
X1071Y198D01*
X1143Y198D02*
X1171Y198D01*
X1243Y198D02*
X1271Y198D01*
X1343Y198D02*
X1371Y198D01*
X1443Y198D02*
X1471Y198D01*
X1543Y198D02*
X1571Y198D01*
X1643Y198D02*
X1671Y198D01*
X1743Y198D02*
X1771Y198D01*
X1843Y198D02*
X1871Y198D01*
X1943Y198D02*
X1971Y198D01*
X2043Y198D02*
X2071Y198D01*
X146Y197D02*
X169Y197D01*
X246Y197D02*
X269Y197D01*
X346Y197D02*
X369Y197D01*
X446Y197D02*
X469Y197D01*
X546Y197D02*
X569Y197D01*
X646Y197D02*
X669Y197D01*
X746Y197D02*
X768Y197D01*
X846Y197D02*
X868Y197D01*
X946Y197D02*
X968Y197D01*
X1046Y197D02*
X1068Y197D01*
X1146Y197D02*
X1168Y197D01*
X1246Y197D02*
X1268Y197D01*
X1346Y197D02*
X1368Y197D01*
X1446Y197D02*
X1468Y197D01*
X1546Y197D02*
X1568Y197D01*
X1646Y197D02*
X1668Y197D01*
X1746Y197D02*
X1768Y197D01*
X1846Y197D02*
X1868Y197D01*
X1946Y197D02*
X1968Y197D01*
X2045Y197D02*
X2068Y197D01*
X149Y196D02*
X165Y196D01*
X249Y196D02*
X265Y196D01*
X349Y196D02*
X365Y196D01*
X449Y196D02*
X465Y196D01*
X549Y196D02*
X565Y196D01*
X649Y196D02*
X665Y196D01*
X749Y196D02*
X765Y196D01*
X849Y196D02*
X865Y196D01*
X949Y196D02*
X965Y196D01*
X1049Y196D02*
X1065Y196D01*
X1149Y196D02*
X1165Y196D01*
X1249Y196D02*
X1265Y196D01*
X1349Y196D02*
X1365Y196D01*
X1449Y196D02*
X1465Y196D01*
X1549Y196D02*
X1565Y196D01*
X1649Y196D02*
X1665Y196D01*
X1749Y196D02*
X1765Y196D01*
X1849Y196D02*
X1865Y196D01*
X1949Y196D02*
X1965Y196D01*
X2049Y196D02*
X2065Y196D01*
X156Y195D02*
X158Y195D01*
X255Y195D02*
X258Y195D01*
X355Y195D02*
X358Y195D01*
X455Y195D02*
X458Y195D01*
X555Y195D02*
X558Y195D01*
X655Y195D02*
X658Y195D01*
X755Y195D02*
X758Y195D01*
X855Y195D02*
X858Y195D01*
X955Y195D02*
X958Y195D01*
X1055Y195D02*
X1058Y195D01*
X1155Y195D02*
X1158Y195D01*
X1255Y195D02*
X1258Y195D01*
X1355Y195D02*
X1358Y195D01*
X1455Y195D02*
X1458Y195D01*
X1555Y195D02*
X1558Y195D01*
X1655Y195D02*
X1658Y195D01*
X1755Y195D02*
X1758Y195D01*
X1855Y195D02*
X1858Y195D01*
X1955Y195D02*
X1958Y195D01*
X2055Y195D02*
X2057Y195D01*
X152Y174D02*
X162Y174D01*
X252Y174D02*
X262Y174D01*
X352Y174D02*
X362Y174D01*
X452Y174D02*
X462Y174D01*
X552Y174D02*
X562Y174D01*
X652Y174D02*
X662Y174D01*
X752Y174D02*
X762Y174D01*
X852Y174D02*
X862Y174D01*
X952Y174D02*
X962Y174D01*
X1052Y174D02*
X1062Y174D01*
X1152Y174D02*
X1162Y174D01*
X1252Y174D02*
X1262Y174D01*
X1352Y174D02*
X1362Y174D01*
X1452Y174D02*
X1462Y174D01*
X1552Y174D02*
X1562Y174D01*
X1652Y174D02*
X1662Y174D01*
X1752Y174D02*
X1762Y174D01*
X1852Y174D02*
X1862Y174D01*
X1952Y174D02*
X1962Y174D01*
X2052Y174D02*
X2062Y174D01*
X148Y173D02*
X167Y173D01*
X248Y173D02*
X267Y173D01*
X348Y173D02*
X367Y173D01*
X448Y173D02*
X467Y173D01*
X548Y173D02*
X567Y173D01*
X648Y173D02*
X667Y173D01*
X748Y173D02*
X767Y173D01*
X848Y173D02*
X867Y173D01*
X948Y173D02*
X967Y173D01*
X1048Y173D02*
X1067Y173D01*
X1148Y173D02*
X1167Y173D01*
X1248Y173D02*
X1267Y173D01*
X1348Y173D02*
X1367Y173D01*
X1448Y173D02*
X1467Y173D01*
X1548Y173D02*
X1567Y173D01*
X1648Y173D02*
X1667Y173D01*
X1748Y173D02*
X1767Y173D01*
X1848Y173D02*
X1867Y173D01*
X1948Y173D02*
X1967Y173D01*
X2047Y173D02*
X2066Y173D01*
X145Y172D02*
X169Y172D01*
X245Y172D02*
X269Y172D01*
X345Y172D02*
X369Y172D01*
X445Y172D02*
X469Y172D01*
X545Y172D02*
X569Y172D01*
X645Y172D02*
X669Y172D01*
X745Y172D02*
X769Y172D01*
X845Y172D02*
X869Y172D01*
X945Y172D02*
X969Y172D01*
X1045Y172D02*
X1069Y172D01*
X1145Y172D02*
X1169Y172D01*
X1245Y172D02*
X1269Y172D01*
X1345Y172D02*
X1369Y172D01*
X1445Y172D02*
X1469Y172D01*
X1545Y172D02*
X1569Y172D01*
X1645Y172D02*
X1669Y172D01*
X1745Y172D02*
X1769Y172D01*
X1845Y172D02*
X1869Y172D01*
X1945Y172D02*
X1969Y172D01*
X2044Y172D02*
X2069Y172D01*
X143Y171D02*
X172Y171D01*
X243Y171D02*
X272Y171D01*
X343Y171D02*
X372Y171D01*
X443Y171D02*
X472Y171D01*
X543Y171D02*
X572Y171D01*
X643Y171D02*
X672Y171D01*
X743Y171D02*
X772Y171D01*
X843Y171D02*
X872Y171D01*
X943Y171D02*
X972Y171D01*
X1043Y171D02*
X1072Y171D01*
X1143Y171D02*
X1172Y171D01*
X1243Y171D02*
X1272Y171D01*
X1343Y171D02*
X1372Y171D01*
X1443Y171D02*
X1472Y171D01*
X1543Y171D02*
X1572Y171D01*
X1643Y171D02*
X1672Y171D01*
X1743Y171D02*
X1772Y171D01*
X1843Y171D02*
X1872Y171D01*
X1943Y171D02*
X1972Y171D01*
X2042Y171D02*
X2071Y171D01*
X141Y170D02*
X174Y170D01*
X241Y170D02*
X274Y170D01*
X341Y170D02*
X374Y170D01*
X441Y170D02*
X474Y170D01*
X541Y170D02*
X574Y170D01*
X641Y170D02*
X674Y170D01*
X741Y170D02*
X774Y170D01*
X841Y170D02*
X873Y170D01*
X941Y170D02*
X973Y170D01*
X1041Y170D02*
X1073Y170D01*
X1141Y170D02*
X1173Y170D01*
X1241Y170D02*
X1273Y170D01*
X1341Y170D02*
X1373Y170D01*
X1441Y170D02*
X1473Y170D01*
X1541Y170D02*
X1573Y170D01*
X1641Y170D02*
X1673Y170D01*
X1741Y170D02*
X1773Y170D01*
X1841Y170D02*
X1873Y170D01*
X1941Y170D02*
X1973Y170D01*
X2040Y170D02*
X2073Y170D01*
X139Y169D02*
X175Y169D01*
X239Y169D02*
X275Y169D01*
X339Y169D02*
X375Y169D01*
X439Y169D02*
X475Y169D01*
X539Y169D02*
X575Y169D01*
X639Y169D02*
X675Y169D01*
X739Y169D02*
X775Y169D01*
X839Y169D02*
X875Y169D01*
X939Y169D02*
X975Y169D01*
X1039Y169D02*
X1075Y169D01*
X1139Y169D02*
X1175Y169D01*
X1239Y169D02*
X1275Y169D01*
X1339Y169D02*
X1375Y169D01*
X1439Y169D02*
X1475Y169D01*
X1539Y169D02*
X1575Y169D01*
X1639Y169D02*
X1675Y169D01*
X1739Y169D02*
X1775Y169D01*
X1839Y169D02*
X1875Y169D01*
X1939Y169D02*
X1975Y169D01*
X2039Y169D02*
X2075Y169D01*
X138Y168D02*
X177Y168D01*
X238Y168D02*
X277Y168D01*
X338Y168D02*
X377Y168D01*
X438Y168D02*
X476Y168D01*
X538Y168D02*
X576Y168D01*
X638Y168D02*
X676Y168D01*
X738Y168D02*
X776Y168D01*
X838Y168D02*
X876Y168D01*
X938Y168D02*
X976Y168D01*
X1038Y168D02*
X1076Y168D01*
X1138Y168D02*
X1176Y168D01*
X1238Y168D02*
X1276Y168D01*
X1338Y168D02*
X1376Y168D01*
X1438Y168D02*
X1476Y168D01*
X1538Y168D02*
X1576Y168D01*
X1638Y168D02*
X1676Y168D01*
X1738Y168D02*
X1776Y168D01*
X1838Y168D02*
X1876Y168D01*
X1938Y168D02*
X1976Y168D01*
X2037Y168D02*
X2076Y168D01*
X137Y167D02*
X178Y167D01*
X237Y167D02*
X278Y167D01*
X337Y167D02*
X378Y167D01*
X437Y167D02*
X478Y167D01*
X537Y167D02*
X578Y167D01*
X637Y167D02*
X678Y167D01*
X737Y167D02*
X778Y167D01*
X837Y167D02*
X878Y167D01*
X937Y167D02*
X978Y167D01*
X1037Y167D02*
X1078Y167D01*
X1137Y167D02*
X1178Y167D01*
X1237Y167D02*
X1278Y167D01*
X1337Y167D02*
X1378Y167D01*
X1437Y167D02*
X1478Y167D01*
X1537Y167D02*
X1578Y167D01*
X1637Y167D02*
X1678Y167D01*
X1737Y167D02*
X1777Y167D01*
X1837Y167D02*
X1877Y167D01*
X1937Y167D02*
X1977Y167D01*
X2036Y167D02*
X2077Y167D01*
X136Y166D02*
X179Y166D01*
X236Y166D02*
X279Y166D01*
X336Y166D02*
X379Y166D01*
X436Y166D02*
X479Y166D01*
X536Y166D02*
X579Y166D01*
X636Y166D02*
X679Y166D01*
X736Y166D02*
X779Y166D01*
X836Y166D02*
X879Y166D01*
X936Y166D02*
X979Y166D01*
X1036Y166D02*
X1079Y166D01*
X1136Y166D02*
X1179Y166D01*
X1236Y166D02*
X1279Y166D01*
X1336Y166D02*
X1379Y166D01*
X1436Y166D02*
X1479Y166D01*
X1536Y166D02*
X1579Y166D01*
X1636Y166D02*
X1679Y166D01*
X1736Y166D02*
X1779Y166D01*
X1836Y166D02*
X1879Y166D01*
X1936Y166D02*
X1979Y166D01*
X2035Y166D02*
X2078Y166D01*
X135Y165D02*
X180Y165D01*
X235Y165D02*
X280Y165D01*
X335Y165D02*
X380Y165D01*
X435Y165D02*
X480Y165D01*
X535Y165D02*
X580Y165D01*
X635Y165D02*
X680Y165D01*
X735Y165D02*
X780Y165D01*
X835Y165D02*
X880Y165D01*
X935Y165D02*
X980Y165D01*
X1035Y165D02*
X1080Y165D01*
X1135Y165D02*
X1180Y165D01*
X1235Y165D02*
X1280Y165D01*
X1335Y165D02*
X1380Y165D01*
X1435Y165D02*
X1480Y165D01*
X1535Y165D02*
X1580Y165D01*
X1635Y165D02*
X1679Y165D01*
X1735Y165D02*
X1779Y165D01*
X1835Y165D02*
X1879Y165D01*
X1935Y165D02*
X1979Y165D01*
X2034Y165D02*
X2079Y165D01*
X134Y164D02*
X180Y164D01*
X234Y164D02*
X280Y164D01*
X334Y164D02*
X380Y164D01*
X434Y164D02*
X480Y164D01*
X534Y164D02*
X580Y164D01*
X634Y164D02*
X680Y164D01*
X734Y164D02*
X780Y164D01*
X834Y164D02*
X880Y164D01*
X934Y164D02*
X980Y164D01*
X1034Y164D02*
X1080Y164D01*
X1134Y164D02*
X1180Y164D01*
X1234Y164D02*
X1280Y164D01*
X1334Y164D02*
X1380Y164D01*
X1434Y164D02*
X1480Y164D01*
X1534Y164D02*
X1580Y164D01*
X1634Y164D02*
X1680Y164D01*
X1734Y164D02*
X1780Y164D01*
X1834Y164D02*
X1880Y164D01*
X1934Y164D02*
X1980Y164D01*
X2034Y164D02*
X2080Y164D01*
X133Y163D02*
X181Y163D01*
X233Y163D02*
X281Y163D01*
X333Y163D02*
X381Y163D01*
X433Y163D02*
X481Y163D01*
X533Y163D02*
X581Y163D01*
X633Y163D02*
X681Y163D01*
X733Y163D02*
X781Y163D01*
X833Y163D02*
X881Y163D01*
X933Y163D02*
X981Y163D01*
X1033Y163D02*
X1081Y163D01*
X1133Y163D02*
X1181Y163D01*
X1233Y163D02*
X1281Y163D01*
X1333Y163D02*
X1381Y163D01*
X1433Y163D02*
X1481Y163D01*
X1533Y163D02*
X1581Y163D01*
X1633Y163D02*
X1681Y163D01*
X1733Y163D02*
X1781Y163D01*
X1833Y163D02*
X1881Y163D01*
X1933Y163D02*
X1981Y163D01*
X2033Y163D02*
X2080Y163D01*
X133Y162D02*
X182Y162D01*
X233Y162D02*
X282Y162D01*
X333Y162D02*
X382Y162D01*
X433Y162D02*
X482Y162D01*
X533Y162D02*
X582Y162D01*
X633Y162D02*
X682Y162D01*
X733Y162D02*
X782Y162D01*
X833Y162D02*
X882Y162D01*
X933Y162D02*
X982Y162D01*
X1033Y162D02*
X1082Y162D01*
X1133Y162D02*
X1182Y162D01*
X1233Y162D02*
X1282Y162D01*
X1333Y162D02*
X1382Y162D01*
X1433Y162D02*
X1482Y162D01*
X1533Y162D02*
X1582Y162D01*
X1633Y162D02*
X1682Y162D01*
X1733Y162D02*
X1782Y162D01*
X1833Y162D02*
X1882Y162D01*
X1933Y162D02*
X1982Y162D01*
X2032Y162D02*
X2081Y162D01*
X132Y161D02*
X182Y161D01*
X232Y161D02*
X282Y161D01*
X332Y161D02*
X382Y161D01*
X432Y161D02*
X482Y161D01*
X532Y161D02*
X582Y161D01*
X632Y161D02*
X682Y161D01*
X732Y161D02*
X782Y161D01*
X832Y161D02*
X882Y161D01*
X932Y161D02*
X982Y161D01*
X1032Y161D02*
X1082Y161D01*
X1132Y161D02*
X1182Y161D01*
X1232Y161D02*
X1282Y161D01*
X1332Y161D02*
X1382Y161D01*
X1432Y161D02*
X1482Y161D01*
X1532Y161D02*
X1582Y161D01*
X1632Y161D02*
X1682Y161D01*
X1732Y161D02*
X1782Y161D01*
X1832Y161D02*
X1882Y161D01*
X1932Y161D02*
X1982Y161D01*
X2032Y161D02*
X2082Y161D01*
X132Y160D02*
X183Y160D01*
X232Y160D02*
X283Y160D01*
X332Y160D02*
X383Y160D01*
X432Y160D02*
X483Y160D01*
X532Y160D02*
X583Y160D01*
X632Y160D02*
X683Y160D01*
X732Y160D02*
X783Y160D01*
X832Y160D02*
X883Y160D01*
X932Y160D02*
X983Y160D01*
X1032Y160D02*
X1083Y160D01*
X1132Y160D02*
X1183Y160D01*
X1232Y160D02*
X1283Y160D01*
X1332Y160D02*
X1383Y160D01*
X1432Y160D02*
X1483Y160D01*
X1532Y160D02*
X1583Y160D01*
X1632Y160D02*
X1683Y160D01*
X1732Y160D02*
X1783Y160D01*
X1832Y160D02*
X1883Y160D01*
X1932Y160D02*
X1983Y160D01*
X2031Y160D02*
X2082Y160D01*
X131Y159D02*
X183Y159D01*
X231Y159D02*
X283Y159D01*
X331Y159D02*
X383Y159D01*
X431Y159D02*
X483Y159D01*
X531Y159D02*
X583Y159D01*
X631Y159D02*
X683Y159D01*
X731Y159D02*
X783Y159D01*
X831Y159D02*
X883Y159D01*
X931Y159D02*
X983Y159D01*
X1031Y159D02*
X1083Y159D01*
X1131Y159D02*
X1183Y159D01*
X1231Y159D02*
X1283Y159D01*
X1331Y159D02*
X1383Y159D01*
X1431Y159D02*
X1483Y159D01*
X1531Y159D02*
X1583Y159D01*
X1631Y159D02*
X1683Y159D01*
X1731Y159D02*
X1783Y159D01*
X1831Y159D02*
X1883Y159D01*
X1931Y159D02*
X1983Y159D01*
X2031Y159D02*
X2082Y159D01*
X131Y158D02*
X183Y158D01*
X231Y158D02*
X283Y158D01*
X331Y158D02*
X383Y158D01*
X431Y158D02*
X483Y158D01*
X531Y158D02*
X583Y158D01*
X631Y158D02*
X683Y158D01*
X731Y158D02*
X783Y158D01*
X831Y158D02*
X883Y158D01*
X931Y158D02*
X983Y158D01*
X1031Y158D02*
X1083Y158D01*
X1131Y158D02*
X1183Y158D01*
X1231Y158D02*
X1283Y158D01*
X1331Y158D02*
X1383Y158D01*
X1431Y158D02*
X1483Y158D01*
X1531Y158D02*
X1583Y158D01*
X1631Y158D02*
X1683Y158D01*
X1731Y158D02*
X1783Y158D01*
X1831Y158D02*
X1883Y158D01*
X1931Y158D02*
X1983Y158D01*
X2031Y158D02*
X2083Y158D01*
X131Y157D02*
X184Y157D01*
X231Y157D02*
X284Y157D01*
X331Y157D02*
X384Y157D01*
X431Y157D02*
X484Y157D01*
X531Y157D02*
X584Y157D01*
X631Y157D02*
X683Y157D01*
X731Y157D02*
X783Y157D01*
X831Y157D02*
X883Y157D01*
X931Y157D02*
X983Y157D01*
X1031Y157D02*
X1083Y157D01*
X1131Y157D02*
X1183Y157D01*
X1231Y157D02*
X1283Y157D01*
X1331Y157D02*
X1383Y157D01*
X1431Y157D02*
X1483Y157D01*
X1531Y157D02*
X1583Y157D01*
X1631Y157D02*
X1683Y157D01*
X1731Y157D02*
X1783Y157D01*
X1831Y157D02*
X1883Y157D01*
X1931Y157D02*
X1983Y157D01*
X2030Y157D02*
X2083Y157D01*
X131Y156D02*
X184Y156D01*
X231Y156D02*
X284Y156D01*
X331Y156D02*
X384Y156D01*
X431Y156D02*
X484Y156D01*
X531Y156D02*
X584Y156D01*
X631Y156D02*
X684Y156D01*
X731Y156D02*
X784Y156D01*
X831Y156D02*
X884Y156D01*
X931Y156D02*
X984Y156D01*
X1031Y156D02*
X1084Y156D01*
X1131Y156D02*
X1184Y156D01*
X1231Y156D02*
X1284Y156D01*
X1331Y156D02*
X1384Y156D01*
X1431Y156D02*
X1484Y156D01*
X1531Y156D02*
X1584Y156D01*
X1631Y156D02*
X1684Y156D01*
X1731Y156D02*
X1784Y156D01*
X1831Y156D02*
X1884Y156D01*
X1931Y156D02*
X1984Y156D01*
X2030Y156D02*
X2083Y156D01*
X131Y155D02*
X184Y155D01*
X231Y155D02*
X284Y155D01*
X331Y155D02*
X384Y155D01*
X431Y155D02*
X484Y155D01*
X531Y155D02*
X584Y155D01*
X631Y155D02*
X684Y155D01*
X731Y155D02*
X784Y155D01*
X831Y155D02*
X884Y155D01*
X931Y155D02*
X984Y155D01*
X1031Y155D02*
X1084Y155D01*
X1131Y155D02*
X1184Y155D01*
X1231Y155D02*
X1284Y155D01*
X1331Y155D02*
X1384Y155D01*
X1431Y155D02*
X1484Y155D01*
X1531Y155D02*
X1584Y155D01*
X1631Y155D02*
X1684Y155D01*
X1731Y155D02*
X1784Y155D01*
X1831Y155D02*
X1884Y155D01*
X1931Y155D02*
X1984Y155D01*
X2030Y155D02*
X2083Y155D01*
X131Y154D02*
X184Y154D01*
X231Y154D02*
X284Y154D01*
X331Y154D02*
X384Y154D01*
X431Y154D02*
X484Y154D01*
X531Y154D02*
X584Y154D01*
X631Y154D02*
X684Y154D01*
X731Y154D02*
X784Y154D01*
X831Y154D02*
X884Y154D01*
X931Y154D02*
X984Y154D01*
X1031Y154D02*
X1084Y154D01*
X1131Y154D02*
X1184Y154D01*
X1231Y154D02*
X1284Y154D01*
X1331Y154D02*
X1384Y154D01*
X1431Y154D02*
X1484Y154D01*
X1531Y154D02*
X1584Y154D01*
X1631Y154D02*
X1684Y154D01*
X1731Y154D02*
X1784Y154D01*
X1831Y154D02*
X1884Y154D01*
X1931Y154D02*
X1984Y154D01*
X2030Y154D02*
X2083Y154D01*
X131Y153D02*
X152Y153D01*
X162Y153D02*
X184Y153D01*
X231Y153D02*
X252Y153D01*
X262Y153D02*
X284Y153D01*
X331Y153D02*
X352Y153D01*
X362Y153D02*
X384Y153D01*
X431Y153D02*
X452Y153D01*
X462Y153D02*
X484Y153D01*
X531Y153D02*
X552Y153D01*
X562Y153D02*
X584Y153D01*
X631Y153D02*
X652Y153D01*
X662Y153D02*
X684Y153D01*
X731Y153D02*
X752Y153D01*
X762Y153D02*
X784Y153D01*
X831Y153D02*
X852Y153D01*
X862Y153D02*
X884Y153D01*
X931Y153D02*
X952Y153D01*
X962Y153D02*
X984Y153D01*
X1031Y153D02*
X1052Y153D01*
X1062Y153D02*
X1084Y153D01*
X1131Y153D02*
X1152Y153D01*
X1162Y153D02*
X1184Y153D01*
X1231Y153D02*
X1252Y153D01*
X1262Y153D02*
X1284Y153D01*
X1331Y153D02*
X1352Y153D01*
X1362Y153D02*
X1384Y153D01*
X1431Y153D02*
X1452Y153D01*
X1462Y153D02*
X1484Y153D01*
X1531Y153D02*
X1552Y153D01*
X1562Y153D02*
X1584Y153D01*
X1631Y153D02*
X1652Y153D01*
X1662Y153D02*
X1684Y153D01*
X1731Y153D02*
X1752Y153D01*
X1762Y153D02*
X1784Y153D01*
X1831Y153D02*
X1852Y153D01*
X1862Y153D02*
X1884Y153D01*
X1931Y153D02*
X1952Y153D01*
X1962Y153D02*
X1984Y153D01*
X2030Y153D02*
X2052Y153D01*
X2061Y153D02*
X2083Y153D01*
X131Y152D02*
X149Y152D01*
X165Y152D02*
X184Y152D01*
X231Y152D02*
X249Y152D01*
X265Y152D02*
X284Y152D01*
X331Y152D02*
X349Y152D01*
X365Y152D02*
X384Y152D01*
X431Y152D02*
X449Y152D01*
X465Y152D02*
X484Y152D01*
X531Y152D02*
X549Y152D01*
X565Y152D02*
X584Y152D01*
X631Y152D02*
X649Y152D01*
X665Y152D02*
X684Y152D01*
X731Y152D02*
X749Y152D01*
X765Y152D02*
X784Y152D01*
X831Y152D02*
X849Y152D01*
X865Y152D02*
X884Y152D01*
X931Y152D02*
X949Y152D01*
X965Y152D02*
X984Y152D01*
X1031Y152D02*
X1049Y152D01*
X1065Y152D02*
X1084Y152D01*
X1131Y152D02*
X1149Y152D01*
X1165Y152D02*
X1184Y152D01*
X1231Y152D02*
X1249Y152D01*
X1265Y152D02*
X1284Y152D01*
X1331Y152D02*
X1349Y152D01*
X1365Y152D02*
X1384Y152D01*
X1431Y152D02*
X1449Y152D01*
X1465Y152D02*
X1484Y152D01*
X1531Y152D02*
X1549Y152D01*
X1565Y152D02*
X1584Y152D01*
X1631Y152D02*
X1649Y152D01*
X1665Y152D02*
X1684Y152D01*
X1731Y152D02*
X1749Y152D01*
X1765Y152D02*
X1784Y152D01*
X1831Y152D02*
X1849Y152D01*
X1865Y152D02*
X1884Y152D01*
X1931Y152D02*
X1949Y152D01*
X1965Y152D02*
X1984Y152D01*
X2030Y152D02*
X2049Y152D01*
X2065Y152D02*
X2083Y152D01*
X131Y151D02*
X147Y151D01*
X167Y151D02*
X184Y151D01*
X231Y151D02*
X247Y151D01*
X267Y151D02*
X284Y151D01*
X331Y151D02*
X347Y151D01*
X367Y151D02*
X384Y151D01*
X431Y151D02*
X447Y151D01*
X467Y151D02*
X484Y151D01*
X531Y151D02*
X547Y151D01*
X567Y151D02*
X584Y151D01*
X631Y151D02*
X647Y151D01*
X667Y151D02*
X684Y151D01*
X731Y151D02*
X747Y151D01*
X767Y151D02*
X784Y151D01*
X831Y151D02*
X847Y151D01*
X867Y151D02*
X884Y151D01*
X931Y151D02*
X947Y151D01*
X967Y151D02*
X984Y151D01*
X1031Y151D02*
X1047Y151D01*
X1067Y151D02*
X1084Y151D01*
X1131Y151D02*
X1147Y151D01*
X1167Y151D02*
X1184Y151D01*
X1231Y151D02*
X1247Y151D01*
X1267Y151D02*
X1284Y151D01*
X1331Y151D02*
X1347Y151D01*
X1367Y151D02*
X1384Y151D01*
X1431Y151D02*
X1447Y151D01*
X1467Y151D02*
X1484Y151D01*
X1531Y151D02*
X1547Y151D01*
X1567Y151D02*
X1584Y151D01*
X1631Y151D02*
X1647Y151D01*
X1667Y151D02*
X1684Y151D01*
X1731Y151D02*
X1747Y151D01*
X1767Y151D02*
X1784Y151D01*
X1831Y151D02*
X1847Y151D01*
X1867Y151D02*
X1884Y151D01*
X1931Y151D02*
X1947Y151D01*
X1967Y151D02*
X1984Y151D01*
X2030Y151D02*
X2047Y151D01*
X2066Y151D02*
X2083Y151D01*
X131Y150D02*
X146Y150D01*
X169Y150D02*
X184Y150D01*
X231Y150D02*
X246Y150D01*
X269Y150D02*
X284Y150D01*
X331Y150D02*
X346Y150D01*
X369Y150D02*
X384Y150D01*
X431Y150D02*
X446Y150D01*
X469Y150D02*
X484Y150D01*
X531Y150D02*
X546Y150D01*
X569Y150D02*
X584Y150D01*
X631Y150D02*
X646Y150D01*
X669Y150D02*
X684Y150D01*
X731Y150D02*
X746Y150D01*
X769Y150D02*
X784Y150D01*
X831Y150D02*
X846Y150D01*
X869Y150D02*
X884Y150D01*
X931Y150D02*
X946Y150D01*
X969Y150D02*
X984Y150D01*
X1031Y150D02*
X1046Y150D01*
X1069Y150D02*
X1084Y150D01*
X1131Y150D02*
X1146Y150D01*
X1169Y150D02*
X1184Y150D01*
X1231Y150D02*
X1246Y150D01*
X1269Y150D02*
X1284Y150D01*
X1331Y150D02*
X1346Y150D01*
X1369Y150D02*
X1384Y150D01*
X1431Y150D02*
X1446Y150D01*
X1469Y150D02*
X1484Y150D01*
X1531Y150D02*
X1546Y150D01*
X1569Y150D02*
X1584Y150D01*
X1631Y150D02*
X1646Y150D01*
X1669Y150D02*
X1684Y150D01*
X1731Y150D02*
X1746Y150D01*
X1769Y150D02*
X1784Y150D01*
X1831Y150D02*
X1846Y150D01*
X1869Y150D02*
X1884Y150D01*
X1931Y150D02*
X1946Y150D01*
X1969Y150D02*
X1984Y150D01*
X2030Y150D02*
X2045Y150D01*
X2068Y150D02*
X2083Y150D01*
X131Y149D02*
X145Y149D01*
X170Y149D02*
X184Y149D01*
X231Y149D02*
X245Y149D01*
X270Y149D02*
X284Y149D01*
X331Y149D02*
X345Y149D01*
X370Y149D02*
X384Y149D01*
X431Y149D02*
X445Y149D01*
X470Y149D02*
X484Y149D01*
X531Y149D02*
X545Y149D01*
X570Y149D02*
X584Y149D01*
X631Y149D02*
X645Y149D01*
X670Y149D02*
X684Y149D01*
X731Y149D02*
X745Y149D01*
X770Y149D02*
X784Y149D01*
X831Y149D02*
X845Y149D01*
X870Y149D02*
X884Y149D01*
X931Y149D02*
X945Y149D01*
X970Y149D02*
X984Y149D01*
X1031Y149D02*
X1045Y149D01*
X1070Y149D02*
X1084Y149D01*
X1131Y149D02*
X1144Y149D01*
X1170Y149D02*
X1184Y149D01*
X1231Y149D02*
X1244Y149D01*
X1270Y149D02*
X1284Y149D01*
X1331Y149D02*
X1344Y149D01*
X1370Y149D02*
X1384Y149D01*
X1431Y149D02*
X1444Y149D01*
X1470Y149D02*
X1484Y149D01*
X1531Y149D02*
X1544Y149D01*
X1570Y149D02*
X1584Y149D01*
X1631Y149D02*
X1644Y149D01*
X1670Y149D02*
X1684Y149D01*
X1731Y149D02*
X1744Y149D01*
X1770Y149D02*
X1784Y149D01*
X1831Y149D02*
X1844Y149D01*
X1870Y149D02*
X1884Y149D01*
X1931Y149D02*
X1944Y149D01*
X1970Y149D02*
X1984Y149D01*
X2030Y149D02*
X2044Y149D01*
X2069Y149D02*
X2083Y149D01*
X131Y148D02*
X143Y148D01*
X171Y148D02*
X184Y148D01*
X231Y148D02*
X243Y148D01*
X271Y148D02*
X284Y148D01*
X331Y148D02*
X343Y148D01*
X371Y148D02*
X384Y148D01*
X431Y148D02*
X443Y148D01*
X471Y148D02*
X484Y148D01*
X531Y148D02*
X543Y148D01*
X571Y148D02*
X584Y148D01*
X631Y148D02*
X643Y148D01*
X671Y148D02*
X684Y148D01*
X731Y148D02*
X743Y148D01*
X771Y148D02*
X784Y148D01*
X831Y148D02*
X843Y148D01*
X871Y148D02*
X884Y148D01*
X931Y148D02*
X943Y148D01*
X971Y148D02*
X984Y148D01*
X1031Y148D02*
X1043Y148D01*
X1071Y148D02*
X1084Y148D01*
X1131Y148D02*
X1143Y148D01*
X1171Y148D02*
X1184Y148D01*
X1231Y148D02*
X1243Y148D01*
X1271Y148D02*
X1284Y148D01*
X1331Y148D02*
X1343Y148D01*
X1371Y148D02*
X1384Y148D01*
X1431Y148D02*
X1443Y148D01*
X1471Y148D02*
X1484Y148D01*
X1531Y148D02*
X1543Y148D01*
X1571Y148D02*
X1584Y148D01*
X1631Y148D02*
X1643Y148D01*
X1671Y148D02*
X1684Y148D01*
X1731Y148D02*
X1743Y148D01*
X1771Y148D02*
X1784Y148D01*
X1831Y148D02*
X1843Y148D01*
X1871Y148D02*
X1884Y148D01*
X1931Y148D02*
X1943Y148D01*
X1971Y148D02*
X1984Y148D01*
X2030Y148D02*
X2043Y148D01*
X2071Y148D02*
X2083Y148D01*
X131Y147D02*
X143Y147D01*
X172Y147D02*
X184Y147D01*
X231Y147D02*
X243Y147D01*
X272Y147D02*
X284Y147D01*
X331Y147D02*
X343Y147D01*
X372Y147D02*
X384Y147D01*
X431Y147D02*
X443Y147D01*
X472Y147D02*
X484Y147D01*
X531Y147D02*
X543Y147D01*
X572Y147D02*
X584Y147D01*
X631Y147D02*
X642Y147D01*
X672Y147D02*
X684Y147D01*
X731Y147D02*
X742Y147D01*
X772Y147D02*
X784Y147D01*
X831Y147D02*
X842Y147D01*
X872Y147D02*
X884Y147D01*
X931Y147D02*
X942Y147D01*
X972Y147D02*
X984Y147D01*
X1031Y147D02*
X1042Y147D01*
X1072Y147D02*
X1084Y147D01*
X1131Y147D02*
X1142Y147D01*
X1172Y147D02*
X1184Y147D01*
X1231Y147D02*
X1242Y147D01*
X1272Y147D02*
X1284Y147D01*
X1331Y147D02*
X1342Y147D01*
X1372Y147D02*
X1384Y147D01*
X1431Y147D02*
X1442Y147D01*
X1472Y147D02*
X1484Y147D01*
X1531Y147D02*
X1542Y147D01*
X1572Y147D02*
X1584Y147D01*
X1631Y147D02*
X1642Y147D01*
X1672Y147D02*
X1684Y147D01*
X1731Y147D02*
X1742Y147D01*
X1772Y147D02*
X1784Y147D01*
X1831Y147D02*
X1842Y147D01*
X1872Y147D02*
X1884Y147D01*
X1931Y147D02*
X1942Y147D01*
X1972Y147D02*
X1984Y147D01*
X2030Y147D02*
X2042Y147D01*
X2071Y147D02*
X2083Y147D01*
X131Y146D02*
X142Y146D01*
X173Y146D02*
X184Y146D01*
X231Y146D02*
X242Y146D01*
X273Y146D02*
X284Y146D01*
X331Y146D02*
X342Y146D01*
X373Y146D02*
X384Y146D01*
X431Y146D02*
X442Y146D01*
X473Y146D02*
X484Y146D01*
X531Y146D02*
X542Y146D01*
X573Y146D02*
X584Y146D01*
X631Y146D02*
X642Y146D01*
X673Y146D02*
X684Y146D01*
X731Y146D02*
X742Y146D01*
X773Y146D02*
X784Y146D01*
X831Y146D02*
X842Y146D01*
X873Y146D02*
X884Y146D01*
X931Y146D02*
X942Y146D01*
X973Y146D02*
X984Y146D01*
X1031Y146D02*
X1042Y146D01*
X1073Y146D02*
X1084Y146D01*
X1131Y146D02*
X1142Y146D01*
X1173Y146D02*
X1184Y146D01*
X1231Y146D02*
X1242Y146D01*
X1273Y146D02*
X1284Y146D01*
X1331Y146D02*
X1342Y146D01*
X1373Y146D02*
X1384Y146D01*
X1431Y146D02*
X1442Y146D01*
X1473Y146D02*
X1484Y146D01*
X1531Y146D02*
X1542Y146D01*
X1573Y146D02*
X1584Y146D01*
X1631Y146D02*
X1642Y146D01*
X1673Y146D02*
X1684Y146D01*
X1731Y146D02*
X1742Y146D01*
X1773Y146D02*
X1784Y146D01*
X1831Y146D02*
X1842Y146D01*
X1873Y146D02*
X1884Y146D01*
X1931Y146D02*
X1942Y146D01*
X1973Y146D02*
X1984Y146D01*
X2030Y146D02*
X2041Y146D01*
X2072Y146D02*
X2083Y146D01*
X131Y145D02*
X141Y145D01*
X174Y145D02*
X184Y145D01*
X231Y145D02*
X241Y145D01*
X274Y145D02*
X284Y145D01*
X331Y145D02*
X341Y145D01*
X374Y145D02*
X384Y145D01*
X431Y145D02*
X441Y145D01*
X474Y145D02*
X484Y145D01*
X531Y145D02*
X541Y145D01*
X574Y145D02*
X584Y145D01*
X631Y145D02*
X641Y145D01*
X674Y145D02*
X684Y145D01*
X731Y145D02*
X741Y145D01*
X774Y145D02*
X784Y145D01*
X831Y145D02*
X841Y145D01*
X874Y145D02*
X884Y145D01*
X931Y145D02*
X941Y145D01*
X974Y145D02*
X984Y145D01*
X1031Y145D02*
X1041Y145D01*
X1074Y145D02*
X1084Y145D01*
X1131Y145D02*
X1141Y145D01*
X1174Y145D02*
X1184Y145D01*
X1231Y145D02*
X1241Y145D01*
X1273Y145D02*
X1284Y145D01*
X1331Y145D02*
X1341Y145D01*
X1373Y145D02*
X1384Y145D01*
X1431Y145D02*
X1441Y145D01*
X1473Y145D02*
X1484Y145D01*
X1531Y145D02*
X1541Y145D01*
X1573Y145D02*
X1584Y145D01*
X1631Y145D02*
X1641Y145D01*
X1673Y145D02*
X1684Y145D01*
X1731Y145D02*
X1741Y145D01*
X1773Y145D02*
X1784Y145D01*
X1831Y145D02*
X1841Y145D01*
X1873Y145D02*
X1884Y145D01*
X1931Y145D02*
X1941Y145D01*
X1973Y145D02*
X1984Y145D01*
X2030Y145D02*
X2040Y145D01*
X2073Y145D02*
X2083Y145D01*
X131Y144D02*
X140Y144D01*
X174Y144D02*
X184Y144D01*
X231Y144D02*
X240Y144D01*
X274Y144D02*
X284Y144D01*
X331Y144D02*
X340Y144D01*
X374Y144D02*
X384Y144D01*
X431Y144D02*
X440Y144D01*
X474Y144D02*
X484Y144D01*
X531Y144D02*
X540Y144D01*
X574Y144D02*
X584Y144D01*
X631Y144D02*
X640Y144D01*
X674Y144D02*
X684Y144D01*
X731Y144D02*
X740Y144D01*
X774Y144D02*
X784Y144D01*
X831Y144D02*
X840Y144D01*
X874Y144D02*
X884Y144D01*
X931Y144D02*
X940Y144D01*
X974Y144D02*
X984Y144D01*
X1031Y144D02*
X1040Y144D01*
X1074Y144D02*
X1084Y144D01*
X1131Y144D02*
X1140Y144D01*
X1174Y144D02*
X1184Y144D01*
X1231Y144D02*
X1240Y144D01*
X1274Y144D02*
X1284Y144D01*
X1331Y144D02*
X1340Y144D01*
X1374Y144D02*
X1384Y144D01*
X1431Y144D02*
X1440Y144D01*
X1474Y144D02*
X1484Y144D01*
X1531Y144D02*
X1540Y144D01*
X1574Y144D02*
X1584Y144D01*
X1631Y144D02*
X1640Y144D01*
X1674Y144D02*
X1684Y144D01*
X1731Y144D02*
X1740Y144D01*
X1774Y144D02*
X1784Y144D01*
X1831Y144D02*
X1840Y144D01*
X1874Y144D02*
X1884Y144D01*
X1931Y144D02*
X1940Y144D01*
X1974Y144D02*
X1984Y144D01*
X2030Y144D02*
X2040Y144D01*
X2074Y144D02*
X2083Y144D01*
X131Y143D02*
X140Y143D01*
X175Y143D02*
X184Y143D01*
X231Y143D02*
X240Y143D01*
X275Y143D02*
X284Y143D01*
X331Y143D02*
X340Y143D01*
X375Y143D02*
X384Y143D01*
X431Y143D02*
X440Y143D01*
X475Y143D02*
X484Y143D01*
X531Y143D02*
X540Y143D01*
X575Y143D02*
X584Y143D01*
X631Y143D02*
X640Y143D01*
X675Y143D02*
X684Y143D01*
X731Y143D02*
X740Y143D01*
X775Y143D02*
X784Y143D01*
X831Y143D02*
X840Y143D01*
X875Y143D02*
X884Y143D01*
X931Y143D02*
X940Y143D01*
X975Y143D02*
X984Y143D01*
X1031Y143D02*
X1040Y143D01*
X1075Y143D02*
X1084Y143D01*
X1131Y143D02*
X1140Y143D01*
X1175Y143D02*
X1184Y143D01*
X1231Y143D02*
X1240Y143D01*
X1275Y143D02*
X1284Y143D01*
X1331Y143D02*
X1340Y143D01*
X1375Y143D02*
X1384Y143D01*
X1431Y143D02*
X1440Y143D01*
X1475Y143D02*
X1484Y143D01*
X1531Y143D02*
X1540Y143D01*
X1575Y143D02*
X1584Y143D01*
X1631Y143D02*
X1640Y143D01*
X1675Y143D02*
X1684Y143D01*
X1731Y143D02*
X1740Y143D01*
X1775Y143D02*
X1784Y143D01*
X1831Y143D02*
X1840Y143D01*
X1875Y143D02*
X1884Y143D01*
X1931Y143D02*
X1940Y143D01*
X1975Y143D02*
X1984Y143D01*
X2030Y143D02*
X2039Y143D01*
X2074Y143D02*
X2083Y143D01*
X131Y142D02*
X139Y142D01*
X175Y142D02*
X184Y142D01*
X231Y142D02*
X239Y142D01*
X275Y142D02*
X284Y142D01*
X331Y142D02*
X339Y142D01*
X375Y142D02*
X384Y142D01*
X431Y142D02*
X439Y142D01*
X475Y142D02*
X484Y142D01*
X531Y142D02*
X539Y142D01*
X575Y142D02*
X584Y142D01*
X631Y142D02*
X639Y142D01*
X675Y142D02*
X684Y142D01*
X731Y142D02*
X739Y142D01*
X775Y142D02*
X784Y142D01*
X831Y142D02*
X839Y142D01*
X875Y142D02*
X884Y142D01*
X931Y142D02*
X939Y142D01*
X975Y142D02*
X984Y142D01*
X1031Y142D02*
X1039Y142D01*
X1075Y142D02*
X1084Y142D01*
X1131Y142D02*
X1139Y142D01*
X1175Y142D02*
X1184Y142D01*
X1231Y142D02*
X1239Y142D01*
X1275Y142D02*
X1284Y142D01*
X1331Y142D02*
X1339Y142D01*
X1375Y142D02*
X1384Y142D01*
X1431Y142D02*
X1439Y142D01*
X1475Y142D02*
X1484Y142D01*
X1531Y142D02*
X1539Y142D01*
X1575Y142D02*
X1584Y142D01*
X1631Y142D02*
X1639Y142D01*
X1675Y142D02*
X1684Y142D01*
X1731Y142D02*
X1739Y142D01*
X1775Y142D02*
X1784Y142D01*
X1831Y142D02*
X1839Y142D01*
X1875Y142D02*
X1884Y142D01*
X1931Y142D02*
X1939Y142D01*
X1975Y142D02*
X1984Y142D01*
X2030Y142D02*
X2039Y142D01*
X2075Y142D02*
X2083Y142D01*
X131Y141D02*
X139Y141D01*
X176Y141D02*
X184Y141D01*
X231Y141D02*
X239Y141D01*
X276Y141D02*
X284Y141D01*
X331Y141D02*
X339Y141D01*
X376Y141D02*
X384Y141D01*
X431Y141D02*
X439Y141D01*
X476Y141D02*
X484Y141D01*
X531Y141D02*
X539Y141D01*
X576Y141D02*
X584Y141D01*
X631Y141D02*
X639Y141D01*
X676Y141D02*
X684Y141D01*
X731Y141D02*
X739Y141D01*
X776Y141D02*
X784Y141D01*
X831Y141D02*
X839Y141D01*
X876Y141D02*
X884Y141D01*
X931Y141D02*
X939Y141D01*
X975Y141D02*
X984Y141D01*
X1031Y141D02*
X1039Y141D01*
X1075Y141D02*
X1084Y141D01*
X1131Y141D02*
X1139Y141D01*
X1175Y141D02*
X1184Y141D01*
X1231Y141D02*
X1239Y141D01*
X1275Y141D02*
X1284Y141D01*
X1331Y141D02*
X1339Y141D01*
X1375Y141D02*
X1384Y141D01*
X1431Y141D02*
X1439Y141D01*
X1475Y141D02*
X1484Y141D01*
X1531Y141D02*
X1539Y141D01*
X1575Y141D02*
X1584Y141D01*
X1631Y141D02*
X1639Y141D01*
X1675Y141D02*
X1684Y141D01*
X1731Y141D02*
X1739Y141D01*
X1775Y141D02*
X1784Y141D01*
X1831Y141D02*
X1839Y141D01*
X1875Y141D02*
X1884Y141D01*
X1931Y141D02*
X1939Y141D01*
X1975Y141D02*
X1984Y141D01*
X2030Y141D02*
X2038Y141D01*
X2075Y141D02*
X2083Y141D01*
X131Y140D02*
X139Y140D01*
X176Y140D02*
X184Y140D01*
X231Y140D02*
X239Y140D01*
X276Y140D02*
X284Y140D01*
X331Y140D02*
X339Y140D01*
X376Y140D02*
X384Y140D01*
X431Y140D02*
X439Y140D01*
X476Y140D02*
X484Y140D01*
X531Y140D02*
X539Y140D01*
X576Y140D02*
X584Y140D01*
X631Y140D02*
X639Y140D01*
X676Y140D02*
X684Y140D01*
X731Y140D02*
X739Y140D01*
X776Y140D02*
X784Y140D01*
X831Y140D02*
X839Y140D01*
X876Y140D02*
X884Y140D01*
X931Y140D02*
X939Y140D01*
X976Y140D02*
X984Y140D01*
X1031Y140D02*
X1039Y140D01*
X1076Y140D02*
X1084Y140D01*
X1131Y140D02*
X1139Y140D01*
X1176Y140D02*
X1184Y140D01*
X1231Y140D02*
X1239Y140D01*
X1276Y140D02*
X1284Y140D01*
X1331Y140D02*
X1339Y140D01*
X1376Y140D02*
X1384Y140D01*
X1431Y140D02*
X1439Y140D01*
X1476Y140D02*
X1484Y140D01*
X1531Y140D02*
X1539Y140D01*
X1576Y140D02*
X1584Y140D01*
X1631Y140D02*
X1639Y140D01*
X1676Y140D02*
X1684Y140D01*
X1731Y140D02*
X1739Y140D01*
X1776Y140D02*
X1784Y140D01*
X1831Y140D02*
X1839Y140D01*
X1876Y140D02*
X1884Y140D01*
X1931Y140D02*
X1939Y140D01*
X1976Y140D02*
X1984Y140D01*
X2030Y140D02*
X2038Y140D01*
X2075Y140D02*
X2083Y140D01*
X131Y139D02*
X138Y139D01*
X176Y139D02*
X184Y139D01*
X231Y139D02*
X238Y139D01*
X276Y139D02*
X284Y139D01*
X331Y139D02*
X338Y139D01*
X376Y139D02*
X384Y139D01*
X431Y139D02*
X438Y139D01*
X476Y139D02*
X484Y139D01*
X531Y139D02*
X538Y139D01*
X576Y139D02*
X584Y139D01*
X631Y139D02*
X638Y139D01*
X676Y139D02*
X684Y139D01*
X731Y139D02*
X738Y139D01*
X776Y139D02*
X784Y139D01*
X831Y139D02*
X838Y139D01*
X876Y139D02*
X884Y139D01*
X931Y139D02*
X938Y139D01*
X976Y139D02*
X984Y139D01*
X1031Y139D02*
X1038Y139D01*
X1076Y139D02*
X1084Y139D01*
X1131Y139D02*
X1138Y139D01*
X1176Y139D02*
X1184Y139D01*
X1231Y139D02*
X1238Y139D01*
X1276Y139D02*
X1284Y139D01*
X1331Y139D02*
X1338Y139D01*
X1376Y139D02*
X1384Y139D01*
X1431Y139D02*
X1438Y139D01*
X1476Y139D02*
X1484Y139D01*
X1531Y139D02*
X1538Y139D01*
X1576Y139D02*
X1584Y139D01*
X1631Y139D02*
X1638Y139D01*
X1676Y139D02*
X1684Y139D01*
X1731Y139D02*
X1738Y139D01*
X1776Y139D02*
X1784Y139D01*
X1831Y139D02*
X1838Y139D01*
X1876Y139D02*
X1884Y139D01*
X1931Y139D02*
X1938Y139D01*
X1976Y139D02*
X1984Y139D01*
X2030Y139D02*
X2038Y139D01*
X2076Y139D02*
X2083Y139D01*
X131Y138D02*
X138Y138D01*
X176Y138D02*
X184Y138D01*
X231Y138D02*
X238Y138D01*
X276Y138D02*
X284Y138D01*
X331Y138D02*
X338Y138D01*
X376Y138D02*
X384Y138D01*
X431Y138D02*
X438Y138D01*
X476Y138D02*
X484Y138D01*
X531Y138D02*
X538Y138D01*
X576Y138D02*
X584Y138D01*
X631Y138D02*
X638Y138D01*
X676Y138D02*
X684Y138D01*
X731Y138D02*
X738Y138D01*
X776Y138D02*
X784Y138D01*
X831Y138D02*
X838Y138D01*
X876Y138D02*
X884Y138D01*
X931Y138D02*
X938Y138D01*
X976Y138D02*
X984Y138D01*
X1031Y138D02*
X1038Y138D01*
X1076Y138D02*
X1084Y138D01*
X1131Y138D02*
X1138Y138D01*
X1176Y138D02*
X1184Y138D01*
X1231Y138D02*
X1238Y138D01*
X1276Y138D02*
X1284Y138D01*
X1331Y138D02*
X1338Y138D01*
X1376Y138D02*
X1384Y138D01*
X1431Y138D02*
X1438Y138D01*
X1476Y138D02*
X1484Y138D01*
X1531Y138D02*
X1538Y138D01*
X1576Y138D02*
X1584Y138D01*
X1631Y138D02*
X1638Y138D01*
X1676Y138D02*
X1684Y138D01*
X1731Y138D02*
X1738Y138D01*
X1776Y138D02*
X1784Y138D01*
X1831Y138D02*
X1838Y138D01*
X1876Y138D02*
X1884Y138D01*
X1931Y138D02*
X1938Y138D01*
X1976Y138D02*
X1984Y138D01*
X2030Y138D02*
X2038Y138D01*
X2076Y138D02*
X2083Y138D01*
X131Y137D02*
X138Y137D01*
X177Y137D02*
X184Y137D01*
X231Y137D02*
X238Y137D01*
X277Y137D02*
X284Y137D01*
X331Y137D02*
X338Y137D01*
X376Y137D02*
X384Y137D01*
X431Y137D02*
X438Y137D01*
X476Y137D02*
X484Y137D01*
X531Y137D02*
X538Y137D01*
X576Y137D02*
X584Y137D01*
X631Y137D02*
X638Y137D01*
X676Y137D02*
X684Y137D01*
X731Y137D02*
X738Y137D01*
X776Y137D02*
X784Y137D01*
X831Y137D02*
X838Y137D01*
X876Y137D02*
X884Y137D01*
X931Y137D02*
X938Y137D01*
X976Y137D02*
X984Y137D01*
X1031Y137D02*
X1038Y137D01*
X1076Y137D02*
X1084Y137D01*
X1131Y137D02*
X1138Y137D01*
X1176Y137D02*
X1184Y137D01*
X1231Y137D02*
X1238Y137D01*
X1276Y137D02*
X1284Y137D01*
X1331Y137D02*
X1338Y137D01*
X1376Y137D02*
X1384Y137D01*
X1431Y137D02*
X1438Y137D01*
X1476Y137D02*
X1484Y137D01*
X1531Y137D02*
X1538Y137D01*
X1576Y137D02*
X1584Y137D01*
X1631Y137D02*
X1638Y137D01*
X1676Y137D02*
X1684Y137D01*
X1731Y137D02*
X1738Y137D01*
X1776Y137D02*
X1784Y137D01*
X1831Y137D02*
X1838Y137D01*
X1876Y137D02*
X1884Y137D01*
X1931Y137D02*
X1938Y137D01*
X1976Y137D02*
X1984Y137D01*
X2030Y137D02*
X2037Y137D01*
X2076Y137D02*
X2083Y137D01*
X131Y136D02*
X138Y136D01*
X177Y136D02*
X184Y136D01*
X231Y136D02*
X238Y136D01*
X277Y136D02*
X284Y136D01*
X331Y136D02*
X338Y136D01*
X377Y136D02*
X384Y136D01*
X431Y136D02*
X438Y136D01*
X477Y136D02*
X484Y136D01*
X531Y136D02*
X538Y136D01*
X577Y136D02*
X584Y136D01*
X631Y136D02*
X638Y136D01*
X677Y136D02*
X684Y136D01*
X731Y136D02*
X738Y136D01*
X777Y136D02*
X784Y136D01*
X831Y136D02*
X838Y136D01*
X877Y136D02*
X884Y136D01*
X931Y136D02*
X938Y136D01*
X977Y136D02*
X984Y136D01*
X1031Y136D02*
X1038Y136D01*
X1077Y136D02*
X1084Y136D01*
X1131Y136D02*
X1138Y136D01*
X1177Y136D02*
X1184Y136D01*
X1231Y136D02*
X1238Y136D01*
X1277Y136D02*
X1284Y136D01*
X1331Y136D02*
X1338Y136D01*
X1377Y136D02*
X1384Y136D01*
X1431Y136D02*
X1438Y136D01*
X1477Y136D02*
X1484Y136D01*
X1531Y136D02*
X1538Y136D01*
X1576Y136D02*
X1584Y136D01*
X1631Y136D02*
X1638Y136D01*
X1676Y136D02*
X1684Y136D01*
X1731Y136D02*
X1738Y136D01*
X1776Y136D02*
X1784Y136D01*
X1831Y136D02*
X1838Y136D01*
X1876Y136D02*
X1884Y136D01*
X1931Y136D02*
X1938Y136D01*
X1976Y136D02*
X1984Y136D01*
X2030Y136D02*
X2037Y136D01*
X2076Y136D02*
X2083Y136D01*
X131Y135D02*
X138Y135D01*
X177Y135D02*
X184Y135D01*
X231Y135D02*
X238Y135D01*
X277Y135D02*
X284Y135D01*
X331Y135D02*
X338Y135D01*
X377Y135D02*
X384Y135D01*
X431Y135D02*
X438Y135D01*
X477Y135D02*
X484Y135D01*
X531Y135D02*
X538Y135D01*
X577Y135D02*
X584Y135D01*
X631Y135D02*
X638Y135D01*
X677Y135D02*
X684Y135D01*
X731Y135D02*
X738Y135D01*
X777Y135D02*
X784Y135D01*
X831Y135D02*
X838Y135D01*
X877Y135D02*
X884Y135D01*
X931Y135D02*
X938Y135D01*
X977Y135D02*
X984Y135D01*
X1031Y135D02*
X1038Y135D01*
X1077Y135D02*
X1084Y135D01*
X1131Y135D02*
X1138Y135D01*
X1177Y135D02*
X1184Y135D01*
X1231Y135D02*
X1238Y135D01*
X1277Y135D02*
X1284Y135D01*
X1331Y135D02*
X1338Y135D01*
X1377Y135D02*
X1384Y135D01*
X1431Y135D02*
X1438Y135D01*
X1477Y135D02*
X1484Y135D01*
X1531Y135D02*
X1538Y135D01*
X1577Y135D02*
X1584Y135D01*
X1631Y135D02*
X1638Y135D01*
X1677Y135D02*
X1684Y135D01*
X1731Y135D02*
X1738Y135D01*
X1777Y135D02*
X1784Y135D01*
X1831Y135D02*
X1838Y135D01*
X1877Y135D02*
X1884Y135D01*
X1931Y135D02*
X1938Y135D01*
X1977Y135D02*
X1984Y135D01*
X2030Y135D02*
X2037Y135D01*
X2076Y135D02*
X2083Y135D01*
X131Y134D02*
X138Y134D01*
X177Y134D02*
X184Y134D01*
X231Y134D02*
X238Y134D01*
X277Y134D02*
X284Y134D01*
X331Y134D02*
X338Y134D01*
X377Y134D02*
X384Y134D01*
X431Y134D02*
X438Y134D01*
X477Y134D02*
X484Y134D01*
X531Y134D02*
X538Y134D01*
X577Y134D02*
X584Y134D01*
X631Y134D02*
X638Y134D01*
X677Y134D02*
X684Y134D01*
X731Y134D02*
X738Y134D01*
X777Y134D02*
X784Y134D01*
X831Y134D02*
X838Y134D01*
X877Y134D02*
X884Y134D01*
X931Y134D02*
X938Y134D01*
X977Y134D02*
X984Y134D01*
X1031Y134D02*
X1038Y134D01*
X1077Y134D02*
X1084Y134D01*
X1131Y134D02*
X1138Y134D01*
X1177Y134D02*
X1184Y134D01*
X1231Y134D02*
X1238Y134D01*
X1277Y134D02*
X1284Y134D01*
X1331Y134D02*
X1338Y134D01*
X1377Y134D02*
X1384Y134D01*
X1431Y134D02*
X1438Y134D01*
X1477Y134D02*
X1484Y134D01*
X1531Y134D02*
X1538Y134D01*
X1577Y134D02*
X1584Y134D01*
X1631Y134D02*
X1638Y134D01*
X1677Y134D02*
X1684Y134D01*
X1731Y134D02*
X1738Y134D01*
X1777Y134D02*
X1784Y134D01*
X1831Y134D02*
X1838Y134D01*
X1877Y134D02*
X1884Y134D01*
X1931Y134D02*
X1938Y134D01*
X1977Y134D02*
X1984Y134D01*
X2030Y134D02*
X2037Y134D01*
X2076Y134D02*
X2083Y134D01*
X131Y133D02*
X138Y133D01*
X177Y133D02*
X184Y133D01*
X231Y133D02*
X238Y133D01*
X277Y133D02*
X284Y133D01*
X331Y133D02*
X338Y133D01*
X377Y133D02*
X384Y133D01*
X431Y133D02*
X438Y133D01*
X477Y133D02*
X484Y133D01*
X531Y133D02*
X538Y133D01*
X577Y133D02*
X584Y133D01*
X631Y133D02*
X638Y133D01*
X677Y133D02*
X684Y133D01*
X731Y133D02*
X738Y133D01*
X777Y133D02*
X784Y133D01*
X831Y133D02*
X838Y133D01*
X877Y133D02*
X884Y133D01*
X931Y133D02*
X938Y133D01*
X977Y133D02*
X984Y133D01*
X1031Y133D02*
X1038Y133D01*
X1077Y133D02*
X1084Y133D01*
X1131Y133D02*
X1138Y133D01*
X1177Y133D02*
X1184Y133D01*
X1231Y133D02*
X1238Y133D01*
X1277Y133D02*
X1284Y133D01*
X1331Y133D02*
X1338Y133D01*
X1377Y133D02*
X1384Y133D01*
X1431Y133D02*
X1438Y133D01*
X1476Y133D02*
X1484Y133D01*
X1531Y133D02*
X1538Y133D01*
X1576Y133D02*
X1584Y133D01*
X1631Y133D02*
X1638Y133D01*
X1676Y133D02*
X1684Y133D01*
X1731Y133D02*
X1738Y133D01*
X1776Y133D02*
X1784Y133D01*
X1831Y133D02*
X1838Y133D01*
X1876Y133D02*
X1884Y133D01*
X1931Y133D02*
X1938Y133D01*
X1976Y133D02*
X1984Y133D01*
X2030Y133D02*
X2037Y133D01*
X2076Y133D02*
X2083Y133D01*
X131Y132D02*
X138Y132D01*
X177Y132D02*
X184Y132D01*
X231Y132D02*
X238Y132D01*
X277Y132D02*
X284Y132D01*
X331Y132D02*
X338Y132D01*
X376Y132D02*
X384Y132D01*
X431Y132D02*
X438Y132D01*
X476Y132D02*
X484Y132D01*
X531Y132D02*
X538Y132D01*
X576Y132D02*
X584Y132D01*
X631Y132D02*
X638Y132D01*
X676Y132D02*
X684Y132D01*
X731Y132D02*
X738Y132D01*
X776Y132D02*
X784Y132D01*
X831Y132D02*
X838Y132D01*
X876Y132D02*
X884Y132D01*
X931Y132D02*
X938Y132D01*
X976Y132D02*
X984Y132D01*
X1031Y132D02*
X1038Y132D01*
X1076Y132D02*
X1084Y132D01*
X1131Y132D02*
X1138Y132D01*
X1176Y132D02*
X1184Y132D01*
X1231Y132D02*
X1238Y132D01*
X1276Y132D02*
X1284Y132D01*
X1331Y132D02*
X1338Y132D01*
X1376Y132D02*
X1384Y132D01*
X1431Y132D02*
X1438Y132D01*
X1476Y132D02*
X1484Y132D01*
X1531Y132D02*
X1538Y132D01*
X1576Y132D02*
X1584Y132D01*
X1631Y132D02*
X1638Y132D01*
X1676Y132D02*
X1684Y132D01*
X1731Y132D02*
X1738Y132D01*
X1776Y132D02*
X1784Y132D01*
X1831Y132D02*
X1838Y132D01*
X1876Y132D02*
X1884Y132D01*
X1931Y132D02*
X1938Y132D01*
X1976Y132D02*
X1984Y132D01*
X2030Y132D02*
X2037Y132D01*
X2076Y132D02*
X2083Y132D01*
X131Y131D02*
X138Y131D01*
X176Y131D02*
X184Y131D01*
X231Y131D02*
X238Y131D01*
X276Y131D02*
X284Y131D01*
X331Y131D02*
X338Y131D01*
X376Y131D02*
X384Y131D01*
X431Y131D02*
X438Y131D01*
X476Y131D02*
X484Y131D01*
X531Y131D02*
X538Y131D01*
X576Y131D02*
X584Y131D01*
X631Y131D02*
X638Y131D01*
X676Y131D02*
X684Y131D01*
X731Y131D02*
X738Y131D01*
X776Y131D02*
X784Y131D01*
X831Y131D02*
X838Y131D01*
X876Y131D02*
X884Y131D01*
X931Y131D02*
X938Y131D01*
X976Y131D02*
X984Y131D01*
X1031Y131D02*
X1038Y131D01*
X1076Y131D02*
X1084Y131D01*
X1131Y131D02*
X1138Y131D01*
X1176Y131D02*
X1184Y131D01*
X1231Y131D02*
X1238Y131D01*
X1276Y131D02*
X1284Y131D01*
X1331Y131D02*
X1338Y131D01*
X1376Y131D02*
X1384Y131D01*
X1431Y131D02*
X1438Y131D01*
X1476Y131D02*
X1484Y131D01*
X1531Y131D02*
X1538Y131D01*
X1576Y131D02*
X1584Y131D01*
X1631Y131D02*
X1638Y131D01*
X1676Y131D02*
X1684Y131D01*
X1731Y131D02*
X1738Y131D01*
X1776Y131D02*
X1784Y131D01*
X1831Y131D02*
X1838Y131D01*
X1876Y131D02*
X1884Y131D01*
X1931Y131D02*
X1938Y131D01*
X1976Y131D02*
X1984Y131D01*
X2030Y131D02*
X2038Y131D01*
X2076Y131D02*
X2083Y131D01*
X131Y130D02*
X138Y130D01*
X176Y130D02*
X184Y130D01*
X231Y130D02*
X238Y130D01*
X276Y130D02*
X284Y130D01*
X331Y130D02*
X338Y130D01*
X376Y130D02*
X384Y130D01*
X431Y130D02*
X438Y130D01*
X476Y130D02*
X484Y130D01*
X531Y130D02*
X538Y130D01*
X576Y130D02*
X584Y130D01*
X631Y130D02*
X638Y130D01*
X676Y130D02*
X684Y130D01*
X731Y130D02*
X738Y130D01*
X776Y130D02*
X784Y130D01*
X831Y130D02*
X838Y130D01*
X876Y130D02*
X884Y130D01*
X931Y130D02*
X938Y130D01*
X976Y130D02*
X984Y130D01*
X1031Y130D02*
X1038Y130D01*
X1076Y130D02*
X1084Y130D01*
X1131Y130D02*
X1138Y130D01*
X1176Y130D02*
X1184Y130D01*
X1231Y130D02*
X1238Y130D01*
X1276Y130D02*
X1284Y130D01*
X1331Y130D02*
X1338Y130D01*
X1376Y130D02*
X1384Y130D01*
X1431Y130D02*
X1438Y130D01*
X1476Y130D02*
X1484Y130D01*
X1531Y130D02*
X1538Y130D01*
X1576Y130D02*
X1584Y130D01*
X1631Y130D02*
X1638Y130D01*
X1676Y130D02*
X1684Y130D01*
X1731Y130D02*
X1738Y130D01*
X1776Y130D02*
X1784Y130D01*
X1831Y130D02*
X1838Y130D01*
X1876Y130D02*
X1884Y130D01*
X1931Y130D02*
X1938Y130D01*
X1976Y130D02*
X1984Y130D01*
X2030Y130D02*
X2038Y130D01*
X2076Y130D02*
X2083Y130D01*
X131Y129D02*
X139Y129D01*
X176Y129D02*
X184Y129D01*
X231Y129D02*
X239Y129D01*
X276Y129D02*
X284Y129D01*
X331Y129D02*
X339Y129D01*
X376Y129D02*
X384Y129D01*
X431Y129D02*
X439Y129D01*
X476Y129D02*
X484Y129D01*
X531Y129D02*
X539Y129D01*
X576Y129D02*
X584Y129D01*
X631Y129D02*
X639Y129D01*
X676Y129D02*
X684Y129D01*
X731Y129D02*
X739Y129D01*
X776Y129D02*
X784Y129D01*
X831Y129D02*
X839Y129D01*
X876Y129D02*
X884Y129D01*
X931Y129D02*
X939Y129D01*
X976Y129D02*
X984Y129D01*
X1031Y129D02*
X1039Y129D01*
X1076Y129D02*
X1084Y129D01*
X1131Y129D02*
X1139Y129D01*
X1176Y129D02*
X1184Y129D01*
X1231Y129D02*
X1239Y129D01*
X1276Y129D02*
X1284Y129D01*
X1331Y129D02*
X1339Y129D01*
X1376Y129D02*
X1384Y129D01*
X1431Y129D02*
X1439Y129D01*
X1476Y129D02*
X1484Y129D01*
X1531Y129D02*
X1539Y129D01*
X1576Y129D02*
X1584Y129D01*
X1631Y129D02*
X1639Y129D01*
X1676Y129D02*
X1684Y129D01*
X1731Y129D02*
X1739Y129D01*
X1776Y129D02*
X1784Y129D01*
X1831Y129D02*
X1839Y129D01*
X1876Y129D02*
X1884Y129D01*
X1931Y129D02*
X1939Y129D01*
X1976Y129D02*
X1984Y129D01*
X2030Y129D02*
X2038Y129D01*
X2075Y129D02*
X2083Y129D01*
X131Y128D02*
X139Y128D01*
X176Y128D02*
X184Y128D01*
X231Y128D02*
X239Y128D01*
X276Y128D02*
X284Y128D01*
X331Y128D02*
X339Y128D01*
X376Y128D02*
X384Y128D01*
X431Y128D02*
X439Y128D01*
X476Y128D02*
X484Y128D01*
X531Y128D02*
X539Y128D01*
X575Y128D02*
X584Y128D01*
X631Y128D02*
X639Y128D01*
X675Y128D02*
X684Y128D01*
X731Y128D02*
X739Y128D01*
X775Y128D02*
X784Y128D01*
X831Y128D02*
X839Y128D01*
X875Y128D02*
X884Y128D01*
X931Y128D02*
X939Y128D01*
X975Y128D02*
X984Y128D01*
X1031Y128D02*
X1039Y128D01*
X1075Y128D02*
X1084Y128D01*
X1131Y128D02*
X1139Y128D01*
X1175Y128D02*
X1184Y128D01*
X1231Y128D02*
X1239Y128D01*
X1275Y128D02*
X1284Y128D01*
X1331Y128D02*
X1339Y128D01*
X1375Y128D02*
X1384Y128D01*
X1431Y128D02*
X1439Y128D01*
X1475Y128D02*
X1484Y128D01*
X1531Y128D02*
X1539Y128D01*
X1575Y128D02*
X1584Y128D01*
X1631Y128D02*
X1639Y128D01*
X1675Y128D02*
X1684Y128D01*
X1731Y128D02*
X1739Y128D01*
X1775Y128D02*
X1784Y128D01*
X1831Y128D02*
X1839Y128D01*
X1875Y128D02*
X1884Y128D01*
X1931Y128D02*
X1939Y128D01*
X1975Y128D02*
X1984Y128D01*
X2030Y128D02*
X2038Y128D01*
X2075Y128D02*
X2083Y128D01*
X131Y127D02*
X139Y127D01*
X175Y127D02*
X184Y127D01*
X231Y127D02*
X239Y127D01*
X275Y127D02*
X284Y127D01*
X331Y127D02*
X339Y127D01*
X375Y127D02*
X384Y127D01*
X431Y127D02*
X439Y127D01*
X475Y127D02*
X484Y127D01*
X531Y127D02*
X539Y127D01*
X575Y127D02*
X584Y127D01*
X631Y127D02*
X639Y127D01*
X675Y127D02*
X684Y127D01*
X731Y127D02*
X739Y127D01*
X775Y127D02*
X784Y127D01*
X831Y127D02*
X839Y127D01*
X875Y127D02*
X884Y127D01*
X931Y127D02*
X939Y127D01*
X975Y127D02*
X984Y127D01*
X1031Y127D02*
X1039Y127D01*
X1075Y127D02*
X1084Y127D01*
X1131Y127D02*
X1139Y127D01*
X1175Y127D02*
X1184Y127D01*
X1231Y127D02*
X1239Y127D01*
X1275Y127D02*
X1284Y127D01*
X1331Y127D02*
X1339Y127D01*
X1375Y127D02*
X1384Y127D01*
X1431Y127D02*
X1439Y127D01*
X1475Y127D02*
X1484Y127D01*
X1531Y127D02*
X1539Y127D01*
X1575Y127D02*
X1584Y127D01*
X1631Y127D02*
X1639Y127D01*
X1675Y127D02*
X1684Y127D01*
X1731Y127D02*
X1739Y127D01*
X1775Y127D02*
X1784Y127D01*
X1831Y127D02*
X1839Y127D01*
X1875Y127D02*
X1884Y127D01*
X1931Y127D02*
X1939Y127D01*
X1975Y127D02*
X1984Y127D01*
X2030Y127D02*
X2039Y127D01*
X2075Y127D02*
X2083Y127D01*
X131Y126D02*
X140Y126D01*
X175Y126D02*
X184Y126D01*
X231Y126D02*
X240Y126D01*
X275Y126D02*
X284Y126D01*
X331Y126D02*
X340Y126D01*
X375Y126D02*
X384Y126D01*
X431Y126D02*
X440Y126D01*
X475Y126D02*
X484Y126D01*
X531Y126D02*
X540Y126D01*
X575Y126D02*
X584Y126D01*
X631Y126D02*
X640Y126D01*
X675Y126D02*
X684Y126D01*
X731Y126D02*
X740Y126D01*
X775Y126D02*
X784Y126D01*
X831Y126D02*
X840Y126D01*
X875Y126D02*
X884Y126D01*
X931Y126D02*
X940Y126D01*
X975Y126D02*
X984Y126D01*
X1031Y126D02*
X1040Y126D01*
X1075Y126D02*
X1084Y126D01*
X1131Y126D02*
X1140Y126D01*
X1175Y126D02*
X1184Y126D01*
X1231Y126D02*
X1240Y126D01*
X1275Y126D02*
X1284Y126D01*
X1331Y126D02*
X1340Y126D01*
X1375Y126D02*
X1384Y126D01*
X1431Y126D02*
X1440Y126D01*
X1475Y126D02*
X1484Y126D01*
X1531Y126D02*
X1540Y126D01*
X1575Y126D02*
X1584Y126D01*
X1631Y126D02*
X1640Y126D01*
X1675Y126D02*
X1684Y126D01*
X1731Y126D02*
X1740Y126D01*
X1774Y126D02*
X1784Y126D01*
X1831Y126D02*
X1840Y126D01*
X1874Y126D02*
X1884Y126D01*
X1931Y126D02*
X1940Y126D01*
X1974Y126D02*
X1984Y126D01*
X2030Y126D02*
X2039Y126D01*
X2074Y126D02*
X2083Y126D01*
X131Y125D02*
X140Y125D01*
X174Y125D02*
X184Y125D01*
X231Y125D02*
X240Y125D01*
X274Y125D02*
X284Y125D01*
X331Y125D02*
X340Y125D01*
X374Y125D02*
X384Y125D01*
X431Y125D02*
X440Y125D01*
X474Y125D02*
X484Y125D01*
X531Y125D02*
X540Y125D01*
X574Y125D02*
X584Y125D01*
X631Y125D02*
X640Y125D01*
X674Y125D02*
X684Y125D01*
X731Y125D02*
X740Y125D01*
X774Y125D02*
X784Y125D01*
X831Y125D02*
X840Y125D01*
X874Y125D02*
X884Y125D01*
X931Y125D02*
X940Y125D01*
X974Y125D02*
X984Y125D01*
X1031Y125D02*
X1040Y125D01*
X1074Y125D02*
X1084Y125D01*
X1131Y125D02*
X1140Y125D01*
X1174Y125D02*
X1184Y125D01*
X1231Y125D02*
X1240Y125D01*
X1274Y125D02*
X1284Y125D01*
X1331Y125D02*
X1340Y125D01*
X1374Y125D02*
X1384Y125D01*
X1431Y125D02*
X1440Y125D01*
X1474Y125D02*
X1484Y125D01*
X1531Y125D02*
X1540Y125D01*
X1574Y125D02*
X1584Y125D01*
X1631Y125D02*
X1640Y125D01*
X1674Y125D02*
X1684Y125D01*
X1731Y125D02*
X1740Y125D01*
X1774Y125D02*
X1784Y125D01*
X1831Y125D02*
X1840Y125D01*
X1874Y125D02*
X1884Y125D01*
X1931Y125D02*
X1940Y125D01*
X1974Y125D02*
X1984Y125D01*
X2030Y125D02*
X2040Y125D01*
X2073Y125D02*
X2083Y125D01*
X131Y124D02*
X141Y124D01*
X174Y124D02*
X184Y124D01*
X231Y124D02*
X241Y124D01*
X274Y124D02*
X284Y124D01*
X331Y124D02*
X341Y124D01*
X374Y124D02*
X384Y124D01*
X431Y124D02*
X441Y124D01*
X474Y124D02*
X484Y124D01*
X531Y124D02*
X541Y124D01*
X573Y124D02*
X584Y124D01*
X631Y124D02*
X641Y124D01*
X673Y124D02*
X684Y124D01*
X731Y124D02*
X741Y124D01*
X773Y124D02*
X784Y124D01*
X831Y124D02*
X841Y124D01*
X873Y124D02*
X884Y124D01*
X931Y124D02*
X941Y124D01*
X973Y124D02*
X984Y124D01*
X1031Y124D02*
X1041Y124D01*
X1073Y124D02*
X1084Y124D01*
X1131Y124D02*
X1141Y124D01*
X1173Y124D02*
X1184Y124D01*
X1231Y124D02*
X1241Y124D01*
X1273Y124D02*
X1284Y124D01*
X1331Y124D02*
X1341Y124D01*
X1373Y124D02*
X1384Y124D01*
X1431Y124D02*
X1441Y124D01*
X1473Y124D02*
X1484Y124D01*
X1531Y124D02*
X1541Y124D01*
X1573Y124D02*
X1584Y124D01*
X1631Y124D02*
X1641Y124D01*
X1673Y124D02*
X1684Y124D01*
X1731Y124D02*
X1741Y124D01*
X1773Y124D02*
X1784Y124D01*
X1831Y124D02*
X1841Y124D01*
X1873Y124D02*
X1884Y124D01*
X1931Y124D02*
X1941Y124D01*
X1973Y124D02*
X1984Y124D01*
X2030Y124D02*
X2040Y124D01*
X2073Y124D02*
X2083Y124D01*
X131Y123D02*
X142Y123D01*
X173Y123D02*
X184Y123D01*
X231Y123D02*
X242Y123D01*
X273Y123D02*
X284Y123D01*
X331Y123D02*
X342Y123D01*
X373Y123D02*
X384Y123D01*
X431Y123D02*
X442Y123D01*
X473Y123D02*
X484Y123D01*
X531Y123D02*
X542Y123D01*
X573Y123D02*
X584Y123D01*
X631Y123D02*
X642Y123D01*
X673Y123D02*
X684Y123D01*
X731Y123D02*
X742Y123D01*
X773Y123D02*
X784Y123D01*
X831Y123D02*
X842Y123D01*
X873Y123D02*
X884Y123D01*
X931Y123D02*
X942Y123D01*
X973Y123D02*
X984Y123D01*
X1031Y123D02*
X1042Y123D01*
X1073Y123D02*
X1084Y123D01*
X1131Y123D02*
X1142Y123D01*
X1173Y123D02*
X1184Y123D01*
X1231Y123D02*
X1242Y123D01*
X1273Y123D02*
X1284Y123D01*
X1331Y123D02*
X1342Y123D01*
X1373Y123D02*
X1384Y123D01*
X1431Y123D02*
X1442Y123D01*
X1473Y123D02*
X1484Y123D01*
X1531Y123D02*
X1542Y123D01*
X1573Y123D02*
X1584Y123D01*
X1631Y123D02*
X1642Y123D01*
X1673Y123D02*
X1684Y123D01*
X1731Y123D02*
X1742Y123D01*
X1773Y123D02*
X1784Y123D01*
X1831Y123D02*
X1842Y123D01*
X1873Y123D02*
X1884Y123D01*
X1931Y123D02*
X1942Y123D01*
X1973Y123D02*
X1984Y123D01*
X2030Y123D02*
X2041Y123D01*
X2072Y123D02*
X2083Y123D01*
X131Y122D02*
X143Y122D01*
X172Y122D02*
X184Y122D01*
X231Y122D02*
X243Y122D01*
X272Y122D02*
X284Y122D01*
X331Y122D02*
X343Y122D01*
X372Y122D02*
X384Y122D01*
X431Y122D02*
X443Y122D01*
X472Y122D02*
X484Y122D01*
X531Y122D02*
X543Y122D01*
X572Y122D02*
X584Y122D01*
X631Y122D02*
X643Y122D01*
X672Y122D02*
X684Y122D01*
X731Y122D02*
X743Y122D01*
X772Y122D02*
X784Y122D01*
X831Y122D02*
X843Y122D01*
X872Y122D02*
X884Y122D01*
X931Y122D02*
X943Y122D01*
X972Y122D02*
X984Y122D01*
X1031Y122D02*
X1043Y122D01*
X1072Y122D02*
X1084Y122D01*
X1131Y122D02*
X1143Y122D01*
X1172Y122D02*
X1184Y122D01*
X1231Y122D02*
X1243Y122D01*
X1272Y122D02*
X1284Y122D01*
X1331Y122D02*
X1343Y122D01*
X1372Y122D02*
X1384Y122D01*
X1431Y122D02*
X1443Y122D01*
X1472Y122D02*
X1484Y122D01*
X1531Y122D02*
X1543Y122D01*
X1572Y122D02*
X1584Y122D01*
X1631Y122D02*
X1642Y122D01*
X1672Y122D02*
X1684Y122D01*
X1731Y122D02*
X1742Y122D01*
X1772Y122D02*
X1784Y122D01*
X1831Y122D02*
X1842Y122D01*
X1872Y122D02*
X1884Y122D01*
X1931Y122D02*
X1942Y122D01*
X1972Y122D02*
X1984Y122D01*
X2030Y122D02*
X2042Y122D01*
X2071Y122D02*
X2083Y122D01*
X131Y121D02*
X144Y121D01*
X171Y121D02*
X184Y121D01*
X231Y121D02*
X244Y121D01*
X271Y121D02*
X284Y121D01*
X331Y121D02*
X344Y121D01*
X371Y121D02*
X384Y121D01*
X431Y121D02*
X444Y121D01*
X471Y121D02*
X484Y121D01*
X531Y121D02*
X544Y121D01*
X571Y121D02*
X584Y121D01*
X631Y121D02*
X643Y121D01*
X671Y121D02*
X684Y121D01*
X731Y121D02*
X743Y121D01*
X771Y121D02*
X784Y121D01*
X831Y121D02*
X843Y121D01*
X871Y121D02*
X884Y121D01*
X931Y121D02*
X943Y121D01*
X971Y121D02*
X984Y121D01*
X1031Y121D02*
X1043Y121D01*
X1071Y121D02*
X1084Y121D01*
X1131Y121D02*
X1143Y121D01*
X1171Y121D02*
X1184Y121D01*
X1231Y121D02*
X1243Y121D01*
X1271Y121D02*
X1284Y121D01*
X1331Y121D02*
X1343Y121D01*
X1371Y121D02*
X1384Y121D01*
X1431Y121D02*
X1443Y121D01*
X1471Y121D02*
X1484Y121D01*
X1531Y121D02*
X1543Y121D01*
X1571Y121D02*
X1584Y121D01*
X1631Y121D02*
X1643Y121D01*
X1671Y121D02*
X1684Y121D01*
X1731Y121D02*
X1743Y121D01*
X1771Y121D02*
X1784Y121D01*
X1831Y121D02*
X1843Y121D01*
X1871Y121D02*
X1884Y121D01*
X1931Y121D02*
X1943Y121D01*
X1971Y121D02*
X1984Y121D01*
X2030Y121D02*
X2043Y121D01*
X2070Y121D02*
X2083Y121D01*
X131Y120D02*
X145Y120D01*
X170Y120D02*
X184Y120D01*
X231Y120D02*
X245Y120D01*
X270Y120D02*
X284Y120D01*
X331Y120D02*
X345Y120D01*
X370Y120D02*
X384Y120D01*
X431Y120D02*
X445Y120D01*
X470Y120D02*
X484Y120D01*
X531Y120D02*
X545Y120D01*
X570Y120D02*
X584Y120D01*
X631Y120D02*
X645Y120D01*
X670Y120D02*
X684Y120D01*
X731Y120D02*
X745Y120D01*
X770Y120D02*
X784Y120D01*
X831Y120D02*
X845Y120D01*
X870Y120D02*
X884Y120D01*
X931Y120D02*
X945Y120D01*
X970Y120D02*
X984Y120D01*
X1031Y120D02*
X1045Y120D01*
X1070Y120D02*
X1084Y120D01*
X1131Y120D02*
X1145Y120D01*
X1170Y120D02*
X1184Y120D01*
X1231Y120D02*
X1245Y120D01*
X1270Y120D02*
X1284Y120D01*
X1331Y120D02*
X1345Y120D01*
X1370Y120D02*
X1384Y120D01*
X1431Y120D02*
X1445Y120D01*
X1470Y120D02*
X1484Y120D01*
X1531Y120D02*
X1545Y120D01*
X1570Y120D02*
X1584Y120D01*
X1631Y120D02*
X1645Y120D01*
X1670Y120D02*
X1684Y120D01*
X1731Y120D02*
X1745Y120D01*
X1770Y120D02*
X1784Y120D01*
X1831Y120D02*
X1845Y120D01*
X1870Y120D02*
X1884Y120D01*
X1931Y120D02*
X1945Y120D01*
X1970Y120D02*
X1984Y120D01*
X2030Y120D02*
X2044Y120D01*
X2069Y120D02*
X2083Y120D01*
X131Y119D02*
X146Y119D01*
X169Y119D02*
X184Y119D01*
X231Y119D02*
X246Y119D01*
X269Y119D02*
X284Y119D01*
X331Y119D02*
X346Y119D01*
X369Y119D02*
X384Y119D01*
X431Y119D02*
X446Y119D01*
X469Y119D02*
X484Y119D01*
X531Y119D02*
X546Y119D01*
X569Y119D02*
X584Y119D01*
X631Y119D02*
X646Y119D01*
X669Y119D02*
X684Y119D01*
X731Y119D02*
X746Y119D01*
X769Y119D02*
X784Y119D01*
X831Y119D02*
X846Y119D01*
X869Y119D02*
X884Y119D01*
X931Y119D02*
X946Y119D01*
X969Y119D02*
X984Y119D01*
X1031Y119D02*
X1046Y119D01*
X1069Y119D02*
X1084Y119D01*
X1131Y119D02*
X1146Y119D01*
X1169Y119D02*
X1184Y119D01*
X1231Y119D02*
X1246Y119D01*
X1269Y119D02*
X1284Y119D01*
X1331Y119D02*
X1346Y119D01*
X1368Y119D02*
X1384Y119D01*
X1431Y119D02*
X1446Y119D01*
X1468Y119D02*
X1484Y119D01*
X1531Y119D02*
X1546Y119D01*
X1568Y119D02*
X1584Y119D01*
X1631Y119D02*
X1646Y119D01*
X1668Y119D02*
X1684Y119D01*
X1731Y119D02*
X1746Y119D01*
X1768Y119D02*
X1784Y119D01*
X1831Y119D02*
X1846Y119D01*
X1868Y119D02*
X1884Y119D01*
X1931Y119D02*
X1946Y119D01*
X1968Y119D02*
X1984Y119D01*
X2030Y119D02*
X2045Y119D01*
X2068Y119D02*
X2083Y119D01*
X131Y118D02*
X148Y118D01*
X167Y118D02*
X184Y118D01*
X231Y118D02*
X248Y118D01*
X267Y118D02*
X284Y118D01*
X331Y118D02*
X348Y118D01*
X367Y118D02*
X384Y118D01*
X431Y118D02*
X448Y118D01*
X467Y118D02*
X484Y118D01*
X531Y118D02*
X548Y118D01*
X567Y118D02*
X584Y118D01*
X631Y118D02*
X648Y118D01*
X667Y118D02*
X684Y118D01*
X731Y118D02*
X748Y118D01*
X767Y118D02*
X784Y118D01*
X831Y118D02*
X848Y118D01*
X867Y118D02*
X884Y118D01*
X931Y118D02*
X948Y118D01*
X967Y118D02*
X984Y118D01*
X1031Y118D02*
X1048Y118D01*
X1067Y118D02*
X1084Y118D01*
X1131Y118D02*
X1148Y118D01*
X1167Y118D02*
X1184Y118D01*
X1231Y118D02*
X1248Y118D01*
X1267Y118D02*
X1284Y118D01*
X1331Y118D02*
X1348Y118D01*
X1367Y118D02*
X1384Y118D01*
X1431Y118D02*
X1448Y118D01*
X1467Y118D02*
X1484Y118D01*
X1531Y118D02*
X1548Y118D01*
X1567Y118D02*
X1584Y118D01*
X1631Y118D02*
X1648Y118D01*
X1667Y118D02*
X1684Y118D01*
X1731Y118D02*
X1748Y118D01*
X1767Y118D02*
X1784Y118D01*
X1831Y118D02*
X1847Y118D01*
X1867Y118D02*
X1884Y118D01*
X1931Y118D02*
X1947Y118D01*
X1967Y118D02*
X1984Y118D01*
X2030Y118D02*
X2047Y118D01*
X2066Y118D02*
X2083Y118D01*
X131Y117D02*
X150Y117D01*
X165Y117D02*
X184Y117D01*
X231Y117D02*
X250Y117D01*
X265Y117D02*
X284Y117D01*
X331Y117D02*
X350Y117D01*
X365Y117D02*
X384Y117D01*
X431Y117D02*
X450Y117D01*
X465Y117D02*
X484Y117D01*
X531Y117D02*
X550Y117D01*
X565Y117D02*
X584Y117D01*
X631Y117D02*
X650Y117D01*
X665Y117D02*
X684Y117D01*
X731Y117D02*
X750Y117D01*
X765Y117D02*
X784Y117D01*
X831Y117D02*
X850Y117D01*
X865Y117D02*
X884Y117D01*
X931Y117D02*
X950Y117D01*
X965Y117D02*
X984Y117D01*
X1031Y117D02*
X1050Y117D01*
X1065Y117D02*
X1084Y117D01*
X1131Y117D02*
X1150Y117D01*
X1165Y117D02*
X1184Y117D01*
X1231Y117D02*
X1250Y117D01*
X1265Y117D02*
X1284Y117D01*
X1331Y117D02*
X1349Y117D01*
X1365Y117D02*
X1384Y117D01*
X1431Y117D02*
X1449Y117D01*
X1465Y117D02*
X1484Y117D01*
X1531Y117D02*
X1549Y117D01*
X1565Y117D02*
X1584Y117D01*
X1631Y117D02*
X1649Y117D01*
X1665Y117D02*
X1684Y117D01*
X1731Y117D02*
X1749Y117D01*
X1765Y117D02*
X1784Y117D01*
X1831Y117D02*
X1849Y117D01*
X1865Y117D02*
X1884Y117D01*
X1931Y117D02*
X1949Y117D01*
X1965Y117D02*
X1984Y117D01*
X2030Y117D02*
X2049Y117D01*
X2064Y117D02*
X2083Y117D01*
X131Y116D02*
X153Y116D01*
X162Y116D02*
X184Y116D01*
X231Y116D02*
X253Y116D01*
X262Y116D02*
X284Y116D01*
X331Y116D02*
X353Y116D01*
X362Y116D02*
X384Y116D01*
X431Y116D02*
X453Y116D01*
X462Y116D02*
X484Y116D01*
X531Y116D02*
X553Y116D01*
X562Y116D02*
X584Y116D01*
X631Y116D02*
X653Y116D01*
X662Y116D02*
X684Y116D01*
X731Y116D02*
X753Y116D01*
X762Y116D02*
X784Y116D01*
X831Y116D02*
X853Y116D01*
X862Y116D02*
X884Y116D01*
X931Y116D02*
X953Y116D01*
X962Y116D02*
X984Y116D01*
X1031Y116D02*
X1053Y116D01*
X1062Y116D02*
X1084Y116D01*
X1131Y116D02*
X1153Y116D01*
X1162Y116D02*
X1184Y116D01*
X1231Y116D02*
X1253Y116D01*
X1262Y116D02*
X1284Y116D01*
X1331Y116D02*
X1353Y116D01*
X1362Y116D02*
X1384Y116D01*
X1431Y116D02*
X1453Y116D01*
X1462Y116D02*
X1484Y116D01*
X1531Y116D02*
X1553Y116D01*
X1562Y116D02*
X1584Y116D01*
X1631Y116D02*
X1653Y116D01*
X1662Y116D02*
X1684Y116D01*
X1731Y116D02*
X1753Y116D01*
X1762Y116D02*
X1784Y116D01*
X1831Y116D02*
X1853Y116D01*
X1862Y116D02*
X1884Y116D01*
X1931Y116D02*
X1953Y116D01*
X1962Y116D02*
X1984Y116D01*
X2030Y116D02*
X2052Y116D01*
X2061Y116D02*
X2083Y116D01*
X131Y115D02*
X184Y115D01*
X231Y115D02*
X284Y115D01*
X331Y115D02*
X384Y115D01*
X431Y115D02*
X484Y115D01*
X531Y115D02*
X584Y115D01*
X631Y115D02*
X684Y115D01*
X731Y115D02*
X784Y115D01*
X831Y115D02*
X884Y115D01*
X931Y115D02*
X984Y115D01*
X1031Y115D02*
X1084Y115D01*
X1131Y115D02*
X1184Y115D01*
X1231Y115D02*
X1284Y115D01*
X1331Y115D02*
X1384Y115D01*
X1431Y115D02*
X1484Y115D01*
X1531Y115D02*
X1584Y115D01*
X1631Y115D02*
X1684Y115D01*
X1731Y115D02*
X1784Y115D01*
X1831Y115D02*
X1884Y115D01*
X1931Y115D02*
X1984Y115D01*
X2030Y115D02*
X2083Y115D01*
X131Y114D02*
X184Y114D01*
X231Y114D02*
X284Y114D01*
X331Y114D02*
X384Y114D01*
X431Y114D02*
X484Y114D01*
X531Y114D02*
X584Y114D01*
X631Y114D02*
X684Y114D01*
X731Y114D02*
X784Y114D01*
X831Y114D02*
X884Y114D01*
X931Y114D02*
X984Y114D01*
X1031Y114D02*
X1084Y114D01*
X1131Y114D02*
X1184Y114D01*
X1231Y114D02*
X1284Y114D01*
X1331Y114D02*
X1384Y114D01*
X1431Y114D02*
X1484Y114D01*
X1531Y114D02*
X1584Y114D01*
X1631Y114D02*
X1684Y114D01*
X1731Y114D02*
X1784Y114D01*
X1831Y114D02*
X1884Y114D01*
X1931Y114D02*
X1984Y114D01*
X2030Y114D02*
X2083Y114D01*
X131Y113D02*
X184Y113D01*
X231Y113D02*
X284Y113D01*
X331Y113D02*
X384Y113D01*
X431Y113D02*
X484Y113D01*
X531Y113D02*
X584Y113D01*
X631Y113D02*
X684Y113D01*
X731Y113D02*
X784Y113D01*
X831Y113D02*
X884Y113D01*
X931Y113D02*
X984Y113D01*
X1031Y113D02*
X1084Y113D01*
X1131Y113D02*
X1184Y113D01*
X1231Y113D02*
X1284Y113D01*
X1331Y113D02*
X1384Y113D01*
X1431Y113D02*
X1484Y113D01*
X1531Y113D02*
X1584Y113D01*
X1631Y113D02*
X1684Y113D01*
X1731Y113D02*
X1784Y113D01*
X1831Y113D02*
X1884Y113D01*
X1931Y113D02*
X1984Y113D01*
X2030Y113D02*
X2083Y113D01*
X131Y112D02*
X184Y112D01*
X231Y112D02*
X284Y112D01*
X331Y112D02*
X384Y112D01*
X431Y112D02*
X484Y112D01*
X531Y112D02*
X584Y112D01*
X631Y112D02*
X684Y112D01*
X731Y112D02*
X784Y112D01*
X831Y112D02*
X884Y112D01*
X931Y112D02*
X983Y112D01*
X1031Y112D02*
X1083Y112D01*
X1131Y112D02*
X1183Y112D01*
X1231Y112D02*
X1283Y112D01*
X1331Y112D02*
X1383Y112D01*
X1431Y112D02*
X1483Y112D01*
X1531Y112D02*
X1583Y112D01*
X1631Y112D02*
X1683Y112D01*
X1731Y112D02*
X1783Y112D01*
X1831Y112D02*
X1883Y112D01*
X1931Y112D02*
X1983Y112D01*
X2030Y112D02*
X2083Y112D01*
X131Y111D02*
X183Y111D01*
X231Y111D02*
X283Y111D01*
X331Y111D02*
X383Y111D01*
X431Y111D02*
X483Y111D01*
X531Y111D02*
X583Y111D01*
X631Y111D02*
X683Y111D01*
X731Y111D02*
X783Y111D01*
X831Y111D02*
X883Y111D01*
X931Y111D02*
X983Y111D01*
X1031Y111D02*
X1083Y111D01*
X1131Y111D02*
X1183Y111D01*
X1231Y111D02*
X1283Y111D01*
X1331Y111D02*
X1383Y111D01*
X1431Y111D02*
X1483Y111D01*
X1531Y111D02*
X1583Y111D01*
X1631Y111D02*
X1683Y111D01*
X1731Y111D02*
X1783Y111D01*
X1831Y111D02*
X1883Y111D01*
X1931Y111D02*
X1983Y111D01*
X2031Y111D02*
X2083Y111D01*
X131Y110D02*
X183Y110D01*
X231Y110D02*
X283Y110D01*
X331Y110D02*
X383Y110D01*
X431Y110D02*
X483Y110D01*
X531Y110D02*
X583Y110D01*
X631Y110D02*
X683Y110D01*
X731Y110D02*
X783Y110D01*
X831Y110D02*
X883Y110D01*
X931Y110D02*
X983Y110D01*
X1031Y110D02*
X1083Y110D01*
X1131Y110D02*
X1183Y110D01*
X1231Y110D02*
X1283Y110D01*
X1331Y110D02*
X1383Y110D01*
X1431Y110D02*
X1483Y110D01*
X1531Y110D02*
X1583Y110D01*
X1631Y110D02*
X1683Y110D01*
X1731Y110D02*
X1783Y110D01*
X1831Y110D02*
X1883Y110D01*
X1931Y110D02*
X1983Y110D01*
X2031Y110D02*
X2082Y110D01*
X132Y109D02*
X183Y109D01*
X232Y109D02*
X283Y109D01*
X332Y109D02*
X383Y109D01*
X432Y109D02*
X483Y109D01*
X532Y109D02*
X583Y109D01*
X632Y109D02*
X683Y109D01*
X732Y109D02*
X783Y109D01*
X832Y109D02*
X883Y109D01*
X932Y109D02*
X983Y109D01*
X1032Y109D02*
X1083Y109D01*
X1132Y109D02*
X1183Y109D01*
X1232Y109D02*
X1283Y109D01*
X1332Y109D02*
X1383Y109D01*
X1432Y109D02*
X1483Y109D01*
X1532Y109D02*
X1583Y109D01*
X1632Y109D02*
X1683Y109D01*
X1732Y109D02*
X1783Y109D01*
X1832Y109D02*
X1883Y109D01*
X1932Y109D02*
X1983Y109D01*
X2031Y109D02*
X2082Y109D01*
X132Y108D02*
X182Y108D01*
X232Y108D02*
X282Y108D01*
X332Y108D02*
X382Y108D01*
X432Y108D02*
X482Y108D01*
X532Y108D02*
X582Y108D01*
X632Y108D02*
X682Y108D01*
X732Y108D02*
X782Y108D01*
X832Y108D02*
X882Y108D01*
X932Y108D02*
X982Y108D01*
X1032Y108D02*
X1082Y108D01*
X1132Y108D02*
X1182Y108D01*
X1232Y108D02*
X1282Y108D01*
X1332Y108D02*
X1382Y108D01*
X1432Y108D02*
X1482Y108D01*
X1532Y108D02*
X1582Y108D01*
X1632Y108D02*
X1682Y108D01*
X1732Y108D02*
X1782Y108D01*
X1832Y108D02*
X1882Y108D01*
X1932Y108D02*
X1982Y108D01*
X2032Y108D02*
X2082Y108D01*
X133Y107D02*
X182Y107D01*
X233Y107D02*
X282Y107D01*
X333Y107D02*
X382Y107D01*
X433Y107D02*
X482Y107D01*
X533Y107D02*
X582Y107D01*
X633Y107D02*
X682Y107D01*
X733Y107D02*
X782Y107D01*
X833Y107D02*
X882Y107D01*
X933Y107D02*
X982Y107D01*
X1033Y107D02*
X1082Y107D01*
X1133Y107D02*
X1182Y107D01*
X1233Y107D02*
X1282Y107D01*
X1333Y107D02*
X1382Y107D01*
X1433Y107D02*
X1482Y107D01*
X1533Y107D02*
X1582Y107D01*
X1633Y107D02*
X1682Y107D01*
X1733Y107D02*
X1782Y107D01*
X1833Y107D02*
X1882Y107D01*
X1933Y107D02*
X1982Y107D01*
X2032Y107D02*
X2081Y107D01*
X133Y106D02*
X181Y106D01*
X233Y106D02*
X281Y106D01*
X333Y106D02*
X381Y106D01*
X433Y106D02*
X481Y106D01*
X533Y106D02*
X581Y106D01*
X633Y106D02*
X681Y106D01*
X733Y106D02*
X781Y106D01*
X833Y106D02*
X881Y106D01*
X933Y106D02*
X981Y106D01*
X1033Y106D02*
X1081Y106D01*
X1133Y106D02*
X1181Y106D01*
X1233Y106D02*
X1281Y106D01*
X1333Y106D02*
X1381Y106D01*
X1433Y106D02*
X1481Y106D01*
X1533Y106D02*
X1581Y106D01*
X1633Y106D02*
X1681Y106D01*
X1733Y106D02*
X1781Y106D01*
X1833Y106D02*
X1881Y106D01*
X1933Y106D02*
X1981Y106D01*
X2033Y106D02*
X2081Y106D01*
X134Y105D02*
X180Y105D01*
X234Y105D02*
X280Y105D01*
X334Y105D02*
X380Y105D01*
X434Y105D02*
X480Y105D01*
X534Y105D02*
X580Y105D01*
X634Y105D02*
X680Y105D01*
X734Y105D02*
X780Y105D01*
X834Y105D02*
X880Y105D01*
X934Y105D02*
X980Y105D01*
X1034Y105D02*
X1080Y105D01*
X1134Y105D02*
X1180Y105D01*
X1234Y105D02*
X1280Y105D01*
X1334Y105D02*
X1380Y105D01*
X1434Y105D02*
X1480Y105D01*
X1534Y105D02*
X1580Y105D01*
X1634Y105D02*
X1680Y105D01*
X1734Y105D02*
X1780Y105D01*
X1834Y105D02*
X1880Y105D01*
X1934Y105D02*
X1980Y105D01*
X2034Y105D02*
X2080Y105D01*
X135Y104D02*
X180Y104D01*
X235Y104D02*
X280Y104D01*
X335Y104D02*
X380Y104D01*
X435Y104D02*
X480Y104D01*
X535Y104D02*
X580Y104D01*
X635Y104D02*
X680Y104D01*
X735Y104D02*
X780Y104D01*
X835Y104D02*
X880Y104D01*
X935Y104D02*
X980Y104D01*
X1035Y104D02*
X1080Y104D01*
X1135Y104D02*
X1180Y104D01*
X1235Y104D02*
X1280Y104D01*
X1335Y104D02*
X1380Y104D01*
X1435Y104D02*
X1480Y104D01*
X1535Y104D02*
X1580Y104D01*
X1635Y104D02*
X1680Y104D01*
X1735Y104D02*
X1780Y104D01*
X1835Y104D02*
X1880Y104D01*
X1935Y104D02*
X1979Y104D01*
X2034Y104D02*
X2079Y104D01*
X136Y103D02*
X179Y103D01*
X236Y103D02*
X279Y103D01*
X336Y103D02*
X379Y103D01*
X436Y103D02*
X479Y103D01*
X536Y103D02*
X579Y103D01*
X636Y103D02*
X679Y103D01*
X736Y103D02*
X779Y103D01*
X836Y103D02*
X879Y103D01*
X936Y103D02*
X979Y103D01*
X1036Y103D02*
X1079Y103D01*
X1136Y103D02*
X1179Y103D01*
X1236Y103D02*
X1279Y103D01*
X1336Y103D02*
X1379Y103D01*
X1436Y103D02*
X1479Y103D01*
X1536Y103D02*
X1579Y103D01*
X1636Y103D02*
X1679Y103D01*
X1736Y103D02*
X1779Y103D01*
X1836Y103D02*
X1879Y103D01*
X1936Y103D02*
X1979Y103D01*
X2035Y103D02*
X2078Y103D01*
X137Y102D02*
X178Y102D01*
X237Y102D02*
X278Y102D01*
X337Y102D02*
X378Y102D01*
X437Y102D02*
X478Y102D01*
X537Y102D02*
X578Y102D01*
X637Y102D02*
X678Y102D01*
X737Y102D02*
X778Y102D01*
X837Y102D02*
X878Y102D01*
X937Y102D02*
X978Y102D01*
X1037Y102D02*
X1078Y102D01*
X1137Y102D02*
X1178Y102D01*
X1237Y102D02*
X1278Y102D01*
X1337Y102D02*
X1378Y102D01*
X1437Y102D02*
X1478Y102D01*
X1537Y102D02*
X1578Y102D01*
X1637Y102D02*
X1678Y102D01*
X1737Y102D02*
X1778Y102D01*
X1837Y102D02*
X1878Y102D01*
X1937Y102D02*
X1978Y102D01*
X2036Y102D02*
X2077Y102D01*
X138Y101D02*
X177Y101D01*
X238Y101D02*
X277Y101D01*
X338Y101D02*
X377Y101D01*
X438Y101D02*
X477Y101D01*
X538Y101D02*
X577Y101D01*
X638Y101D02*
X677Y101D01*
X738Y101D02*
X777Y101D01*
X838Y101D02*
X877Y101D01*
X938Y101D02*
X977Y101D01*
X1038Y101D02*
X1076Y101D01*
X1138Y101D02*
X1176Y101D01*
X1238Y101D02*
X1276Y101D01*
X1338Y101D02*
X1376Y101D01*
X1438Y101D02*
X1476Y101D01*
X1538Y101D02*
X1576Y101D01*
X1638Y101D02*
X1676Y101D01*
X1738Y101D02*
X1776Y101D01*
X1838Y101D02*
X1876Y101D01*
X1938Y101D02*
X1976Y101D01*
X2037Y101D02*
X2076Y101D01*
X139Y100D02*
X175Y100D01*
X239Y100D02*
X275Y100D01*
X339Y100D02*
X375Y100D01*
X439Y100D02*
X475Y100D01*
X539Y100D02*
X575Y100D01*
X639Y100D02*
X675Y100D01*
X739Y100D02*
X775Y100D01*
X839Y100D02*
X875Y100D01*
X939Y100D02*
X975Y100D01*
X1039Y100D02*
X1075Y100D01*
X1139Y100D02*
X1175Y100D01*
X1239Y100D02*
X1275Y100D01*
X1339Y100D02*
X1375Y100D01*
X1439Y100D02*
X1475Y100D01*
X1539Y100D02*
X1575Y100D01*
X1639Y100D02*
X1675Y100D01*
X1739Y100D02*
X1775Y100D01*
X1839Y100D02*
X1875Y100D01*
X1939Y100D02*
X1975Y100D01*
X2039Y100D02*
X2075Y100D01*
X141Y99D02*
X174Y99D01*
X241Y99D02*
X274Y99D01*
X341Y99D02*
X374Y99D01*
X441Y99D02*
X474Y99D01*
X541Y99D02*
X574Y99D01*
X641Y99D02*
X674Y99D01*
X741Y99D02*
X774Y99D01*
X841Y99D02*
X874Y99D01*
X941Y99D02*
X974Y99D01*
X1041Y99D02*
X1074Y99D01*
X1141Y99D02*
X1174Y99D01*
X1241Y99D02*
X1274Y99D01*
X1341Y99D02*
X1374Y99D01*
X1441Y99D02*
X1474Y99D01*
X1541Y99D02*
X1574Y99D01*
X1641Y99D02*
X1674Y99D01*
X1741Y99D02*
X1774Y99D01*
X1841Y99D02*
X1874Y99D01*
X1941Y99D02*
X1974Y99D01*
X2040Y99D02*
X2073Y99D01*
X143Y98D02*
X172Y98D01*
X243Y98D02*
X272Y98D01*
X343Y98D02*
X372Y98D01*
X443Y98D02*
X472Y98D01*
X543Y98D02*
X572Y98D01*
X643Y98D02*
X672Y98D01*
X743Y98D02*
X772Y98D01*
X843Y98D02*
X872Y98D01*
X943Y98D02*
X972Y98D01*
X1042Y98D02*
X1072Y98D01*
X1142Y98D02*
X1172Y98D01*
X1242Y98D02*
X1272Y98D01*
X1342Y98D02*
X1372Y98D01*
X1442Y98D02*
X1472Y98D01*
X1542Y98D02*
X1572Y98D01*
X1642Y98D02*
X1672Y98D01*
X1742Y98D02*
X1772Y98D01*
X1842Y98D02*
X1872Y98D01*
X1942Y98D02*
X1972Y98D01*
X2042Y98D02*
X2071Y98D01*
X145Y97D02*
X170Y97D01*
X245Y97D02*
X270Y97D01*
X345Y97D02*
X370Y97D01*
X445Y97D02*
X470Y97D01*
X545Y97D02*
X570Y97D01*
X645Y97D02*
X670Y97D01*
X745Y97D02*
X770Y97D01*
X845Y97D02*
X870Y97D01*
X945Y97D02*
X970Y97D01*
X1045Y97D02*
X1070Y97D01*
X1145Y97D02*
X1170Y97D01*
X1245Y97D02*
X1270Y97D01*
X1345Y97D02*
X1369Y97D01*
X1445Y97D02*
X1469Y97D01*
X1545Y97D02*
X1569Y97D01*
X1645Y97D02*
X1669Y97D01*
X1745Y97D02*
X1769Y97D01*
X1845Y97D02*
X1869Y97D01*
X1945Y97D02*
X1969Y97D01*
X2044Y97D02*
X2069Y97D01*
X148Y96D02*
X167Y96D01*
X248Y96D02*
X267Y96D01*
X348Y96D02*
X367Y96D01*
X448Y96D02*
X467Y96D01*
X548Y96D02*
X567Y96D01*
X648Y96D02*
X667Y96D01*
X748Y96D02*
X767Y96D01*
X848Y96D02*
X867Y96D01*
X948Y96D02*
X967Y96D01*
X1048Y96D02*
X1067Y96D01*
X1148Y96D02*
X1167Y96D01*
X1248Y96D02*
X1267Y96D01*
X1348Y96D02*
X1367Y96D01*
X1448Y96D02*
X1467Y96D01*
X1547Y96D02*
X1567Y96D01*
X1647Y96D02*
X1667Y96D01*
X1747Y96D02*
X1767Y96D01*
X1847Y96D02*
X1867Y96D01*
X1947Y96D02*
X1967Y96D01*
X2047Y96D02*
X2066Y96D01*
X152Y95D02*
X163Y95D01*
X252Y95D02*
X263Y95D01*
X352Y95D02*
X363Y95D01*
X452Y95D02*
X463Y95D01*
X552Y95D02*
X563Y95D01*
X652Y95D02*
X663Y95D01*
X752Y95D02*
X762Y95D01*
X852Y95D02*
X862Y95D01*
X952Y95D02*
X962Y95D01*
X1052Y95D02*
X1062Y95D01*
X1152Y95D02*
X1162Y95D01*
X1252Y95D02*
X1262Y95D01*
X1352Y95D02*
X1362Y95D01*
X1452Y95D02*
X1462Y95D01*
X1552Y95D02*
X1562Y95D01*
X1652Y95D02*
X1662Y95D01*
X1752Y95D02*
X1762Y95D01*
X1852Y95D02*
X1862Y95D01*
X1952Y95D02*
X1962Y95D01*
X2051Y95D02*
X2062Y95D01*
D02*
G04 End of Copper0*
M02*