; NON-PLATED HOLES START AT T1
; THROUGH (PLATED) HOLES START AT T100
M48
INCH
T100C0.038522
T101C0.040354
T102C0.039370
T103C0.038000
T104C0.015748
%
T100
X015586Y005331
X015582Y009335
X015586Y006331
X011582Y008331
X011581Y007331
X015586Y007331
X015586Y008331
X011582Y004331
X011577Y009335
X015586Y004331
X011582Y006331
X011581Y005331
T101
X004077Y006415
X004077Y007415
T102
X002577Y004335
X001577Y005335
X002577Y005335
X003577Y004335
X004577Y004335
X003577Y005335
X004577Y005335
X005577Y004335
X006577Y004335
X005577Y005335
X006577Y005335
X001577Y004335
T103
X001577Y001330
X003577Y001330
X005577Y001330
X010577Y005335
X007577Y008335
X002577Y001330
X004577Y001330
X006577Y001330
X008577Y001330
X017577Y005335
X020573Y002335
X007577Y001330
X009577Y001330
X008577Y006335
X010577Y008335
X011577Y001330
X013577Y001330
X015577Y001330
X020577Y005335
X017577Y008335
X010577Y001330
X012577Y001330
X014577Y001330
X016577Y001330
X018577Y001330
X017577Y001330
X019577Y001330
X010577Y006335
X007577Y009335
X001577Y002335
X003577Y002335
X005577Y002335
X002577Y002335
X004577Y002335
X006577Y002335
X008577Y002335
X001577Y007335
X007577Y002335
X009577Y002335
X010577Y004335
X007577Y007335
X020573Y001330
X017577Y004335
X010577Y009335
X017577Y009335
X011577Y002335
X013577Y002335
X015577Y002335
X008577Y005335
X010577Y002335
X012577Y002335
X014577Y002335
X016577Y002335
X018577Y002335
X017577Y002335
X019577Y002335
X010577Y007335
X020577Y004335
X017577Y007335
X001577Y008335
T104
X002520Y006749
X009000Y008909
X006120Y006749
X013080Y000509
X008520Y004349
T00
M30
